<?xml version="1.0" standalone="no"?>
<!DOCTYPE svg PUBLIC "-//W3C//DTD SVG 1.1//EN" "http://www.w3.org/Graphics/SVG/1.1/DTD/svg11.dtd" >
<svg>
<metadata>
Created by FontForge 20090914 at Wed Aug 15 06:19:38 2012
 By www-data
Copyright (c) 2010 by . All rights reserved.
</metadata>
<defs>
<font id="BostonTraffic" horiz-adv-x="634" >
  <font-face 
    font-family="Boston Traffic"
    font-weight="400"
    font-stretch="normal"
    units-per-em="2048"
    panose-1="2 0 0 0 0 0 0 0 0 0"
    ascent="1638"
    descent="-410"
    x-height="1804"
    cap-height="1816"
    bbox="-16 -510 3190 2265"
    underline-thickness="48"
    underline-position="-140"
    unicode-range="U+0020-U+FB04"
  />
<missing-glyph horiz-adv-x="499" 
d="M63 0v1280h1024v-1280h-1024zM94 33h961v1214h-961v-1214z" />
    <glyph glyph-name=".notdef" horiz-adv-x="499" 
d="M63 0v1280h1024v-1280h-1024zM94 33h961v1214h-961v-1214z" />
    <glyph glyph-name="space" unicode=" " horiz-adv-x="389" 
 />
    <glyph glyph-name="exclam" unicode="!" horiz-adv-x="389" 
d="M279 317h-168l-29 519v598h225v-598zM86 217h217v-217h-217v217z" />
    <glyph glyph-name="quotedbl" unicode="&#x22;" horiz-adv-x="665" 
d="M113 1012l-31 422h217l-33 -422h-153zM397 1012l-30 422h217l-33 -422h-154z" />
    <glyph glyph-name="numbersign" unicode="#" 
 />
    <glyph glyph-name="dollar" unicode="$" 
 />
    <glyph glyph-name="percent" unicode="%" 
 />
    <glyph glyph-name="ampersand" unicode="&#x26;" horiz-adv-x="485" 
 />
    <glyph glyph-name="quotesingle" unicode="'" horiz-adv-x="167" 
 />
    <glyph glyph-name="parenleft" unicode="(" horiz-adv-x="514" 
d="M412 1434l69 -0.00195312v-185h-55c-36.667 0 -63.167 -9.16699 -79.5 -27.5s-24.5 -52.166 -24.5 -101.499v-807c0 -49.333 8.16699 -83.166 24.5 -101.499s42.833 -27.5 79.5 -27.5h55v-184h-69c-113.333 -0 -194.333 23.833 -243 71.5s-73 128.167 -73 241.5v807
c0 113.333 24.333 194 73 242s129.667 72 243 72z" />
    <glyph glyph-name="parenright" unicode=")" horiz-adv-x="514" 
d="M33 1434h69c113.333 0 194.333 -24 243 -72s73 -128.667 73 -242v-807c0 -113.333 -24.333 -193.833 -73 -241.5s-129.667 -71.5 -243 -71.5h-69v184h55c36.667 0 63.334 9.33301 80.001 28s25 52.334 25 101.001v807c0 49.333 -8.33301 83.166 -25 101.499
s-43.334 27.5 -80.001 27.5h-55v185z" />
    <glyph glyph-name="asterisk" unicode="*" horiz-adv-x="491" 
 />
    <glyph glyph-name="plus" unicode="+" 
 />
    <glyph glyph-name="comma" unicode="," horiz-adv-x="380" 
d="M168 0h-86v217h217v-194l-98 -228h-92z" />
    <glyph glyph-name="hyphen" unicode="-" horiz-adv-x="530" 
d="M66 811c-10.667 57.333 -8 128.333 8 213l-8 35l8 24l170 -8h26l68 8l24 -8l19 -170v-69v-25l-43 -8h-111h-26h-25h-26l-60 8h-24v0z" />
    <glyph glyph-name="period" unicode="." horiz-adv-x="520" 
d="M47 145c27.333 76.667 84.667 125.334 172 146.001h17h-17h17c126.667 -86.667 149 -177.667 67 -273c-130 -72.667 -215.333 -30.334 -256 126.999z" />
    <glyph glyph-name="slash" unicode="/" horiz-adv-x="999" 
d="M-16 1802h505l-503 -1550zM403 -2l584 1804h37v-1456l-115 -348h-506z" />
    <glyph glyph-name="zero" unicode="0" horiz-adv-x="1177" 
d="M61 854c-24.667 -552.667 112.668 -841.333 412.001 -866v69v170v43c-87.333 124 -116 264 -86 420v35v43v51v43v27v43v24v35v35v35v86v24v25v27v69c-1.33301 50.667 2 96.667 10 138c22 36.667 47.333 61.667 76 75v70v67v173h-35
c-128.667 -42 -228.334 -110.333 -299.001 -205l-35 -137l-16 -87v-43l-8 -24c-2.66699 -76.667 -2.66699 -128.667 0 -156l-19 -69v-240zM602.002 254.001c5.33301 -6.66699 7.99902 -15.668 7.99902 -27.001c-8 -82 -1.66699 -158.333 19 -229
c117.333 18 217 65.667 299 143c18 62.667 41 117.334 69 164.001v35l9 25v34v27l8 35c-1.33301 28.667 1.33398 57.334 8.00098 86.001v67l8 17v69v170v35v35v35v35v32v35v27v33c-9.33301 31.333 -12 60 -8 86c-10.667 50.667 -16 99 -16 145
c-12 57.333 -18.333 106.666 -19 147.999c-12 31.333 -17.333 56.333 -16 75c-82 121.333 -185 193 -309 215l-33 -34v-267c34 -31.333 65.333 -56.333 94 -75v-35v-113c5.33301 -56 5.33301 -104.333 0 -145c0 -30 -2.66699 -52.667 -8 -68l8 -59l-27 -43l27 -19v-411
l-8 -68c4 -22 4 -42.333 0 -61l-27 -52c-42 -28.667 -70.667 -62.667 -86 -102z" />
    <glyph glyph-name="one" unicode="1" horiz-adv-x="655" 
d="M37 1686c-8 -100 -2.66699 -184.001 16 -252.001c94 32.667 144 36 150 10v-131c-4 -54.667 -1.33301 -104 8 -148c-8 -46.667 -8 -87 0 -121l-8 -43c-4 -54.667 -1.33301 -103.667 8 -147l-8 -43v-590c1.33301 -56 -2 -104.333 -10 -145c4 -31.333 4 -57.333 0 -78h26
c30 -6.66699 53.333 -10 70 -10c57.333 -6.66699 109 5 155 35c16.667 4 31 4 43 0l-10 61c-1.33301 44 2 84.333 10 121l-10 24l10 27v27v59v37l-10 16c10.667 57.333 14 104 10 140v24v70v26c4 61.333 0.666992 113.333 -10 156c2.66699 15.333 2.66699 27 0 35v24v35
l10 35v27v268v94v43v115v35v145v27v104c-10.667 6.66699 -16.667 12.334 -18 17.001h-145h-27h-104c-48 -60 -100 -103 -156 -129z" />
    <glyph glyph-name="two" unicode="2" horiz-adv-x="1183" 
d="M74 1419l8 -23.999l24 -9h25l19 -18l24 -8l27 -8l14 -9l27 -8l110 -43c12 26 25.667 46 41 60c8 78 47.667 131 119 159l8 27v25v24c-8 19.333 -10.667 42.666 -8 69.999v24v111l-51 33c-229.333 -54.667 -358.333 -190 -387 -406zM82 8.00098l57 -8l27 8l24 -8
c88.667 8 162.667 8 222 0h57h43h86h33h92h35l24 -8c74 12 136.333 14.667 187 8c1.33301 10.667 6.66602 16 15.999 16v27v33v26l8 168c-10.667 39.333 -35.667 62 -75 68l-33 -16c-60 -2.66699 -108.667 0 -146 8c-27.333 -8 -49 -10.667 -65 -8h-35l-35 8
c-38 -8 -71.333 -8 -100 0c-64 -8 -120 -5.33301 -168 8l-10 -16l-25 8c-79.333 -8 -149.666 -5.33301 -210.999 8c-43.333 -123.333 -46 -233.333 -8 -330zM106 440.001l33.002 -16.002h27l16 6h51h33c8 -2.66699 17 -2.66699 27 0c49.333 -12 89 -17.333 119 -16l41 102
l135 135l24 17l27 24l25 27l18 16l25 27c15.333 12 37.666 28.333 66.999 49l17 27l18 16l25 16l16 17l24 16c24.667 48 53.667 85 87 111c144.667 378 45.667 640 -297 786h-25c-42 -155.333 -14 -287.666 84 -396.999c9.33301 -75.333 6.66602 -145.666 -8.00098 -210.999
l-17 -16c-10.667 -32.667 -25 -67 -43 -103l-32 -49c-66.667 -65.333 -131.667 -107.666 -195 -126.999c-31.333 -40.667 -65.333 -66.667 -102 -78v-24l-60 -52c-12 -16.667 -25.667 -30.334 -41 -41.001c-31.333 -68 -71 -121.667 -119 -161
c-1.33301 -41.333 -1.33301 -75 0 -101z" />
    <glyph glyph-name="three" unicode="3" horiz-adv-x="1167" 
d="M90 496c38.667 4 79 18.334 121 43.001h25l18 16l51 -6c18 -98 72.667 -186.667 164 -266v-19c-13.333 -58.667 -13.333 -121.334 0 -188.001c-8 -28.667 -20.333 -60 -37 -94l-135 43c-182.667 88.667 -268.667 234.667 -258 438zM39 1421
c31.333 195.333 148.667 329.999 352 403.999c34.667 1.33301 69 -9.66699 103 -33c-14.667 -49.333 -14.667 -106.666 0 -171.999c-12.667 -31.333 -19 -69 -19 -113c-83.333 -36.667 -137.333 -107.667 -162 -213c-51.333 0.666992 -102.333 18 -153 52
c-32.667 18.667 -64 41 -94 67zM485.001 1087c84.667 2 150.333 45.333 197 130c-2 36.667 -2 79.667 0 129v51c-12 44.667 -43.333 78.667 -94 102c-3.33301 28.667 -9 54.667 -17 78c15.333 62.667 18.333 131 9 205l32 43c332 -126.667 446.667 -383.334 344 -770.001
c-33.333 -23.333 -73.333 -63.666 -120 -120.999c15.333 -34.667 44 -69 86 -103c0.666992 -18.667 12 -39 34 -61c113.333 -471.333 -18.334 -725.333 -395.001 -762c-1.33301 26.667 -1.33301 61 0 103v172c19.333 26.667 48 51.667 86 75
c84.667 266 30.667 409.333 -162 430c-9.33301 30.667 -14.666 65 -15.999 103z" />
    <glyph glyph-name="four" unicode="4" horiz-adv-x="1234" 
d="M55 418c8 -5.33301 13.666 -11.667 16.999 -19h86h24h27h24h62c75.333 8 137.333 8 186 0l33 19v35l10 24l-10 189l-41 24c-46.667 -6.66699 -87 -4 -121 8l27 27l8 16l19 27l16 6c30 57.333 60.667 106 92 146v34c2.66699 22 8.66699 39.333 18 52l-18 24v51l10 27v43
v25v34v27l8 170l-43 25l-24 -35l-8 -51l-27 -25l-16 -43l-35 -35l-17 -43l-26 -41l-17 -43c-31.333 -42 -53.666 -81.667 -66.999 -119l-27 -34c-10.667 -30 -27.667 -55.333 -51 -76c-45.333 -96.667 -85 -167.667 -119 -213v-70c-4 -74.667 -4 -136.667 0 -186z
M617.999 1542c19.333 -62.667 24.999 -119.332 16.999 -169.999v-59l8 -27l-8 -24c9.33301 -50.667 12 -90.334 8 -119.001v-205v-154l-8 -34v-553c-4 -72.667 1.33301 -135.667 16 -189l19 -8h32h25h35h153l19 27v32v35v33v145v27v100c38 12 71.333 18.333 100 19
c-1.33301 53.333 5 101 19 143c1.33301 48 -8 81.833 -28 101.5s-50.333 26.167 -91 19.5v59v27v33v26v41v27v35v24v170v35v35v25v153v111v35v145v25v102c-10.667 6.66699 -17 12 -19 16h-24l-170 9c-5.33301 -5.33301 -11.666 -8.33301 -18.999 -9
c-8 -48 -30.333 -76.667 -67 -86l-8 -32v-43l-9 -25c8 -27.333 8 -53.333 0 -78z" />
    <glyph glyph-name="five" unicode="5" horiz-adv-x="1200" 
d="M47 434c20.667 -206 116.333 -350 287 -432c96 -52 144.333 -3.33301 145 146c0 37.333 -2.66699 81 -8 131c-84.667 60 -125 135 -121 225l-26 43h-9h9h-17h8h-16h8h-8l-35 -19zM65.999 1022l7.99707 -35.001l16 -8l19 -18c92.667 -53.333 164.334 -111 215.001 -173h26
c36.667 38 77 64 121 78l8 62c-13.333 66.667 -10 129.334 10 188.001l-26 62l-27 -9c-14.667 -10 -29 -16 -43 -18v70v24l19 62v26c19.333 49.333 27.333 98 24 146l27 18h51l35 8h43l35 -8l35 8l34 -8l27 8l25 -8c82 12 148 14.667 198 8
c24.667 113.333 27.334 214.333 8.00098 303l-86 17c-15.333 -5.33301 -29.666 -8 -42.999 -8h-43h-268h-121h-24l-27 -9l-27 9c-83.333 -9.33301 -144 -12.333 -182 -9v-61l10 -16c-10.667 -34 -14 -69 -10 -105l-16 -35l-17 -188l-10 -37v-59l-16 -121v-27z
M574.996 873.999l104.999 -94v-26c10.667 -48 12.667 -94 6 -138c8 -6.66699 11.333 -12.667 10 -18v-137c-10.667 -39.333 -16 -79.666 -16 -120.999c-45.333 -23.333 -77.333 -55.333 -96 -96l8 -17v-59c-5.33301 -56 -8 -108.667 -8 -158
c272.667 -18.667 414 157.666 424 528.999c22.667 346 -110.666 559 -399.999 639l-24 -62v-67z" />
    <glyph glyph-name="six" unicode="6" horiz-adv-x="1177" 
d="M86 831c-24.667 -517.333 107.667 -794.333 397 -831l9 27v24v27c6.66699 88.667 6.66699 161 0 217c-74 39.333 -117.333 96.666 -130 171.999c-32.667 178.667 7.66602 294 120.999 346l9 18l10 78c8 80.667 -1 149.667 -27 207c-45.333 -32.667 -80 -32.667 -104 0v27
v26c9.33301 86 12 157.667 8 215c26.667 80 61.334 143.667 104.001 191v27l9 18v68l-9 139l-43 8c-5.33301 -9.33301 -10.666 -14.666 -15.999 -15.999c-75.333 -24.667 -136 -59.667 -182 -105l-11 -26l-8 -17l-16 -8l-8 -18l-11 -19l-51 -102v-27l-16 -70v-24l-27 -131
v-113c-24.667 -124.667 -27.334 -234 -8.00098 -328zM604.001 35c15.333 -12 26.999 -23.666 34.999 -34.999c250 90 371.667 260.667 365 512c32.667 303.333 -83.666 502 -348.999 596l-32 -8v-62l-19 -96c16.667 -30 23 -61.333 19 -94
c95.333 -80.667 135.333 -181.667 120 -303c8 -126.667 -38.333 -216.334 -139 -269.001v-241zM623 1593c94 -64 154.668 -147.999 182.001 -251.999c60 35.333 117.333 58.666 172 69.999c56 191.333 -51.333 330 -322 416c-36.667 -79.333 -47.334 -157.333 -32.001 -234z
" />
    <glyph glyph-name="seven" unicode="7" horiz-adv-x="1148" 
d="M47 1755l9.99609 -33.001c-4 -80.667 -1 -146.667 9 -198l34 -8c18 5.33301 38 8 60 8l43 -8c48 2.66699 82 5.33398 102 8.00098h27l26 -8l68 8c53.333 -4 99 -4 137 0l53 -8c-15.333 -46.667 -18.666 -87 -9.99902 -121l53 -19c18 8 32.333 11.333 43 10
c26.667 8 49.334 8 68.001 0h51c28.667 8 54.667 11 78 9c16.667 38 37.334 75.333 62.001 112v25c2.66699 117.333 -3.66602 215 -18.999 293h-43h-43l-43 -8h-111l-18 8c-47.333 -6 -90.333 -6 -129 0h-25h-26h-27c-58.667 -12 -109.667 -12 -153 0
c-92 -24.667 -178 -24.667 -258 0l-9 -17v-34zM237.996 7.99902l24 -7.99902l43 8l19 -8h24c64 -5.33301 118.667 -5.33301 164 0l43 43v27v102l27 156v24l8 35l8 70c1.33301 24.667 7.33301 53.334 18 86.001c18 95.333 38 172.333 60 231v27l8 35l18 24
c2.66699 42 11 79.667 25 113c5.33301 60 22.333 111.667 51 155c5.33301 40.667 17 75 35 103l-16 43c-38 5.33301 -73 8 -105 8c-57.333 -16.667 -111.333 -19.334 -162 -8.00098c-10.667 -18 -22 -29.667 -34 -35c-5.33301 -70.667 -22.666 -133.334 -51.999 -188.001
l-10 -43l-8 -35l-25 -121l-10 -35c-13.333 -30 -24.333 -61.333 -33 -94v-35c-16.667 -53.333 -25.334 -93.666 -26.001 -120.999c-19.333 -53.333 -30.333 -107 -33 -161l-18 -70c-2.66699 -54.667 -11.667 -100.334 -27 -137.001c0 -46.667 -2.66699 -81.667 -8 -105
c-8 -30 -10.667 -58.667 -8 -86z" />
    <glyph glyph-name="eight" unicode="8" horiz-adv-x="1222" 
d="M344 920l26.999 16c-196.667 225.333 -211 482 -43 770l180 92h24l19 27c20.667 -8 46 -22.333 76 -43c-5.33301 -30 -5.33301 -61.333 0 -94c-4 -29.333 -4 -63.666 0 -102.999l-17 -92l-59 -51c-6.66699 -31.333 -6.66699 -69 0 -113l-8 -43l8 -51v-102
c18 -24.667 43.333 -44.667 76 -60l26 -59c-15.333 -44 -15.333 -92.667 0 -146v-51c-5.33301 -10 -8.66602 -21.667 -9.99902 -35c-35.333 -16.667 -72.333 -45.334 -111 -86.001c0 -36.667 -5.33301 -79 -16 -127c0 -61.333 5.33301 -126.666 16 -195.999
c100 -100 122.667 -223 68 -369c-370 53.333 -492.333 312.666 -367 777.999zM712.999 14c20.667 74 23.332 162.337 7.99902 265.004c64 47.333 104.333 112.666 121 195.999c24.667 117.333 -6.66602 219.666 -93.999 306.999c0.666992 32 -5.66602 78 -18.999 138l8 24
l-8 27l8 51l11 59c88 75.333 115.667 192.333 83 351c-12 32.667 -37 55 -75 67c-4.66699 17.333 -13.667 35 -27 53c10.667 48 10.667 104.667 0 170v52c20.667 20.667 35 37.667 43 51c325.333 -114.667 436.666 -368 333.999 -760c-20.667 -16.667 -35 -40 -43 -70
c-36.667 -20.667 -62.667 -52 -78 -94c264.667 -276.667 256.667 -561.334 -24 -854.001c-23.333 -2.66699 -46 -13.667 -68 -33c-27.333 -0.666992 -56 -9.33398 -86 -26.001c-26 -2.66699 -49.333 9 -70 35z" />
    <glyph glyph-name="nine" unicode="9" horiz-adv-x="1118" 
d="M68 307c68 -134 161.331 -222 279.998 -264c54.667 -26 92.334 -22 113.001 12s23.334 98.333 8.00098 193l-35 16c-72.667 61.333 -126.667 132.333 -162 213h-43c-53.333 -48 -107 -82 -161 -102v-68zM67.998 1161c16.667 -259.333 144.997 -407.332 384.997 -443.999
c20.667 104 23.334 192 8.00098 264c-65.333 42 -108.333 96.667 -129 164v143v27v102c34 57.333 74.333 106 121 146v32l8 19c-9.33301 23.333 -12 45.666 -8 66.999v25v113l-70 16c-18 -8 -37.667 -13.333 -59 -16c-23.333 -23.333 -48.666 -37.666 -75.999 -42.999
c-1.33301 -13.333 -4.66602 -25 -9.99902 -35c-35.333 -32.667 -63.333 -55.334 -84 -68.001c-79.333 -176 -108 -346.667 -86 -512zM544.995 68.001l26 -59.999c122.667 38 219 97.333 289 178c20.667 64 44 116 70 156c0 45.333 5.33301 82.333 16 111v43v32l8 35v27v41
c12 113.333 15.667 202 11 266v68v24v27v24v105l-11 49v27l-8 24v103l-16 18l-8 102c-10.667 27.333 -17 50 -19 68c-18 28.667 -29 57.334 -33 86.001c-83.333 108 -180 176.333 -290 205l-25 -27c12 -26 8.66699 -51.333 -10 -76c16.667 -57.333 16.667 -108.333 0 -153
c20.667 -13.333 29.334 -30.333 26.001 -51c100 -62.667 139.667 -154.334 119 -275.001c8 -106.667 -31.667 -180.334 -119 -221.001c-6.66699 -48 -10 -85 -10 -111c10.667 -39.333 10.667 -73.333 0 -102l10 -51c8 -8 13.667 -19.667 17 -35
c34 16.667 65.333 25.667 94 27c34 -225.333 -8.33301 -393.333 -127 -504l16 -27c-0.666992 -62.667 -9.33398 -113.667 -26.001 -153z" />
    <glyph glyph-name="colon" unicode=":" horiz-adv-x="380" 
d="M82 217h217v-217h-217v217zM82 997h217v-217h-217v217z" />
    <glyph glyph-name="semicolon" unicode=";" horiz-adv-x="380" 
d="M168 0h-86v217h217v-194l-98 -228h-92zM82 997h217v-217h-217v217z" />
    <glyph glyph-name="less" unicode="&#x3c;" horiz-adv-x="993" 
d="M94 897l301 901h504l-319 -901l319 -899h-504z" />
    <glyph glyph-name="equal" unicode="=" 
 />
    <glyph glyph-name="greater" unicode="&#x3e;" horiz-adv-x="993" 
d="M94 -2l322 899l-322 901h506l299 -901l-299 -899h-506z" />
    <glyph glyph-name="question" unicode="?" horiz-adv-x="737" 
d="M446 317l-200 -0.000976562c-8 24.667 -12.333 54.334 -13 89.001c0 69.333 13 133 39 191s54 105.167 84 141.5s58 86.5 84 150.5s39 135.667 39 215c0 94 -37.5 141 -112.5 141s-112.5 -47 -112.5 -141v-156h-213v142c0 116 28 205 84 267s138.667 93 248 93
s192 -31 248 -93s84 -151 84 -267c0 -83.333 -14 -159.5 -42 -228.5s-58.5 -122.333 -91.5 -160s-63.5 -83.5 -91.5 -137.5s-42 -109.667 -42 -167c0 -30 2.66699 -56.667 8 -80zM236 216.999h217v-217h-217v217z" />
    <glyph glyph-name="at" unicode="@" horiz-adv-x="1411" 
d="M975 260c-112 0 -172.003 44.9971 -180.003 134.997c-42 -86 -108.333 -127 -199 -123c-144.667 4 -206 109.333 -184 316l22 207c10.667 101.333 37.334 177.833 80.001 229.5s99.334 76.167 170.001 73.5c84.667 -1.33301 140.667 -43.666 168 -126.999l12 119h197
l-62 -592c-4 -34 9.66699 -51.333 41 -52c53.333 0 94 47.5 122 142.5s42 201.833 42 320.5c0 134 -33.333 239.5 -100 316.5s-169 115.5 -307 115.5c-180 0 -317.5 -66.833 -412.5 -200.5s-142.5 -319.167 -142.5 -556.5c0 -169.333 39.833 -300.833 119.5 -394.5
s198.834 -140.5 357.501 -140.5c162.667 0 304 46.333 424 139l-17 -196c-114.667 -76.667 -254.334 -115 -419.001 -115c-222.667 0 -388 63.833 -496 191.5s-162 302.834 -162 525.501c0 128.667 16 248.167 48 358.5s78.5 207.5 139.5 291.5s140.333 150.333 238 199
s207.834 73 330.501 73c202 0 347.333 -54.667 436 -164s133 -255.666 133 -438.999c0 -118.667 -13 -222.667 -39 -312s-60.167 -157.5 -102.5 -204.5s-84.833 -81.5 -127.5 -103.5s-86 -33 -130 -33zM628.997 771.997l-18.999 -174c-9.33301 -87.333 20 -132.333 88 -135
c31.333 -1.33301 57 8.5 77 29.5s32.667 54.167 38 99.5l21 194c4 38 -2.16699 66.667 -18.5 86s-39.833 29 -70.5 29c-32.667 1.33301 -58.834 -8.16699 -78.501 -28.5s-32.167 -53.833 -37.5 -100.5z" />
    <glyph glyph-name="A" unicode="A" horiz-adv-x="1228" 
d="M18 29l18.999 -26.999h24h27l111 -8c50 18 92.667 27 128 27c3.33301 0 7 -0.333008 11 -1l6 33l10 19v23c0 50 5.66699 93.333 17 130v35l8 16l8 78v27l10 25v67c17.333 37.333 26 73.333 26 108c0 6.66699 -0.333008 13.667 -1 21l-8 35v27
c-5.33301 6.66699 -8 14.667 -8 24l-19 172l-8 35v35l-8 16v35c-12 33.333 -18 63 -18 89c0 7.33301 0.333008 14.666 1 21.999c-11.333 46.667 -16.666 87 -15.999 121v16l-62 16l-24 -43v-33l-19 -69l-34 -180c-16.667 -57.333 -25 -106 -25 -146l-18 -35v-43l-25 -118
l-16 -62l-11 -49l-16 -121c-24.667 -74 -39 -136.667 -43 -188c-18 -44 -27 -87 -27 -129zM361.999 1769l17.002 -51v-53l18 -49l9 -62c15.333 -16.667 20.666 -33.667 15.999 -51c6.66699 -36.667 12 -59 16 -67l11 -43l8 -62l16 -43l8 -16
c0 -53.333 6.33301 -96.333 19 -129l8 -43l8 -33c4 -36.667 13 -68 27 -94c0 -35.333 2.66699 -64 8 -86c6 -31.333 9 -61.333 9 -90c0 -8 -0.333008 -15.667 -1 -23c6.66699 -6.66699 9.33398 -12 8.00098 -16l11 -19c10.667 -58.667 21.334 -104.334 32.001 -137.001
l-67 -24c0.666992 -8 0.666992 -16 0 -24c0 -67.333 -14.333 -128.333 -43 -183l8 -60c9.33301 -5.33301 14.666 -10.666 15.999 -15.999c17.333 1.33301 33.666 2 48.999 2c34.667 0 65 -3.33301 91 -10c10.667 -118.667 30.334 -211 59.001 -277h43l25 -8
c16.667 6 34 9 52 9c5.33301 0 11 -0.333008 17 -1h27l153 -8v61l-34 138l-9 16l-8 137l-26 33v37l-17 68c-5.33301 5.33301 -8 11.333 -8 18v25c-13.333 49.333 -22.333 95 -27 137c-18 64 -29.333 112.333 -34 145l-9 60c-16.667 50 -25 97 -25 141
c0 4.66699 0.333008 9.33398 1 14.001c-30 57.333 -44.333 111.333 -43 162c-12.667 40.667 -19.334 74.667 -20.001 102c0 6.66699 0.333008 13 1 19c-5.33301 6.66699 -8 14.667 -8 24c-4 9.33301 -9.33301 15.666 -16 18.999v43l-10 35l-9 67
c-5.33301 6.66699 -8 15.667 -8 27l-8 33v43c-18 70.667 -27 130.667 -27 180c-18.667 12 -33 26.333 -43 43c-31.333 -8 -61 -12 -89 -12c-50.667 0 -95.334 12.667 -134.001 38c-13.333 -23.333 -31.333 -35 -54 -35c-2 0 -3.66699 0.333008 -5 1z" />
    <glyph glyph-name="B" unicode="B" horiz-adv-x="1140" 
d="M18 41l17.001 -27c47.333 -18 93.666 -26.667 138.999 -26c52.667 0 104.667 11.667 156 35l18 61l-8 70l-10 53v67l10 35l-10 19c-2 28 -3 55 -3 81c0 55.333 4.33301 106 13 152l-10 53c0 30 -2.66699 52.667 -8 68l8 53l10 78c-7.33301 37.333 -11 69 -11 95
c0 6 0.333008 12 1 18v53l10 16c-3.33301 21.333 -5 40.833 -5 58.5s1.66699 33.167 5 46.5c-6.66699 20.667 -10 37.667 -10 51l10 27v165l-10 35v33v53l-8 35l8 27v24l10 35c-3.33301 38.667 -5 74.834 -5 108.501s1.66699 64.5 5 92.5c-10.667 8 -16.667 16.667 -18 26
h-70c-26 10.667 -57.333 19 -94 25c-56 -6.66699 -102.667 -21 -140 -43v-27c6 -56.667 9 -107.667 9 -153v-37v-234l-9 -18c6.66699 -5.33301 9.66699 -10.666 9 -15.999c-1.33301 -30.667 -2 -59.334 -2 -86.001s0.666992 -50.667 2 -72v-156
c0 -46.667 -3 -81.334 -9 -104.001l9 -86l-9 -174v-590zM487.001 266l9.00391 -25.998l8 -27v-94c-0.666992 -12.667 -1 -25 -1 -37c0 -40 3 -74 9 -102c251.333 27.333 390.666 157.666 417.999 390.999c15.333 60.667 23 120 23 178c0 99.333 -22 193.333 -66 282l-19 9
l-120 78c45.333 39.333 85.333 62.333 120 69c1.33301 27.333 15.666 44.333 42.999 51c27.333 116 41 220 41 312c0 282.667 -129 451 -387 505c-18.667 -12.667 -35.334 -19 -50.001 -19l-11 1c10.667 -38.667 16 -77.667 16 -117c0 -27.333 -2.66699 -54.666 -8 -81.999
c6.66699 -18.667 10 -37 10 -55c0 -8 -0.666992 -15.333 -2 -22c88.667 -49.333 133 -116 133 -200c0 -22.667 -3.33301 -46.334 -10 -71.001c3.33301 -20 5 -39 5 -57c0 -98.667 -48 -160 -144 -184v-62c3.33301 -38.667 4.83301 -73.834 4.5 -105.501
s-1.83301 -59.834 -4.5 -84.501c93.333 -40.667 139.666 -104.667 138.999 -192c0 -21.333 -2.66699 -44 -8 -68c4 -22 6 -43 6 -63c0 -99.333 -51.333 -168.666 -154 -207.999z" />
    <glyph glyph-name="C" unicode="C" horiz-adv-x="1157" 
d="M18 662c0 -48 2.99805 -87.666 8.99805 -118.999v-94c0 -6 -0.333008 -12.333 -1 -19c0 -76 11.667 -144.333 35 -205c88 -116.667 190.667 -196.334 308 -239.001l77 16l9 18c-6 28.667 -9.16699 55.834 -9.5 81.501s2.83398 49.834 9.50098 72.501
c-8 72.667 -36.667 129.334 -86 170.001l-17 148c3.33301 26.667 5 51.5 5 74.5s-1.66699 43.833 -5 62.5l8 24l-8 33l8 27v67v172c-0.666992 10.667 -0.666992 20.667 0 30c0 32.667 3 60.334 9 83.001c-4 15.333 -6.16699 30 -6.5 44s1.83398 27.333 6.50098 40l-9 27v32
l9 27c-8 47.333 -12 90.666 -12 129.999c0 21.333 1 40.666 3 57.999c22 50.667 56.333 82.334 103 95.001v32v27c0 49.333 -2.66699 89.666 -8 120.999c6 31.333 9 60.666 9 87.999c0 8 -0.333008 15.333 -1 22l-60 9c-6 -10 -12 -16.333 -18 -19l-25 -6l-43 -35h-24
l-27 -8c-35.333 -24.667 -69.333 -41.667 -102 -51l-8 -27l-43 -43l-9 -16c-20.667 -53.333 -41 -93.666 -61 -120.999l-8 -59l-8 -52v-215l-9 -41l9 -34c-3.33301 -17.333 -5 -33.833 -5 -49.5s1.66699 -30.834 5 -45.501v-196c-2 -23.333 -3 -44.833 -3 -64.5
s1 -37.834 3 -54.501zM564.998 12.001c15.333 -1.33301 29.9971 -1.99805 43.9971 -1.99805c172.667 0 283.667 103 333 309c16.667 54.667 25.334 108 26.001 160c0 30.667 -3.33301 60 -10 88l-24 19l-60 24l-153 52l-35 -60c6 -56.667 9 -107.334 9 -152.001
c0 -12.667 -0.333008 -24.667 -1 -36c-27.333 -58.667 -67.666 -96.334 -120.999 -113.001l11 -16l-19 -25c2.66699 -34 5.33398 -57.333 8.00098 -70v-32c-6 -56 -8.66699 -97.667 -8 -125c-0.666992 -7.33301 -0.666992 -14.333 0 -21zM583.995 1491
c44 -23.333 78 -54.6689 102 -94.002v-51c-1.33301 -19.333 -2 -37.333 -2 -54c0 -38 3.33301 -71.333 10 -100l33 -8l18 8c48 28.667 91 45.667 129 51c26 22 51.333 33.667 76 35c6 30 9.33301 59 10 87c0 38.667 -6 75.334 -18 110.001
c-49.333 192.667 -163.333 309.334 -342 350.001c-2.66699 -13.333 -8 -22.333 -16 -27v-307z" />
    <glyph glyph-name="D" unicode="D" horiz-adv-x="1122" 
d="M18 43l16.999 -35.0049c38.667 -6 76 -9 112 -9c70 0 135.667 12 197 36l8 26v25c-3.33301 26.667 -4.83301 51.334 -4.5 74.001s1.83301 43.667 4.5 63v35v94v27c-5.33301 45.333 -7.83301 86.5 -7.5 123.5s2.83301 70.167 7.5 99.5v43l-8 53l-8 43l16 33
c-3.33301 13.333 -4.83301 26 -4.5 38s1.83301 22.667 4.5 32c-8.66699 40.667 -13 79.334 -13 116.001c0 22 1.66699 43.333 5 64v35v43l8 35c-7.33301 44 -10.833 85.333 -10.5 124s3.83301 74.334 10.5 107.001c-3.33301 13.333 -4.83301 26 -4.5 38
s1.83301 22.667 4.5 32l-8 59c-0.666992 21.333 -1 42 -1 62c0 80 6.33301 148.667 19 206c-70 36.667 -139 55 -207 55c-31.333 0 -62.666 -4 -93.999 -12l-18 17l-25 -60c9.33301 -26 15 -45.667 17 -59v-631c-1.33301 -38 -2 -72.667 -2 -104s0.666992 -59.333 2 -84v-51
v-121c-1.33301 -21.333 -2 -41.666 -2 -60.999s0.666992 -36.666 2 -51.999c-6.66699 -38 -10 -72.667 -10 -104c0 -14 0.666992 -27.667 2 -41v-35c1.33301 -14 2 -27.333 2 -40c0 -29.333 -3.66699 -56.333 -11 -81v-25c4 -45.333 6 -87.5 6 -126.5s-2 -74.5 -6 -106.5z
M472.999 249.995l10.002 -27.001l9 -33c-3.33301 -30.667 -5 -59 -5 -85c0 -43.333 4.33301 -81 13 -113c296 22 444 263.667 444 725c0 54 -2 110.667 -6 170c6.66699 74 10 143.667 10 209c0 427.333 -144 670.333 -432 729l-33 -51c8.66699 -44.667 13 -87.667 13 -129
c0 -24.667 -1.33301 -48 -4 -70c6 -22 8.66699 -42.667 8 -62v-16c49.333 -2.66699 86.666 -17 111.999 -43l9 -59v-293c0.666992 -12.667 0.666992 -25 0 -37c0 -38.667 -3 -72 -9 -100l9 -62l-19 -33c13.333 -36.667 19.666 -68.667 18.999 -96l-9 -33l9 -34v-35
c1.33301 -19.333 2 -38.666 2 -57.999c0 -59.333 -7 -114.333 -21 -165l19 -54c-28.667 -48 -69 -73.333 -121 -76z" />
    <glyph glyph-name="E" unicode="E" horiz-adv-x="1142" 
d="M20 147c-0.666992 -12.667 -0.666992 -24.6641 0 -35.9971c0 -38.667 3 -72.334 9 -101.001l51 -10l35 18h35l94 -18h86h284l25 -6h61h25h27c9.33301 0.666992 18 0.666992 26 0c40.667 0 78.334 -3.33301 113.001 -10c5.33301 9.33301 10.666 14.666 15.999 15.999l8 27
v43l9 26v27v172l10 24c-27.333 19.333 -54 31 -80 35l-43 -8h-111h-26h-94h-35l-27 8h-24l-172 -8l18 68v26l6 62v153v156l27 -18h26h27h25c16.667 -1.33301 32 -2 46 -2s27.333 0.666992 40 2l24 -9c24.667 8 48 12 70 12c12 0 23.667 -1 35 -3l34 34l9 19v67v172l-27 27
h-59h-25h-27c-20 1.33301 -39 2 -57 2c-52.667 0 -102.334 -6 -149.001 -18l-43 16v35l18 24v35c4 28.667 6 63.667 6 105v24v27c-0.666992 11.333 -0.666992 22.666 0 33.999c0 50.667 3.33301 96.667 10 138h33c32.667 -2 61.334 -8 86.001 -18
c7.33301 -0.666992 15 -1 23 -1c36 0 69.333 3.66699 100 11c21.333 -1.33301 40.666 -2 57.999 -2s32 0.666992 44 2c46 -6 87.667 -9 125 -9s70.333 3 99 9l26 43l-10 35l10 59c-8 20.667 -12 40.5 -12 59.5s4 36.833 12 53.5c-8 12 -13.333 26.333 -16 43h-53
c-15.333 -1.33301 -30.666 -2 -45.999 -2c-36 0 -69.333 3.33301 -100 10l-43 -8h-35c-22.667 3.33301 -44 4.83301 -64 4.5s-38.667 -1.83301 -56 -4.5h-25l-61 8l-19 -8c-32.667 6.66699 -58.667 9.66699 -78 9c-8.66699 0 -16.667 -0.333008 -24 -1h-27l-24 8h-70h-25
h-112c-20.667 -24.667 -38 -41.667 -52 -51c8 -48.667 12 -92.667 12 -132c0 -21.333 -1 -41 -3 -59v-120c-5.33301 -58.667 -8.33301 -110 -9 -154v-1172z" />
    <glyph glyph-name="F" unicode="F" horiz-adv-x="1124" 
d="M29 12l33.9971 -15.999l25 8c33.333 6 65 9 95 9c40.667 0 78 -5.66699 112 -17l43 16v113v35v151v97v32v35v35v33v145v27v102l24 -8h35h33h62h153l35 59v35v25l-8 16c3.33301 27.333 4.83301 54.166 4.5 80.499s-1.83301 51.5 -4.5 75.5l-43 16
c-34 -4 -67.333 -6 -100 -6c-67.333 0 -128.333 8.33301 -183 25l8 41l-8 26l8 43l-8 68v26l8 154c26 19.333 49.333 31 70 35l33 -8l43 8c25.333 -6 50 -9 74 -9c6.66699 0 13.334 0.333008 20.001 1h43h25h34l27 8l16 -8l17 8c44 -6.66699 79 -10 105 -10
c11.333 0 22 0.666992 32 2c28.667 70.667 43 138.334 43 203.001c0 28.667 -2.66699 57 -8 85l-51 19l-52 -8h-43h-26l-17 8c-21.333 -2 -40.666 -3 -57.999 -3s-32 1 -44 3l-59 -8h-121h-27c-23.333 5.33301 -46 8 -68 8h-94l-24 8h-172l-33 -43v-1214v-43v-265l-10 -26
l10 -43c-9.33301 -50.667 -14.333 -95 -15 -133c0.666992 -20.667 2.33398 -39.334 5.00098 -56.001z" />
    <glyph glyph-name="G" unicode="G" horiz-adv-x="1187" 
d="M96 1356c10.667 -19.333 17 -36.3379 19 -51.0049v-43c-5.33301 -20.667 -5.33301 -38 0 -52c-0.666992 -6.66699 -1 -12.667 -1 -18c0 -20.667 3 -37.667 9 -51c-5.33301 -26.667 -8 -51.334 -8 -74.001s2.66699 -43.667 8 -63l-17 -17
c9.33301 -5.33301 15 -10.666 17 -15.999c-6 -38 -9 -73.333 -9 -106s3 -63 9 -91c-10 -72.667 -15 -140.334 -15 -203.001c0 -333.333 141.333 -527.666 424 -582.999c12 27.333 23.667 47 35 59v27c-14 55.333 -21 106.333 -21 153c0 22.667 1.66699 45.334 5 68.001
c-32.667 34 -64 60 -94 78v51l-8 51v41v53v41l-11 43v35v27v170c-0.666992 10 -0.666992 19.667 0 29c0 44.667 3.66699 83.334 11 116.001c-10 45.333 -16.333 82.333 -19 111v35v153c0.666992 10.667 1 20.667 1 30c0 32 -3 59 -9 81c15.333 28.667 27 54.667 35 78
c52 23.333 80.667 57.333 86 102v27v24c-6.66699 6.66699 -10.334 12.334 -11.001 17.001v69l-8 60l-110 8c-128.667 -75.333 -225.667 -169.666 -291 -282.999v-43l-17 -43c4.66699 -14.667 7.33398 -28.667 8.00098 -42c-0.666992 -19.333 -6.66699 -38.666 -18 -57.999z
M662 30.9951c18 -19.333 42.333 -29.334 73 -30.001c45.333 0 103.333 20.667 174 62c28.667 -55.333 66 -82.666 112 -81.999c13.333 0 27.333 2.33301 42 7v110v35v111v35v32v27c-0.666992 10.667 -1 21 -1 31c0 34.667 3 64 9 88c-8 36 -11.667 68.667 -11 98
c0 16 1 31.667 3 47l-8 27l8 16l-8 27l8 16v27l-8 16v22c0 48.667 -5.66699 92.667 -17 132c-11.333 -0.666992 -22 -1 -32 -1c-44 0 -84.333 3 -121 9c-32 -8 -64.333 -12 -97 -12c-17.333 0 -34.333 1.33301 -51 4l-75 -8v-256l18 -52h84
c6.66699 -33.333 10 -63.333 10 -90c0 -84 -31.333 -140 -94 -168l-18 -59v-221zM680 1549.99c35.333 -23.333 63.333 -48.335 84 -75.002c-2 -32.667 -3 -63.667 -3 -93c0 -53.333 3.66699 -99.666 11 -138.999l62 -8l67 16c44 31.333 89.667 49.333 137 54
c0 10.667 0.333008 20.667 1 30c0 54.667 -5.66699 101.334 -17 140.001c-30 190 -133 306.667 -309 350c-6.66699 -5.33301 -15.667 -8 -27 -8l-6 -19v-67c-4 -35.333 -6 -68.5 -6 -99.5s2 -58.167 6 -81.5z" />
    <glyph glyph-name="H" unicode="H" horiz-adv-x="1206" 
d="M47 457l10 -103.001c-8 -60 -12 -115.667 -12 -167c0 -66.667 7 -125.667 21 -177l75 -16c6.66699 5.33301 15.667 8 27 8c18 1.33301 35 1.33301 51 0c19.333 2 38 3 56 3c32.667 0 62.667 -3.66699 90 -11l26 16v27l8 26c-3.33301 43.333 -4.83301 82.833 -4.5 118.5
s1.83301 67.167 4.5 94.5c-6.66699 30 -10 58.333 -10 85c0 12 0.666992 23.333 2 34v27v43v27v32v27v172h8c39.333 0 62.666 16.333 69.999 49v70v24v113c-13.333 19.333 -22.333 36.333 -27 51c-19.333 -2.66699 -36.333 0 -51 8l8 62c1.33301 12 2 23.667 2 35
c0 28 -3.33301 56 -10 84c2.66699 15.333 2.66699 26.666 0 33.999l8 25c-5.33301 20.667 -7.83301 40.5 -7.5 59.5s2.83301 36.833 7.5 53.5c-8 34.667 -11.667 67.334 -11 98.001c0 16.667 1 32.334 3 47.001v25v26v35v25l-8 172c-56 10.667 -108 16 -156 16
c-70.667 -1.33301 -130.667 -15.666 -180 -42.999v-840v-24v-94c-1.33301 -19.333 -1.66602 -38.333 -0.999023 -57c0 -50.667 3.66699 -97.334 11 -140.001c-6 -30.667 -9 -59.167 -9 -85.5s3 -49.833 9 -70.5zM612 765.999c20 -18 41 -27.0049 63 -27.0049h7
c3.33301 -32 5 -61.667 5 -89s-1.66699 -52.333 -5 -75l8 -401c-0.666992 -15.333 -1 -29.666 -1 -42.999c0 -47.333 3 -87.666 9 -120.999h27h35h145h25h102v27v26v111v35v145v25v102v27c-6 38.667 -9 75 -9 109c0 10 0.333008 19.333 1 28l8 51l-8 52v51l8 51v27l-8 16
l8 35l-8 16l8 137l-8 35l8 60c-6.66699 43.333 -10 84 -10 122c0 16.667 0.666992 33.334 2 50.001l8 24l-8 70l8 43c-7.33301 67.333 -11 128.833 -11 184.5s3.66699 105.5 11 149.5h-323c-18 -35.333 -29.667 -64 -35 -86c6 -34.667 9 -67.667 9 -99s-3 -61.333 -9 -90
v-86l8 -16v-27l-8 -137c4 -13.333 6 -25.666 6 -36.999s-2 -21.666 -6 -30.999c13.333 -46 20 -88 20 -126c0 -16 -1.33301 -31.333 -4 -46c-39.333 -6.66699 -65.333 -21 -78 -43v-118c3.33301 -21.333 5 -41.333 5 -60s-1.66699 -35.667 -5 -51z" />
    <glyph glyph-name="I" unicode="I" horiz-adv-x="548" 
d="M31 1620l10 -43c-4 -54 -6 -103.167 -6 -147.5s2 -83.166 6 -116.499v-146v-32v-256l6 -17c-5.33301 -28.667 -8 -54.667 -8 -78c0 -11.333 0.666992 -22 2 -32l6 -52l-6 -43l6 -51l-6 -43l6 -24v-486l10 -51c10.667 0.666992 21 1 31 1c38 0 73 -5.66699 105 -17
c74 18 130.333 26.667 169 26v68v24v170v35v146v24v103v24v27v110v25v27v24v60v34v154v119v43v84v26v144v43v24v27l-8 16c0 31.333 2.66699 54.666 8 69.999l-16 135c-37.333 11.333 -73 17.333 -107 18c-24.667 0 -48.334 -3.33301 -71.001 -10l-18 9
c-19.333 -8 -38 -12 -56 -12c-9.33301 0 -18.666 1 -27.999 3l-35 -24v-86l10 -51z" />
    <glyph glyph-name="J" unicode="J" horiz-adv-x="1126" 
d="M180 645c-23.333 -82.667 -35.001 -158 -35.001 -226c0 -225.333 127.667 -367 383 -425l-8 16c15.333 37.333 23 75.333 23 114c0 21.333 -2 42.666 -6 63.999v103l-60 33l-8 34l-8 33v27l8 33l-8 26l8 35l-8 25v92v86h-76
c-75.333 -41.333 -143.666 -64.666 -204.999 -69.999zM646.999 256l16.998 -24.999l-9 -43c5.33301 -6.66699 8.33301 -14.667 9 -24c-0.666992 -14.667 -1 -28.667 -1 -42c0 -44.667 3 -82 9 -112c160 12 276 88.667 348 230l16 67v27v24v27v92v84v35v25l8 59l-8 16v27v111
v32v27v25v24v35v24v60v26v25c0.666992 12 1 23.667 1 35c0 38.667 -3 72 -9 100v43v25v35c1.33301 21.333 2 39.666 2 54.999s-0.666992 27.666 -2 36.999v26c2.66699 46.667 4 91.667 4 135c0 73.333 -4 138.333 -12 195l-27 8c-28.667 -6 -56.667 -8.66699 -84 -8
c-38 0 -74.667 5.66699 -110 17c-32.667 -12 -58 -29.333 -76 -52c2.66699 -32.667 5.33398 -55 8.00098 -67l-8 -68v-119l8 -51l-8 -57c2 -21.333 3 -42.5 3 -63.5s-1 -40.167 -3 -57.5l8 -109c0 -32.667 -2.66699 -55 -8 -67l8 -43l-8 -41l8 -51l-8 -43
c4 -20.667 4 -40.667 0 -60c4 -21.333 6 -42.666 6 -63.999s-2 -42.333 -6 -63c1.33301 -22.667 1.83301 -43.667 1.5 -63s-0.833008 -37.666 -1.5 -54.999c2.66699 -28.667 4 -55.334 4 -80.001c0 -56 -6.66699 -106 -20 -150l16 -24
c-37.333 -33.333 -62.666 -70.333 -75.999 -111z" />
    <glyph glyph-name="K" unicode="K" horiz-adv-x="1155" 
d="M35 639l8.00195 -34.998v-373v-137c-0.666992 -4.66699 -1 -9.33398 -1 -14.001c0 -39.333 14.667 -71.333 44 -96c26.667 6 52.167 9 76.5 9s47.166 -3 68.499 -9h25c31.333 10.667 62.666 16 93.999 16l8 61v25v35v24v25v86l-8 78l8 33
c-0.666992 10.667 -0.666992 21 0 31c0 33.333 3 62.333 9 87l-9 27v84v35v24v170c-1.33301 21.333 -1.83301 41.5 -1.5 60.5s0.833008 35.833 1.5 50.5v35c-6 26.667 -9 51.834 -9 75.501s3 46.167 9 67.5l-8 27c1.33301 20.667 2 39.167 2 55.5
s-0.666992 31.166 -2 44.499c2 18.667 3.33301 36.667 4 54c0 32.667 -4 63 -12 91l8 25v27v24v27c0 32.667 2.66699 55 8 67c-2.66699 19.333 -3.66699 38.666 -3 57.999c0 44 6.66699 84.333 20 121c-18.667 15.333 -28 30 -28 44c0 4.66699 1 9.66699 3 15h-26h-33h-27
h-170l-59 -16v-486c-1.33301 -24.667 -2 -47.667 -2 -69c0 -48.667 3.33301 -90.334 10 -125.001v-60l-8 -16c8 -5.33301 10.667 -11.333 8 -18v-25l-8 -170c4 -16.667 6 -32.667 6 -48s-2 -30.666 -6 -45.999l8 -51zM494.002 782.002l18.002 -16.001
c1.33301 -31.333 9.66602 -59.333 24.999 -84l-9 -35l27 -35v-57l16 -43v-59c22 -39.333 33 -79 33 -119l-8 -27c10.667 -9.33301 16 -21 16 -35v-41l19 -26c1.33301 -16.667 1.83301 -31.834 1.5 -45.501s-0.833008 -26.5 -1.5 -38.5c19.333 -48 30.333 -93.667 33 -137h51
l26 16l60 -16l59 16c18.667 -4 35.667 -6 51 -6s29 2 41 6l19 61l-19 41l-8 43l-24 138c-5.33301 12 -8.33301 25.667 -9 41v26c-18 42 -26.667 76.333 -26 103c-10.667 31.333 -16.334 62 -17.001 92l-8 43c-16.667 58.667 -25.334 104.334 -26.001 137.001v25
c-5.33301 6.66699 -8.33301 14.667 -9 24l-8 27l-8 24v35v25c-23.333 64 -35 125 -35 183v13l19 17c6.66699 76.667 20.334 138.667 41.001 186l10 35c12 36.667 20 67.334 24 92.001l9 27l18 16v27l6 32l10 27l52 246l-35 8h-27h-33h-59c-32 -3.33301 -60.667 -5 -86 -5
s-48 1.66699 -68 5l-16 -33l-8 -26l-19 -68c-1.33301 -60 -15 -111.333 -41 -154c-1.33301 -105.333 -27 -196 -77 -272v-33v-59l10 -27v-32c-7.33301 -26.667 -11 -51 -11 -73c0 -4.66699 0.333008 -9 1 -13v-222z" />
    <glyph glyph-name="L" unicode="L" horiz-adv-x="1112" 
d="M29 33l23.998 -19.002l35 -8h35l33 -8h34h109h27h43h32h25h43h43h27h100h27c24.667 1.33301 47.334 2 68.001 2c48.667 0 90.667 -3.33301 126 -10c38 9.33301 63.333 17.333 76 24v27c2 36 3 68.667 3 98c0 54.667 -3.66699 101.334 -11 140.001l-33 16
c-40 -8 -77.833 -12 -113.5 -12s-68.834 4 -99.501 12c-17.333 -3.33301 -33.666 -5 -48.999 -5c-25.333 0 -48.666 4.33301 -69.999 13c-28 -6.66699 -54 -9.66699 -78 -9c-40 0 -76 8.33301 -108 25v62v49v59v52l8 59l-8 51v25v35v67v25v26c-0.666992 14 -1 27.333 -1 40
c0 42 3 76.667 9 104l-16 59v60l8 51v24v27c-6 31.333 -9 62.333 -9 93c0 8.66699 0.333008 17.334 1 26.001l8 24c-3.33301 16.667 -5 31.834 -5 45.501s1.66699 26.5 5 38.5l-8 35c4 44.667 6 86.667 6 126c0 79.333 -8.33301 150 -25 212c-40 8 -76.333 12 -109 12
c-18 0 -35 -1.33301 -51 -4c-5.33301 -8 -11.333 -10.667 -18 -8h-68l-59 -8l-16 -41l8 -942l-8 -60c3.33301 -27.333 4.83301 -52.833 4.5 -76.5s-1.83301 -45.834 -4.5 -66.501c1.33301 -30 1.83301 -56.833 1.5 -80.5s-0.833008 -44.5 -1.5 -62.5v-424z" />
    <glyph glyph-name="M" unicode="M" horiz-adv-x="1355" 
d="M0 164c4 19.333 6.00195 39.002 6.00195 59.002c0 12 -0.666992 23.667 -2 35l2 94l8 27l2 67l-6 76l-8 43l4 121c-0.666992 11.333 -1 23 -1 35c-0.666992 37.333 3.66602 79.666 12.999 126.999l2 59l-8 43l19 43h8h-8h8l59 -37c14 -50 32.667 -98.333 56 -145v-27
c19.333 -36.667 32.333 -82.334 39 -137.001l18 -18v-11c-0.666992 -28.667 6.66602 -59.334 21.999 -92.001l7 -43l16 -34l8 -43c12.667 -24.667 25.667 -59.667 39 -105l-4 -170l16 -59v-27l-10 -35l-8 -24c-35.333 0 -64 -2 -86 -6l-94 2l-27 -9l-24 11l-19 -9l-24 9
c-2 12 -7.66699 26.333 -17 43c3.33301 13.333 5 28.333 5 45c0 24.667 -3.66699 55.334 -11 92.001zM33.002 1788l35 24.0029c6 0.666992 12.333 1 19 1c26.667 0 51.667 -3.66699 75 -11c16 4 38.333 6 67 6h27l59 -2c8.66699 -52 27.334 -112 56.001 -180v-35l16 -16
l31 -148l16 -32c3.33301 -18 9 -33 17 -45l6 -52c4 -38 20.333 -83.667 49 -137c-0.666992 -32.667 6.66602 -64 21.999 -94l9 -51l41 -19l47 127l18 68l10 51l17 17l10 32c24.667 0 47.334 -5.33301 68.001 -16c0.666992 -10 1 -20.333 1 -31
c0 -31.333 -4.66699 -64 -14 -98l8 -19l-8 -24l8 -27l-2 -33v-26l-4 -121c-1.33301 -9.33301 -2 -19 -2 -29c0 -18.667 2.66699 -39.667 8 -63l-8 -27l8 -35c-9.33301 -46.667 -14 -99 -14 -157v-29l8 -59l-39 -154l-16 -8v-27l-2 -24l-18 -35v-35l-19 -41l-8 -35
c-5.33301 -17.333 -6 -34.333 -2 -51l-19 -59c-20.667 -7.33301 -49.334 -12.333 -86.001 -15c-12 31.333 -19.333 71.666 -22 120.999l-17 60l-16 26v35l-16 16c1.33301 8.66699 -1.33398 17.667 -8.00098 27l-7 51l-8 43l-16 27l-6 33l-19 34l-28 140l-25 24
c-4 58 -23 119 -57 183c-4 26 -14.333 60 -31 102v27l-25 34c-4 42.667 -17 88.667 -39 138l-16 43c-1.33301 9.33301 -6.66602 23.666 -15.999 42.999c-6 47.333 -24.667 101.666 -56 162.999v25l-16 18l-6 62l-25 59l-24 43zM868.002 1657c-0.666992 13.333 -1 27 -1 41
c0 22 1 45 3 69l2 25l35 35c42.667 -12.667 89.667 -19 141 -19c26 -0.666992 52.667 0.666016 80 3.99902l19 -10c4 -31.333 6 -65.333 6 -102c0 -22 -0.666992 -44.667 -2 -68l-2 -24v-27l-2 -102v-27l6 -16c-1.33301 -10.667 1.33398 -25 8.00098 -43
c-4 -15.333 -6 -31.666 -6 -48.999c0 -14 1.33301 -29.333 4 -46c-5.33301 -9.33301 -6 -20.666 -2 -33.999c-2.66699 -9.33301 -2.66699 -23 0 -41l-10 -35l8 -51l-2 -35l-2 -68v-43c0 -35.333 2 -64 6 -86l-2 -94l8 -16l-10 -35c2.66699 -12.667 4 -26 4 -40
c0 -16.667 -2 -34.667 -6 -54c4 -16.667 6 -39.334 6 -68.001l8 -51l-18 -51l16 -35c0 -26.667 -4 -61 -12 -103l8 -69v-25c-5.33301 -9.33301 -6 -18 -2 -26v-25v-27c-4 -9.33301 -4.66699 -17.333 -2 -24v-35l-2 -94c-46.667 -12.667 -97.334 -19 -152.001 -19
c-36.667 0.666992 -74.667 3.66699 -114 9c-18 61.333 -27 147.333 -27 258l8 16c-5.33301 23.333 -8 48 -8 74c0 31.333 4 66 12 104c-6 22 -9 45.333 -9 70c-0.666992 18.667 1 38.334 5 59.001c-4.66699 21.333 -7 45.666 -7 72.999c0 10 0.333008 20 1 30l2 419
c1.33301 12 2 24.333 2 37c0 24.667 -2.66699 52 -8 82z" />
    <glyph glyph-name="N" unicode="N" horiz-adv-x="1161" 
d="M8 795c4 16.667 4 33.6709 0 51.0039l8 35c-6 25.333 -9 54.666 -9 87.999c0 9.33301 0.333008 19.333 1 30c-2 14 -3 29 -3 45c0 33.333 4.33301 71.666 13 114.999v27l33 -8c8 -22.667 22.333 -45.334 43 -68.001c15.333 -81.333 49 -158.333 101 -231l8 -33l35 -60
l41 -102l10 -16l24 -27v-35l33 -41l8 -43l19 -35c2.66699 -15.333 8 -29 16 -41c-14.667 -52.667 -22 -108 -22 -166c-0.666992 -55.333 6 -113.333 20 -174l-8 -18l-8 -68l-170 -24c-13.333 -2 -26.666 -3 -39.999 -3c-50 0 -96 15.333 -138 46v102v27v143v33v27
c0.666992 7.33301 1 15 1 23c0 19.333 -3.33301 43 -10 71c4 15.333 6 31.833 6 49.5s-2 37.167 -6 58.5c4.66699 18 7 38 7 60c-0.666992 18 -2.33398 37.667 -5.00098 59c0.666992 7.33301 1 14.666 1 21.999c0 26 -3 53 -9 81zM10 1626c2 14.667 3 29.665 3 44.998
s-1 31.666 -3 48.999v60c21.333 6.66699 44.833 10.167 70.5 10.5s53.5 -3.16699 83.5 -10.5l59 16h35l25 -8c16.667 -49.333 44.667 -106 84 -170c-1.33301 -4 2 -9.33301 10 -16c0 -11.333 2.66699 -20.333 8 -27c8.66699 -26 19.667 -54 33 -84l16 -27
c0 -9.33301 2.66699 -17.333 8 -24l19 -43c8 -27.333 25 -58.666 51 -93.999v-25l16 -27c8.66699 -22 17 -39 25 -51l16 -49l17 -43l26 -51l25 -51l16 -35l27 -51l16 -52l25 -51c16.667 -42 42 -89.667 76 -143c8 -37.333 25 -71.666 51 -102.999
c1.33301 -18 9.33301 -40.333 24 -67l35 -51c2 -16.667 7.66699 -36.667 17 -60v-213l8 -16l-8 -27l-2 -100c-4.66699 -2 -10.334 -8.33301 -17.001 -19c-9.33301 -1.33301 -18.666 -2 -27.999 -2c-40 0 -81 15 -123 45c-12 54.667 -40.667 120.334 -86 197.001l-9 35
l-16 16c-9.33301 40.667 -29 83 -59 127l-9 27l-16 24c-8 37.333 -27.667 77 -59 119v27l-17 33l-24 26c-8.66699 41.333 -28.667 78.333 -60 111c-6.66699 24.667 -12 41.667 -16 51c1.33301 4 -2 9.33301 -10 16c-12.667 44 -35.334 86.333 -68.001 127v27l-24 43l-25 41
l-27 43c-8 42.667 -30.333 85.667 -67 129v25c-19.333 28.667 -35.666 56.667 -48.999 84l-19 18l-8 16c-5.33301 37.333 -25 77 -59 119zM598 1556c-1.33301 13.333 -2 26.9971 -2 40.9971c0 32 3.33301 67 10 105c-2 12 -3 25.167 -3 39.5s1 29.833 3 46.5l51 6
c16.667 -1.33301 34.334 -2 53.001 -2c43.333 0 90.666 3.33301 141.999 10h27c1.33301 -5.33301 6.66602 -10.666 15.999 -15.999c10.667 -39.333 16 -83.333 16 -132c-0.666992 -37.333 -4 -78 -10 -122l10 -27l-2 -143c1.33301 -12.667 2 -26 2 -40
s-0.666992 -29.333 -2 -46v-13c0 -17.333 3 -35.666 9 -54.999v-26v-76v-35l8 -108l8 -111l-8 -43l-70 27l2 75l-35 76l-32 86l-19 17l-6 24l-18 19c-8.66699 26 -19.667 54 -33 84l-19 26c-1.33301 10 -6.66602 18.333 -15.999 25l-8 35l-8 43l-25 24l-8 35l-27 25
c0 22.667 -2.66699 42.334 -8 59.001z" />
    <glyph glyph-name="O" unicode="O" horiz-adv-x="1150" 
d="M6 803c6.66699 -16 10.001 -32.666 10.001 -49.999c0 -6.66699 -0.666992 -13.334 -2 -20.001c0 -52 6.33301 -97 19 -135v-27l8 -116c12 -34 17.333 -62.667 16 -86l9 -52c28.667 -75.333 45.667 -132 51 -170l16 9c67.333 -104 156 -156 266 -156
c13.333 0 27 0.666992 41 2l9 27c-4 28.667 -6.16699 54.834 -6.5 78.501s1.83398 45.167 6.50098 64.5c-1.33301 16.667 -2 32.167 -2 46.5s0.666992 27.5 2 39.5l-19 51c-42 15.333 -70 38 -84 68c-6 38.667 -9 74.667 -9 108c0 9.33301 0.333008 18.333 1 27
c0.666992 10.667 1 20.667 1 30c0 32.667 -3 60.334 -9 83.001l8 57l-8 43v43v143l-11 113c2 23.333 3.16699 45.166 3.5 65.499s-0.833984 38.166 -3.50098 53.499v24l11 35c-6.66699 9.33301 -10.334 17.666 -11.001 24.999v170l19 24l8 35c34 18 56.667 44 68 78
c3.33301 40 5 75.333 5 106c0 103.333 -19 158 -57 164c-116 -40.667 -206.667 -100 -272 -178l-24 -59l-9 -25c-10.667 -75.333 -18.667 -123.666 -24 -144.999v-60l-10 -24l-9 -27v-205c-5.33301 -50 -7.83301 -96 -7.5 -138s2.83301 -80.667 7.5 -116zM543.001 1559
c5.33301 -16.667 8.00098 -36.6641 8.00098 -59.9971c50.667 -38 84 -83 100 -135v-580l-16 -43l16 -24l-8 -43c6.66699 -73.333 10 -138 10 -194c0 -24.667 -0.666992 -47.334 -2 -68.001c-27.333 -45.333 -55.333 -77 -84 -95v-32c-3.33301 -28.667 -5 -56.667 -5 -84
c0 -80.667 16 -152.334 48 -215.001c124 39.333 219.667 110.333 287 213l18 86l17 49c0 56 8.66699 107 26 153v25v51v27v35v24c8 69.333 12.333 127.333 13 174c0 27.333 -1.33301 52 -4 74l8 33l-8 35v32v35c-7.33301 32.667 -11 61 -11 85c0 12.667 0.666992 24 2 34v33
l-8 35c-12.667 46.667 -19 89.667 -19 129c0 5.33301 0.333008 10.666 1 15.999l-8 25l-9 18l-18 135c-20.667 23.333 -34.334 48.666 -41.001 75.999c-86 92.667 -182.333 149.334 -289 170.001l-24 -51c5.33301 -34 8 -65.833 8 -95.5s-2.66699 -57.167 -8 -82.5z" />
    <glyph glyph-name="P" unicode="P" horiz-adv-x="1095" 
d="M14 748l11.001 -51.999v-34v-336c-0.666992 -32.667 -1 -63.334 -1 -92.001c0 -96.667 3 -174.667 9 -234c35.333 -2.66699 69.333 -4 102 -4c76.667 0 143 6.66699 199 20l8 62v67v68v70v26v172v35v156l-8 59v51v62l-8 16v27v35v153v35v43v147l-9 25l9 18
c0 78 -6.33301 143.667 -19 197c10 47.333 15.167 92.5 15.5 135.5s-4.83398 83.833 -15.501 122.5l-24 19h-35h-27h-33h-155c-15.333 -62 -23 -118.333 -23 -169c0 -22.667 1.33301 -44.334 4 -65.001v-567c-0.666992 -11.333 -0.666992 -22.666 0 -33.999
c0 -50.667 3.66699 -96.667 11 -138zM498.001 989.001c-0.666992 -18 -0.998047 -35.0039 -0.998047 -51.0039c0 -55.333 3 -101 9 -137c276.667 6 415 143.333 415 412c0 16.667 -0.333008 34.334 -1 53.001c1.33301 20.667 1.66602 40.334 0.999023 59.001
c0 290.667 -129.667 457.334 -389 500.001l-34 -33c2.66699 -9.33301 2.66699 -18.333 0 -27l8 -120c-6 -30 -9 -59.667 -9 -89c0 -8 0.333008 -16 1 -24c49.333 -2.66699 86.666 -26 111.999 -70v-94c6 -44.667 9 -85.667 9 -123c0 -10.667 -0.333008 -21 -1 -31
c-15.333 -69.333 -55.333 -115.666 -120 -138.999v-86z" />
    <glyph glyph-name="Q" unicode="Q" horiz-adv-x="1236" 
d="M82 817c-8.66699 -64 -13 -125.334 -13 -184.001c0 -295.333 113.667 -514 341 -656l114 -10l17 90c-13.333 36.667 -20.333 72.334 -21 107.001c0 26.667 4 52.667 12 78c-5.33301 9.33301 -8 18 -8 26c-34.667 22.667 -61.334 49.334 -80.001 80.001
c0.666992 11.333 1 22.333 1 33c0 50.667 -3.66699 95.667 -11 135l10 37l-10 35v35v114c3.33301 26.667 5 51.167 5 73.5s-1.66699 42.166 -5 59.499l10 43v37v27v35v35v34v37v150v26v107c34 36.667 57.333 75 70 115l10 26c-11.333 48 -17 93.5 -17 136.5
s5.66699 82.833 17 119.5l-80 8c-131.333 -66.667 -231.666 -152 -300.999 -256l-10 -34l-43 -177l-8 -36v-486zM639 1470l80.001 -68.9961v-45c8 -48.667 11.667 -93.334 11 -134.001c0 -22 -1 -42.333 -3 -61l-8 -43v-61l8 -45l-8 -35v-45l8 -35v-27l-8 -26l8 -27
c-0.666992 -38.667 -1 -73.667 -1 -105c0 -106 3 -176.667 9 -212v-12c0 -88 -23 -155 -69 -201v-62c0.666992 -13.333 0.666992 -26.333 0 -39c0 -58.667 -3.66699 -110.334 -11 -155.001c13.333 -15.333 22.333 -33.333 27 -54c39.333 -6.66699 72 -18 98 -34
c12 -76.667 38.667 -136.334 80 -179.001h35c28.667 52 64 87.667 106 107c19.333 35.333 42.666 62 69.999 80v53c-30 40.667 -53.333 84.334 -70 131.001l9 29c34 39.333 57.667 74 71 104v27v27l17 45c-0.666992 10.667 -1 20.667 -1 30c0 45.333 3.66699 85 11 119
c-6 29.333 -9 58 -9 86c0 38.667 5.66699 75 17 109c-4 10 -10 16 -18 18c6.66699 9.33301 12.667 14.666 18 15.999l-8 27c2.66699 34 5.33398 58 8.00098 72c0.666992 16.667 1 32.334 1 47.001c0 51.333 -3 94.333 -9 129v72c0 26 -3.33301 49 -10 69l10 64l-10 24
c0 48 -2.66699 83.667 -8 107c-6.66699 65.333 -15.667 115.666 -27 150.999c-12 31.333 -21 60.666 -27 87.999c-48 45.333 -83.333 86.333 -106 123h-35l-8 19l-64 35l-16 10h-27l-26 8c-40.667 19.333 -76.334 31 -107.001 35c-6 -28 -9 -53.667 -9 -77
c0 -6.66699 0.333008 -13 1 -19v-259z" />
    <glyph glyph-name="R" unicode="R" horiz-adv-x="1161" 
d="M0 1765c6 -56.667 8.99902 -107.67 8.99902 -153.003c0 -12.667 -0.333008 -25 -1 -37l8 -113l-8 -35v-94c6.66699 -52.667 10 -99.667 10 -141c0 -18 -0.666992 -34.333 -2 -49v-62c-0.666992 -14.667 -0.666992 -29 0 -43c0 -64 3.66699 -121.333 11 -172v-43l-11 -26
l11 -27c-2 -27.333 -3 -52.5 -3 -75.5s1 -43.5 3 -61.5l-11 -43c2 -22.667 3 -44.167 3 -64.5s-1 -39.166 -3 -56.499v-43l11 -27v-405h32h35h27h35h155l27 59v174l-10 191l-9 59c6.66699 50 10.334 96 11.001 138c0 18.667 -0.666992 36.334 -2 53.001v59
c-1.33301 28 -2 55.333 -2 82c0 72.667 4 134.667 12 186l-10 27v70c2 26.667 3 51.334 3 74.001s-1 43.667 -3 63v61v33l-9 37v59l9 43l-9 27v24v35v35v27v35l9 16c-6.66699 35.333 -10 68 -10 98c0 13.333 0.333008 26.333 1 39c-31.333 13.333 -60 22.333 -86 27
c-36 -8 -70.667 -12 -104 -12c-18 0 -35 1.33301 -51 4c-27.333 -16.667 -53.333 -25.667 -78 -27v-25zM474.999 1712c17.333 -33.333 25.999 -66.668 25.999 -100.001c0 -20.667 -3 -42 -9 -64c101.333 -48.667 152 -134.334 152 -257.001
c0 -62.667 -13.333 -135.334 -40 -218.001c-60 -18 -97.333 -46.667 -112 -86v-26c8 -52 11.667 -96.667 11 -134c0 -14 -0.333008 -27 -1 -39l16 -51c48 0 85.667 -17.667 113 -53v-25c6.66699 -27.333 10 -53.333 10 -78c0 -11.333 -0.666992 -22.666 -2 -33.999v-336
c-2 -31.333 -3 -60.666 -3 -87.999c0 -50.667 3.66699 -93.667 11 -129h43l27 8l16 -8h27l35 8c32 -4 60.833 -6 86.5 -6s48.5 2 68.5 6l8 27v24v35v27v174v51v35v43v24v70v172c-10.667 26 -16.667 49.333 -18 70l-25 59l-18 10c-34 34 -68 57.333 -102 70v35
c118 90.667 176.667 204.334 176 341.001c0 47.333 -7 97.333 -21 150c-4 246 -128 378.667 -372 398c-71.333 -7.33301 -105.666 -42.333 -102.999 -105z" />
    <glyph glyph-name="S" unicode="S" horiz-adv-x="1245" 
d="M41 442c60 -225.333 185.667 -376.668 377 -454.001h26l62 -19c8 63.333 12 121.5 12 174.5s-4 100.167 -12 141.5c-96 57.333 -151.333 153.333 -166 288h-72c-4 0 -7.66699 0.333008 -11 1c-144.667 0 -217 -38.667 -217 -116c0 -5.33301 0.333008 -10.666 1 -15.999z
M76 1509c-3.33301 -33.333 -5 -65.667 -5 -97c0 -274.667 121 -463.334 363 -566.001l10 -19l25 -8l10 -18l27 -8c32.667 -22 61.334 -45.333 86.001 -70l61 -18c57.333 -52 95.666 -104 114.999 -156c-8 -102.667 -51.667 -173 -131 -211l8 -131c-2 -32 -3 -61.667 -3 -89
c0 -50.667 3.66699 -94 11 -130c82 6.66699 149 27 201 61c160.667 130.667 241 287 241 469c0 20.667 -1 42 -3 64c-15.333 26 -24.333 52.667 -27 80l-18 34l-78 158l-19 8c-38 45.333 -72.667 77.333 -104 96l-35 35c-52 24.667 -93 54 -123 88
c-117.333 45.333 -213.666 109.666 -288.999 192.999c0 39.333 3.66699 74 11 104c15.333 26 32.333 50 51 72c4 26 10 49.333 18 70l-10 24l10 19c-0.666992 8.66699 -1 16.667 -1 24c0 27.333 3 51.333 9 72c-6.66699 44 -9.66699 79.333 -9 106
c0 11.333 0.333008 22.333 1 33c-42 18 -76.667 27 -104 27c-9.33301 -5.33301 -19 -8 -29 -8c-38 -45.333 -78.333 -74.666 -121 -87.999c-15.333 -19.333 -30.333 -33.666 -45 -42.999c-16.667 -38 -33.667 -70.333 -51 -97c-14.667 -31.333 -32.334 -58 -53.001 -80z
M584 1790c6 -16.667 9 -34.334 9 -53.001c0 -5.33301 -0.333008 -11 -1 -17v-200l35 -54c31.333 -18 54.333 -41 69 -69c0 -32.667 3.66699 -65 11 -97l24 -18h27l35 8h34c10.667 6.66699 19.667 10 27 10h27c60 12 109.667 18.333 149 19c8 26.667 12 52.334 12 77.001
s-4 48 -12 70c-80.667 217.333 -226.667 334.333 -438 351z" />
    <glyph glyph-name="T" unicode="T" horiz-adv-x="1177" 
d="M27 1774l7.99902 -43.0029v-95c0 -9.33301 -0.333008 -18 -1 -26c0 -46 5.66699 -85 17 -117l27 -8h24h27c7.33301 0.666992 14.666 0.666992 21.999 0c32.667 0 62.334 -3.33301 89.001 -10c34 12 64.667 18 92 18l16 -18l10 -109l-10 -59v-426
c3.33301 -25.333 5 -49.333 5 -72s-1.66699 -44 -5 -64v-32c4 -21.333 6 -41.666 6 -60.999s-2 -36.666 -6 -51.999c9.33301 -59.333 14.333 -110.333 15 -153c0 -23.333 -1.66699 -45.333 -5 -66c8 -5.33301 11 -11.666 9 -18.999v-143c2.66699 -15.333 4 -31 4 -47
c0 -27.333 -4.33301 -54 -13 -80l33 -102c40.667 0 72 5.33301 94 16c30.667 -6 59.334 -9 86.001 -9c46.667 0 88.334 9.33301 125.001 28v59v59v25v35c-6 38.667 -9 74.334 -9 107.001c0 9.33301 0.333008 18.666 1 27.999v76v59v51v51c0.666992 12 1 24 1 36
c0 39.333 -3 73.333 -9 102l8 32v52l-8 32l8 52l-8 34v33v94v43v109v35v145v25v102l27 -8l32 8l19 -8h24h27h168c8.66699 46.667 12.667 91 12 133c0 63.333 -9.33301 123.333 -28 180l-43 9l-33 -9h-70h-41h-26h-60h-24c-40.667 -6.66699 -79.334 -10 -116.001 -10
c-16 0 -31.333 0.666992 -46 2h-25h-153h-93h-26c-16 0.666992 -31.333 1 -46 1c-48.667 0 -90 -3 -124 -9z" />
    <glyph glyph-name="U" unicode="U" horiz-adv-x="1142" 
d="M31 1262c-0.666992 -14.667 -0.999023 -29.334 -0.999023 -44.001c0 -65.333 3.66699 -123.333 11 -174c-2.66699 -28 -4 -52.667 -4 -74c0 -34.667 3.33301 -64.334 10 -89.001v-27l-6 -27v-249c2.66699 -8 2.66699 -17 0 -27v-27c4.66699 -40 7 -80.333 7 -121
c0 -16 -0.333008 -33 -1 -51c18 -35.333 27 -64.666 27 -87.999c82 -157.333 198 -249.333 348 -276c9.33301 9.33301 17.333 14.666 24 15.999c-3.33301 32 -4.83301 61.167 -4.5 87.5s1.83301 49.833 4.5 70.5c0 75.333 -23 130 -69 164l-8 34v25v61l-9 27
c7.33301 30.667 11 59.5 11 86.5s-3.66699 52.833 -11 77.5l9 35c-6.66699 14.667 -10.334 30.334 -11.001 47.001c0 7.33301 0.666992 14.666 2 21.999v27v113v24v27v112v52v53l-10 59c-0.666992 7.33301 -0.666992 15 0 23c0 34.667 3.33301 67.334 10 98.001l-10 53
c2 22.667 3 43.334 3 62.001s-1 35.667 -3 51v27c0 27.333 3.33301 49.666 10 66.999c-8 6.66699 -11.333 13 -10 19c2.66699 26.667 4 53 4 79c0 44 -4 86.667 -12 128h-35h-145h-27h-104v-25c-1.33301 -22.667 -2 -43.667 -2 -63s0.666992 -36.666 2 -51.999v-413z
M575.001 197c8 -6.66699 11.667 -13.001 11 -19.001v-24c-1.33301 -26.667 -2 -51.667 -2 -75s0.666992 -45 2 -65c12 -6.66699 20 -15.334 24 -26.001c140.667 56 245.334 142.667 314.001 260c6.66699 28.667 14.667 48.334 24 59.001
c1.33301 39.333 7.66602 80.333 18.999 123l-11 59v46v51v24v35l-8 148v26v27v155v35v27v33v155v35l-8 62l8 24v27l-8 18l8 27c-6.66699 27.333 -10 53.333 -10 78c0 11.333 0.666992 22 2 32c2.66699 28.667 4 56.334 4 83.001c0 62.667 -6.66699 119 -20 169l-19 9h-35
h-24h-35h-158c-19.333 -34 -30 -65.667 -32 -95v-112c6.66699 -26 9.66699 -48 9 -66c0 -7.33301 -0.333008 -14 -1 -20c0 -60 -2.66699 -106.667 -8 -140v-96l8 -51l8 -571c15.333 -75.333 24.333 -139 27 -191l8 -43l-19 -8c-12 -60 -38 -109.333 -78 -148v-77z" />
    <glyph glyph-name="V" unicode="V" horiz-adv-x="1150" 
d="M27 1712l33.9961 -144.998c16.667 -53.333 25 -99 25 -137l18 -68l17 -19c5.33301 -28.667 8 -57.334 8 -86.001c19.333 -48 31 -87.333 35 -118c12 -64 26.333 -118 43 -162v-53l16 -25v-51c5.33301 -6.66699 8 -15.667 8 -27l35 -102l8 -78
c6.66699 -18 10.334 -32.333 11.001 -43l16 -33l16 -96c6.66699 -20.667 10.334 -37 11.001 -49c11.333 -24 17 -53 17 -87c0 -6 -0.333008 -12 -1 -18c40 -80.667 60.333 -158.667 61 -234c0 -10 -0.666992 -20 -2 -30c12 -15.333 20.333 -32.333 25 -51
c32.667 -5.33301 64.167 -8 94.5 -8s58.833 2.66699 85.5 8l10 16c19.333 72.667 30.333 138.334 33 197.001c23.333 44 35 89.667 35 137l-16 60l-19 59c-9.33301 24.667 -14.666 48 -15.999 70c-15.333 38 -24.333 72 -27 102l-16 70l-8 24l-27 121v35
c-22.667 43.333 -37 86.333 -43 129v24c-16.667 45.333 -25 88.666 -25 129.999l-18 32v27c-8 9.33301 -13.333 23.666 -16 42.999l-9 24c-5.33301 6.66699 -8 15.667 -8 27l-10 59c-11.333 26 -17 52.667 -17 80c0 4.66699 0.333008 9.66699 1 15l-17 26v25v27l-8 24
c-24.667 74 -41.667 140.333 -51 199l-137 16c-5.33301 -8 -11.666 -10.667 -18.999 -8c-12 0.666992 -23.667 1 -35 1c-46 0 -85.333 -6.33301 -118 -19v-60zM574.996 1300l17.001 -32.001c8 -12 13.333 -26.333 16 -43c22 -58.667 33.667 -110.667 35 -156l8 -25l35 -145
l16 -16v-14c0 -59.333 11.667 -109.333 35 -150l35 35l16 145c13.333 45.333 21.666 85.666 24.999 120.999l10 41l8 51l19 35l6 70v32l10 27l17 86l10 33v35c16.667 40.667 25 77.334 25 110.001c28.667 101.333 43 187.333 43 258c-10.667 6.66699 -17 12.334 -19 17.001
h-33h-26h-33h-156l-16 -33l-8 -35c-13.333 -42 -22.333 -82.333 -27 -121l-8 -24l-8 -52l-9 -59l-10 -37l-8 -59l-8 -17z" />
    <glyph glyph-name="W" unicode="W" horiz-adv-x="1546" 
d="M37 1808l263.999 0.000976562h25h26c32 -65.333 52 -151.333 60 -258l16 -24v-27c0 -6.66699 3.33301 -14.667 10 -24v-25l17 -37c0 -35.333 5.33301 -72 16 -110v-25l8 -35c6 -30 15 -58.667 27 -86l8 -59v-27c0 -9.33301 2.66699 -17.333 8 -24l10 -25v-35l41 -137
c2 -30 8.33301 -61.333 19 -94c0.666992 -26 8.66699 -57.333 24 -94v-68c-12 -41.333 -20 -93.333 -24 -156l-8 -16c-7.33301 -18 -11 -41.333 -11 -70l-8 -33l-8 -34l-16 -111l-9 -43l-10 -43l-8 -43v-43c-7.33301 0.666992 -14.333 1 -21 1
c-23.333 0 -47.666 -3 -72.999 -9c-14 18 -27.667 46.667 -41 86c0.666992 4 1 8.33301 1 13c-0.666992 19.333 -7.33398 41 -20.001 65c0.666992 3.33301 1 6.66602 1 9.99902c0 24 -6.33301 48.667 -19 74v26c-4 42.667 -15 91.334 -33 146.001l-8 32
c-2.66699 37.333 -8 69.666 -16 96.999v41l-19 34c0.666992 34 -7.33301 73.667 -24 119v43l-19 35c0 16.667 -2.66699 31 -8 43c-3.33301 54.667 -11.666 95 -24.999 121l-10 86l-16 57v27l-17 78l-10 33l-16 53l-8 59l-35 162v27l-51 196zM591.999 1407
c6.66699 53.333 23.666 110.002 50.999 170.002v43l16 25l19 69l8 35l16 25v34c7.33301 3.33301 13.666 9 18.999 17c26 -1.33301 54 -10.333 84 -27l26 -110v-25l25 -86c10 -24.667 16 -53.334 18 -86.001c10 -18.667 18.333 -50 25 -94l8 -33c6 -18.667 15 -35.667 27 -51
v-27c-1.33301 -4 1.33398 -9.33301 8.00098 -16c2.66699 -35.333 11.667 -75.666 27 -120.999c2.66699 -16.667 8 -31 16 -43c2.66699 -30 11.667 -64 27 -102l16 -68c4.66699 -17.333 13 -34.333 25 -51l16 -70c2 -14 8 -28.333 18 -43l9 -59l51 -146
c0 -47.333 -8.33301 -110 -25 -188l-10 -60v-26l-6 -25v-26l-10 -33v-27l-9 -24l-8 -35l-10 -35v-51l-16 -35h-103l-51 197l-16 77l-9 17l-34 137c-1.33301 39.333 -13 87.666 -35 144.999l-8 43l-17 35c0 10.667 -3.33301 25 -10 43l-6 52l-19 43l-8 51l-16 59
c-3.33301 17.333 -9.66602 34.333 -18.999 51c0 55.333 -14.333 115.666 -43 180.999c-2 46 -12.667 94.333 -32 145c-4.66699 20 -11 39.667 -19 59zM1020 1450v14c-0.666992 42 7.33301 82.333 24 121c0.666992 33.333 7 71 19 113c3.33301 15.333 5 31 5 47
s-1.66699 31.667 -5 47l16 33h264h27c2 -16.667 3 -34.334 3 -53.001c-0.666992 -71.333 -13.334 -153.333 -38.001 -246v-27l-16 -67c0 -40 -9 -94 -27 -162c0.666992 -5.33301 1 -10.666 1 -15.999c0 -40.667 -8.33301 -81 -25 -121l8 -19
c-2.66699 -22 -11.667 -52.667 -27 -92v-43v-35l-51 -16l-33 51c0.666992 8.66699 1 17.334 1 26.001c0 59.333 -18 119 -54 179c-2.66699 27.333 -8 52.666 -16 75.999l-9 26l-8 43l-16 35v33l-27 26c-1.33301 8.66699 -6.66602 17.667 -15.999 27z" />
    <glyph glyph-name="X" unicode="X" horiz-adv-x="1247" 
d="M27 39l49 -28.998l145 10c24 -5.33301 48.333 -8 73 -8c17.333 0 35.333 1.33301 54 4c26.667 47.333 43 94.666 49 141.999c32 54.667 48 107 48 157c0 52.667 -17.333 102.667 -52 150l-12 86c-22 61.333 -39 119.333 -51 174l-35 8l-19 -33
c-12 -16.667 -18 -33.667 -18 -51c-22 -50.667 -35.667 -92.334 -41 -125.001l-16 -24l-11 -43l-10 -25l-18 -24l-10 -52l-19 -32l-10 -17c-26 -79.333 -57.333 -146.333 -94 -201zM76 1749c27.333 -36.667 43.0029 -71.335 47.0029 -104.002c16.667 -24.667 27 -48 31 -70
l6 -27c19.333 -42 37 -88.333 53 -139l25 -59l14 -62l22 -51l15 -70c19.333 -39.333 32.333 -70.666 39 -93.999l14 -59l6 -35l17 -18l61 -191l14 -43l15 -43l8 -35l14 -35l25 -51l37 -112l6 -43c31.333 -49.333 49 -101.333 53 -156c8 -5.33301 13.333 -11.666 16 -18.999
l-2 -24l17 -27c18 -68 41 -126 69 -174l43 -2h25l59 -4h35l60 -2c13.333 0.666992 25 1 35 1c21.333 0 41 -1.66699 59 -5l10 33l-8 26c-34 60 -51.667 114.667 -53 164c-27.333 34 -42.333 71.667 -45 113l-25 43c-15.333 49.333 -28.333 84 -39 104l2 33
c-28.667 38 -46.334 79 -53.001 123l-25 43v27c-28.667 45.333 -43.667 85.333 -45 120l-14 43l-17 43c-4 5.33301 -6 14.333 -6 27l-8 16l-6 27c-9.33301 26 -17 54.667 -23 86c-23.333 49.333 -39 89.666 -47 120.999l-6 51c-23.333 44.667 -35 90 -35 136v11
c-10.667 4 -16 10.333 -16 19c-34 62.667 -51.667 117.334 -53 164.001c-40.667 64 -63.334 127.333 -68.001 190c-28.667 32.667 -59.334 54 -92.001 64c-31.333 -10 -56.666 -15 -75.999 -15h-10c-30 6 -57.667 9.33301 -83 10c-34.667 0 -66.334 -6 -95.001 -18z
M610.003 1530l16.999 -27l22 -86c15.333 -27.333 23 -53.333 23 -78c10.667 -24.667 17.334 -47.667 20.001 -69c38 -58.667 61.333 -116 70 -172l26 -11l27 41l10 33l11 35l10 33l16 35l60 141l10 35l8 24l10 17c39.333 112 77 198.667 113 260c0 39.333 -13 68 -39 86
l-27 -17l-264 13c-15.333 -38 -31 -71.667 -47 -101c-15.333 -72.667 -40 -128.667 -74 -168z" />
    <glyph glyph-name="Y" unicode="Y" horiz-adv-x="1204" 
d="M25 1772l8.00098 -17.001v-24l43 -138c22 -57.333 35.667 -102.333 41 -135l16 -35v-41c23.333 -49.333 40.333 -97.666 51 -144.999c0 -13.333 3.66699 -25 11 -35l8 -33l8 -43l16 -43v-24c23.333 -34 35 -65.333 35 -94l8 -33l17 -70l16 -16l10 -17
c9.33301 -69.333 26.666 -129.333 51.999 -180v-92v-135v-43c0 -48 -3.66699 -93.667 -11 -137l11 -17c-12.667 -72.667 -19.334 -128 -20.001 -166c0 -10 0.333008 -19.333 1 -28l51 -35h265l-9 16c19.333 29.333 29 59.666 29 90.999c0 12 -1.33301 24 -4 36l-8 35l8 145
l-8 33c5.33301 23.333 8 46.666 8 69.999c-1.33301 28 -2 53.667 -2 77c0 54 3.33301 99.333 10 136c-12 15.333 -20 29 -24 41l-9 51l-16 59c-15.333 31.333 -24.333 60 -27 86c-8 15.333 -13.333 35.333 -16 60c-22 31.333 -33.667 59.333 -35 84l-16 67
c-6.66699 6.66699 -9.33398 13 -8.00098 19v24c-16.667 34 -25.667 62.667 -27 86c-19.333 49.333 -31 88.333 -35 117l-16 27l-8 51c-15.333 36.667 -23.666 67.334 -24.999 92.001c-5.33301 6.66699 -8 15.667 -8 27l-10 26l-25 68v25
c-24.667 62.667 -39 116.334 -43 161.001c-18 2.66699 -29.667 5.66699 -35 9c-5.33301 -5.33301 -10.666 -8.33301 -15.999 -9h-68l-16 9c-30 -3.33301 -57.833 -5 -83.5 -5s-49.167 1.66699 -70.5 5zM567.001 1372l8 -56.9971l11 -35l8 -27l16 -16v-25l27 -61l16 -68
c5.33301 -6.66699 8.33301 -14.667 9 -24l8 -17c2 -49.333 10 -92.333 24 -129c28.667 13.333 49.334 27.666 62.001 42.999l8 52l43 110c5.33301 10.667 13.333 19.667 24 27l-8 33l51 137l9 24l8 33l35 94l8 33l8 27c5.33301 9.33301 10.666 14.666 15.999 15.999
c12 65.333 29.333 116.666 52 153.999c6.66699 31.333 9.66699 57.333 9 78c0 8.66699 -0.333008 16.667 -1 24l-25 8h-26h-25c-38 -5.33301 -73.667 -7.83301 -107 -7.5s-63.333 2.83301 -90 7.5l-24 -24l-16 -70l-19 -33l-8 -34l-35 -60c-16.667 -90 -42 -161 -76 -213z
" />
    <glyph glyph-name="Z" unicode="Z" horiz-adv-x="1130" 
d="M27 12l43.0039 -10.001h24h60h26h27c20 0.666992 36.667 1 50 1c34 0 62.333 -2.33301 85 -7l51 6c10.667 -6.66699 17 -12 19 -16c20 7.33301 38.667 10.666 56 9.99902h11l17 6c22.667 -1.33301 44 -1.83301 64 -1.5s38.667 0.833008 56 1.5h95c38 -6 73.333 -9 106 -9
s62.667 3 90 9l33 18v43l-8 25l8 27c-5.33301 6.66699 -8 14.667 -8 24l8 51c-8 34.667 -12 67.667 -12 99c0 16.667 1.33301 32.334 4 47.001l-17 26l-24 -8h-37h-33h-24h-35l-27 -10c-34 0 -65.333 6 -94 18c-38.667 -7.33301 -75 -10.833 -109 -10.5
s-66 3.83301 -96 10.5v44l27 43l16 51l27 43l6 32l10 19l51 127c38 74 63.333 139.667 76 197l27 24v35l16 18v25l19 8c18 60 35 103 51 129l8 27l35 67c15.333 45.333 29.666 79.666 42.999 102.999c23.333 69.333 51.333 123.333 84 162v34l8 17v35v196l-49 17h-148h-51
l-51 -9l-264 9h-35h-145h-27h-100l-27 -52v-280l111 -10l120 -9h25h27h67c12.667 0.666992 25 1 37 1c38.667 0 72 -3 100 -9c-38 -110.667 -72 -190.334 -102 -239.001c-8 -49.333 -22.333 -91.666 -43 -126.999l-16 -54l-9 -24l-18 -8
c-6.66699 -32.667 -18.334 -61.334 -35.001 -86.001v-35c-19.333 -26 -39 -57.667 -59 -95c-8 -31.333 -19.667 -62.666 -35 -93.999l-6 -24l-19 -27c-10.667 -49.333 -30.334 -94.333 -59.001 -135c-16.667 -75.333 -45.334 -135.333 -86.001 -180l-16 -52v-86l8 -32
l-8 -19v-59c-1.33301 -13.333 -2 -25.666 -2 -36.999s0.666992 -21.666 2 -30.999z" />
    <glyph glyph-name="bracketleft" unicode="[" horiz-adv-x="280" 
 />
    <glyph glyph-name="backslash" unicode="\" horiz-adv-x="999" 
d="M-16 346v1456h34l586 -1804h-506zM518 1802h506v-1550z" />
    <glyph glyph-name="bracketright" unicode="]" horiz-adv-x="311" 
 />
    <glyph glyph-name="asciicircum" unicode="^" horiz-adv-x="329" 
 />
    <glyph glyph-name="underscore" unicode="_" horiz-adv-x="489" 
 />
    <glyph glyph-name="grave" unicode="`" horiz-adv-x="356" 
 />
    <glyph glyph-name="a" unicode="a" horiz-adv-x="1228" 
d="M18 29l18.999 -26.999h24h27l111 -8c50 18 92.667 27 128 27c3.33301 0 7 -0.333008 11 -1l6 33l10 19v23c0 50 5.66699 93.333 17 130v35l8 16l8 78v27l10 25v67c17.333 37.333 26 73.333 26 108c0 6.66699 -0.333008 13.667 -1 21l-8 35v27
c-5.33301 6.66699 -8 14.667 -8 24l-19 172l-8 35v35l-8 16v35c-12 33.333 -18 63 -18 89c0 7.33301 0.333008 14.666 1 21.999c-11.333 46.667 -16.666 87 -15.999 121v16l-62 16l-24 -43v-33l-19 -69l-34 -180c-16.667 -57.333 -25 -106 -25 -146l-18 -35v-43l-25 -118
l-16 -62l-11 -49l-16 -121c-24.667 -74 -39 -136.667 -43 -188c-18 -44 -27 -87 -27 -129zM361.999 1769l17.002 -51v-53l18 -49l9 -62c15.333 -16.667 20.666 -33.667 15.999 -51c6.66699 -36.667 12 -59 16 -67l11 -43l8 -62l16 -43l8 -16
c0 -53.333 6.33301 -96.333 19 -129l8 -43l8 -33c4 -36.667 13 -68 27 -94c0 -35.333 2.66699 -64 8 -86c6 -31.333 9 -61.333 9 -90c0 -8 -0.333008 -15.667 -1 -23c6.66699 -6.66699 9.33398 -12 8.00098 -16l11 -19c10.667 -58.667 21.334 -104.334 32.001 -137.001
l-67 -24c0.666992 -8 0.666992 -16 0 -24c0 -67.333 -14.333 -128.333 -43 -183l8 -60c9.33301 -5.33301 14.666 -10.666 15.999 -15.999c17.333 1.33301 33.666 2 48.999 2c34.667 0 65 -3.33301 91 -10c10.667 -118.667 30.334 -211 59.001 -277h43l25 -8
c16.667 6 34 9 52 9c5.33301 0 11 -0.333008 17 -1h27l153 -8v61l-34 138l-9 16l-8 137l-26 33v37l-17 68c-5.33301 5.33301 -8 11.333 -8 18v25c-13.333 49.333 -22.333 95 -27 137c-18 64 -29.333 112.333 -34 145l-9 60c-16.667 50 -25 97 -25 141
c0 4.66699 0.333008 9.33398 1 14.001c-30 57.333 -44.333 111.333 -43 162c-12.667 40.667 -19.334 74.667 -20.001 102c0 6.66699 0.333008 13 1 19c-5.33301 6.66699 -8 14.667 -8 24c-4 9.33301 -9.33301 15.666 -16 18.999v43l-10 35l-9 67
c-5.33301 6.66699 -8 15.667 -8 27l-8 33v43c-18 70.667 -27 130.667 -27 180c-18.667 12 -33 26.333 -43 43c-31.333 -8 -61 -12 -89 -12c-50.667 0 -95.334 12.667 -134.001 38c-13.333 -23.333 -31.333 -35 -54 -35c-2 0 -3.66699 0.333008 -5 1z" />
    <glyph glyph-name="b" unicode="b" horiz-adv-x="1140" 
d="M18 41l17.001 -27c47.333 -18 93.666 -26.667 138.999 -26c52.667 0 104.667 11.667 156 35l18 61l-8 70l-10 53v67l10 35l-10 19c-2 28 -3 55 -3 81c0 55.333 4.33301 106 13 152l-10 53c0 30 -2.66699 52.667 -8 68l8 53l10 78c-7.33301 37.333 -11 69 -11 95
c0 6 0.333008 12 1 18v53l10 16c-3.33301 21.333 -5 40.833 -5 58.5s1.66699 33.167 5 46.5c-6.66699 20.667 -10 37.667 -10 51l10 27v165l-10 35v33v53l-8 35l8 27v24l10 35c-3.33301 38.667 -5 74.834 -5 108.501s1.66699 64.5 5 92.5c-10.667 8 -16.667 16.667 -18 26
h-70c-26 10.667 -57.333 19 -94 25c-56 -6.66699 -102.667 -21 -140 -43v-27c6 -56.667 9 -107.667 9 -153v-37v-234l-9 -18c6.66699 -5.33301 9.66699 -10.666 9 -15.999c-1.33301 -30.667 -2 -59.334 -2 -86.001s0.666992 -50.667 2 -72v-156
c0 -46.667 -3 -81.334 -9 -104.001l9 -86l-9 -174v-590zM487.001 266l9.00391 -25.998l8 -27v-94c-0.666992 -12.667 -1 -25 -1 -37c0 -40 3 -74 9 -102c251.333 27.333 390.666 157.666 417.999 390.999c15.333 60.667 23 120 23 178c0 99.333 -22 193.333 -66 282l-19 9
l-120 78c45.333 39.333 85.333 62.333 120 69c1.33301 27.333 15.666 44.333 42.999 51c27.333 116 41 220 41 312c0 282.667 -129 451 -387 505c-18.667 -12.667 -35.334 -19 -50.001 -19l-11 1c10.667 -38.667 16 -77.667 16 -117c0 -27.333 -2.66699 -54.666 -8 -81.999
c6.66699 -18.667 10 -37 10 -55c0 -8 -0.666992 -15.333 -2 -22c88.667 -49.333 133 -116 133 -200c0 -22.667 -3.33301 -46.334 -10 -71.001c3.33301 -20 5 -39 5 -57c0 -98.667 -48 -160 -144 -184v-62c3.33301 -38.667 4.83301 -73.834 4.5 -105.501
s-1.83301 -59.834 -4.5 -84.501c93.333 -40.667 139.666 -104.667 138.999 -192c0 -21.333 -2.66699 -44 -8 -68c4 -22 6 -43 6 -63c0 -99.333 -51.333 -168.666 -154 -207.999z" />
    <glyph glyph-name="c" unicode="c" horiz-adv-x="1157" 
d="M18 662c0 -48 2.99805 -87.666 8.99805 -118.999v-94c0 -6 -0.333008 -12.333 -1 -19c0 -76 11.667 -144.333 35 -205c88 -116.667 190.667 -196.334 308 -239.001l77 16l9 18c-6 28.667 -9.16699 55.834 -9.5 81.501s2.83398 49.834 9.50098 72.501
c-8 72.667 -36.667 129.334 -86 170.001l-17 148c3.33301 26.667 5 51.5 5 74.5s-1.66699 43.833 -5 62.5l8 24l-8 33l8 27v67v172c-0.666992 10.667 -0.666992 20.667 0 30c0 32.667 3 60.334 9 83.001c-4 15.333 -6.16699 30 -6.5 44s1.83398 27.333 6.50098 40l-9 27v32
l9 27c-8 47.333 -12 90.666 -12 129.999c0 21.333 1 40.666 3 57.999c22 50.667 56.333 82.334 103 95.001v32v27c0 49.333 -2.66699 89.666 -8 120.999c6 31.333 9 60.666 9 87.999c0 8 -0.333008 15.333 -1 22l-60 9c-6 -10 -12 -16.333 -18 -19l-25 -6l-43 -35h-24
l-27 -8c-35.333 -24.667 -69.333 -41.667 -102 -51l-8 -27l-43 -43l-9 -16c-20.667 -53.333 -41 -93.666 -61 -120.999l-8 -59l-8 -52v-215l-9 -41l9 -34c-3.33301 -17.333 -5 -33.833 -5 -49.5s1.66699 -30.834 5 -45.501v-196c-2 -23.333 -3 -44.833 -3 -64.5
s1 -37.834 3 -54.501zM564.998 12.001c15.333 -1.33301 29.9971 -1.99805 43.9971 -1.99805c172.667 0 283.667 103 333 309c16.667 54.667 25.334 108 26.001 160c0 30.667 -3.33301 60 -10 88l-24 19l-60 24l-153 52l-35 -60c6 -56.667 9 -107.334 9 -152.001
c0 -12.667 -0.333008 -24.667 -1 -36c-27.333 -58.667 -67.666 -96.334 -120.999 -113.001l11 -16l-19 -25c2.66699 -34 5.33398 -57.333 8.00098 -70v-32c-6 -56 -8.66699 -97.667 -8 -125c-0.666992 -7.33301 -0.666992 -14.333 0 -21zM583.995 1491
c44 -23.333 78 -54.6689 102 -94.002v-51c-1.33301 -19.333 -2 -37.333 -2 -54c0 -38 3.33301 -71.333 10 -100l33 -8l18 8c48 28.667 91 45.667 129 51c26 22 51.333 33.667 76 35c6 30 9.33301 59 10 87c0 38.667 -6 75.334 -18 110.001
c-49.333 192.667 -163.333 309.334 -342 350.001c-2.66699 -13.333 -8 -22.333 -16 -27v-307z" />
    <glyph glyph-name="d" unicode="d" horiz-adv-x="1122" 
d="M18 43l16.999 -35.0049c38.667 -6 76 -9 112 -9c70 0 135.667 12 197 36l8 26v25c-3.33301 26.667 -4.83301 51.334 -4.5 74.001s1.83301 43.667 4.5 63v35v94v27c-5.33301 45.333 -7.83301 86.5 -7.5 123.5s2.83301 70.167 7.5 99.5v43l-8 53l-8 43l16 33
c-3.33301 13.333 -4.83301 26 -4.5 38s1.83301 22.667 4.5 32c-8.66699 40.667 -13 79.334 -13 116.001c0 22 1.66699 43.333 5 64v35v43l8 35c-7.33301 44 -10.833 85.333 -10.5 124s3.83301 74.334 10.5 107.001c-3.33301 13.333 -4.83301 26 -4.5 38
s1.83301 22.667 4.5 32l-8 59c-0.666992 21.333 -1 42 -1 62c0 80 6.33301 148.667 19 206c-70 36.667 -139 55 -207 55c-31.333 0 -62.666 -4 -93.999 -12l-18 17l-25 -60c9.33301 -26 15 -45.667 17 -59v-631c-1.33301 -38 -2 -72.667 -2 -104s0.666992 -59.333 2 -84v-51
v-121c-1.33301 -21.333 -2 -41.666 -2 -60.999s0.666992 -36.666 2 -51.999c-6.66699 -38 -10 -72.667 -10 -104c0 -14 0.666992 -27.667 2 -41v-35c1.33301 -14 2 -27.333 2 -40c0 -29.333 -3.66699 -56.333 -11 -81v-25c4 -45.333 6 -87.5 6 -126.5s-2 -74.5 -6 -106.5z
M472.999 249.995l10.002 -27.001l9 -33c-3.33301 -30.667 -5 -59 -5 -85c0 -43.333 4.33301 -81 13 -113c296 22 444 263.667 444 725c0 54 -2 110.667 -6 170c6.66699 74 10 143.667 10 209c0 427.333 -144 670.333 -432 729l-33 -51c8.66699 -44.667 13 -87.667 13 -129
c0 -24.667 -1.33301 -48 -4 -70c6 -22 8.66699 -42.667 8 -62v-16c49.333 -2.66699 86.666 -17 111.999 -43l9 -59v-293c0.666992 -12.667 0.666992 -25 0 -37c0 -38.667 -3 -72 -9 -100l9 -62l-19 -33c13.333 -36.667 19.666 -68.667 18.999 -96l-9 -33l9 -34v-35
c1.33301 -19.333 2 -38.666 2 -57.999c0 -59.333 -7 -114.333 -21 -165l19 -54c-28.667 -48 -69 -73.333 -121 -76z" />
    <glyph glyph-name="e" unicode="e" horiz-adv-x="1142" 
d="M20 147c-0.666992 -12.667 -0.666992 -24.6641 0 -35.9971c0 -38.667 3 -72.334 9 -101.001l51 -10l35 18h35l94 -18h86h284l25 -6h61h25h27c9.33301 0.666992 18 0.666992 26 0c40.667 0 78.334 -3.33301 113.001 -10c5.33301 9.33301 10.666 14.666 15.999 15.999l8 27
v43l9 26v27v172l10 24c-27.333 19.333 -54 31 -80 35l-43 -8h-111h-26h-94h-35l-27 8h-24l-172 -8l18 68v26l6 62v153v156l27 -18h26h27h25c16.667 -1.33301 32 -2 46 -2s27.333 0.666992 40 2l24 -9c24.667 8 48 12 70 12c12 0 23.667 -1 35 -3l34 34l9 19v67v172l-27 27
h-59h-25h-27c-20 1.33301 -39 2 -57 2c-52.667 0 -102.334 -6 -149.001 -18l-43 16v35l18 24v35c4 28.667 6 63.667 6 105v24v27c-0.666992 11.333 -0.666992 22.666 0 33.999c0 50.667 3.33301 96.667 10 138h33c32.667 -2 61.334 -8 86.001 -18
c7.33301 -0.666992 15 -1 23 -1c36 0 69.333 3.66699 100 11c21.333 -1.33301 40.666 -2 57.999 -2s32 0.666992 44 2c46 -6 87.667 -9 125 -9s70.333 3 99 9l26 43l-10 35l10 59c-8 20.667 -12 40.5 -12 59.5s4 36.833 12 53.5c-8 12 -13.333 26.333 -16 43h-53
c-15.333 -1.33301 -30.666 -2 -45.999 -2c-36 0 -69.333 3.33301 -100 10l-43 -8h-35c-22.667 3.33301 -44 4.83301 -64 4.5s-38.667 -1.83301 -56 -4.5h-25l-61 8l-19 -8c-32.667 6.66699 -58.667 9.66699 -78 9c-8.66699 0 -16.667 -0.333008 -24 -1h-27l-24 8h-70h-25
h-112c-20.667 -24.667 -38 -41.667 -52 -51c8 -48.667 12 -92.667 12 -132c0 -21.333 -1 -41 -3 -59v-120c-5.33301 -58.667 -8.33301 -110 -9 -154v-1172z" />
    <glyph glyph-name="f" unicode="f" horiz-adv-x="1124" 
d="M29 12l33.9971 -15.999l25 8c33.333 6 65 9 95 9c40.667 0 78 -5.66699 112 -17l43 16v113v35v151v97v32v35v35v33v145v27v102l24 -8h35h33h62h153l35 59v35v25l-8 16c3.33301 27.333 4.83301 54.166 4.5 80.499s-1.83301 51.5 -4.5 75.5l-43 16
c-34 -4 -67.333 -6 -100 -6c-67.333 0 -128.333 8.33301 -183 25l8 41l-8 26l8 43l-8 68v26l8 154c26 19.333 49.333 31 70 35l33 -8l43 8c25.333 -6 50 -9 74 -9c6.66699 0 13.334 0.333008 20.001 1h43h25h34l27 8l16 -8l17 8c44 -6.66699 79 -10 105 -10
c11.333 0 22 0.666992 32 2c28.667 70.667 43 138.334 43 203.001c0 28.667 -2.66699 57 -8 85l-51 19l-52 -8h-43h-26l-17 8c-21.333 -2 -40.666 -3 -57.999 -3s-32 1 -44 3l-59 -8h-121h-27c-23.333 5.33301 -46 8 -68 8h-94l-24 8h-172l-33 -43v-1214v-43v-265l-10 -26
l10 -43c-9.33301 -50.667 -14.333 -95 -15 -133c0.666992 -20.667 2.33398 -39.334 5.00098 -56.001z" />
    <glyph glyph-name="g" unicode="g" horiz-adv-x="1187" 
d="M96 1356c10.667 -19.333 17 -36.3379 19 -51.0049v-43c-5.33301 -20.667 -5.33301 -38 0 -52c-0.666992 -6.66699 -1 -12.667 -1 -18c0 -20.667 3 -37.667 9 -51c-5.33301 -26.667 -8 -51.334 -8 -74.001s2.66699 -43.667 8 -63l-17 -17
c9.33301 -5.33301 15 -10.666 17 -15.999c-6 -38 -9 -73.333 -9 -106s3 -63 9 -91c-10 -72.667 -15 -140.334 -15 -203.001c0 -333.333 141.333 -527.666 424 -582.999c12 27.333 23.667 47 35 59v27c-14 55.333 -21 106.333 -21 153c0 22.667 1.66699 45.334 5 68.001
c-32.667 34 -64 60 -94 78v51l-8 51v41v53v41l-11 43v35v27v170c-0.666992 10 -0.666992 19.667 0 29c0 44.667 3.66699 83.334 11 116.001c-10 45.333 -16.333 82.333 -19 111v35v153c0.666992 10.667 1 20.667 1 30c0 32 -3 59 -9 81c15.333 28.667 27 54.667 35 78
c52 23.333 80.667 57.333 86 102v27v24c-6.66699 6.66699 -10.334 12.334 -11.001 17.001v69l-8 60l-110 8c-128.667 -75.333 -225.667 -169.666 -291 -282.999v-43l-17 -43c4.66699 -14.667 7.33398 -28.667 8.00098 -42c-0.666992 -19.333 -6.66699 -38.666 -18 -57.999z
M662 30.9951c18 -19.333 42.333 -29.334 73 -30.001c45.333 0 103.333 20.667 174 62c28.667 -55.333 66 -82.666 112 -81.999c13.333 0 27.333 2.33301 42 7v110v35v111v35v32v27c-0.666992 10.667 -1 21 -1 31c0 34.667 3 64 9 88c-8 36 -11.667 68.667 -11 98
c0 16 1 31.667 3 47l-8 27l8 16l-8 27l8 16v27l-8 16v22c0 48.667 -5.66699 92.667 -17 132c-11.333 -0.666992 -22 -1 -32 -1c-44 0 -84.333 3 -121 9c-32 -8 -64.333 -12 -97 -12c-17.333 0 -34.333 1.33301 -51 4l-75 -8v-256l18 -52h84
c6.66699 -33.333 10 -63.333 10 -90c0 -84 -31.333 -140 -94 -168l-18 -59v-221zM680 1549.99c35.333 -23.333 63.333 -48.335 84 -75.002c-2 -32.667 -3 -63.667 -3 -93c0 -53.333 3.66699 -99.666 11 -138.999l62 -8l67 16c44 31.333 89.667 49.333 137 54
c0 10.667 0.333008 20.667 1 30c0 54.667 -5.66699 101.334 -17 140.001c-30 190 -133 306.667 -309 350c-6.66699 -5.33301 -15.667 -8 -27 -8l-6 -19v-67c-4 -35.333 -6 -68.5 -6 -99.5s2 -58.167 6 -81.5z" />
    <glyph glyph-name="h" unicode="h" horiz-adv-x="1206" 
d="M47 457l10 -103.001c-8 -60 -12 -115.667 -12 -167c0 -66.667 7 -125.667 21 -177l75 -16c6.66699 5.33301 15.667 8 27 8c18 1.33301 35 1.33301 51 0c19.333 2 38 3 56 3c32.667 0 62.667 -3.66699 90 -11l26 16v27l8 26c-3.33301 43.333 -4.83301 82.833 -4.5 118.5
s1.83301 67.167 4.5 94.5c-6.66699 30 -10 58.333 -10 85c0 12 0.666992 23.333 2 34v27v43v27v32v27v172h8c39.333 0 62.666 16.333 69.999 49v70v24v113c-13.333 19.333 -22.333 36.333 -27 51c-19.333 -2.66699 -36.333 0 -51 8l8 62c1.33301 12 2 23.667 2 35
c0 28 -3.33301 56 -10 84c2.66699 15.333 2.66699 26.666 0 33.999l8 25c-5.33301 20.667 -7.83301 40.5 -7.5 59.5s2.83301 36.833 7.5 53.5c-8 34.667 -11.667 67.334 -11 98.001c0 16.667 1 32.334 3 47.001v25v26v35v25l-8 172c-56 10.667 -108 16 -156 16
c-70.667 -1.33301 -130.667 -15.666 -180 -42.999v-840v-24v-94c-1.33301 -19.333 -1.66602 -38.333 -0.999023 -57c0 -50.667 3.66699 -97.334 11 -140.001c-6 -30.667 -9 -59.167 -9 -85.5s3 -49.833 9 -70.5zM612 765.999c20 -18 41 -27.0049 63 -27.0049h7
c3.33301 -32 5 -61.667 5 -89s-1.66699 -52.333 -5 -75l8 -401c-0.666992 -15.333 -1 -29.666 -1 -42.999c0 -47.333 3 -87.666 9 -120.999h27h35h145h25h102v27v26v111v35v145v25v102v27c-6 38.667 -9 75 -9 109c0 10 0.333008 19.333 1 28l8 51l-8 52v51l8 51v27l-8 16
l8 35l-8 16l8 137l-8 35l8 60c-6.66699 43.333 -10 84 -10 122c0 16.667 0.666992 33.334 2 50.001l8 24l-8 70l8 43c-7.33301 67.333 -11 128.833 -11 184.5s3.66699 105.5 11 149.5h-323c-18 -35.333 -29.667 -64 -35 -86c6 -34.667 9 -67.667 9 -99s-3 -61.333 -9 -90
v-86l8 -16v-27l-8 -137c4 -13.333 6 -25.666 6 -36.999s-2 -21.666 -6 -30.999c13.333 -46 20 -88 20 -126c0 -16 -1.33301 -31.333 -4 -46c-39.333 -6.66699 -65.333 -21 -78 -43v-118c3.33301 -21.333 5 -41.333 5 -60s-1.66699 -35.667 -5 -51z" />
    <glyph glyph-name="i" unicode="i" horiz-adv-x="548" 
d="M39 1511l-9.00293 47v79l32 22c8 -2 16.333 -3 25 -3c16.667 0 33.667 3.66699 51 11l17 -8c20.667 6 42.334 9 65.001 9c30.667 -0.666992 63 -6.33398 97 -17.001l15 -124c-4.66699 -14 -7 -35.333 -7 -64l7 -15v-25v-22v-39v-133v-23v-78v-39v-110v-141v-31v-55v-22
v-25v-23v-101v-25v-22v-95v-22v-134v-32v-157v-22v-62c-35.333 0.666992 -86.666 -7.33301 -153.999 -24c-29.333 10.667 -61.333 16 -96 16c-9.33301 0 -18.666 -0.333008 -27.999 -1l-10 47v446l-5 22l5 40l-5 47l5 39l-5 48c-1.33301 9.33301 -2 19 -2 29
c0 22 2.33301 46 7 72l-5 16v235v29v135c-4 30.667 -6 66.334 -6 107.001s2 85.667 6 135l-9 40zM31.9971 1791c-10 52.667 -7.66699 118 7 196l-7 32l7 22l155 -7h24l62 7l22 -7l17 -157v-63v-23l-39 -7h-101h-24h-23h-24l-54 7h-22z" />
    <glyph glyph-name="j" unicode="j" horiz-adv-x="1126" 
d="M180 645c-23.333 -82.667 -35.001 -158 -35.001 -226c0 -225.333 127.667 -367 383 -425l-8 16c15.333 37.333 23 75.333 23 114c0 21.333 -2 42.666 -6 63.999v103l-60 33l-8 34l-8 33v27l8 33l-8 26l8 35l-8 25v92v86h-76
c-75.333 -41.333 -143.666 -64.666 -204.999 -69.999zM646.999 256l16.998 -24.999l-9 -43c5.33301 -6.66699 8.33301 -14.667 9 -24c-0.666992 -14.667 -1 -28.667 -1 -42c0 -44.667 3 -82 9 -112c160 12 276 88.667 348 230l16 67v27v24v27v92v84v35v25l8 59l-8 16v27v111
v32v27v25v24v35v24v60v26v25c0.666992 12 1 23.667 1 35c0 38.667 -3 72 -9 100v43v25v35c1.33301 21.333 2 39.666 2 54.999s-0.666992 27.666 -2 36.999v26c2.66699 46.667 4 91.667 4 135c0 73.333 -4 138.333 -12 195l-27 8c-28.667 -6 -56.667 -8.66699 -84 -8
c-38 0 -74.667 5.66699 -110 17c-32.667 -12 -58 -29.333 -76 -52c2.66699 -32.667 5.33398 -55 8.00098 -67l-8 -68v-119l8 -51l-8 -57c2 -21.333 3 -42.5 3 -63.5s-1 -40.167 -3 -57.5l8 -109c0 -32.667 -2.66699 -55 -8 -67l8 -43l-8 -41l8 -51l-8 -43
c4 -20.667 4 -40.667 0 -60c4 -21.333 6 -42.666 6 -63.999s-2 -42.333 -6 -63c1.33301 -22.667 1.83301 -43.667 1.5 -63s-0.833008 -37.666 -1.5 -54.999c2.66699 -28.667 4 -55.334 4 -80.001c0 -56 -6.66699 -106 -20 -150l16 -24
c-37.333 -33.333 -62.666 -70.333 -75.999 -111z" />
    <glyph glyph-name="k" unicode="k" horiz-adv-x="1155" 
d="M35 639l8.00195 -34.998v-373v-137c-0.666992 -4.66699 -1 -9.33398 -1 -14.001c0 -39.333 14.667 -71.333 44 -96c26.667 6 52.167 9 76.5 9s47.166 -3 68.499 -9h25c31.333 10.667 62.666 16 93.999 16l8 61v25v35v24v25v86l-8 78l8 33
c-0.666992 10.667 -0.666992 21 0 31c0 33.333 3 62.333 9 87l-9 27v84v35v24v170c-1.33301 21.333 -1.83301 41.5 -1.5 60.5s0.833008 35.833 1.5 50.5v35c-6 26.667 -9 51.834 -9 75.501s3 46.167 9 67.5l-8 27c1.33301 20.667 2 39.167 2 55.5
s-0.666992 31.166 -2 44.499c2 18.667 3.33301 36.667 4 54c0 32.667 -4 63 -12 91l8 25v27v24v27c0 32.667 2.66699 55 8 67c-2.66699 19.333 -3.66699 38.666 -3 57.999c0 44 6.66699 84.333 20 121c-18.667 15.333 -28 30 -28 44c0 4.66699 1 9.66699 3 15h-26h-33h-27
h-170l-59 -16v-486c-1.33301 -24.667 -2 -47.667 -2 -69c0 -48.667 3.33301 -90.334 10 -125.001v-60l-8 -16c8 -5.33301 10.667 -11.333 8 -18v-25l-8 -170c4 -16.667 6 -32.667 6 -48s-2 -30.666 -6 -45.999l8 -51zM494.002 782.002l18.002 -16.001
c1.33301 -31.333 9.66602 -59.333 24.999 -84l-9 -35l27 -35v-57l16 -43v-59c22 -39.333 33 -79 33 -119l-8 -27c10.667 -9.33301 16 -21 16 -35v-41l19 -26c1.33301 -16.667 1.83301 -31.834 1.5 -45.501s-0.833008 -26.5 -1.5 -38.5c19.333 -48 30.333 -93.667 33 -137h51
l26 16l60 -16l59 16c18.667 -4 35.667 -6 51 -6s29 2 41 6l19 61l-19 41l-8 43l-24 138c-5.33301 12 -8.33301 25.667 -9 41v26c-18 42 -26.667 76.333 -26 103c-10.667 31.333 -16.334 62 -17.001 92l-8 43c-16.667 58.667 -25.334 104.334 -26.001 137.001v25
c-5.33301 6.66699 -8.33301 14.667 -9 24l-8 27l-8 24v35v25c-23.333 64 -35 125 -35 183v13l19 17c6.66699 76.667 20.334 138.667 41.001 186l10 35c12 36.667 20 67.334 24 92.001l9 27l18 16v27l6 32l10 27l52 246l-35 8h-27h-33h-59c-32 -3.33301 -60.667 -5 -86 -5
s-48 1.66699 -68 5l-16 -33l-8 -26l-19 -68c-1.33301 -60 -15 -111.333 -41 -154c-1.33301 -105.333 -27 -196 -77 -272v-33v-59l10 -27v-32c-7.33301 -26.667 -11 -51 -11 -73c0 -4.66699 0.333008 -9 1 -13v-222z" />
    <glyph glyph-name="l" unicode="l" horiz-adv-x="1112" 
d="M29 33l23.998 -19.002l35 -8h35l33 -8h34h109h27h43h32h25h43h43h27h100h27c24.667 1.33301 47.334 2 68.001 2c48.667 0 90.667 -3.33301 126 -10c38 9.33301 63.333 17.333 76 24v27c2 36 3 68.667 3 98c0 54.667 -3.66699 101.334 -11 140.001l-33 16
c-40 -8 -77.833 -12 -113.5 -12s-68.834 4 -99.501 12c-17.333 -3.33301 -33.666 -5 -48.999 -5c-25.333 0 -48.666 4.33301 -69.999 13c-28 -6.66699 -54 -9.66699 -78 -9c-40 0 -76 8.33301 -108 25v62v49v59v52l8 59l-8 51v25v35v67v25v26c-0.666992 14 -1 27.333 -1 40
c0 42 3 76.667 9 104l-16 59v60l8 51v24v27c-6 31.333 -9 62.333 -9 93c0 8.66699 0.333008 17.334 1 26.001l8 24c-3.33301 16.667 -5 31.834 -5 45.501s1.66699 26.5 5 38.5l-8 35c4 44.667 6 86.667 6 126c0 79.333 -8.33301 150 -25 212c-40 8 -76.333 12 -109 12
c-18 0 -35 -1.33301 -51 -4c-5.33301 -8 -11.333 -10.667 -18 -8h-68l-59 -8l-16 -41l8 -942l-8 -60c3.33301 -27.333 4.83301 -52.833 4.5 -76.5s-1.83301 -45.834 -4.5 -66.501c1.33301 -30 1.83301 -56.833 1.5 -80.5s-0.833008 -44.5 -1.5 -62.5v-424z" />
    <glyph glyph-name="m" unicode="m" horiz-adv-x="1355" 
d="M0 164c4 19.333 6.00195 39.002 6.00195 59.002c0 12 -0.666992 23.667 -2 35l2 94l8 27l2 67l-6 76l-8 43l4 121c-0.666992 11.333 -1 23 -1 35c-0.666992 37.333 3.66602 79.666 12.999 126.999l2 59l-8 43l19 43h8h-8h8l59 -37c14 -50 32.667 -98.333 56 -145v-27
c19.333 -36.667 32.333 -82.334 39 -137.001l18 -18v-11c-0.666992 -28.667 6.66602 -59.334 21.999 -92.001l7 -43l16 -34l8 -43c12.667 -24.667 25.667 -59.667 39 -105l-4 -170l16 -59v-27l-10 -35l-8 -24c-35.333 0 -64 -2 -86 -6l-94 2l-27 -9l-24 11l-19 -9l-24 9
c-2 12 -7.66699 26.333 -17 43c3.33301 13.333 5 28.333 5 45c0 24.667 -3.66699 55.334 -11 92.001zM33.002 1788l35 24.0029c6 0.666992 12.333 1 19 1c26.667 0 51.667 -3.66699 75 -11c16 4 38.333 6 67 6h27l59 -2c8.66699 -52 27.334 -112 56.001 -180v-35l16 -16
l31 -148l16 -32c3.33301 -18 9 -33 17 -45l6 -52c4 -38 20.333 -83.667 49 -137c-0.666992 -32.667 6.66602 -64 21.999 -94l9 -51l41 -19l47 127l18 68l10 51l17 17l10 32c24.667 0 47.334 -5.33301 68.001 -16c0.666992 -10 1 -20.333 1 -31
c0 -31.333 -4.66699 -64 -14 -98l8 -19l-8 -24l8 -27l-2 -33v-26l-4 -121c-1.33301 -9.33301 -2 -19 -2 -29c0 -18.667 2.66699 -39.667 8 -63l-8 -27l8 -35c-9.33301 -46.667 -14 -99 -14 -157v-29l8 -59l-39 -154l-16 -8v-27l-2 -24l-18 -35v-35l-19 -41l-8 -35
c-5.33301 -17.333 -6 -34.333 -2 -51l-19 -59c-20.667 -7.33301 -49.334 -12.333 -86.001 -15c-12 31.333 -19.333 71.666 -22 120.999l-17 60l-16 26v35l-16 16c1.33301 8.66699 -1.33398 17.667 -8.00098 27l-7 51l-8 43l-16 27l-6 33l-19 34l-28 140l-25 24
c-4 58 -23 119 -57 183c-4 26 -14.333 60 -31 102v27l-25 34c-4 42.667 -17 88.667 -39 138l-16 43c-1.33301 9.33301 -6.66602 23.666 -15.999 42.999c-6 47.333 -24.667 101.666 -56 162.999v25l-16 18l-6 62l-25 59l-24 43zM868.002 1657c-0.666992 13.333 -1 27 -1 41
c0 22 1 45 3 69l2 25l35 35c42.667 -12.667 89.667 -19 141 -19c26 -0.666992 52.667 0.666016 80 3.99902l19 -10c4 -31.333 6 -65.333 6 -102c0 -22 -0.666992 -44.667 -2 -68l-2 -24v-27l-2 -102v-27l6 -16c-1.33301 -10.667 1.33398 -25 8.00098 -43
c-4 -15.333 -6 -31.666 -6 -48.999c0 -14 1.33301 -29.333 4 -46c-5.33301 -9.33301 -6 -20.666 -2 -33.999c-2.66699 -9.33301 -2.66699 -23 0 -41l-10 -35l8 -51l-2 -35l-2 -68v-43c0 -35.333 2 -64 6 -86l-2 -94l8 -16l-10 -35c2.66699 -12.667 4 -26 4 -40
c0 -16.667 -2 -34.667 -6 -54c4 -16.667 6 -39.334 6 -68.001l8 -51l-18 -51l16 -35c0 -26.667 -4 -61 -12 -103l8 -69v-25c-5.33301 -9.33301 -6 -18 -2 -26v-25v-27c-4 -9.33301 -4.66699 -17.333 -2 -24v-35l-2 -94c-46.667 -12.667 -97.334 -19 -152.001 -19
c-36.667 0.666992 -74.667 3.66699 -114 9c-18 61.333 -27 147.333 -27 258l8 16c-5.33301 23.333 -8 48 -8 74c0 31.333 4 66 12 104c-6 22 -9 45.333 -9 70c-0.666992 18.667 1 38.334 5 59.001c-4.66699 21.333 -7 45.666 -7 72.999c0 10 0.333008 20 1 30l2 419
c1.33301 12 2 24.333 2 37c0 24.667 -2.66699 52 -8 82z" />
    <glyph glyph-name="n" unicode="n" horiz-adv-x="1161" 
d="M8 795c4 16.667 4 33.6709 0 51.0039l8 35c-6 25.333 -9 54.666 -9 87.999c0 9.33301 0.333008 19.333 1 30c-2 14 -3 29 -3 45c0 33.333 4.33301 71.666 13 114.999v27l33 -8c8 -22.667 22.333 -45.334 43 -68.001c15.333 -81.333 49 -158.333 101 -231l8 -33l35 -60
l41 -102l10 -16l24 -27v-35l33 -41l8 -43l19 -35c2.66699 -15.333 8 -29 16 -41c-14.667 -52.667 -22 -108 -22 -166c-0.666992 -55.333 6 -113.333 20 -174l-8 -18l-8 -68l-170 -24c-13.333 -2 -26.666 -3 -39.999 -3c-50 0 -96 15.333 -138 46v102v27v143v33v27
c0.666992 7.33301 1 15 1 23c0 19.333 -3.33301 43 -10 71c4 15.333 6 31.833 6 49.5s-2 37.167 -6 58.5c4.66699 18 7 38 7 60c-0.666992 18 -2.33398 37.667 -5.00098 59c0.666992 7.33301 1 14.666 1 21.999c0 26 -3 53 -9 81zM10 1626c2 14.667 3 29.665 3 44.998
s-1 31.666 -3 48.999v60c21.333 6.66699 44.833 10.167 70.5 10.5s53.5 -3.16699 83.5 -10.5l59 16h35l25 -8c16.667 -49.333 44.667 -106 84 -170c-1.33301 -4 2 -9.33301 10 -16c0 -11.333 2.66699 -20.333 8 -27c8.66699 -26 19.667 -54 33 -84l16 -27
c0 -9.33301 2.66699 -17.333 8 -24l19 -43c8 -27.333 25 -58.666 51 -93.999v-25l16 -27c8.66699 -22 17 -39 25 -51l16 -49l17 -43l26 -51l25 -51l16 -35l27 -51l16 -52l25 -51c16.667 -42 42 -89.667 76 -143c8 -37.333 25 -71.666 51 -102.999
c1.33301 -18 9.33301 -40.333 24 -67l35 -51c2 -16.667 7.66699 -36.667 17 -60v-213l8 -16l-8 -27l-2 -100c-4.66699 -2 -10.334 -8.33301 -17.001 -19c-9.33301 -1.33301 -18.666 -2 -27.999 -2c-40 0 -81 15 -123 45c-12 54.667 -40.667 120.334 -86 197.001l-9 35
l-16 16c-9.33301 40.667 -29 83 -59 127l-9 27l-16 24c-8 37.333 -27.667 77 -59 119v27l-17 33l-24 26c-8.66699 41.333 -28.667 78.333 -60 111c-6.66699 24.667 -12 41.667 -16 51c1.33301 4 -2 9.33301 -10 16c-12.667 44 -35.334 86.333 -68.001 127v27l-24 43l-25 41
l-27 43c-8 42.667 -30.333 85.667 -67 129v25c-19.333 28.667 -35.666 56.667 -48.999 84l-19 18l-8 16c-5.33301 37.333 -25 77 -59 119zM598 1556c-1.33301 13.333 -2 26.9971 -2 40.9971c0 32 3.33301 67 10 105c-2 12 -3 25.167 -3 39.5s1 29.833 3 46.5l51 6
c16.667 -1.33301 34.334 -2 53.001 -2c43.333 0 90.666 3.33301 141.999 10h27c1.33301 -5.33301 6.66602 -10.666 15.999 -15.999c10.667 -39.333 16 -83.333 16 -132c-0.666992 -37.333 -4 -78 -10 -122l10 -27l-2 -143c1.33301 -12.667 2 -26 2 -40
s-0.666992 -29.333 -2 -46v-13c0 -17.333 3 -35.666 9 -54.999v-26v-76v-35l8 -108l8 -111l-8 -43l-70 27l2 75l-35 76l-32 86l-19 17l-6 24l-18 19c-8.66699 26 -19.667 54 -33 84l-19 26c-1.33301 10 -6.66602 18.333 -15.999 25l-8 35l-8 43l-25 24l-8 35l-27 25
c0 22.667 -2.66699 42.334 -8 59.001z" />
    <glyph glyph-name="o" unicode="o" horiz-adv-x="1150" 
d="M6 803c6.66699 -16 10.001 -32.666 10.001 -49.999c0 -6.66699 -0.666992 -13.334 -2 -20.001c0 -52 6.33301 -97 19 -135v-27l8 -116c12 -34 17.333 -62.667 16 -86l9 -52c28.667 -75.333 45.667 -132 51 -170l16 9c67.333 -104 156 -156 266 -156
c13.333 0 27 0.666992 41 2l9 27c-4 28.667 -6.16699 54.834 -6.5 78.501s1.83398 45.167 6.50098 64.5c-1.33301 16.667 -2 32.167 -2 46.5s0.666992 27.5 2 39.5l-19 51c-42 15.333 -70 38 -84 68c-6 38.667 -9 74.667 -9 108c0 9.33301 0.333008 18.333 1 27
c0.666992 10.667 1 20.667 1 30c0 32.667 -3 60.334 -9 83.001l8 57l-8 43v43v143l-11 113c2 23.333 3.16699 45.166 3.5 65.499s-0.833984 38.166 -3.50098 53.499v24l11 35c-6.66699 9.33301 -10.334 17.666 -11.001 24.999v170l19 24l8 35c34 18 56.667 44 68 78
c3.33301 40 5 75.333 5 106c0 103.333 -19 158 -57 164c-116 -40.667 -206.667 -100 -272 -178l-24 -59l-9 -25c-10.667 -75.333 -18.667 -123.666 -24 -144.999v-60l-10 -24l-9 -27v-205c-5.33301 -50 -7.83301 -96 -7.5 -138s2.83301 -80.667 7.5 -116zM543.001 1559
c5.33301 -16.667 8.00098 -36.6641 8.00098 -59.9971c50.667 -38 84 -83 100 -135v-580l-16 -43l16 -24l-8 -43c6.66699 -73.333 10 -138 10 -194c0 -24.667 -0.666992 -47.334 -2 -68.001c-27.333 -45.333 -55.333 -77 -84 -95v-32c-3.33301 -28.667 -5 -56.667 -5 -84
c0 -80.667 16 -152.334 48 -215.001c124 39.333 219.667 110.333 287 213l18 86l17 49c0 56 8.66699 107 26 153v25v51v27v35v24c8 69.333 12.333 127.333 13 174c0 27.333 -1.33301 52 -4 74l8 33l-8 35v32v35c-7.33301 32.667 -11 61 -11 85c0 12.667 0.666992 24 2 34v33
l-8 35c-12.667 46.667 -19 89.667 -19 129c0 5.33301 0.333008 10.666 1 15.999l-8 25l-9 18l-18 135c-20.667 23.333 -34.334 48.666 -41.001 75.999c-86 92.667 -182.333 149.334 -289 170.001l-24 -51c5.33301 -34 8 -65.833 8 -95.5s-2.66699 -57.167 -8 -82.5z" />
    <glyph glyph-name="p" unicode="p" horiz-adv-x="1095" 
d="M14 748l11.001 -51.999v-34v-336c-0.666992 -32.667 -1 -63.334 -1 -92.001c0 -96.667 3 -174.667 9 -234c35.333 -2.66699 69.333 -4 102 -4c76.667 0 143 6.66699 199 20l8 62v67v68v70v26v172v35v156l-8 59v51v62l-8 16v27v35v153v35v43v147l-9 25l9 18
c0 78 -6.33301 143.667 -19 197c10 47.333 15.167 92.5 15.5 135.5s-4.83398 83.833 -15.501 122.5l-24 19h-35h-27h-33h-155c-15.333 -62 -23 -118.333 -23 -169c0 -22.667 1.33301 -44.334 4 -65.001v-567c-0.666992 -11.333 -0.666992 -22.666 0 -33.999
c0 -50.667 3.66699 -96.667 11 -138zM498.001 989.001c-0.666992 -18 -0.998047 -35.0039 -0.998047 -51.0039c0 -55.333 3 -101 9 -137c276.667 6 415 143.333 415 412c0 16.667 -0.333008 34.334 -1 53.001c1.33301 20.667 1.66602 40.334 0.999023 59.001
c0 290.667 -129.667 457.334 -389 500.001l-34 -33c2.66699 -9.33301 2.66699 -18.333 0 -27l8 -120c-6 -30 -9 -59.667 -9 -89c0 -8 0.333008 -16 1 -24c49.333 -2.66699 86.666 -26 111.999 -70v-94c6 -44.667 9 -85.667 9 -123c0 -10.667 -0.333008 -21 -1 -31
c-15.333 -69.333 -55.333 -115.666 -120 -138.999v-86z" />
    <glyph glyph-name="q" unicode="q" horiz-adv-x="1236" 
d="M82 817c-8.66699 -64 -13 -125.334 -13 -184.001c0 -295.333 113.667 -514 341 -656l114 -10l17 90c-13.333 36.667 -20.333 72.334 -21 107.001c0 26.667 4 52.667 12 78c-5.33301 9.33301 -8 18 -8 26c-34.667 22.667 -61.334 49.334 -80.001 80.001
c0.666992 11.333 1 22.333 1 33c0 50.667 -3.66699 95.667 -11 135l10 37l-10 35v35v114c3.33301 26.667 5 51.167 5 73.5s-1.66699 42.166 -5 59.499l10 43v37v27v35v35v34v37v150v26v107c34 36.667 57.333 75 70 115l10 26c-11.333 48 -17 93.5 -17 136.5
s5.66699 82.833 17 119.5l-80 8c-131.333 -66.667 -231.666 -152 -300.999 -256l-10 -34l-43 -177l-8 -36v-486zM639 1470l80.001 -68.9961v-45c8 -48.667 11.667 -93.334 11 -134.001c0 -22 -1 -42.333 -3 -61l-8 -43v-61l8 -45l-8 -35v-45l8 -35v-27l-8 -26l8 -27
c-0.666992 -38.667 -1 -73.667 -1 -105c0 -106 3 -176.667 9 -212v-12c0 -88 -23 -155 -69 -201v-62c0.666992 -13.333 0.666992 -26.333 0 -39c0 -58.667 -3.66699 -110.334 -11 -155.001c13.333 -15.333 22.333 -33.333 27 -54c39.333 -6.66699 72 -18 98 -34
c12 -76.667 38.667 -136.334 80 -179.001h35c28.667 52 64 87.667 106 107c19.333 35.333 42.666 62 69.999 80v53c-30 40.667 -53.333 84.334 -70 131.001l9 29c34 39.333 57.667 74 71 104v27v27l17 45c-0.666992 10.667 -1 20.667 -1 30c0 45.333 3.66699 85 11 119
c-6 29.333 -9 58 -9 86c0 38.667 5.66699 75 17 109c-4 10 -10 16 -18 18c6.66699 9.33301 12.667 14.666 18 15.999l-8 27c2.66699 34 5.33398 58 8.00098 72c0.666992 16.667 1 32.334 1 47.001c0 51.333 -3 94.333 -9 129v72c0 26 -3.33301 49 -10 69l10 64l-10 24
c0 48 -2.66699 83.667 -8 107c-6.66699 65.333 -15.667 115.666 -27 150.999c-12 31.333 -21 60.666 -27 87.999c-48 45.333 -83.333 86.333 -106 123h-35l-8 19l-64 35l-16 10h-27l-26 8c-40.667 19.333 -76.334 31 -107.001 35c-6 -28 -9 -53.667 -9 -77
c0 -6.66699 0.333008 -13 1 -19v-259z" />
    <glyph glyph-name="r" unicode="r" horiz-adv-x="1161" 
d="M0 1765c6 -56.667 8.99902 -107.67 8.99902 -153.003c0 -12.667 -0.333008 -25 -1 -37l8 -113l-8 -35v-94c6.66699 -52.667 10 -99.667 10 -141c0 -18 -0.666992 -34.333 -2 -49v-62c-0.666992 -14.667 -0.666992 -29 0 -43c0 -64 3.66699 -121.333 11 -172v-43l-11 -26
l11 -27c-2 -27.333 -3 -52.5 -3 -75.5s1 -43.5 3 -61.5l-11 -43c2 -22.667 3 -44.167 3 -64.5s-1 -39.166 -3 -56.499v-43l11 -27v-405h32h35h27h35h155l27 59v174l-10 191l-9 59c6.66699 50 10.334 96 11.001 138c0 18.667 -0.666992 36.334 -2 53.001v59
c-1.33301 28 -2 55.333 -2 82c0 72.667 4 134.667 12 186l-10 27v70c2 26.667 3 51.334 3 74.001s-1 43.667 -3 63v61v33l-9 37v59l9 43l-9 27v24v35v35v27v35l9 16c-6.66699 35.333 -10 68 -10 98c0 13.333 0.333008 26.333 1 39c-31.333 13.333 -60 22.333 -86 27
c-36 -8 -70.667 -12 -104 -12c-18 0 -35 1.33301 -51 4c-27.333 -16.667 -53.333 -25.667 -78 -27v-25zM474.999 1712c17.333 -33.333 25.999 -66.668 25.999 -100.001c0 -20.667 -3 -42 -9 -64c101.333 -48.667 152 -134.334 152 -257.001
c0 -62.667 -13.333 -135.334 -40 -218.001c-60 -18 -97.333 -46.667 -112 -86v-26c8 -52 11.667 -96.667 11 -134c0 -14 -0.333008 -27 -1 -39l16 -51c48 0 85.667 -17.667 113 -53v-25c6.66699 -27.333 10 -53.333 10 -78c0 -11.333 -0.666992 -22.666 -2 -33.999v-336
c-2 -31.333 -3 -60.666 -3 -87.999c0 -50.667 3.66699 -93.667 11 -129h43l27 8l16 -8h27l35 8c32 -4 60.833 -6 86.5 -6s48.5 2 68.5 6l8 27v24v35v27v174v51v35v43v24v70v172c-10.667 26 -16.667 49.333 -18 70l-25 59l-18 10c-34 34 -68 57.333 -102 70v35
c118 90.667 176.667 204.334 176 341.001c0 47.333 -7 97.333 -21 150c-4 246 -128 378.667 -372 398c-71.333 -7.33301 -105.666 -42.333 -102.999 -105z" />
    <glyph glyph-name="s" unicode="s" horiz-adv-x="1245" 
d="M41 442c60 -225.333 185.667 -376.668 377 -454.001h26l62 -19c8 63.333 12 121.5 12 174.5s-4 100.167 -12 141.5c-96 57.333 -151.333 153.333 -166 288h-72c-4 0 -7.66699 0.333008 -11 1c-144.667 0 -217 -38.667 -217 -116c0 -5.33301 0.333008 -10.666 1 -15.999z
M76 1509c-3.33301 -33.333 -5 -65.667 -5 -97c0 -274.667 121 -463.334 363 -566.001l10 -19l25 -8l10 -18l27 -8c32.667 -22 61.334 -45.333 86.001 -70l61 -18c57.333 -52 95.666 -104 114.999 -156c-8 -102.667 -51.667 -173 -131 -211l8 -131c-2 -32 -3 -61.667 -3 -89
c0 -50.667 3.66699 -94 11 -130c82 6.66699 149 27 201 61c160.667 130.667 241 287 241 469c0 20.667 -1 42 -3 64c-15.333 26 -24.333 52.667 -27 80l-18 34l-78 158l-19 8c-38 45.333 -72.667 77.333 -104 96l-35 35c-52 24.667 -93 54 -123 88
c-117.333 45.333 -213.666 109.666 -288.999 192.999c0 39.333 3.66699 74 11 104c15.333 26 32.333 50 51 72c4 26 10 49.333 18 70l-10 24l10 19c-0.666992 8.66699 -1 16.667 -1 24c0 27.333 3 51.333 9 72c-6.66699 44 -9.66699 79.333 -9 106
c0 11.333 0.333008 22.333 1 33c-42 18 -76.667 27 -104 27c-9.33301 -5.33301 -19 -8 -29 -8c-38 -45.333 -78.333 -74.666 -121 -87.999c-15.333 -19.333 -30.333 -33.666 -45 -42.999c-16.667 -38 -33.667 -70.333 -51 -97c-14.667 -31.333 -32.334 -58 -53.001 -80z
M584 1790c6 -16.667 9 -34.334 9 -53.001c0 -5.33301 -0.333008 -11 -1 -17v-200l35 -54c31.333 -18 54.333 -41 69 -69c0 -32.667 3.66699 -65 11 -97l24 -18h27l35 8h34c10.667 6.66699 19.667 10 27 10h27c60 12 109.667 18.333 149 19c8 26.667 12 52.334 12 77.001
s-4 48 -12 70c-80.667 217.333 -226.667 334.333 -438 351z" />
    <glyph glyph-name="t" unicode="t" horiz-adv-x="1177" 
d="M27 1774l7.99902 -43.0029v-95c0 -9.33301 -0.333008 -18 -1 -26c0 -46 5.66699 -85 17 -117l27 -8h24h27c7.33301 0.666992 14.666 0.666992 21.999 0c32.667 0 62.334 -3.33301 89.001 -10c34 12 64.667 18 92 18l16 -18l10 -109l-10 -59v-426
c3.33301 -25.333 5 -49.333 5 -72s-1.66699 -44 -5 -64v-32c4 -21.333 6 -41.666 6 -60.999s-2 -36.666 -6 -51.999c9.33301 -59.333 14.333 -110.333 15 -153c0 -23.333 -1.66699 -45.333 -5 -66c8 -5.33301 11 -11.666 9 -18.999v-143c2.66699 -15.333 4 -31 4 -47
c0 -27.333 -4.33301 -54 -13 -80l33 -102c40.667 0 72 5.33301 94 16c30.667 -6 59.334 -9 86.001 -9c46.667 0 88.334 9.33301 125.001 28v59v59v25v35c-6 38.667 -9 74.334 -9 107.001c0 9.33301 0.333008 18.666 1 27.999v76v59v51v51c0.666992 12 1 24 1 36
c0 39.333 -3 73.333 -9 102l8 32v52l-8 32l8 52l-8 34v33v94v43v109v35v145v25v102l27 -8l32 8l19 -8h24h27h168c8.66699 46.667 12.667 91 12 133c0 63.333 -9.33301 123.333 -28 180l-43 9l-33 -9h-70h-41h-26h-60h-24c-40.667 -6.66699 -79.334 -10 -116.001 -10
c-16 0 -31.333 0.666992 -46 2h-25h-153h-93h-26c-16 0.666992 -31.333 1 -46 1c-48.667 0 -90 -3 -124 -9z" />
    <glyph glyph-name="u" unicode="u" horiz-adv-x="1142" 
d="M31 1262c-0.666992 -14.667 -0.999023 -29.334 -0.999023 -44.001c0 -65.333 3.66699 -123.333 11 -174c-2.66699 -28 -4 -52.667 -4 -74c0 -34.667 3.33301 -64.334 10 -89.001v-27l-6 -27v-249c2.66699 -8 2.66699 -17 0 -27v-27c4.66699 -40 7 -80.333 7 -121
c0 -16 -0.333008 -33 -1 -51c18 -35.333 27 -64.666 27 -87.999c82 -157.333 198 -249.333 348 -276c9.33301 9.33301 17.333 14.666 24 15.999c-3.33301 32 -4.83301 61.167 -4.5 87.5s1.83301 49.833 4.5 70.5c0 75.333 -23 130 -69 164l-8 34v25v61l-9 27
c7.33301 30.667 11 59.5 11 86.5s-3.66699 52.833 -11 77.5l9 35c-6.66699 14.667 -10.334 30.334 -11.001 47.001c0 7.33301 0.666992 14.666 2 21.999v27v113v24v27v112v52v53l-10 59c-0.666992 7.33301 -0.666992 15 0 23c0 34.667 3.33301 67.334 10 98.001l-10 53
c2 22.667 3 43.334 3 62.001s-1 35.667 -3 51v27c0 27.333 3.33301 49.666 10 66.999c-8 6.66699 -11.333 13 -10 19c2.66699 26.667 4 53 4 79c0 44 -4 86.667 -12 128h-35h-145h-27h-104v-25c-1.33301 -22.667 -2 -43.667 -2 -63s0.666992 -36.666 2 -51.999v-413z
M575.001 197c8 -6.66699 11.667 -13.001 11 -19.001v-24c-1.33301 -26.667 -2 -51.667 -2 -75s0.666992 -45 2 -65c12 -6.66699 20 -15.334 24 -26.001c140.667 56 245.334 142.667 314.001 260c6.66699 28.667 14.667 48.334 24 59.001
c1.33301 39.333 7.66602 80.333 18.999 123l-11 59v46v51v24v35l-8 148v26v27v155v35v27v33v155v35l-8 62l8 24v27l-8 18l8 27c-6.66699 27.333 -10 53.333 -10 78c0 11.333 0.666992 22 2 32c2.66699 28.667 4 56.334 4 83.001c0 62.667 -6.66699 119 -20 169l-19 9h-35
h-24h-35h-158c-19.333 -34 -30 -65.667 -32 -95v-112c6.66699 -26 9.66699 -48 9 -66c0 -7.33301 -0.333008 -14 -1 -20c0 -60 -2.66699 -106.667 -8 -140v-96l8 -51l8 -571c15.333 -75.333 24.333 -139 27 -191l8 -43l-19 -8c-12 -60 -38 -109.333 -78 -148v-77z" />
    <glyph glyph-name="v" unicode="v" horiz-adv-x="1150" 
d="M27 1712l33.9961 -144.998c16.667 -53.333 25 -99 25 -137l18 -68l17 -19c5.33301 -28.667 8 -57.334 8 -86.001c19.333 -48 31 -87.333 35 -118c12 -64 26.333 -118 43 -162v-53l16 -25v-51c5.33301 -6.66699 8 -15.667 8 -27l35 -102l8 -78
c6.66699 -18 10.334 -32.333 11.001 -43l16 -33l16 -96c6.66699 -20.667 10.334 -37 11.001 -49c11.333 -24 17 -53 17 -87c0 -6 -0.333008 -12 -1 -18c40 -80.667 60.333 -158.667 61 -234c0 -10 -0.666992 -20 -2 -30c12 -15.333 20.333 -32.333 25 -51
c32.667 -5.33301 64.167 -8 94.5 -8s58.833 2.66699 85.5 8l10 16c19.333 72.667 30.333 138.334 33 197.001c23.333 44 35 89.667 35 137l-16 60l-19 59c-9.33301 24.667 -14.666 48 -15.999 70c-15.333 38 -24.333 72 -27 102l-16 70l-8 24l-27 121v35
c-22.667 43.333 -37 86.333 -43 129v24c-16.667 45.333 -25 88.666 -25 129.999l-18 32v27c-8 9.33301 -13.333 23.666 -16 42.999l-9 24c-5.33301 6.66699 -8 15.667 -8 27l-10 59c-11.333 26 -17 52.667 -17 80c0 4.66699 0.333008 9.66699 1 15l-17 26v25v27l-8 24
c-24.667 74 -41.667 140.333 -51 199l-137 16c-5.33301 -8 -11.666 -10.667 -18.999 -8c-12 0.666992 -23.667 1 -35 1c-46 0 -85.333 -6.33301 -118 -19v-60zM574.996 1300l17.001 -32.001c8 -12 13.333 -26.333 16 -43c22 -58.667 33.667 -110.667 35 -156l8 -25l35 -145
l16 -16v-14c0 -59.333 11.667 -109.333 35 -150l35 35l16 145c13.333 45.333 21.666 85.666 24.999 120.999l10 41l8 51l19 35l6 70v32l10 27l17 86l10 33v35c16.667 40.667 25 77.334 25 110.001c28.667 101.333 43 187.333 43 258c-10.667 6.66699 -17 12.334 -19 17.001
h-33h-26h-33h-156l-16 -33l-8 -35c-13.333 -42 -22.333 -82.333 -27 -121l-8 -24l-8 -52l-9 -59l-10 -37l-8 -59l-8 -17z" />
    <glyph glyph-name="w" unicode="w" horiz-adv-x="1546" 
d="M37 1808l263.999 0.000976562h25h26c32 -65.333 52 -151.333 60 -258l16 -24v-27c0 -6.66699 3.33301 -14.667 10 -24v-25l17 -37c0 -35.333 5.33301 -72 16 -110v-25l8 -35c6 -30 15 -58.667 27 -86l8 -59v-27c0 -9.33301 2.66699 -17.333 8 -24l10 -25v-35l41 -137
c2 -30 8.33301 -61.333 19 -94c0.666992 -26 8.66699 -57.333 24 -94v-68c-12 -41.333 -20 -93.333 -24 -156l-8 -16c-7.33301 -18 -11 -41.333 -11 -70l-8 -33l-8 -34l-16 -111l-9 -43l-10 -43l-8 -43v-43c-7.33301 0.666992 -14.333 1 -21 1
c-23.333 0 -47.666 -3 -72.999 -9c-14 18 -27.667 46.667 -41 86c0.666992 4 1 8.33301 1 13c-0.666992 19.333 -7.33398 41 -20.001 65c0.666992 3.33301 1 6.66602 1 9.99902c0 24 -6.33301 48.667 -19 74v26c-4 42.667 -15 91.334 -33 146.001l-8 32
c-2.66699 37.333 -8 69.666 -16 96.999v41l-19 34c0.666992 34 -7.33301 73.667 -24 119v43l-19 35c0 16.667 -2.66699 31 -8 43c-3.33301 54.667 -11.666 95 -24.999 121l-10 86l-16 57v27l-17 78l-10 33l-16 53l-8 59l-35 162v27l-51 196zM591.999 1407
c6.66699 53.333 23.666 110.002 50.999 170.002v43l16 25l19 69l8 35l16 25v34c7.33301 3.33301 13.666 9 18.999 17c26 -1.33301 54 -10.333 84 -27l26 -110v-25l25 -86c10 -24.667 16 -53.334 18 -86.001c10 -18.667 18.333 -50 25 -94l8 -33c6 -18.667 15 -35.667 27 -51
v-27c-1.33301 -4 1.33398 -9.33301 8.00098 -16c2.66699 -35.333 11.667 -75.666 27 -120.999c2.66699 -16.667 8 -31 16 -43c2.66699 -30 11.667 -64 27 -102l16 -68c4.66699 -17.333 13 -34.333 25 -51l16 -70c2 -14 8 -28.333 18 -43l9 -59l51 -146
c0 -47.333 -8.33301 -110 -25 -188l-10 -60v-26l-6 -25v-26l-10 -33v-27l-9 -24l-8 -35l-10 -35v-51l-16 -35h-103l-51 197l-16 77l-9 17l-34 137c-1.33301 39.333 -13 87.666 -35 144.999l-8 43l-17 35c0 10.667 -3.33301 25 -10 43l-6 52l-19 43l-8 51l-16 59
c-3.33301 17.333 -9.66602 34.333 -18.999 51c0 55.333 -14.333 115.666 -43 180.999c-2 46 -12.667 94.333 -32 145c-4.66699 20 -11 39.667 -19 59zM1020 1450v14c-0.666992 42 7.33301 82.333 24 121c0.666992 33.333 7 71 19 113c3.33301 15.333 5 31 5 47
s-1.66699 31.667 -5 47l16 33h264h27c2 -16.667 3 -34.334 3 -53.001c-0.666992 -71.333 -13.334 -153.333 -38.001 -246v-27l-16 -67c0 -40 -9 -94 -27 -162c0.666992 -5.33301 1 -10.666 1 -15.999c0 -40.667 -8.33301 -81 -25 -121l8 -19
c-2.66699 -22 -11.667 -52.667 -27 -92v-43v-35l-51 -16l-33 51c0.666992 8.66699 1 17.334 1 26.001c0 59.333 -18 119 -54 179c-2.66699 27.333 -8 52.666 -16 75.999l-9 26l-8 43l-16 35v33l-27 26c-1.33301 8.66699 -6.66602 17.667 -15.999 27z" />
    <glyph glyph-name="x" unicode="x" horiz-adv-x="1247" 
d="M27 39l49 -28.998l145 10c24 -5.33301 48.333 -8 73 -8c17.333 0 35.333 1.33301 54 4c26.667 47.333 43 94.666 49 141.999c32 54.667 48 107 48 157c0 52.667 -17.333 102.667 -52 150l-12 86c-22 61.333 -39 119.333 -51 174l-35 8l-19 -33
c-12 -16.667 -18 -33.667 -18 -51c-22 -50.667 -35.667 -92.334 -41 -125.001l-16 -24l-11 -43l-10 -25l-18 -24l-10 -52l-19 -32l-10 -17c-26 -79.333 -57.333 -146.333 -94 -201zM76 1749c27.333 -36.667 43.0029 -71.335 47.0029 -104.002c16.667 -24.667 27 -48 31 -70
l6 -27c19.333 -42 37 -88.333 53 -139l25 -59l14 -62l22 -51l15 -70c19.333 -39.333 32.333 -70.666 39 -93.999l14 -59l6 -35l17 -18l61 -191l14 -43l15 -43l8 -35l14 -35l25 -51l37 -112l6 -43c31.333 -49.333 49 -101.333 53 -156c8 -5.33301 13.333 -11.666 16 -18.999
l-2 -24l17 -27c18 -68 41 -126 69 -174l43 -2h25l59 -4h35l60 -2c13.333 0.666992 25 1 35 1c21.333 0 41 -1.66699 59 -5l10 33l-8 26c-34 60 -51.667 114.667 -53 164c-27.333 34 -42.333 71.667 -45 113l-25 43c-15.333 49.333 -28.333 84 -39 104l2 33
c-28.667 38 -46.334 79 -53.001 123l-25 43v27c-28.667 45.333 -43.667 85.333 -45 120l-14 43l-17 43c-4 5.33301 -6 14.333 -6 27l-8 16l-6 27c-9.33301 26 -17 54.667 -23 86c-23.333 49.333 -39 89.666 -47 120.999l-6 51c-23.333 44.667 -35 90 -35 136v11
c-10.667 4 -16 10.333 -16 19c-34 62.667 -51.667 117.334 -53 164.001c-40.667 64 -63.334 127.333 -68.001 190c-28.667 32.667 -59.334 54 -92.001 64c-31.333 -10 -56.666 -15 -75.999 -15h-10c-30 6 -57.667 9.33301 -83 10c-34.667 0 -66.334 -6 -95.001 -18z
M610.003 1530l16.999 -27l22 -86c15.333 -27.333 23 -53.333 23 -78c10.667 -24.667 17.334 -47.667 20.001 -69c38 -58.667 61.333 -116 70 -172l26 -11l27 41l10 33l11 35l10 33l16 35l60 141l10 35l8 24l10 17c39.333 112 77 198.667 113 260c0 39.333 -13 68 -39 86
l-27 -17l-264 13c-15.333 -38 -31 -71.667 -47 -101c-15.333 -72.667 -40 -128.667 -74 -168z" />
    <glyph glyph-name="y" unicode="y" horiz-adv-x="1204" 
d="M25 1772l8.00098 -17.001v-24l43 -138c22 -57.333 35.667 -102.333 41 -135l16 -35v-41c23.333 -49.333 40.333 -97.666 51 -144.999c0 -13.333 3.66699 -25 11 -35l8 -33l8 -43l16 -43v-24c23.333 -34 35 -65.333 35 -94l8 -33l17 -70l16 -16l10 -17
c9.33301 -69.333 26.666 -129.333 51.999 -180v-92v-135v-43c0 -48 -3.66699 -93.667 -11 -137l11 -17c-12.667 -72.667 -19.334 -128 -20.001 -166c0 -10 0.333008 -19.333 1 -28l51 -35h265l-9 16c19.333 29.333 29 59.666 29 90.999c0 12 -1.33301 24 -4 36l-8 35l8 145
l-8 33c5.33301 23.333 8 46.666 8 69.999c-1.33301 28 -2 53.667 -2 77c0 54 3.33301 99.333 10 136c-12 15.333 -20 29 -24 41l-9 51l-16 59c-15.333 31.333 -24.333 60 -27 86c-8 15.333 -13.333 35.333 -16 60c-22 31.333 -33.667 59.333 -35 84l-16 67
c-6.66699 6.66699 -9.33398 13 -8.00098 19v24c-16.667 34 -25.667 62.667 -27 86c-19.333 49.333 -31 88.333 -35 117l-16 27l-8 51c-15.333 36.667 -23.666 67.334 -24.999 92.001c-5.33301 6.66699 -8 15.667 -8 27l-10 26l-25 68v25
c-24.667 62.667 -39 116.334 -43 161.001c-18 2.66699 -29.667 5.66699 -35 9c-5.33301 -5.33301 -10.666 -8.33301 -15.999 -9h-68l-16 9c-30 -3.33301 -57.833 -5 -83.5 -5s-49.167 1.66699 -70.5 5zM567.001 1372l8 -56.9971l11 -35l8 -27l16 -16v-25l27 -61l16 -68
c5.33301 -6.66699 8.33301 -14.667 9 -24l8 -17c2 -49.333 10 -92.333 24 -129c28.667 13.333 49.334 27.666 62.001 42.999l8 52l43 110c5.33301 10.667 13.333 19.667 24 27l-8 33l51 137l9 24l8 33l35 94l8 33l8 27c5.33301 9.33301 10.666 14.666 15.999 15.999
c12 65.333 29.333 116.666 52 153.999c6.66699 31.333 9.66699 57.333 9 78c0 8.66699 -0.333008 16.667 -1 24l-25 8h-26h-25c-38 -5.33301 -73.667 -7.83301 -107 -7.5s-63.333 2.83301 -90 7.5l-24 -24l-16 -70l-19 -33l-8 -34l-35 -60c-16.667 -90 -42 -161 -76 -213z
" />
    <glyph glyph-name="z" unicode="z" horiz-adv-x="1130" 
d="M27 12l43.0039 -10.001h24h60h26h27c20 0.666992 36.667 1 50 1c34 0 62.333 -2.33301 85 -7l51 6c10.667 -6.66699 17 -12 19 -16c20 7.33301 38.667 10.666 56 9.99902h11l17 6c22.667 -1.33301 44 -1.83301 64 -1.5s38.667 0.833008 56 1.5h95c38 -6 73.333 -9 106 -9
s62.667 3 90 9l33 18v43l-8 25l8 27c-5.33301 6.66699 -8 14.667 -8 24l8 51c-8 34.667 -12 67.667 -12 99c0 16.667 1.33301 32.334 4 47.001l-17 26l-24 -8h-37h-33h-24h-35l-27 -10c-34 0 -65.333 6 -94 18c-38.667 -7.33301 -75 -10.833 -109 -10.5
s-66 3.83301 -96 10.5v44l27 43l16 51l27 43l6 32l10 19l51 127c38 74 63.333 139.667 76 197l27 24v35l16 18v25l19 8c18 60 35 103 51 129l8 27l35 67c15.333 45.333 29.666 79.666 42.999 102.999c23.333 69.333 51.333 123.333 84 162v34l8 17v35v196l-49 17h-148h-51
l-51 -9l-264 9h-35h-145h-27h-100l-27 -52v-280l111 -10l120 -9h25h27h67c12.667 0.666992 25 1 37 1c38.667 0 72 -3 100 -9c-38 -110.667 -72 -190.334 -102 -239.001c-8 -49.333 -22.333 -91.666 -43 -126.999l-16 -54l-9 -24l-18 -8
c-6.66699 -32.667 -18.334 -61.334 -35.001 -86.001v-35c-19.333 -26 -39 -57.667 -59 -95c-8 -31.333 -19.667 -62.666 -35 -93.999l-6 -24l-19 -27c-10.667 -49.333 -30.334 -94.333 -59.001 -135c-16.667 -75.333 -45.334 -135.333 -86.001 -180l-16 -52v-86l8 -32
l-8 -19v-59c-1.33301 -13.333 -2 -25.666 -2 -36.999s0.666992 -21.666 2 -30.999z" />
    <glyph glyph-name="braceleft" unicode="{" horiz-adv-x="419" 
 />
    <glyph glyph-name="bar" unicode="|" horiz-adv-x="200" 
 />
    <glyph glyph-name="braceright" unicode="}" horiz-adv-x="358" 
 />
    <glyph glyph-name="asciitilde" unicode="~" 
 />
    <glyph glyph-name="uni00A0" unicode="&#xa0;" horiz-adv-x="497" 
 />
    <glyph glyph-name="exclamdown" unicode="&#xa1;" horiz-adv-x="307" 
 />
    <glyph glyph-name="cent" unicode="&#xa2;" 
 />
    <glyph glyph-name="sterling" unicode="&#xa3;" 
 />
    <glyph glyph-name="currency" unicode="&#xa4;" horiz-adv-x="419" 
 />
    <glyph glyph-name="yen" unicode="&#xa5;" 
 />
    <glyph glyph-name="brokenbar" unicode="&#xa6;" horiz-adv-x="200" 
 />
    <glyph glyph-name="section" unicode="&#xa7;" horiz-adv-x="419" 
 />
    <glyph glyph-name="dieresis" unicode="&#xa8;" horiz-adv-x="370" 
 />
    <glyph glyph-name="copyright" unicode="&#xa9;" horiz-adv-x="712" 
 />
    <glyph glyph-name="ordfeminine" unicode="&#xaa;" horiz-adv-x="401" 
 />
    <glyph glyph-name="guillemotleft" unicode="&#xab;" horiz-adv-x="538" 
 />
    <glyph glyph-name="logicalnot" unicode="&#xac;" horiz-adv-x="1394" 
 />
    <glyph glyph-name="minus" unicode="&#xad;" 
 />
    <glyph glyph-name="minus" unicode="&#x2212;" 
 />
    <glyph glyph-name="registered" unicode="&#xae;" horiz-adv-x="745" 
 />
    <glyph glyph-name="uni02C9" unicode="&#xaf;" horiz-adv-x="358" 
 />
    <glyph glyph-name="uni02C9" unicode="&#x2c9;" horiz-adv-x="358" 
 />
    <glyph glyph-name="degree" unicode="&#xb0;" horiz-adv-x="284" 
 />
    <glyph glyph-name="plusminus" unicode="&#xb1;" 
 />
    <glyph glyph-name="uni00B2" unicode="&#xb2;" horiz-adv-x="299" 
 />
    <glyph glyph-name="uni00B3" unicode="&#xb3;" horiz-adv-x="299" 
 />
    <glyph glyph-name="acute" unicode="&#xb4;" horiz-adv-x="460" 
 />
    <glyph glyph-name="mu" unicode="&#xb5;" horiz-adv-x="419" 
 />
    <glyph glyph-name="mu" unicode="&#x3bc;" horiz-adv-x="419" 
 />
    <glyph glyph-name="paragraph" unicode="&#xb6;" horiz-adv-x="448" 
 />
    <glyph glyph-name="uni2219" unicode="&#xb7;" horiz-adv-x="206" 
 />
    <glyph glyph-name="uni2219" unicode="&#x2219;" horiz-adv-x="206" 
 />
    <glyph glyph-name="cedilla" unicode="&#xb8;" horiz-adv-x="319" 
 />
    <glyph glyph-name="uni00B9" unicode="&#xb9;" horiz-adv-x="299" 
 />
    <glyph glyph-name="ordmasculine" unicode="&#xba;" horiz-adv-x="401" 
 />
    <glyph glyph-name="guillemotright" unicode="&#xbb;" horiz-adv-x="538" 
 />
    <glyph glyph-name="onequarter" unicode="&#xbc;" horiz-adv-x="784" 
 />
    <glyph glyph-name="onehalf" unicode="&#xbd;" horiz-adv-x="784" 
 />
    <glyph glyph-name="threequarters" unicode="&#xbe;" horiz-adv-x="784" 
 />
    <glyph glyph-name="questiondown" unicode="&#xbf;" horiz-adv-x="565" 
 />
    <glyph glyph-name="Agrave" unicode="&#xc0;" horiz-adv-x="608" 
 />
    <glyph glyph-name="Aacute" unicode="&#xc1;" horiz-adv-x="608" 
 />
    <glyph glyph-name="Acircumflex" unicode="&#xc2;" horiz-adv-x="608" 
 />
    <glyph glyph-name="Atilde" unicode="&#xc3;" horiz-adv-x="608" 
 />
    <glyph glyph-name="Adieresis" unicode="&#xc4;" horiz-adv-x="608" 
 />
    <glyph glyph-name="Aring" unicode="&#xc5;" horiz-adv-x="608" 
 />
    <glyph glyph-name="AE" unicode="&#xc6;" horiz-adv-x="817" 
 />
    <glyph glyph-name="Ccedilla" unicode="&#xc7;" horiz-adv-x="1157" 
d="M27 680c-2 16.667 -2.99805 34.833 -2.99805 54.5s1 41.167 3 64.5v196c-3.33301 14.667 -5 29.834 -5 45.501s1.66699 32.167 5 49.5l-9 34l9 41v215l8 52l8 59c20 27.333 40.333 67.666 61 120.999l9 16l43 43l8 27c32.667 9.33301 66.667 26.333 102 51l27 8h24l43 35
l25 6c6 2.66699 12 9 18 19l60 -9c0.666992 -6.66699 1 -14 1 -22c0 -27.333 -3 -56.666 -9 -87.999c5.33301 -31.333 8 -71.666 8 -120.999v-27v-32c-46.667 -12.667 -81 -44.334 -103 -95.001c-2 -17.333 -3 -36.666 -3 -57.999c0 -39.333 4 -82.666 12 -129.999l-9 -27
v-32l9 -27c-4.66699 -12.667 -6.83398 -26 -6.50098 -40s2.5 -28.667 6.5 -44c-6 -22.667 -9 -50.334 -9 -83.001c-0.666992 -9.33301 -0.666992 -19.333 0 -30v-172v-67l-8 -27l8 -33l-8 -24c3.33301 -18.667 5 -39.5 5 -62.5s-1.66699 -47.833 -5 -74.5l17 -148
c49.333 -40.667 78 -97.334 86 -170.001c-6.66699 -22.667 -9.83398 -46.834 -9.50098 -72.501s3.5 -52.834 9.5 -81.501l-9 -18l-77 -16c-117.333 42.667 -220 122.334 -308 239.001c-23.333 60.667 -35 129 -35 205c0.666992 6.66699 1 13 1 19v94c-6 31.333 -9 71 -9 119
zM565.002 11.999c-0.666992 6.66699 -0.664062 13.665 0.00292969 20.998c-0.666992 27.333 2 69 8 125v32c-2.66699 12.667 -5.33398 36 -8.00098 70l19 25l-11 16c53.333 16.667 93.666 54.334 120.999 113.001c0.666992 11.333 1 23.333 1 36
c0 44.667 -3 95.334 -9 152.001l35 60l153 -52l60 -24l24 -19c6.66699 -28 10 -57.333 10 -88c-0.666992 -52 -9.33398 -105.333 -26.001 -160c-49.333 -206 -160.333 -309 -333 -309c-14 0 -28.667 0.666992 -44 2zM584.005 1798c8 4.66699 13.333 13.6699 16 27.0029
c178.667 -40.667 292.667 -157.334 342 -350.001c12 -34.667 18 -71.334 18 -110.001c-0.666992 -28 -4 -57 -10 -87c-24.667 -1.33301 -50 -13 -76 -35c-38 -5.33301 -81 -22.333 -129 -51l-18 -8l-33 8c-6.66699 28.667 -10 62 -10 100c0 16.667 0.666992 34.667 2 54v51
c-24 39.333 -58 70.666 -102 93.999v307zM490.005 -263h-86v217h217v-194l-98 -228h-92z" />
    <glyph glyph-name="Egrave" unicode="&#xc8;" horiz-adv-x="647" 
 />
    <glyph glyph-name="Eacute" unicode="&#xc9;" horiz-adv-x="647" 
 />
    <glyph glyph-name="Ecircumflex" unicode="&#xca;" horiz-adv-x="647" 
 />
    <glyph glyph-name="Edieresis" unicode="&#xcb;" horiz-adv-x="647" 
 />
    <glyph glyph-name="Igrave" unicode="&#xcc;" horiz-adv-x="233" 
 />
    <glyph glyph-name="Iacute" unicode="&#xcd;" horiz-adv-x="233" 
 />
    <glyph glyph-name="Icircumflex" unicode="&#xce;" horiz-adv-x="233" 
 />
    <glyph glyph-name="Idieresis" unicode="&#xcf;" horiz-adv-x="233" 
 />
    <glyph glyph-name="Eth" unicode="&#xd0;" horiz-adv-x="661" 
 />
    <glyph glyph-name="Ntilde" unicode="&#xd1;" horiz-adv-x="610" 
 />
    <glyph glyph-name="Ograve" unicode="&#xd2;" horiz-adv-x="694" 
 />
    <glyph glyph-name="Oacute" unicode="&#xd3;" horiz-adv-x="694" 
 />
    <glyph glyph-name="Ocircumflex" unicode="&#xd4;" horiz-adv-x="694" 
 />
    <glyph glyph-name="Otilde" unicode="&#xd5;" horiz-adv-x="694" 
 />
    <glyph glyph-name="Odieresis" unicode="&#xd6;" horiz-adv-x="1150" 
d="M14 786c-4.66699 34 -7.16992 70.999 -7.50293 110.999s2.16699 83.667 7.5 131v195l9 26l10 23v57c6 20 14.333 66 25 138l9 24l24 56c66.667 74 159 130.333 277 169c38 -6 57 -58 57 -156c0 -29.333 -1.66699 -63 -5 -101c-11.333 -32 -34.333 -56.667 -69 -74l-8 -33
l-19 -23v-162c0.666992 -7.33301 4.33398 -15.333 11.001 -24l-11 -33v-23c2.66699 -14.667 3.83398 -31.667 3.50098 -51s-1.5 -40 -3.5 -62l11 -108v-136v-41l8 -41l-8 -54c6 -21.333 9 -47.666 9 -78.999c0 -8.66699 -0.333008 -18 -1 -28
c-0.666992 -8.66699 -1 -17.334 -1 -26.001c0 -32 3 -66.333 9 -103c14.667 -28.667 43.334 -50.334 86.001 -65.001l19 -48c-1.33301 -11.333 -2 -23.833 -2 -37.5s0.666992 -28.5 2 -44.5c-4.66699 -18.667 -6.83398 -39.167 -6.50098 -61.5s2.5 -47.166 6.5 -74.499
l-9 -26c-14.667 -1.33301 -28.667 -2 -42 -2c-111.333 0 -201.333 49.667 -270 149l-16 -9c-5.33301 36 -22.666 90 -51.999 162l-9 49c1.33301 22.667 -4 50 -16 82l-9 111v25c-12.667 36.667 -19 79.667 -19 129c1.33301 6 2 12.333 2 19
c0 16.667 -3.33301 32.334 -10 47.001zM550.997 1483c5.33301 24 8 50.168 8 78.501s-2.66699 58.5 -8 90.5l25 49c108 -20 205.667 -74 293 -162c6.66699 -26 20.667 -50 42 -72l18 -129l9 -17l8 -24c-0.666992 -4.66699 -1 -9.66699 -1 -15
c0 -37.333 6.66699 -78.333 20 -123l8 -33v-31c-1.33301 -10 -2 -21 -2 -33c0 -22.667 3.66699 -49.667 11 -81v-33v-30l8 -34l-8 -31c2.66699 -20.667 4 -44 4 -70c-0.666992 -44.667 -5 -100 -13 -166v-23v-33v-26v-48v-24c-18 -44 -27 -92.667 -27 -146l-17 -46l-18 -82
c-68.667 -98 -166 -165.667 -292 -203c-32 59.333 -48 127.666 -48 204.999c0 26 1.66699 52.667 5 80v30c28.667 17.333 57 47.333 85 90c1.33301 20 2 41.667 2 65c0 53.333 -3.33301 115 -10 185l8 41l-16 22l16 41v552c-16 50 -50 93 -102 129c0 22 -2.66699 41 -8 57z
M121.997 1806c-10.667 54.667 -8 122.333 8 203l-8 33l8 23l173 -7h26l69 7l24 -7l20 -162v-66v-24l-44 -7h-113h-26h-26h-26l-61 7h-24zM568.997 1806c-11.333 54.667 -8.66699 122.333 8 203l-8 33l8 23l172 -7h27l69 7l24 -7l19 -162v-66v-24l-43 -7h-113h-26h-26h-26
l-61 7h-24z" />
    <glyph glyph-name="multiply" unicode="&#xd7;" 
 />
    <glyph glyph-name="Oslash" unicode="&#xd8;" horiz-adv-x="694" 
 />
    <glyph glyph-name="Ugrave" unicode="&#xd9;" horiz-adv-x="659" 
 />
    <glyph glyph-name="Uacute" unicode="&#xda;" horiz-adv-x="659" 
 />
    <glyph glyph-name="Ucircumflex" unicode="&#xdb;" horiz-adv-x="659" 
 />
    <glyph glyph-name="Udieresis" unicode="&#xdc;" horiz-adv-x="1142" 
d="M31 1550c-1.33301 14.667 -2 30.9971 -2 48.9971s0.666992 37.333 2 58v23h99h26h138h33c7.33301 -38 11 -77.333 11 -118c0 -24.667 -1 -49.334 -3 -74.001c-1.33301 -5.33301 1.66699 -11 9 -17c-6 -16 -9 -36.667 -9 -62v-25c1.33301 -14.667 2 -30.5 2 -47.5
s-0.666992 -36.167 -2 -57.5l9 -49c-6 -28.667 -9 -59 -9 -91c-0.666992 -7.33301 -0.666992 -14.333 0 -21l9 -55v-49v-48v-104v-25v-22v-105v-25c-1.33301 -6.66699 -2 -13.334 -2 -20.001c0.666992 -15.333 4.33398 -29.666 11.001 -42.999l-9 -33
c6.66699 -22.667 10 -46.5 10 -71.5s-3.33301 -51.833 -10 -80.5l9 -25v-56v-23l7 -32c44 -31.333 66 -82 66 -152c-2.66699 -19.333 -4.16699 -41.166 -4.5 -65.499s1.16699 -51.166 4.5 -80.499c-6.66699 -1.33301 -14.334 -6.33301 -23.001 -15
c-142.667 24.667 -253 110 -331 256c0 21.333 -8.66699 48.333 -26 81c0.666992 16.667 1 32.334 1 47.001c0 38 -2.33301 75.333 -7 112v25c2.66699 9.33301 2.66699 17.666 0 24.999v231l6 25v25c-6 22.667 -9 50.334 -9 83.001c0 19.333 1 42 3 68
c-6.66699 46.667 -10 100.334 -10 161.001c0 14 0.333008 27.667 1 41v382zM549 252.997c38 36 62.666 81.668 73.999 137.001l18 7l-8 40c-2 48 -10.333 107 -25 177l-8 529l-8 47v89c5.33301 30.667 8 74 8 130c0.666992 5.33301 1 11.333 1 18
c0.666992 16.667 -2.33301 37 -9 61v104c2 27.333 12.333 56.666 31 87.999h150h34h22h34l18 -8c12.667 -46.667 19 -99 19 -157c0 -24.667 -1.33301 -50.334 -4 -77.001c-1.33301 -8.66699 -2 -18.334 -2 -29.001c0 -22.667 3.33301 -46.667 10 -72l-8 -25l8 -17v-25
l-8 -22l8 -58v-32v-144v-30v-25v-33v-143v-25v-24l7 -137v-33v-22v-47v-43l11 -55c-10.667 -39.333 -16.667 -77.333 -18 -114c-9.33301 -9.33301 -17 -27.333 -23 -54c-65.333 -108.667 -165 -189 -299 -241c-4 10 -11.667 18 -23 24c-1.33301 18.667 -2 38.834 -2 60.501
s0.666992 44.834 2 69.501v22c0.666992 5.33301 -2.66602 11.333 -9.99902 18v71zM45.999 1814c-10 52.667 -7.33301 118.333 8 197l-8 32l8 22l162 -7h24l65 7l23 -7l18 -157v-64v-23l-41 -8h-106l-24 -5l-24 5h-25l-57 8h-23zM589.999 1809
c-10.667 53.333 -8.33301 119 7 197l-7 33l7 22l162 -8h25l64 8l23 -8l18 -157v-64v-23l-41 -8h-105h-25h-24h-24l-58 8h-22z" />
    <glyph glyph-name="Yacute" unicode="&#xdd;" horiz-adv-x="524" 
 />
    <glyph glyph-name="Thorn" unicode="&#xde;" horiz-adv-x="575" 
 />
    <glyph glyph-name="germandbls" unicode="&#xdf;" horiz-adv-x="497" 
 />
    <glyph glyph-name="agrave" unicode="&#xe0;" horiz-adv-x="368" 
 />
    <glyph glyph-name="aacute" unicode="&#xe1;" horiz-adv-x="368" 
 />
    <glyph glyph-name="acircumflex" unicode="&#xe2;" horiz-adv-x="368" 
 />
    <glyph glyph-name="atilde" unicode="&#xe3;" horiz-adv-x="368" 
 />
    <glyph glyph-name="adieresis" unicode="&#xe4;" horiz-adv-x="368" 
 />
    <glyph glyph-name="aring" unicode="&#xe5;" horiz-adv-x="368" 
 />
    <glyph glyph-name="ae" unicode="&#xe6;" horiz-adv-x="745" 
 />
    <glyph glyph-name="ccedilla" unicode="&#xe7;" horiz-adv-x="1157" 
d="M27 680c-2 16.667 -2.99805 34.833 -2.99805 54.5s1 41.167 3 64.5v196c-3.33301 14.667 -5 29.834 -5 45.501s1.66699 32.167 5 49.5l-9 34l9 41v215l8 52l8 59c20 27.333 40.333 67.666 61 120.999l9 16l43 43l8 27c32.667 9.33301 66.667 26.333 102 51l27 8h24l43 35
l25 6c6 2.66699 12 9 18 19l60 -9c0.666992 -6.66699 1 -14 1 -22c0 -27.333 -3 -56.666 -9 -87.999c5.33301 -31.333 8 -71.666 8 -120.999v-27v-32c-46.667 -12.667 -81 -44.334 -103 -95.001c-2 -17.333 -3 -36.666 -3 -57.999c0 -39.333 4 -82.666 12 -129.999l-9 -27
v-32l9 -27c-4.66699 -12.667 -6.83398 -26 -6.50098 -40s2.5 -28.667 6.5 -44c-6 -22.667 -9 -50.334 -9 -83.001c-0.666992 -9.33301 -0.666992 -19.333 0 -30v-172v-67l-8 -27l8 -33l-8 -24c3.33301 -18.667 5 -39.5 5 -62.5s-1.66699 -47.833 -5 -74.5l17 -148
c49.333 -40.667 78 -97.334 86 -170.001c-6.66699 -22.667 -9.83398 -46.834 -9.50098 -72.501s3.5 -52.834 9.5 -81.501l-9 -18l-77 -16c-117.333 42.667 -220 122.334 -308 239.001c-23.333 60.667 -35 129 -35 205c0.666992 6.66699 1 13 1 19v94c-6 31.333 -9 71 -9 119
zM565.002 11.999c-0.666992 6.66699 -0.664062 13.665 0.00292969 20.998c-0.666992 27.333 2 69 8 125v32c-2.66699 12.667 -5.33398 36 -8.00098 70l19 25l-11 16c53.333 16.667 93.666 54.334 120.999 113.001c0.666992 11.333 1 23.333 1 36
c0 44.667 -3 95.334 -9 152.001l35 60l153 -52l60 -24l24 -19c6.66699 -28 10 -57.333 10 -88c-0.666992 -52 -9.33398 -105.333 -26.001 -160c-49.333 -206 -160.333 -309 -333 -309c-14 0 -28.667 0.666992 -44 2zM584.005 1798c8 4.66699 13.333 13.6699 16 27.0029
c178.667 -40.667 292.667 -157.334 342 -350.001c12 -34.667 18 -71.334 18 -110.001c-0.666992 -28 -4 -57 -10 -87c-24.667 -1.33301 -50 -13 -76 -35c-38 -5.33301 -81 -22.333 -129 -51l-18 -8l-33 8c-6.66699 28.667 -10 62 -10 100c0 16.667 0.666992 34.667 2 54v51
c-24 39.333 -58 70.666 -102 93.999v307zM490.005 -263h-86v217h217v-194l-98 -228h-92z" />
    <glyph glyph-name="egrave" unicode="&#xe8;" horiz-adv-x="485" 
 />
    <glyph glyph-name="eacute" unicode="&#xe9;" horiz-adv-x="485" 
 />
    <glyph glyph-name="ecircumflex" unicode="&#xea;" horiz-adv-x="485" 
 />
    <glyph glyph-name="edieresis" unicode="&#xeb;" horiz-adv-x="485" 
 />
    <glyph glyph-name="igrave" unicode="&#xec;" horiz-adv-x="233" 
 />
    <glyph glyph-name="iacute" unicode="&#xed;" horiz-adv-x="233" 
 />
    <glyph glyph-name="icircumflex" unicode="&#xee;" horiz-adv-x="233" 
 />
    <glyph glyph-name="idieresis" unicode="&#xef;" horiz-adv-x="233" 
 />
    <glyph glyph-name="eth" unicode="&#xf0;" horiz-adv-x="481" 
 />
    <glyph glyph-name="ntilde" unicode="&#xf1;" horiz-adv-x="382" 
 />
    <glyph glyph-name="ograve" unicode="&#xf2;" horiz-adv-x="364" 
 />
    <glyph glyph-name="oacute" unicode="&#xf3;" horiz-adv-x="364" 
 />
    <glyph glyph-name="ocircumflex" unicode="&#xf4;" horiz-adv-x="364" 
 />
    <glyph glyph-name="otilde" unicode="&#xf5;" horiz-adv-x="364" 
 />
    <glyph glyph-name="odieresis" unicode="&#xf6;" horiz-adv-x="1150" 
d="M14 786c-4.66699 34 -7.16992 70.999 -7.50293 110.999s2.16699 83.667 7.5 131v195l9 26l10 23v57c6 20 14.333 66 25 138l9 24l24 56c66.667 74 159 130.333 277 169c38 -6 57 -58 57 -156c0 -29.333 -1.66699 -63 -5 -101c-11.333 -32 -34.333 -56.667 -69 -74l-8 -33
l-19 -23v-162c0.666992 -7.33301 4.33398 -15.333 11.001 -24l-11 -33v-23c2.66699 -14.667 3.83398 -31.667 3.50098 -51s-1.5 -40 -3.5 -62l11 -108v-136v-41l8 -41l-8 -54c6 -21.333 9 -47.666 9 -78.999c0 -8.66699 -0.333008 -18 -1 -28
c-0.666992 -8.66699 -1 -17.334 -1 -26.001c0 -32 3 -66.333 9 -103c14.667 -28.667 43.334 -50.334 86.001 -65.001l19 -48c-1.33301 -11.333 -2 -23.833 -2 -37.5s0.666992 -28.5 2 -44.5c-4.66699 -18.667 -6.83398 -39.167 -6.50098 -61.5s2.5 -47.166 6.5 -74.499
l-9 -26c-14.667 -1.33301 -28.667 -2 -42 -2c-111.333 0 -201.333 49.667 -270 149l-16 -9c-5.33301 36 -22.666 90 -51.999 162l-9 49c1.33301 22.667 -4 50 -16 82l-9 111v25c-12.667 36.667 -19 79.667 -19 129c1.33301 6 2 12.333 2 19
c0 16.667 -3.33301 32.334 -10 47.001zM550.997 1483c5.33301 24 8 50.168 8 78.501s-2.66699 58.5 -8 90.5l25 49c108 -20 205.667 -74 293 -162c6.66699 -26 20.667 -50 42 -72l18 -129l9 -17l8 -24c-0.666992 -4.66699 -1 -9.66699 -1 -15
c0 -37.333 6.66699 -78.333 20 -123l8 -33v-31c-1.33301 -10 -2 -21 -2 -33c0 -22.667 3.66699 -49.667 11 -81v-33v-30l8 -34l-8 -31c2.66699 -20.667 4 -44 4 -70c-0.666992 -44.667 -5 -100 -13 -166v-23v-33v-26v-48v-24c-18 -44 -27 -92.667 -27 -146l-17 -46l-18 -82
c-68.667 -98 -166 -165.667 -292 -203c-32 59.333 -48 127.666 -48 204.999c0 26 1.66699 52.667 5 80v30c28.667 17.333 57 47.333 85 90c1.33301 20 2 41.667 2 65c0 53.333 -3.33301 115 -10 185l8 41l-16 22l16 41v552c-16 50 -50 93 -102 129c0 22 -2.66699 41 -8 57z
M121.997 1806c-10.667 54.667 -8 122.333 8 203l-8 33l8 23l173 -7h26l69 7l24 -7l20 -162v-66v-24l-44 -7h-113h-26h-26h-26l-61 7h-24zM568.997 1806c-11.333 54.667 -8.66699 122.333 8 203l-8 33l8 23l172 -7h27l69 7l24 -7l19 -162v-66v-24l-43 -7h-113h-26h-26h-26
l-61 7h-24z" />
    <glyph glyph-name="divide" unicode="&#xf7;" 
 />
    <glyph glyph-name="oslash" unicode="&#xf8;" horiz-adv-x="364" 
 />
    <glyph glyph-name="ugrave" unicode="&#xf9;" horiz-adv-x="339" 
 />
    <glyph glyph-name="uacute" unicode="&#xfa;" horiz-adv-x="339" 
 />
    <glyph glyph-name="ucircumflex" unicode="&#xfb;" horiz-adv-x="339" 
 />
    <glyph glyph-name="udieresis" unicode="&#xfc;" horiz-adv-x="1142" 
d="M31 1550c-1.33301 14.667 -2 30.9971 -2 48.9971s0.666992 37.333 2 58v23h99h26h138h33c7.33301 -38 11 -77.333 11 -118c0 -24.667 -1 -49.334 -3 -74.001c-1.33301 -5.33301 1.66699 -11 9 -17c-6 -16 -9 -36.667 -9 -62v-25c1.33301 -14.667 2 -30.5 2 -47.5
s-0.666992 -36.167 -2 -57.5l9 -49c-6 -28.667 -9 -59 -9 -91c-0.666992 -7.33301 -0.666992 -14.333 0 -21l9 -55v-49v-48v-104v-25v-22v-105v-25c-1.33301 -6.66699 -2 -13.334 -2 -20.001c0.666992 -15.333 4.33398 -29.666 11.001 -42.999l-9 -33
c6.66699 -22.667 10 -46.5 10 -71.5s-3.33301 -51.833 -10 -80.5l9 -25v-56v-23l7 -32c44 -31.333 66 -82 66 -152c-2.66699 -19.333 -4.16699 -41.166 -4.5 -65.499s1.16699 -51.166 4.5 -80.499c-6.66699 -1.33301 -14.334 -6.33301 -23.001 -15
c-142.667 24.667 -253 110 -331 256c0 21.333 -8.66699 48.333 -26 81c0.666992 16.667 1 32.334 1 47.001c0 38 -2.33301 75.333 -7 112v25c2.66699 9.33301 2.66699 17.666 0 24.999v231l6 25v25c-6 22.667 -9 50.334 -9 83.001c0 19.333 1 42 3 68
c-6.66699 46.667 -10 100.334 -10 161.001c0 14 0.333008 27.667 1 41v382zM549 252.997c38 36 62.666 81.668 73.999 137.001l18 7l-8 40c-2 48 -10.333 107 -25 177l-8 529l-8 47v89c5.33301 30.667 8 74 8 130c0.666992 5.33301 1 11.333 1 18
c0.666992 16.667 -2.33301 37 -9 61v104c2 27.333 12.333 56.666 31 87.999h150h34h22h34l18 -8c12.667 -46.667 19 -99 19 -157c0 -24.667 -1.33301 -50.334 -4 -77.001c-1.33301 -8.66699 -2 -18.334 -2 -29.001c0 -22.667 3.33301 -46.667 10 -72l-8 -25l8 -17v-25
l-8 -22l8 -58v-32v-144v-30v-25v-33v-143v-25v-24l7 -137v-33v-22v-47v-43l11 -55c-10.667 -39.333 -16.667 -77.333 -18 -114c-9.33301 -9.33301 -17 -27.333 -23 -54c-65.333 -108.667 -165 -189 -299 -241c-4 10 -11.667 18 -23 24c-1.33301 18.667 -2 38.834 -2 60.501
s0.666992 44.834 2 69.501v22c0.666992 5.33301 -2.66602 11.333 -9.99902 18v71zM45.999 1814c-10 52.667 -7.33301 118.333 8 197l-8 32l8 22l162 -7h24l65 7l23 -7l18 -157v-64v-23l-41 -8h-106l-24 -5l-24 5h-25l-57 8h-23zM589.999 1809
c-10.667 53.333 -8.33301 119 7 197l-7 33l7 22l162 -8h25l64 8l23 -8l18 -157v-64v-23l-41 -8h-105h-25h-24h-24l-58 8h-22z" />
    <glyph glyph-name="yacute" unicode="&#xfd;" horiz-adv-x="391" 
 />
    <glyph glyph-name="thorn" unicode="&#xfe;" horiz-adv-x="346" 
 />
    <glyph glyph-name="ydieresis" unicode="&#xff;" horiz-adv-x="391" 
 />
    <glyph glyph-name="Gbreve" unicode="&#x11e;" horiz-adv-x="1187" 
d="M201 2101l399 -136l397 138l1 -215l-398 -128l-398 126zM90 1237c10.667 -17.333 17 -32.666 19 -45.999v-40c-5.33301 -18.667 -5.33301 -34.334 0 -47.001c-0.666992 -6 -1 -11.667 -1 -17c0 -18.667 3 -34 9 -46c-5.33301 -24.667 -8 -47.334 -8 -68.001
s2.66699 -40 8 -58l-17 -15c9.33301 -4.66699 15 -9.66699 17 -15c-6 -34.667 -9 -66.834 -9 -96.501s3 -57.5 9 -83.5c-10 -66 -15 -127.667 -15 -185c0 -304.667 142 -482.334 426 -533.001c12 25.333 23.667 43.333 35 54v25c-14 50 -21 96.333 -21 139
c0 21.333 1.66699 42.333 5 63c-32.667 30.667 -64 54.334 -94 71.001v46l-8 47v38v48v37l-11 40v32v24v156c-0.666992 8.66699 -0.666992 17.334 0 26.001c0 40.667 3.66699 76 11 106c-10 41.333 -16.333 75.333 -19 102v32v139c0.666992 10 1 19.333 1 28
c0 29.333 -3 54 -9 74c15.333 26 27 49.667 35 71c52 21.333 80.667 52.333 86 93v25v22c-6.66699 6 -10.334 11.333 -11.001 16v63l-8 54l-110 8c-130 -69.333 -227.667 -155.666 -293 -258.999v-39l-17 -39c4.66699 -14 7.33398 -27 8.00098 -39
c-0.666992 -17.333 -6.66699 -35 -18 -53zM659 26c18 -17.333 42.6689 -26.333 74.002 -27c45.333 0 103.666 19 174.999 57c28.667 -50.667 66 -75.667 112 -75c13.333 0 27.666 2 42.999 6v101v32v101v32v29v25c-0.666992 9.33301 -1 18.666 -1 27.999c0 32 3 59 9 81
c-8 32.667 -11.667 62.334 -11 89.001c0 14.667 1 29 3 43l-9 25l9 14l-9 25l9 15v24l-9 15v20c0 44.667 -5.66699 85 -17 121c-11.333 -0.666992 -22 -1 -32 -1c-44 0 -84.667 2.66699 -122 8c-32 -7.33301 -64.333 -11 -97 -11c-17.333 0 -34.333 1.33301 -51 4l-76 -8
v-234l18 -47h85c6.66699 -30.667 10 -58 10 -82c0 -76.667 -31.667 -128 -95 -154l-18 -54v-202zM677.002 1414c36 -21.333 64.333 -44.002 85 -68.002c-2 -30 -3 -58.333 -3 -85c0 -48.667 3.66699 -91 11 -127l62 -7l68 14c44 28.667 89.667 45.334 137 50.001
c0 9.33301 0.333008 18.333 1 27c0 50 -5.66699 92.667 -17 128c-30 173.333 -133.667 280 -311 320c-6.66699 -5.33301 -15.667 -8 -27 -8l-6 -17v-61c-4 -32.667 -6 -63.167 -6 -91.5s2 -53.166 6 -74.499z" />
    <glyph glyph-name="gbreve" unicode="&#x11f;" horiz-adv-x="1187" 
d="M201 2101l399 -136l397 138l1 -215l-398 -128l-398 126zM90 1237c10.667 -17.333 17 -32.666 19 -45.999v-40c-5.33301 -18.667 -5.33301 -34.334 0 -47.001c-0.666992 -6 -1 -11.667 -1 -17c0 -18.667 3 -34 9 -46c-5.33301 -24.667 -8 -47.334 -8 -68.001
s2.66699 -40 8 -58l-17 -15c9.33301 -4.66699 15 -9.66699 17 -15c-6 -34.667 -9 -66.834 -9 -96.501s3 -57.5 9 -83.5c-10 -66 -15 -127.667 -15 -185c0 -304.667 142 -482.334 426 -533.001c12 25.333 23.667 43.333 35 54v25c-14 50 -21 96.333 -21 139
c0 21.333 1.66699 42.333 5 63c-32.667 30.667 -64 54.334 -94 71.001v46l-8 47v38v48v37l-11 40v32v24v156c-0.666992 8.66699 -0.666992 17.334 0 26.001c0 40.667 3.66699 76 11 106c-10 41.333 -16.333 75.333 -19 102v32v139c0.666992 10 1 19.333 1 28
c0 29.333 -3 54 -9 74c15.333 26 27 49.667 35 71c52 21.333 80.667 52.333 86 93v25v22c-6.66699 6 -10.334 11.333 -11.001 16v63l-8 54l-110 8c-130 -69.333 -227.667 -155.666 -293 -258.999v-39l-17 -39c4.66699 -14 7.33398 -27 8.00098 -39
c-0.666992 -17.333 -6.66699 -35 -18 -53zM659 26c18 -17.333 42.6689 -26.333 74.002 -27c45.333 0 103.666 19 174.999 57c28.667 -50.667 66 -75.667 112 -75c13.333 0 27.666 2 42.999 6v101v32v101v32v29v25c-0.666992 9.33301 -1 18.666 -1 27.999c0 32 3 59 9 81
c-8 32.667 -11.667 62.334 -11 89.001c0 14.667 1 29 3 43l-9 25l9 14l-9 25l9 15v24l-9 15v20c0 44.667 -5.66699 85 -17 121c-11.333 -0.666992 -22 -1 -32 -1c-44 0 -84.667 2.66699 -122 8c-32 -7.33301 -64.333 -11 -97 -11c-17.333 0 -34.333 1.33301 -51 4l-76 -8
v-234l18 -47h85c6.66699 -30.667 10 -58 10 -82c0 -76.667 -31.667 -128 -95 -154l-18 -54v-202zM677.002 1414c36 -21.333 64.333 -44.002 85 -68.002c-2 -30 -3 -58.333 -3 -85c0 -48.667 3.66699 -91 11 -127l62 -7l68 14c44 28.667 89.667 45.334 137 50.001
c0 9.33301 0.333008 18.333 1 27c0 50 -5.66699 92.667 -17 128c-30 173.333 -133.667 280 -311 320c-6.66699 -5.33301 -15.667 -8 -27 -8l-6 -17v-61c-4 -32.667 -6 -63.167 -6 -91.5s2 -53.166 6 -74.499z" />
    <glyph glyph-name="Idotaccent" unicode="&#x130;" horiz-adv-x="548" 
d="M39 1511l-9.00293 47v79l32 22c8 -2 16.333 -3 25 -3c16.667 0 33.667 3.66699 51 11l17 -8c20.667 6 42.334 9 65.001 9c30.667 -0.666992 63 -6.33398 97 -17.001l15 -124c-4.66699 -14 -7 -35.333 -7 -64l7 -15v-25v-22v-39v-133v-23v-78v-39v-110v-141v-31v-55v-22
v-25v-23v-101v-25v-22v-95v-22v-134v-32v-157v-22v-62c-35.333 0.666992 -86.666 -7.33301 -153.999 -24c-29.333 10.667 -61.333 16 -96 16c-9.33301 0 -18.666 -0.333008 -27.999 -1l-10 47v446l-5 22l5 40l-5 47l5 39l-5 48c-1.33301 9.33301 -2 19 -2 29
c0 22 2.33301 46 7 72l-5 16v235v29v135c-4 30.667 -6 66.334 -6 107.001s2 85.667 6 135l-9 40zM31.9971 1791c-10 52.667 -7.66699 118 7 196l-7 32l7 22l155 -7h24l62 7l22 -7l17 -157v-63v-23l-39 -7h-101h-24h-23h-24l-54 7h-22z" />
    <glyph glyph-name="dotlessi" unicode="&#x131;" horiz-adv-x="548" 
d="M41 1645l-10 51v86l35 24c9.33301 -2 18.666 -3 27.999 -3c18 0 36.667 4 56 12l18 -9c22.667 6.66699 46.334 10 71.001 10c34 -0.666992 69.667 -6.66699 107 -18l16 -135c-5.33301 -15.333 -8 -38.666 -8 -69.999l8 -16v-27v-24v-43v-144v-26v-84v-43v-119v-154v-34
v-60v-24v-27v-25v-110v-27v-24v-103v-24v-146v-35v-170v-24v-68c-38.667 0.666992 -95 -8 -169 -26c-32 11.333 -67 17 -105 17c-10 0 -20.333 -0.333008 -31 -1l-10 51v486l-6 24l6 43l-6 51l6 43l-6 52c-1.33301 10 -2 20.667 -2 32c0 23.333 2.66699 49.333 8 78l-6 17
v256v32v146c-4 33.333 -6 72.166 -6 116.499s2 93.5 6 147.5l-10 43z" />
    <glyph glyph-name="OE" unicode="&#x152;" horiz-adv-x="952" 
 />
    <glyph glyph-name="oe" unicode="&#x153;" horiz-adv-x="755" 
 />
    <glyph glyph-name="Scedilla" unicode="&#x15e;" horiz-adv-x="1245" 
d="M552 -305h-86v217h217v-194l-98 -228h-92zM41 442c-0.666992 5.33301 -1 10.668 -1 16.001c0 77.333 72.333 116 217 116c3.33301 -0.666992 7 -1 11 -1h72c14.667 -134.667 70 -230.667 166 -288c8 -41.333 12 -88.5 12 -141.5s-4 -111.167 -12 -174.5l-62 19h-26
c-191.333 77.333 -317 228.666 -377 453.999zM76 1509c20.667 22 38.334 48.668 53.001 80.001c17.333 26.667 34.333 59 51 97c14.667 9.33301 29.667 23.666 45 42.999c42.667 13.333 83 42.666 121 87.999c10 0 19.667 2.66699 29 8c27.333 0 62 -9 104 -27
c-0.666992 -10.667 -1 -21.667 -1 -33c-0.666992 -26.667 2.33301 -62 9 -106c-6 -20.667 -9 -44.667 -9 -72c0 -7.33301 0.333008 -15.333 1 -24l-10 -19l10 -24c-8 -20.667 -14 -44 -18 -70c-18.667 -22 -35.667 -46 -51 -72c-7.33301 -30 -11 -64.667 -11 -104
c75.333 -83.333 171.666 -147.666 288.999 -192.999c30 -34 71 -63.333 123 -88l35 -35c31.333 -18.667 66 -50.667 104 -96l19 -8l78 -158l18 -34c2.66699 -27.333 11.667 -54 27 -80c2 -22 3 -43.333 3 -64c0 -182 -80.333 -338.333 -241 -469
c-52 -34 -119 -54.333 -201 -61c-7.33301 36 -11 79.333 -11 130c0 27.333 1 57 3 89l-8 131c79.333 38 123 108.333 131 211c-19.333 52 -57.666 104 -114.999 156l-61 18c-24.667 24.667 -53.334 48 -86.001 70l-27 8l-10 18l-25 8l-10 19
c-242 102.667 -363 291.334 -363 566.001c0 31.333 1.66699 63.666 5 96.999zM592 1817c211.333 -16.667 357.333 -133.667 438 -351c8 -22 12 -45.333 12 -70s-4 -50.334 -12 -77.001c-39.333 -0.666992 -89 -7 -149 -19h-27c-7.33301 0 -16.333 -3.33301 -27 -10h-34
l-35 -8h-27l-24 18c-7.33301 32 -11 64.333 -11 97c-14.667 28 -37.667 51 -69 69l-35 54v200c0.666992 6 1 11.667 1 17c0 18.667 -3 36.334 -9 53.001z" />
    <glyph glyph-name="scedilla" unicode="&#x15f;" horiz-adv-x="1245" 
d="M552 -305h-86v217h217v-194l-98 -228h-92zM41 442c-0.666992 5.33301 -1 10.668 -1 16.001c0 77.333 72.333 116 217 116c3.33301 -0.666992 7 -1 11 -1h72c14.667 -134.667 70 -230.667 166 -288c8 -41.333 12 -88.5 12 -141.5s-4 -111.167 -12 -174.5l-62 19h-26
c-191.333 77.333 -317 228.666 -377 453.999zM76 1509c20.667 22 38.334 48.668 53.001 80.001c17.333 26.667 34.333 59 51 97c14.667 9.33301 29.667 23.666 45 42.999c42.667 13.333 83 42.666 121 87.999c10 0 19.667 2.66699 29 8c27.333 0 62 -9 104 -27
c-0.666992 -10.667 -1 -21.667 -1 -33c-0.666992 -26.667 2.33301 -62 9 -106c-6 -20.667 -9 -44.667 -9 -72c0 -7.33301 0.333008 -15.333 1 -24l-10 -19l10 -24c-8 -20.667 -14 -44 -18 -70c-18.667 -22 -35.667 -46 -51 -72c-7.33301 -30 -11 -64.667 -11 -104
c75.333 -83.333 171.666 -147.666 288.999 -192.999c30 -34 71 -63.333 123 -88l35 -35c31.333 -18.667 66 -50.667 104 -96l19 -8l78 -158l18 -34c2.66699 -27.333 11.667 -54 27 -80c2 -22 3 -43.333 3 -64c0 -182 -80.333 -338.333 -241 -469
c-52 -34 -119 -54.333 -201 -61c-7.33301 36 -11 79.333 -11 130c0 27.333 1 57 3 89l-8 131c79.333 38 123 108.333 131 211c-19.333 52 -57.666 104 -114.999 156l-61 18c-24.667 24.667 -53.334 48 -86.001 70l-27 8l-10 18l-25 8l-10 19
c-242 102.667 -363 291.334 -363 566.001c0 31.333 1.66699 63.666 5 96.999zM592 1817c211.333 -16.667 357.333 -133.667 438 -351c8 -22 12 -45.333 12 -70s-4 -50.334 -12 -77.001c-39.333 -0.666992 -89 -7 -149 -19h-27c-7.33301 0 -16.333 -3.33301 -27 -10h-34
l-35 -8h-27l-24 18c-7.33301 32 -11 64.333 -11 97c-14.667 28 -37.667 51 -69 69l-35 54v200c0.666992 6 1 11.667 1 17c0 18.667 -3 36.334 -9 53.001z" />
    <glyph glyph-name="Ydieresis" unicode="&#x178;" horiz-adv-x="524" 
 />
    <glyph glyph-name="circumflex" unicode="&#x2c6;" horiz-adv-x="358" 
 />
    <glyph glyph-name="tilde" unicode="&#x2dc;" horiz-adv-x="481" 
 />
    <glyph glyph-name="uni2000" unicode="&#x2000;" horiz-adv-x="925" 
 />
    <glyph glyph-name="uni2001" unicode="&#x2001;" horiz-adv-x="1853" 
 />
    <glyph glyph-name="uni2002" unicode="&#x2002;" horiz-adv-x="925" 
 />
    <glyph glyph-name="uni2003" unicode="&#x2003;" horiz-adv-x="1853" 
 />
    <glyph glyph-name="uni2004" unicode="&#x2004;" horiz-adv-x="616" 
 />
    <glyph glyph-name="uni2005" unicode="&#x2005;" horiz-adv-x="462" 
 />
    <glyph glyph-name="uni2006" unicode="&#x2006;" horiz-adv-x="307" 
 />
    <glyph glyph-name="uni2007" unicode="&#x2007;" horiz-adv-x="307" 
 />
    <glyph glyph-name="uni2008" unicode="&#x2008;" horiz-adv-x="229" 
 />
    <glyph glyph-name="uni2009" unicode="&#x2009;" horiz-adv-x="370" 
 />
    <glyph glyph-name="uni200A" unicode="&#x200a;" horiz-adv-x="102" 
 />
    <glyph glyph-name="uni2010" unicode="&#x2010;" horiz-adv-x="530" 
d="M66 811c-10.667 57.333 -8 128.333 8 213l-8 35l8 24l170 -8h26l68 8l24 -8l19 -170v-69v-25l-43 -8h-111h-26h-25h-26l-60 8h-24v0z" />
    <glyph glyph-name="uni2011" unicode="&#x2011;" horiz-adv-x="530" 
d="M66 811c-10.667 57.333 -8 128.333 8 213l-8 35l8 24l170 -8h26l68 8l24 -8l19 -170v-69v-25l-43 -8h-111h-26h-25h-26l-60 8h-24v0z" />
    <glyph glyph-name="figuredash" unicode="&#x2012;" horiz-adv-x="530" 
d="M66 811c-10.667 57.333 -8 128.333 8 213l-8 35l8 24l170 -8h26l68 8l24 -8l19 -170v-69v-25l-43 -8h-111h-26h-25h-26l-60 8h-24v0z" />
    <glyph glyph-name="endash" unicode="&#x2013;" horiz-adv-x="681" 
 />
    <glyph glyph-name="emdash" unicode="&#x2014;" horiz-adv-x="892" 
 />
    <glyph glyph-name="quoteleft" unicode="&#x2018;" horiz-adv-x="235" 
 />
    <glyph glyph-name="quoteright" unicode="&#x2019;" horiz-adv-x="239" 
 />
    <glyph glyph-name="quotesinglbase" unicode="&#x201a;" horiz-adv-x="233" 
 />
    <glyph glyph-name="quotedblleft" unicode="&#x201c;" horiz-adv-x="339" 
 />
    <glyph glyph-name="quotedblright" unicode="&#x201d;" horiz-adv-x="299" 
 />
    <glyph glyph-name="quotedblbase" unicode="&#x201e;" horiz-adv-x="401" 
 />
    <glyph glyph-name="bullet" unicode="&#x2022;" horiz-adv-x="385" 
 />
    <glyph glyph-name="ellipsis" unicode="&#x2026;" horiz-adv-x="790" 
 />
    <glyph glyph-name="uni202F" unicode="&#x202f;" horiz-adv-x="370" 
 />
    <glyph glyph-name="guilsinglleft" unicode="&#x2039;" horiz-adv-x="319" 
 />
    <glyph glyph-name="guilsinglright" unicode="&#x203a;" horiz-adv-x="319" 
 />
    <glyph glyph-name="uni205F" unicode="&#x205f;" horiz-adv-x="462" 
 />
    <glyph glyph-name="trademark" unicode="&#x2122;" horiz-adv-x="679" 
 />
    <glyph glyph-name="uniE000" unicode="&#xe000;" horiz-adv-x="1825" 
d="M0 1825h1825v-1825h-1825v1825z" />
    <glyph glyph-name="uniFB01" unicode="&#xfb01;" horiz-adv-x="1673" 
d="M1155 1620l10 -43c-4 -54 -6 -103.167 -6 -147.5s2 -83.166 6 -116.499v-146v-32v-256l6 -17c-5.33301 -28.667 -8 -54.667 -8 -78c0 -11.333 0.666992 -22 2 -32l6 -52l-6 -43l6 -51l-6 -43l6 -24v-486l10 -51c10.667 0.666992 21 1 31 1c38 0 73 -5.66699 105 -17
c74 18 130.333 26.667 169 26v68v24v170v35v146v24v103v24v27v110v25v27v24v60v34v154v119v43v84v26v144v43v24v27l-8 16c0 31.333 2.66699 54.666 8 69.999l-16 135c-37.333 11.333 -73 17.333 -107 18c-24.667 0 -48.334 -3.33301 -71.001 -10l-18 9
c-19.333 -8 -38 -12 -56 -12c-9.33301 0 -18.666 1 -27.999 3l-35 -24v-86l10 -51zM29 12l33.9971 -15.999l25 8c33.333 6 65 9 95 9c40.667 0 78 -5.66699 112 -17l43 16v113v35v151v97v32v35v35v33v145v27v102l24 -8h35h33h62h153l35 59v35v25l-8 16
c3.33301 27.333 4.83301 54.166 4.5 80.499s-1.83301 51.5 -4.5 75.5l-43 16c-34 -4 -67.333 -6 -100 -6c-67.333 0 -128.333 8.33301 -183 25l8 41l-8 26l8 43l-8 68v26l8 154c26 19.333 49.333 31 70 35l33 -8l43 8c25.333 -6 50 -9 74 -9
c6.66699 0 13.334 0.333008 20.001 1h43h25h34l27 8l16 -8l17 8c44 -6.66699 79 -10 105 -10c11.333 0 22 0.666992 32 2c28.667 70.667 43 138.334 43 203.001c0 28.667 -2.66699 57 -8 85l-51 19l-52 -8h-43h-26l-17 8c-21.333 -2 -40.666 -3 -57.999 -3s-32 1 -44 3
l-59 -8h-121h-27c-23.333 5.33301 -46 8 -68 8h-94l-24 8h-172l-33 -43v-1214v-43v-265l-10 -26l10 -43c-9.33301 -50.667 -14.333 -95 -15 -133c0.666992 -20.667 2.33398 -39.334 5.00098 -56.001z" />
    <glyph glyph-name="uniFB02" unicode="&#xfb02;" horiz-adv-x="2236" 
d="M1153 33l23.998 -19.002l35 -8h35l33 -8h34h109h27h43h32h25h43h43h27h100h27c24.667 1.33301 47.334 2 68.001 2c48.667 0 90.667 -3.33301 126 -10c38 9.33301 63.333 17.333 76 24v27c2 36 3 68.667 3 98c0 54.667 -3.66699 101.334 -11 140.001l-33 16
c-40 -8 -77.833 -12 -113.5 -12s-68.834 4 -99.501 12c-17.333 -3.33301 -33.666 -5 -48.999 -5c-25.333 0 -48.666 4.33301 -69.999 13c-28 -6.66699 -54 -9.66699 -78 -9c-40 0 -76 8.33301 -108 25v62v49v59v52l8 59l-8 51v25v35v67v25v26c-0.666992 14 -1 27.333 -1 40
c0 42 3 76.667 9 104l-16 59v60l8 51v24v27c-6 31.333 -9 62.333 -9 93c0 8.66699 0.333008 17.334 1 26.001l8 24c-3.33301 16.667 -5 31.834 -5 45.501s1.66699 26.5 5 38.5l-8 35c4 44.667 6 86.667 6 126c0 79.333 -8.33301 150 -25 212c-40 8 -76.333 12 -109 12
c-18 0 -35 -1.33301 -51 -4c-5.33301 -8 -11.333 -10.667 -18 -8h-68l-59 -8l-16 -41l8 -942l-8 -60c3.33301 -27.333 4.83301 -52.833 4.5 -76.5s-1.83301 -45.834 -4.5 -66.501c1.33301 -30 1.83301 -56.833 1.5 -80.5s-0.833008 -44.5 -1.5 -62.5v-424zM28.998 11.998
l33.9971 -15.999l25 8c33.333 6 65 9 95 9c40.667 0 78 -5.66699 112 -17l43 16v113v35v151v97v32v35v35v33v145v27v102l24 -8h35h33h62h153l35 59v35v25l-8 16c3.33301 27.333 4.83301 54.166 4.5 80.499s-1.83301 51.5 -4.5 75.5l-43 16c-34 -4 -67.333 -6 -100 -6
c-67.333 0 -128.333 8.33301 -183 25l8 41l-8 26l8 43l-8 68v26l8 154c26 19.333 49.333 31 70 35l33 -8l43 8c25.333 -6 50 -9 74 -9c6.66699 0 13.334 0.333008 20.001 1h43h25h34l27 8l16 -8l17 8c44 -6.66699 79 -10 105 -10c11.333 0 22 0.666992 32 2
c28.667 70.667 43 138.334 43 203.001c0 28.667 -2.66699 57 -8 85l-51 19l-52 -8h-43h-26l-17 8c-21.333 -2 -40.666 -3 -57.999 -3s-32 1 -44 3l-59 -8h-121h-27c-23.333 5.33301 -46 8 -68 8h-94l-24 8h-172l-33 -43v-1214v-43v-265l-10 -26l10 -43
c-9.33301 -50.667 -14.333 -95 -15 -133c0.666992 -20.667 2.33398 -39.334 5.00098 -56.001z" />
    <glyph glyph-name="uniFB03" unicode="&#xfb03;" horiz-adv-x="2797" 
d="M2282 1620l10 -43c-4 -54 -6 -103.167 -6 -147.5s2 -83.166 6 -116.499v-146v-32v-256l6 -17c-5.33301 -28.667 -8 -54.667 -8 -78c0 -11.333 0.666992 -22 2 -32l6 -52l-6 -43l6 -51l-6 -43l6 -24v-486l10 -51c10.667 0.666992 21 1 31 1c38 0 73 -5.66699 105 -17
c74 18 130.333 26.667 169 26v68v24v170v35v146v24v103v24v27v110v25v27v24v60v34v154v119v43v84v26v144v43v24v27l-8 16c0 31.333 2.66699 54.666 8 69.999l-16 135c-37.333 11.333 -73 17.333 -107 18c-24.667 0 -48.334 -3.33301 -71 -10l-18 9
c-19.333 -8 -38 -12 -56 -12c-9.33301 0 -18.666 1 -28 3l-35 -24v-86l10 -51zM1153 12l33.9971 -15.999l25 8c33.333 6 65 9 95 9c40.667 0 78 -5.66699 112 -17l43 16v113v35v151v97v32v35v35v33v145v27v102l24 -8h35h33h62h153l35 59v35v25l-8 16
c3.33301 27.333 4.83301 54.166 4.5 80.499s-1.83301 51.5 -4.5 75.5l-43 16c-34 -4 -67.333 -6 -100 -6c-67.333 0 -128.333 8.33301 -183 25l8 41l-8 26l8 43l-8 68v26l8 154c26 19.333 49.333 31 70 35l33 -8l43 8c25.333 -6 50 -9 74 -9
c6.66699 0 13.334 0.333008 20.001 1h43h25h34l27 8l16 -8l17 8c44 -6.66699 79 -10 105 -10c11.333 0 22 0.666992 32 2c28.667 70.667 43 138.334 43 203.001c0 28.667 -2.66699 57 -8 85l-51 19l-52 -8h-43h-26l-17 8c-21.333 -2 -40.666 -3 -57.999 -3s-32 1 -44 3
l-59 -8h-121h-27c-23.333 5.33301 -46 8 -68 8h-94l-24 8h-172l-33 -43v-1214v-43v-265l-10 -26l10 -43c-9.33301 -50.667 -14.333 -95 -15 -133c0.666992 -20.667 2.33398 -39.334 5.00098 -56.001zM28.9971 12.001l33.9971 -15.999l25 8c33.333 6 65 9 95 9
c40.667 0 78 -5.66699 112 -17l43 16v113v35v151v97v32v35v35v33v145v27v102l24 -8h35h33h62h153l35 59v35v25l-8 16c3.33301 27.333 4.83301 54.166 4.5 80.499s-1.83301 51.5 -4.5 75.5l-43 16c-34 -4 -67.333 -6 -100 -6c-67.333 0 -128.333 8.33301 -183 25l8 41l-8 26
l8 43l-8 68v26l8 154c26 19.333 49.333 31 70 35l33 -8l43 8c25.333 -6 50 -9 74 -9c6.66699 0 13.334 0.333008 20.001 1h43h25h34l27 8l16 -8l17 8c44 -6.66699 79 -10 105 -10c11.333 0 22 0.666992 32 2c28.667 70.667 43 138.334 43 203.001
c0 28.667 -2.66699 57 -8 85l-51 19l-52 -8h-43h-26l-17 8c-21.333 -2 -40.666 -3 -57.999 -3s-32 1 -44 3l-59 -8h-121h-27c-23.333 5.33301 -46 8 -68 8h-94l-24 8h-172l-33 -43v-1214v-43v-265l-10 -26l10 -43c-9.33301 -50.667 -14.333 -95 -15 -133
c0.666992 -20.667 2.33398 -39.334 5.00098 -56.001z" />
    <glyph glyph-name="uniFB04" unicode="&#xfb04;" horiz-adv-x="3362" 
d="M2280 33l24 -19.002l35 -8h35l33 -8h34h109h27h43h32h25h43h43h27h100h27c24.667 1.33301 47.334 2 68 2c48.667 0 90.667 -3.33301 126 -10c38 9.33301 63.333 17.333 76 24v27c2 36 3 68.667 3 98c0 54.667 -3.66699 101.334 -11 140.001l-33 16
c-40 -8 -77.833 -12 -113.5 -12s-68.834 4 -99.5 12c-17.333 -3.33301 -33.666 -5 -49 -5c-25.333 0 -48.666 4.33301 -70 13c-28 -6.66699 -54 -9.66699 -78 -9c-40 0 -76 8.33301 -108 25v62v49v59v52l8 59l-8 51v25v35v67v25v26c-0.666992 14 -1 27.333 -1 40
c0 42 3 76.667 9 104l-16 59v60l8 51v24v27c-6 31.333 -9 62.333 -9 93c0 8.66699 0.333008 17.334 1 26.001l8 24c-3.33301 16.667 -5 31.834 -5 45.501s1.66699 26.5 5 38.5l-8 35c4 44.667 6 86.667 6 126c0 79.333 -8.33301 150 -25 212c-40 8 -76.333 12 -109 12
c-18 0 -35 -1.33301 -51 -4c-5.33301 -8 -11.333 -10.667 -18 -8h-68l-59 -8l-16 -41l8 -942l-8 -60c3.33301 -27.333 4.83301 -52.833 4.5 -76.5s-1.83301 -45.834 -4.5 -66.501c1.33301 -30 1.83301 -56.833 1.5 -80.5s-0.833008 -44.5 -1.5 -62.5v-424zM1153 11.998
l33.9971 -15.999l25 8c33.333 6 65 9 95 9c40.667 0 78 -5.66699 112 -17l43 16v113v35v151v97v32v35v35v33v145v27v102l24 -8h35h33h62h153l35 59v35v25l-8 16c3.33301 27.333 4.83301 54.166 4.5 80.499s-1.83301 51.5 -4.5 75.5l-43 16c-34 -4 -67.333 -6 -100 -6
c-67.333 0 -128.333 8.33301 -183 25l8 41l-8 26l8 43l-8 68v26l8 154c26 19.333 49.333 31 70 35l33 -8l43 8c25.333 -6 50 -9 74 -9c6.66699 0 13.334 0.333008 20.001 1h43h25h34l27 8l16 -8l17 8c44 -6.66699 79 -10 105 -10c11.333 0 22 0.666992 32 2
c28.667 70.667 43 138.334 43 203.001c0 28.667 -2.66699 57 -8 85l-51 19l-52 -8h-43h-26l-17 8c-21.333 -2 -40.666 -3 -57.999 -3s-32 1 -44 3l-59 -8h-121h-27c-23.333 5.33301 -46 8 -68 8h-94l-24 8h-172l-33 -43v-1214v-43v-265l-10 -26l10 -43
c-9.33301 -50.667 -14.333 -95 -15 -133c0.666992 -20.667 2.33398 -39.334 5.00098 -56.001zM28.9971 11.999l33.9971 -15.999l25 8c33.333 6 65 9 95 9c40.667 0 78 -5.66699 112 -17l43 16v113v35v151v97v32v35v35v33v145v27v102l24 -8h35h33h62h153l35 59v35v25l-8 16
c3.33301 27.333 4.83301 54.166 4.5 80.499s-1.83301 51.5 -4.5 75.5l-43 16c-34 -4 -67.333 -6 -100 -6c-67.333 0 -128.333 8.33301 -183 25l8 41l-8 26l8 43l-8 68v26l8 154c26 19.333 49.333 31 70 35l33 -8l43 8c25.333 -6 50 -9 74 -9
c6.66699 0 13.334 0.333008 20.001 1h43h25h34l27 8l16 -8l17 8c44 -6.66699 79 -10 105 -10c11.333 0 22 0.666992 32 2c28.667 70.667 43 138.334 43 203.001c0 28.667 -2.66699 57 -8 85l-51 19l-52 -8h-43h-26l-17 8c-21.333 -2 -40.666 -3 -57.999 -3s-32 1 -44 3
l-59 -8h-121h-27c-23.333 5.33301 -46 8 -68 8h-94l-24 8h-172l-33 -43v-1214v-43v-265l-10 -26l10 -43c-9.33301 -50.667 -14.333 -95 -15 -133c0.666992 -20.667 2.33398 -39.334 5.00098 -56.001z" />
    <glyph glyph-name="NULL" horiz-adv-x="0" 
 />
    <glyph glyph-name="nonmarkingreturn" horiz-adv-x="682" 
 />
    <glyph glyph-name="exclam.001" horiz-adv-x="247" 
 />
    <glyph glyph-name="quotedbl.001" horiz-adv-x="235" 
 />
    <glyph glyph-name="parenleft.001" horiz-adv-x="335" 
 />
    <glyph glyph-name="parenright.001" horiz-adv-x="382" 
 />
    <glyph glyph-name="comma.001" horiz-adv-x="360" 
 />
    <glyph glyph-name="colon.001" horiz-adv-x="229" 
 />
    <glyph glyph-name="semicolon.001" horiz-adv-x="235" 
 />
    <glyph glyph-name="question.001" horiz-adv-x="565" 
 />
    <glyph glyph-name="at.001" horiz-adv-x="577" 
 />
    <glyph glyph-name="i.001" horiz-adv-x="548" 
d="M31 1620l10 -43c-4 -54 -6 -103.167 -6 -147.5s2 -83.166 6 -116.499v-146v-32v-256l6 -17c-5.33301 -28.667 -8 -54.667 -8 -78c0 -11.333 0.666992 -22 2 -32l6 -52l-6 -43l6 -51l-6 -43l6 -24v-486l10 -51c10.667 0.666992 21 1 31 1c38 0 73 -5.66699 105 -17
c74 18 130.333 26.667 169 26v68v24v170v35v146v24v103v24v27v110v25v27v24v60v34v154v119v43v84v26v144v43v24v27l-8 16c0 31.333 2.66699 54.666 8 69.999l-16 135c-37.333 11.333 -73 17.333 -107 18c-24.667 0 -48.334 -3.33301 -71.001 -10l-18 9
c-19.333 -8 -38 -12 -56 -12c-9.33301 0 -18.666 1 -27.999 3l-35 -24v-86l10 -51z" />
    <glyph glyph-name="Ccedilla.001" horiz-adv-x="727" 
 />
    <glyph glyph-name="Odieresis.001" horiz-adv-x="694" 
 />
    <glyph glyph-name="Udieresis.001" horiz-adv-x="659" 
 />
    <glyph glyph-name="ccedilla.001" horiz-adv-x="509" 
 />
    <glyph glyph-name="odieresis.001" horiz-adv-x="364" 
 />
    <glyph glyph-name="udieresis.001" horiz-adv-x="339" 
 />
    <glyph glyph-name="Scedilla.001" horiz-adv-x="1245" 
d="M552 -305h-86v217h217v-194l-98 -228h-92zM41 442c-0.666992 5.33301 -1 10.668 -1 16.001c0 77.333 72.333 116 217 116c3.33301 -0.666992 7 -1 11 -1h72c14.667 -134.667 70 -230.667 166 -288c8 -41.333 12 -88.5 12 -141.5s-4 -111.167 -12 -174.5l-62 19h-26
c-191.333 77.333 -317 228.666 -377 453.999zM76 1509c20.667 22 38.334 48.668 53.001 80.001c17.333 26.667 34.333 59 51 97c14.667 9.33301 29.667 23.666 45 42.999c42.667 13.333 83 42.666 121 87.999c10 0 19.667 2.66699 29 8c27.333 0 62 -9 104 -27
c-0.666992 -10.667 -1 -21.667 -1 -33c-0.666992 -26.667 2.33301 -62 9 -106c-6 -20.667 -9 -44.667 -9 -72c0 -7.33301 0.333008 -15.333 1 -24l-10 -19l10 -24c-8 -20.667 -14 -44 -18 -70c-18.667 -22 -35.667 -46 -51 -72c-7.33301 -30 -11 -64.667 -11 -104
c75.333 -83.333 171.666 -147.666 288.999 -192.999c30 -34 71 -63.333 123 -88l35 -35c31.333 -18.667 66 -50.667 104 -96l19 -8l78 -158l18 -34c2.66699 -27.333 11.667 -54 27 -80c2 -22 3 -43.333 3 -64c0 -182 -80.333 -338.333 -241 -469
c-52 -34 -119 -54.333 -201 -61c-7.33301 36 -11 79.333 -11 130c0 27.333 1 57 3 89l-8 131c79.333 38 123 108.333 131 211c-19.333 52 -57.666 104 -114.999 156l-61 18c-24.667 24.667 -53.334 48 -86.001 70l-27 8l-10 18l-25 8l-10 19
c-242 102.667 -363 291.334 -363 566.001c0 31.333 1.66699 63.666 5 96.999zM592 1817c211.333 -16.667 357.333 -133.667 438 -351c8 -22 12 -45.333 12 -70s-4 -50.334 -12 -77.001c-39.333 -0.666992 -89 -7 -149 -19h-27c-7.33301 0 -16.333 -3.33301 -27 -10h-34
l-35 -8h-27l-24 18c-7.33301 32 -11 64.333 -11 97c-14.667 28 -37.667 51 -69 69l-35 54v200c0.666992 6 1 11.667 1 17c0 18.667 -3 36.334 -9 53.001z" />
    <glyph glyph-name="scedilla.001" horiz-adv-x="1245" 
d="M41 442c60 -225.333 185.667 -376.668 377 -454.001h26l62 -19c8 63.333 12 121.5 12 174.5s-4 100.167 -12 141.5c-96 57.333 -151.333 153.333 -166 288h-72c-4 0 -7.66699 0.333008 -11 1c-144.667 0 -217 -38.667 -217 -116c0 -5.33301 0.333008 -10.666 1 -15.999z
M76 1509c-3.33301 -33.333 -5 -65.667 -5 -97c0 -274.667 121 -463.334 363 -566.001l10 -19l25 -8l10 -18l27 -8c32.667 -22 61.334 -45.333 86.001 -70l61 -18c57.333 -52 95.666 -104 114.999 -156c-8 -102.667 -51.667 -173 -131 -211l8 -131c-2 -32 -3 -61.667 -3 -89
c0 -50.667 3.66699 -94 11 -130c82 6.66699 149 27 201 61c160.667 130.667 241 287 241 469c0 20.667 -1 42 -3 64c-15.333 26 -24.333 52.667 -27 80l-18 34l-78 158l-19 8c-38 45.333 -72.667 77.333 -104 96l-35 35c-52 24.667 -93 54 -123 88
c-117.333 45.333 -213.666 109.666 -288.999 192.999c0 39.333 3.66699 74 11 104c15.333 26 32.333 50 51 72c4 26 10 49.333 18 70l-10 24l10 19c-0.666992 8.66699 -1 16.667 -1 24c0 27.333 3 51.333 9 72c-6.66699 44 -9.66699 79.333 -9 106
c0 11.333 0.333008 22.333 1 33c-42 18 -76.667 27 -104 27c-9.33301 -5.33301 -19 -8 -29 -8c-38 -45.333 -78.333 -74.666 -121 -87.999c-15.333 -19.333 -30.333 -33.666 -45 -42.999c-16.667 -38 -33.667 -70.333 -51 -97c-14.667 -31.333 -32.334 -58 -53.001 -80z
M584 1790c6 -16.667 9 -34.334 9 -53.001c0 -5.33301 -0.333008 -11 -1 -17v-200l35 -54c31.333 -18 54.333 -41 69 -69c0 -32.667 3.66699 -65 11 -97l24 -18h27l35 8h34c10.667 6.66699 19.667 10 27 10h27c60 12 109.667 18.333 149 19c8 26.667 12 52.334 12 77.001
s-4 48 -12 70c-80.667 217.333 -226.667 334.333 -438 351z" />
    <glyph glyph-name="dotlessi.001" horiz-adv-x="548" 
d="M39 1511l-9.00293 47v79l32 22c8 -2 16.333 -3 25 -3c16.667 0 33.667 3.66699 51 11l17 -8c20.667 6 42.334 9 65.001 9c30.667 -0.666992 63 -6.33398 97 -17.001l15 -124c-4.66699 -14 -7 -35.333 -7 -64l7 -15v-25v-22v-39v-133v-23v-78v-39v-110v-141v-31v-55v-22
v-25v-23v-101v-25v-22v-95v-22v-134v-32v-157v-22v-62c-35.333 0.666992 -86.666 -7.33301 -153.999 -24c-29.333 10.667 -61.333 16 -96 16c-9.33301 0 -18.666 -0.333008 -27.999 -1l-10 47v446l-5 22l5 40l-5 47l5 39l-5 48c-1.33301 9.33301 -2 19 -2 29
c0 22 2.33301 46 7 72l-5 16v235v29v135c-4 30.667 -6 66.334 -6 107.001s2 85.667 6 135l-9 40zM31.9971 1791c-10 52.667 -7.66699 118 7 196l-7 32l7 22l155 -7h24l62 7l22 -7l17 -157v-63v-23l-39 -7h-101h-24h-23h-24l-54 7h-22z" />
    <glyph glyph-name="Idotaccent.001" horiz-adv-x="548" 
d="M31 1620l10 -43c-4 -54 -6 -103.167 -6 -147.5s2 -83.166 6 -116.499v-146v-32v-256l6 -17c-5.33301 -28.667 -8 -54.667 -8 -78c0 -11.333 0.666992 -22 2 -32l6 -52l-6 -43l6 -51l-6 -43l6 -24v-486l10 -51c10.667 0.666992 21 1 31 1c38 0 73 -5.66699 105 -17
c74 18 130.333 26.667 169 26v68v24v170v35v146v24v103v24v27v110v25v27v24v60v34v154v119v43v84v26v144v43v24v27l-8 16c0 31.333 2.66699 54.666 8 69.999l-16 135c-37.333 11.333 -73 17.333 -107 18c-24.667 0 -48.334 -3.33301 -71.001 -10l-18 9
c-19.333 -8 -38 -12 -56 -12c-9.33301 0 -18.666 1 -27.999 3l-35 -24v-86l10 -51z" />
    <glyph glyph-name="gbreve.001" horiz-adv-x="1187" 
d="M96 1356c10.667 -19.333 17 -36.3379 19 -51.0049v-43c-5.33301 -20.667 -5.33301 -38 0 -52c-0.666992 -6.66699 -1 -12.667 -1 -18c0 -20.667 3 -37.667 9 -51c-5.33301 -26.667 -8 -51.334 -8 -74.001s2.66699 -43.667 8 -63l-17 -17
c9.33301 -5.33301 15 -10.666 17 -15.999c-6 -38 -9 -73.333 -9 -106s3 -63 9 -91c-10 -72.667 -15 -140.334 -15 -203.001c0 -333.333 141.333 -527.666 424 -582.999c12 27.333 23.667 47 35 59v27c-14 55.333 -21 106.333 -21 153c0 22.667 1.66699 45.334 5 68.001
c-32.667 34 -64 60 -94 78v51l-8 51v41v53v41l-11 43v35v27v170c-0.666992 10 -0.666992 19.667 0 29c0 44.667 3.66699 83.334 11 116.001c-10 45.333 -16.333 82.333 -19 111v35v153c0.666992 10.667 1 20.667 1 30c0 32 -3 59 -9 81c15.333 28.667 27 54.667 35 78
c52 23.333 80.667 57.333 86 102v27v24c-6.66699 6.66699 -10.334 12.334 -11.001 17.001v69l-8 60l-110 8c-128.667 -75.333 -225.667 -169.666 -291 -282.999v-43l-17 -43c4.66699 -14.667 7.33398 -28.667 8.00098 -42c-0.666992 -19.333 -6.66699 -38.666 -18 -57.999z
M662 30.9951c18 -19.333 42.333 -29.334 73 -30.001c45.333 0 103.333 20.667 174 62c28.667 -55.333 66 -82.666 112 -81.999c13.333 0 27.333 2.33301 42 7v110v35v111v35v32v27c-0.666992 10.667 -1 21 -1 31c0 34.667 3 64 9 88c-8 36 -11.667 68.667 -11 98
c0 16 1 31.667 3 47l-8 27l8 16l-8 27l8 16v27l-8 16v22c0 48.667 -5.66699 92.667 -17 132c-11.333 -0.666992 -22 -1 -32 -1c-44 0 -84.333 3 -121 9c-32 -8 -64.333 -12 -97 -12c-17.333 0 -34.333 1.33301 -51 4l-75 -8v-256l18 -52h84
c6.66699 -33.333 10 -63.333 10 -90c0 -84 -31.333 -140 -94 -168l-18 -59v-221zM680 1549.99c35.333 -23.333 63.333 -48.335 84 -75.002c-2 -32.667 -3 -63.667 -3 -93c0 -53.333 3.66699 -99.666 11 -138.999l62 -8l67 16c44 31.333 89.667 49.333 137 54
c0 10.667 0.333008 20.667 1 30c0 54.667 -5.66699 101.334 -17 140.001c-30 190 -133 306.667 -309 350c-6.66699 -5.33301 -15.667 -8 -27 -8l-6 -19v-67c-4 -35.333 -6 -68.5 -6 -99.5s2 -58.167 6 -81.5z" />
    <glyph glyph-name="Gbreve.001" horiz-adv-x="1187" 
d="M201 2101l399 -136l397 138l1 -215l-398 -128l-398 126zM90 1237c10.667 -17.333 17 -32.666 19 -45.999v-40c-5.33301 -18.667 -5.33301 -34.334 0 -47.001c-0.666992 -6 -1 -11.667 -1 -17c0 -18.667 3 -34 9 -46c-5.33301 -24.667 -8 -47.334 -8 -68.001
s2.66699 -40 8 -58l-17 -15c9.33301 -4.66699 15 -9.66699 17 -15c-6 -34.667 -9 -66.834 -9 -96.501s3 -57.5 9 -83.5c-10 -66 -15 -127.667 -15 -185c0 -304.667 142 -482.334 426 -533.001c12 25.333 23.667 43.333 35 54v25c-14 50 -21 96.333 -21 139
c0 21.333 1.66699 42.333 5 63c-32.667 30.667 -64 54.334 -94 71.001v46l-8 47v38v48v37l-11 40v32v24v156c-0.666992 8.66699 -0.666992 17.334 0 26.001c0 40.667 3.66699 76 11 106c-10 41.333 -16.333 75.333 -19 102v32v139c0.666992 10 1 19.333 1 28
c0 29.333 -3 54 -9 74c15.333 26 27 49.667 35 71c52 21.333 80.667 52.333 86 93v25v22c-6.66699 6 -10.334 11.333 -11.001 16v63l-8 54l-110 8c-130 -69.333 -227.667 -155.666 -293 -258.999v-39l-17 -39c4.66699 -14 7.33398 -27 8.00098 -39
c-0.666992 -17.333 -6.66699 -35 -18 -53zM659 26c18 -17.333 42.6689 -26.333 74.002 -27c45.333 0 103.666 19 174.999 57c28.667 -50.667 66 -75.667 112 -75c13.333 0 27.666 2 42.999 6v101v32v101v32v29v25c-0.666992 9.33301 -1 18.666 -1 27.999c0 32 3 59 9 81
c-8 32.667 -11.667 62.334 -11 89.001c0 14.667 1 29 3 43l-9 25l9 14l-9 25l9 15v24l-9 15v20c0 44.667 -5.66699 85 -17 121c-11.333 -0.666992 -22 -1 -32 -1c-44 0 -84.667 2.66699 -122 8c-32 -7.33301 -64.333 -11 -97 -11c-17.333 0 -34.333 1.33301 -51 4l-76 -8
v-234l18 -47h85c6.66699 -30.667 10 -58 10 -82c0 -76.667 -31.667 -128 -95 -154l-18 -54v-202zM677.002 1414c36 -21.333 64.333 -44.002 85 -68.002c-2 -30 -3 -58.333 -3 -85c0 -48.667 3.66699 -91 11 -127l62 -7l68 14c44 28.667 89.667 45.334 137 50.001
c0 9.33301 0.333008 18.333 1 27c0 50 -5.66699 92.667 -17 128c-30 173.333 -133.667 280 -311 320c-6.66699 -5.33301 -15.667 -8 -27 -8l-6 -17v-61c-4 -32.667 -6 -63.167 -6 -91.5s2 -53.166 6 -74.499z" />
    <glyph glyph-name="ccedilla.002" horiz-adv-x="1157" 
d="M27 680c-2 16.667 -2.99805 34.833 -2.99805 54.5s1 41.167 3 64.5v196c-3.33301 14.667 -5 29.834 -5 45.501s1.66699 32.167 5 49.5l-9 34l9 41v215l8 52l8 59c20 27.333 40.333 67.666 61 120.999l9 16l43 43l8 27c32.667 9.33301 66.667 26.333 102 51l27 8h24l43 35
l25 6c6 2.66699 12 9 18 19l60 -9c0.666992 -6.66699 1 -14 1 -22c0 -27.333 -3 -56.666 -9 -87.999c5.33301 -31.333 8 -71.666 8 -120.999v-27v-32c-46.667 -12.667 -81 -44.334 -103 -95.001c-2 -17.333 -3 -36.666 -3 -57.999c0 -39.333 4 -82.666 12 -129.999l-9 -27
v-32l9 -27c-4.66699 -12.667 -6.83398 -26 -6.50098 -40s2.5 -28.667 6.5 -44c-6 -22.667 -9 -50.334 -9 -83.001c-0.666992 -9.33301 -0.666992 -19.333 0 -30v-172v-67l-8 -27l8 -33l-8 -24c3.33301 -18.667 5 -39.5 5 -62.5s-1.66699 -47.833 -5 -74.5l17 -148
c49.333 -40.667 78 -97.334 86 -170.001c-6.66699 -22.667 -9.83398 -46.834 -9.50098 -72.501s3.5 -52.834 9.5 -81.501l-9 -18l-77 -16c-117.333 42.667 -220 122.334 -308 239.001c-23.333 60.667 -35 129 -35 205c0.666992 6.66699 1 13 1 19v94c-6 31.333 -9 71 -9 119
zM565.002 11.999c-0.666992 6.66699 -0.664062 13.665 0.00292969 20.998c-0.666992 27.333 2 69 8 125v32c-2.66699 12.667 -5.33398 36 -8.00098 70l19 25l-11 16c53.333 16.667 93.666 54.334 120.999 113.001c0.666992 11.333 1 23.333 1 36
c0 44.667 -3 95.334 -9 152.001l35 60l153 -52l60 -24l24 -19c6.66699 -28 10 -57.333 10 -88c-0.666992 -52 -9.33398 -105.333 -26.001 -160c-49.333 -206 -160.333 -309 -333 -309c-14 0 -28.667 0.666992 -44 2zM584.005 1798c8 4.66699 13.333 13.6699 16 27.0029
c178.667 -40.667 292.667 -157.334 342 -350.001c12 -34.667 18 -71.334 18 -110.001c-0.666992 -28 -4 -57 -10 -87c-24.667 -1.33301 -50 -13 -76 -35c-38 -5.33301 -81 -22.333 -129 -51l-18 -8l-33 8c-6.66699 28.667 -10 62 -10 100c0 16.667 0.666992 34.667 2 54v51
c-24 39.333 -58 70.666 -102 93.999v307zM490.005 -263h-86v217h217v-194l-98 -228h-92z" />
    <glyph glyph-name="Ccedilla.002" horiz-adv-x="1157" 
d="M27 680c-2 16.667 -2.99805 34.833 -2.99805 54.5s1 41.167 3 64.5v196c-3.33301 14.667 -5 29.834 -5 45.501s1.66699 32.167 5 49.5l-9 34l9 41v215l8 52l8 59c20 27.333 40.333 67.666 61 120.999l9 16l43 43l8 27c32.667 9.33301 66.667 26.333 102 51l27 8h24l43 35
l25 6c6 2.66699 12 9 18 19l60 -9c0.666992 -6.66699 1 -14 1 -22c0 -27.333 -3 -56.666 -9 -87.999c5.33301 -31.333 8 -71.666 8 -120.999v-27v-32c-46.667 -12.667 -81 -44.334 -103 -95.001c-2 -17.333 -3 -36.666 -3 -57.999c0 -39.333 4 -82.666 12 -129.999l-9 -27
v-32l9 -27c-4.66699 -12.667 -6.83398 -26 -6.50098 -40s2.5 -28.667 6.5 -44c-6 -22.667 -9 -50.334 -9 -83.001c-0.666992 -9.33301 -0.666992 -19.333 0 -30v-172v-67l-8 -27l8 -33l-8 -24c3.33301 -18.667 5 -39.5 5 -62.5s-1.66699 -47.833 -5 -74.5l17 -148
c49.333 -40.667 78 -97.334 86 -170.001c-6.66699 -22.667 -9.83398 -46.834 -9.50098 -72.501s3.5 -52.834 9.5 -81.501l-9 -18l-77 -16c-117.333 42.667 -220 122.334 -308 239.001c-23.333 60.667 -35 129 -35 205c0.666992 6.66699 1 13 1 19v94c-6 31.333 -9 71 -9 119
zM565.002 11.999c-0.666992 6.66699 -0.664062 13.665 0.00292969 20.998c-0.666992 27.333 2 69 8 125v32c-2.66699 12.667 -5.33398 36 -8.00098 70l19 25l-11 16c53.333 16.667 93.666 54.334 120.999 113.001c0.666992 11.333 1 23.333 1 36
c0 44.667 -3 95.334 -9 152.001l35 60l153 -52l60 -24l24 -19c6.66699 -28 10 -57.333 10 -88c-0.666992 -52 -9.33398 -105.333 -26.001 -160c-49.333 -206 -160.333 -309 -333 -309c-14 0 -28.667 0.666992 -44 2zM584.005 1798c8 4.66699 13.333 13.6699 16 27.0029
c178.667 -40.667 292.667 -157.334 342 -350.001c12 -34.667 18 -71.334 18 -110.001c-0.666992 -28 -4 -57 -10 -87c-24.667 -1.33301 -50 -13 -76 -35c-38 -5.33301 -81 -22.333 -129 -51l-18 -8l-33 8c-6.66699 28.667 -10 62 -10 100c0 16.667 0.666992 34.667 2 54v51
c-24 39.333 -58 70.666 -102 93.999v307z" />
    <glyph glyph-name="Odieresis.002" horiz-adv-x="1150" 
d="M14 827c-4.66699 35.333 -7.16797 73.999 -7.50098 115.999s2.16699 88 7.5 138v205l9 27l10 24v60c5.33301 21.333 13.333 69.666 24 144.999l9 25l24 59c65.333 78 156 137.333 272 178c38 -6 57 -60.667 57 -164c0 -30.667 -1.66699 -66 -5 -106
c-11.333 -34 -34 -60 -68 -78l-8 -35l-19 -24v-170c0.666992 -7.33301 4.33398 -15.666 11.001 -24.999l-11 -35v-24c2.66699 -15.333 3.83398 -33.166 3.50098 -53.499s-1.5 -42.166 -3.5 -65.499l11 -113v-143v-43l8 -43l-8 -57c6 -22.667 9 -50.334 9 -83.001
c0 -9.33301 -0.333008 -19.333 -1 -30c-0.666992 -8.66699 -1 -17.667 -1 -27c0 -33.333 3 -69.333 9 -108c14 -30 42 -52.667 84 -68l19 -51c-1.33301 -12 -2 -25.167 -2 -39.5s0.666992 -29.833 2 -46.5c-4.66699 -19.333 -6.83398 -40.833 -6.50098 -64.5
s2.5 -49.834 6.5 -78.501l-9 -27c-14 -1.33301 -27.667 -2 -41 -2c-110 0 -198.667 52 -266 156l-16 -9c-5.33301 38 -22.333 94.667 -51 170l-9 52c1.33301 23.333 -4 52 -16 86l-8 116v27c-12.667 38 -19 83 -19 135c1.33301 6.66699 2 13.334 2 20.001
c0 17.333 -3.33301 34 -10 50zM542.999 1559c5.33301 25.333 7.99902 52.8301 7.99902 82.4971s-2.66699 61.5 -8 95.5l24 51c106.667 -20.667 203 -77.334 289 -170.001c6.66699 -27.333 20.334 -52.666 41.001 -75.999l18 -135l9 -18l8 -25
c-0.666992 -5.33301 -1 -10.666 -1 -15.999c0 -39.333 6.33301 -82.333 19 -129l8 -35v-33c-1.33301 -10 -2 -21.333 -2 -34c0 -24 3.66699 -52.333 11 -85v-35v-32l8 -35l-8 -33c2.66699 -22 4 -46.667 4 -74c-0.666992 -46.667 -5 -104.667 -13 -174v-24v-35v-27v-51v-25
c-17.333 -46 -26 -97 -26 -153l-17 -49l-18 -86c-67.333 -102.667 -163 -173.667 -287 -213c-32 62.667 -48 134.334 -48 215.001c0 27.333 1.66699 55.333 5 84v32c28.667 18 56.667 49.667 84 95c1.33301 20.667 2 43.334 2 68.001c0 56 -3.33301 120.667 -10 194l8 43
l-16 24l16 43v580c-16 52 -49.333 97 -100 135c0 23.333 -2.66699 43.333 -8 60z" />
    <glyph glyph-name="odieresis.002" horiz-adv-x="1150" 
d="M14 827c-4.66699 35.333 -7.16797 73.999 -7.50098 115.999s2.16699 88 7.5 138v205l9 27l10 24v60c5.33301 21.333 13.333 69.666 24 144.999l9 25l24 59c65.333 78 156 137.333 272 178c38 -6 57 -60.667 57 -164c0 -30.667 -1.66699 -66 -5 -106
c-11.333 -34 -34 -60 -68 -78l-8 -35l-19 -24v-170c0.666992 -7.33301 4.33398 -15.666 11.001 -24.999l-11 -35v-24c2.66699 -15.333 3.83398 -33.166 3.50098 -53.499s-1.5 -42.166 -3.5 -65.499l11 -113v-143v-43l8 -43l-8 -57c6 -22.667 9 -50.334 9 -83.001
c0 -9.33301 -0.333008 -19.333 -1 -30c-0.666992 -8.66699 -1 -17.667 -1 -27c0 -33.333 3 -69.333 9 -108c14 -30 42 -52.667 84 -68l19 -51c-1.33301 -12 -2 -25.167 -2 -39.5s0.666992 -29.833 2 -46.5c-4.66699 -19.333 -6.83398 -40.833 -6.50098 -64.5
s2.5 -49.834 6.5 -78.501l-9 -27c-14 -1.33301 -27.667 -2 -41 -2c-110 0 -198.667 52 -266 156l-16 -9c-5.33301 38 -22.333 94.667 -51 170l-9 52c1.33301 23.333 -4 52 -16 86l-8 116v27c-12.667 38 -19 83 -19 135c1.33301 6.66699 2 13.334 2 20.001
c0 17.333 -3.33301 34 -10 50zM542.999 1559c5.33301 25.333 7.99902 52.8301 7.99902 82.4971s-2.66699 61.5 -8 95.5l24 51c106.667 -20.667 203 -77.334 289 -170.001c6.66699 -27.333 20.334 -52.666 41.001 -75.999l18 -135l9 -18l8 -25
c-0.666992 -5.33301 -1 -10.666 -1 -15.999c0 -39.333 6.33301 -82.333 19 -129l8 -35v-33c-1.33301 -10 -2 -21.333 -2 -34c0 -24 3.66699 -52.333 11 -85v-35v-32l8 -35l-8 -33c2.66699 -22 4 -46.667 4 -74c-0.666992 -46.667 -5 -104.667 -13 -174v-24v-35v-27v-51v-25
c-17.333 -46 -26 -97 -26 -153l-17 -49l-18 -86c-67.333 -102.667 -163 -173.667 -287 -213c-32 62.667 -48 134.334 -48 215.001c0 27.333 1.66699 55.333 5 84v32c28.667 18 56.667 49.667 84 95c1.33301 20.667 2 43.334 2 68.001c0 56 -3.33301 120.667 -10 194l8 43
l-16 24l16 43v580c-16 52 -49.333 97 -100 135c0 23.333 -2.66699 43.333 -8 60zM119.998 1899c-10.667 57.333 -8 128.333 8 213l-8 35l8 24l170 -8h26l68 8l24 -8l19 -170v-69v-25l-43 -8h-111h-26h-25h-26l-60 8h-24zM559.998 1899c-10.667 57.333 -8 128.333 8 213
l-8 35l8 24l170 -8h26l68 8l24 -8l19 -170v-69v-25l-43 -8h-111h-26h-25h-26l-60 8h-24z" />
    <glyph glyph-name="udieresis.002" horiz-adv-x="1142" 
d="M31 1675c-1.33301 15.333 -2.00098 32.666 -2.00098 51.999s0.666992 40.333 2 63v25h104h27h145h35c8 -41.333 12 -84 12 -128c0 -26 -1.33301 -52.333 -4 -79c-1.33301 -6 2 -12.333 10 -19c-6.66699 -17.333 -10 -39.666 -10 -66.999v-27c2 -15.333 3 -32.333 3 -51
s-1 -39.334 -3 -62.001l10 -53c-6.66699 -30.667 -10 -63.334 -10 -98.001c-0.666992 -8 -0.666992 -15.667 0 -23l10 -59v-53v-52v-112v-27v-24v-113v-27c-1.33301 -7.33301 -2 -14.666 -2 -21.999c0.666992 -16.667 4.33398 -32.334 11.001 -47.001l-9 -35
c7.33301 -24.667 11 -50.5 11 -77.5s-3.66699 -55.833 -11 -86.5l9 -27v-61v-25l8 -34c46 -34 69 -88.667 69 -164c-2.66699 -20.667 -4.16699 -44.167 -4.5 -70.5s1.16699 -55.5 4.5 -87.5c-6.66699 -1.33301 -14.667 -6.66602 -24 -15.999
c-150 26.667 -266 118.667 -348 276c0 23.333 -9 52.666 -27 87.999c0.666992 18 1 35 1 51c0 40.667 -2.33301 81 -7 121v27c2.66699 10 2.66699 19 0 27v249l6 27v27c-6.66699 24.667 -10 54.334 -10 89.001c0 21.333 1.33301 46 4 74
c-7.33301 50.667 -11 108.667 -11 174c0 14.667 0.333008 29.334 1 44.001v413zM574.999 274c40 38.667 66 88.001 78 148.001l19 8l-8 43c-2.66699 52 -11.667 115.667 -27 191l-8 571l-8 51v96c5.33301 33.333 8 80 8 140c0.666992 6 1 12.667 1 20
c0.666992 18 -2.33301 40 -9 66v112c2 29.333 12.667 61 32 95h158h35h24h35l19 -9c13.333 -50 20 -106.333 20 -169c0 -26.667 -1.33301 -54.334 -4 -83.001c-1.33301 -10 -2 -20.667 -2 -32c0 -24.667 3.33301 -50.667 10 -78l-8 -27l8 -18v-27l-8 -24l8 -62v-35v-155v-33
v-27v-35v-155v-27v-26l8 -148v-35v-24v-51v-46l11 -59c-11.333 -42.667 -17.666 -83.667 -18.999 -123c-9.33301 -10.667 -17.333 -30.334 -24 -59.001c-68.667 -117.333 -173.334 -204 -314.001 -260c-4 10.667 -12 19.334 -24 26.001c-1.33301 20 -2 41.667 -2 65
s0.666992 48.333 2 75v24c0.666992 6 -3 12.333 -11 19v77zM46.999 1993c-10.667 57.333 -8 128.333 8 213l-8 35l8 24l170 -8h26l68 8l24 -8l19 -170v-69v-25l-43 -8h-111l-26 -5l-25 5h-26l-60 8h-24zM617.999 1988c-10.667 57.333 -8 128.333 8 213l-8 35l8 24l170 -8h26
l68 8l24 -8l19 -170v-69v-25l-43 -8h-111h-26h-25h-26l-60 8h-24z" />
    <glyph glyph-name="Udieresis.002" horiz-adv-x="1142" 
d="M31 1675c-1.33301 15.333 -2.00098 32.666 -2.00098 51.999s0.666992 40.333 2 63v25h104h27h145h35c8 -41.333 12 -84 12 -128c0 -26 -1.33301 -52.333 -4 -79c-1.33301 -6 2 -12.333 10 -19c-6.66699 -17.333 -10 -39.666 -10 -66.999v-27c2 -15.333 3 -32.333 3 -51
s-1 -39.334 -3 -62.001l10 -53c-6.66699 -30.667 -10 -63.334 -10 -98.001c-0.666992 -8 -0.666992 -15.667 0 -23l10 -59v-53v-52v-112v-27v-24v-113v-27c-1.33301 -7.33301 -2 -14.666 -2 -21.999c0.666992 -16.667 4.33398 -32.334 11.001 -47.001l-9 -35
c7.33301 -24.667 11 -50.5 11 -77.5s-3.66699 -55.833 -11 -86.5l9 -27v-61v-25l8 -34c46 -34 69 -88.667 69 -164c-2.66699 -20.667 -4.16699 -44.167 -4.5 -70.5s1.16699 -55.5 4.5 -87.5c-6.66699 -1.33301 -14.667 -6.66602 -24 -15.999
c-150 26.667 -266 118.667 -348 276c0 23.333 -9 52.666 -27 87.999c0.666992 18 1 35 1 51c0 40.667 -2.33301 81 -7 121v27c2.66699 10 2.66699 19 0 27v249l6 27v27c-6.66699 24.667 -10 54.334 -10 89.001c0 21.333 1.33301 46 4 74
c-7.33301 50.667 -11 108.667 -11 174c0 14.667 0.333008 29.334 1 44.001v413zM574.999 274c40 38.667 66 88.001 78 148.001l19 8l-8 43c-2.66699 52 -11.667 115.667 -27 191l-8 571l-8 51v96c5.33301 33.333 8 80 8 140c0.666992 6 1 12.667 1 20
c0.666992 18 -2.33301 40 -9 66v112c2 29.333 12.667 61 32 95h158h35h24h35l19 -9c13.333 -50 20 -106.333 20 -169c0 -26.667 -1.33301 -54.334 -4 -83.001c-1.33301 -10 -2 -20.667 -2 -32c0 -24.667 3.33301 -50.667 10 -78l-8 -27l8 -18v-27l-8 -24l8 -62v-35v-155v-33
v-27v-35v-155v-27v-26l8 -148v-35v-24v-51v-46l11 -59c-11.333 -42.667 -17.666 -83.667 -18.999 -123c-9.33301 -10.667 -17.333 -30.334 -24 -59.001c-68.667 -117.333 -173.334 -204 -314.001 -260c-4 10.667 -12 19.334 -24 26.001c-1.33301 20 -2 41.667 -2 65
s0.666992 48.333 2 75v24c0.666992 6 -3 12.333 -11 19v77z" />
    <glyph glyph-name="glyph247" horiz-adv-x="380" 
d="M82 217h217v-217h-217v217zM82 997h217v-217h-217v217z" />
    <glyph glyph-name="Udieresis.003" horiz-adv-x="1142" 
d="M31 1675c-1.33301 15.333 -2.00098 32.666 -2.00098 51.999s0.666992 40.333 2 63v25h104h27h145h35c8 -41.333 12 -84 12 -128c0 -26 -1.33301 -52.333 -4 -79c-1.33301 -6 2 -12.333 10 -19c-6.66699 -17.333 -10 -39.666 -10 -66.999v-27c2 -15.333 3 -32.333 3 -51
s-1 -39.334 -3 -62.001l10 -53c-6.66699 -30.667 -10 -63.334 -10 -98.001c-0.666992 -8 -0.666992 -15.667 0 -23l10 -59v-53v-52v-112v-27v-24v-113v-27c-1.33301 -7.33301 -2 -14.666 -2 -21.999c0.666992 -16.667 4.33398 -32.334 11.001 -47.001l-9 -35
c7.33301 -24.667 11 -50.5 11 -77.5s-3.66699 -55.833 -11 -86.5l9 -27v-61v-25l8 -34c46 -34 69 -88.667 69 -164c-2.66699 -20.667 -4.16699 -44.167 -4.5 -70.5s1.16699 -55.5 4.5 -87.5c-6.66699 -1.33301 -14.667 -6.66602 -24 -15.999
c-150 26.667 -266 118.667 -348 276c0 23.333 -9 52.666 -27 87.999c0.666992 18 1 35 1 51c0 40.667 -2.33301 81 -7 121v27c2.66699 10 2.66699 19 0 27v249l6 27v27c-6.66699 24.667 -10 54.334 -10 89.001c0 21.333 1.33301 46 4 74
c-7.33301 50.667 -11 108.667 -11 174c0 14.667 0.333008 29.334 1 44.001v413zM574.999 274c40 38.667 66 88.001 78 148.001l19 8l-8 43c-2.66699 52 -11.667 115.667 -27 191l-8 571l-8 51v96c5.33301 33.333 8 80 8 140c0.666992 6 1 12.667 1 20
c0.666992 18 -2.33301 40 -9 66v112c2 29.333 12.667 61 32 95h158h35h24h35l19 -9c13.333 -50 20 -106.333 20 -169c0 -26.667 -1.33301 -54.334 -4 -83.001c-1.33301 -10 -2 -20.667 -2 -32c0 -24.667 3.33301 -50.667 10 -78l-8 -27l8 -18v-27l-8 -24l8 -62v-35v-155v-33
v-27v-35v-155v-27v-26l8 -148v-35v-24v-51v-46l11 -59c-11.333 -42.667 -17.666 -83.667 -18.999 -123c-9.33301 -10.667 -17.333 -30.334 -24 -59.001c-68.667 -117.333 -173.334 -204 -314.001 -260c-4 10.667 -12 19.334 -24 26.001c-1.33301 20 -2 41.667 -2 65
s0.666992 48.333 2 75v24c0.666992 6 -3 12.333 -11 19v77zM46.999 1959c-10.667 57.333 -8 128.333 8 213l-8 35l8 24l170 -8h26l68 8l24 -8l19 -170v-69v-25l-43 -8h-111l-26 -5l-25 5h-26l-60 8h-24zM617.999 1954c-10.667 57.333 -8 128.333 8 213l-8 35l8 24l170 -8h26
l68 8l24 -8l19 -170v-69v-25l-43 -8h-111h-26h-25h-26l-60 8h-24z" />
    <glyph glyph-name="dotlessi.002" horiz-adv-x="548" 
d="M39 1511l-9.00293 47v79l32 22c8 -2 16.333 -3 25 -3c16.667 0 33.667 3.66699 51 11l17 -8c20.667 6 42.334 9 65.001 9c30.667 -0.666992 63 -6.33398 97 -17.001l15 -124c-4.66699 -14 -7 -35.333 -7 -64l7 -15v-25v-22v-39v-133v-23v-78v-39v-110v-141v-31v-55v-22
v-25v-23v-101v-25v-22v-95v-22v-134v-32v-157v-22v-62c-35.333 0.666992 -86.666 -7.33301 -153.999 -24c-29.333 10.667 -61.333 16 -96 16c-9.33301 0 -18.666 -0.333008 -27.999 -1l-10 47v446l-5 22l5 40l-5 47l5 39l-5 48c-1.33301 9.33301 -2 19 -2 29
c0 22 2.33301 46 7 72l-5 16v235v29v135c-4 30.667 -6 66.334 -6 107.001s2 85.667 6 135l-9 40zM31.9971 1791c-10 52.667 -7.66699 118 7 196l-7 32l7 22l155 -7h24l62 7l22 -7l17 -157v-63v-23l-39 -7h-101h-24h-23h-24l-54 7h-22z" />
  </font>
</defs>
</svg>
