<?xml version="1.0" standalone="no"?>
<!DOCTYPE svg PUBLIC "-//W3C//DTD SVG 1.1//EN" "http://www.w3.org/Graphics/SVG/1.1/DTD/svg11.dtd" >
<svg>
<metadata>
Created by FontForge 20090914 at Wed Aug 15 06:55:20 2012
 By www-data
Copyright (c) 2010 by . All rights reserved.
</metadata>
<defs>
<font id="LeagueGothic" horiz-adv-x="724" >
  <font-face 
    font-family="League Gothic"
    font-weight="400"
    font-stretch="normal"
    units-per-em="2048"
    panose-1="2 0 0 0 0 0 0 0 0 0"
    ascent="1638"
    descent="-410"
    x-height="1120"
    cap-height="1505"
    bbox="-66 -512 1591 1905"
    underline-thickness="102"
    underline-position="-102"
    unicode-range="U+0020-U+FB04"
  />
<missing-glyph horiz-adv-x="315" 
 />
    <glyph glyph-name=".notdef" horiz-adv-x="315" 
 />
    <glyph glyph-name="space" unicode=" " horiz-adv-x="315" 
 />
    <glyph glyph-name="exclam" unicode="!" horiz-adv-x="387" 
d="M74 1505h239l-55 -1099h-129zM86 0v227h215v-227h-215z" />
    <glyph glyph-name="quotedbl" unicode="&#x22;" horiz-adv-x="329" 
d="M57 1505h215l-30 -551h-154z" />
    <glyph glyph-name="numbersign" unicode="#" horiz-adv-x="1232" 
d="M49 438l27 195h198l37 258h-196l26 194h197l57 420h197l-57 -420h260l57 420h197l-58 -420h193l-27 -194h-192l-37 -258h190l-26 -195h-191l-59 -438h-197l60 438h-261l-59 -438h-197l60 438h-199zM471 633h260l37 258h-260z" />
    <glyph glyph-name="dollar" unicode="$" horiz-adv-x="692" 
d="M37 358l191.998 13.0049c8 -124 51 -186.333 129 -187c58.667 0 89.667 61.667 93 185c0 19.333 -2.83301 39.166 -8.5 59.499s-12.167 38.666 -19.5 54.999s-18.166 36.5 -32.499 60.5s-25.833 41.667 -34.5 53l-40 55c-18.667 25.333 -30.334 42 -35.001 50
c-45.333 61.333 -79 108.5 -101 141.5s-45.5 80.167 -70.5 141.5s-37.5 118 -37.5 170c2.66699 195.333 74.334 309.333 215.001 342v131h123v-125c134 -15.333 212.333 -109.333 235 -282l-192 -25c-4 38 -13.333 68.667 -28 92s-36.334 34.333 -65.001 33
c-53.333 -1.33301 -81.333 -55.333 -84 -162c0 -19.333 2.83301 -39.5 8.5 -60.5s11.834 -39 18.501 -54s17.5 -34.833 32.5 -59.5s26.5 -42.334 34.5 -53.001l41 -59c20 -28 32.667 -45.333 38 -52c4 -6.66699 14.667 -22.667 32 -48l37 -52
c6.66699 -9.33301 17.834 -26.333 33.501 -51s27.167 -44 34.5 -58l26 -55c10.667 -23.333 18.5 -43.833 23.5 -61.5s9.5 -37.834 13.5 -60.501s6 -44 6 -64c-2.66699 -225.333 -84.334 -348.333 -245.001 -369v-217h-123v221
c-157.333 27.333 -240.666 144.666 -249.999 351.999z" />
    <glyph glyph-name="percent" unicode="%" horiz-adv-x="1001" 
d="M55 911l-0.000976562 437c0 4 0.333008 10 1 18s3.83398 22 9.50098 42s13.5 37.833 23.5 53.5s26 29.667 48 42s48 18.5 78 18.5c46.667 0 83.334 -14.667 110.001 -44s41.334 -58.333 44.001 -87l4 -43v-437c0 -4 -0.333008 -10 -1 -18s-3.83398 -22.333 -9.50098 -43
s-13.5 -38.5 -23.5 -53.5s-25.667 -29 -47 -42s-47 -19.5 -77 -19.5c-48 0 -85.333 14.667 -112 44s-41.334 59 -44.001 89zM157.999 0l553 1505h131l-547 -1505h-137zM177.999 911c-2.66699 -36.667 9.66797 -55 37.001 -55c10.667 0 19.167 4.83301 25.5 14.5
s9.5 18.5 9.5 26.5v14v437c1.33301 36.667 -10.334 55 -35.001 55c-12 0 -21.167 -4.5 -27.5 -13.5s-9.5 -18.167 -9.5 -27.5v-14v-437zM631.001 158v436.001c0 4 0.333008 10.167 1 18.5s3.66699 22.666 9 42.999s13.166 38 23.499 53s26.333 29 48 42
s47.834 19.5 78.501 19.5c46.667 0 83.167 -14.667 109.5 -44s40.833 -58.333 43.5 -87l4 -45v-436c0 -4 -0.333008 -10.167 -1 -18.5s-3.66699 -22.333 -9 -42s-13.166 -37.5 -23.499 -53.5s-26 -30 -47 -42s-46.5 -18 -76.5 -18c-48 0 -85.333 14.333 -112 43
s-41.334 58 -44.001 88zM754.001 158.001c-2.66699 -38 9.66699 -57.333 37 -58c10.667 0 18.667 4.83301 24 14.5s8 19.167 8 28.5l2 15v436c1.33301 36.667 -10 55 -34 55c-12 0 -21.167 -4.33301 -27.5 -13s-9.5 -18 -9.5 -28v-14v-436z" />
    <glyph glyph-name="ampersand" unicode="&#x26;" horiz-adv-x="854" 
d="M49 315c0 76.667 14.667 148.168 44 214.501s71.333 140.5 126 222.5c-70.667 150 -106 297.333 -106 442v18c0 8 1.66699 23.333 5 46s7.66602 44.334 12.999 65.001s14.833 43.667 28.5 69s29.834 47.166 48.501 65.499s43 33.666 73 45.999s64 18.5 102 18.5
c52 0 96.667 -11.333 134 -34s64 -50 80 -82s28.333 -64 37 -96s13 -59 13 -81v-35c0 -108 -68.333 -252.667 -205 -434c50.667 -116 100 -211 148 -285c22 64 37.667 134.333 47 211l176 -33c-10.667 -142 -41.334 -261.333 -92.001 -358
c36.667 -42 67.334 -67.333 92.001 -76v-235c-15.333 0 -44 12.5 -86 37.5s-83 58.833 -123 101.5c-82 -92.667 -166 -139 -252 -139s-158 32.333 -216 97s-87 142.667 -87 234zM262 326.001c1.33301 -44 11.167 -80.001 29.5 -108.001s41.833 -42 70.5 -42
c39.333 0 81 28.667 125 86c-58.667 92.667 -116.667 191 -174 295c-4 -6.66699 -8.66699 -16.167 -14 -28.5s-12.833 -38.166 -22.5 -77.499s-14.5 -81 -14.5 -125zM305.001 1194c0 -74 18.334 -156 55.001 -246c66.667 104 100.334 188 101.001 252
c-1.33301 1.33301 -1.33301 6.5 0 15.5s0.666016 21 -2.00098 36s-6.5 29.333 -11.5 43s-12.833 25.667 -23.5 36s-24.334 15.5 -41.001 15.5c-26 0 -45.5 -12.667 -58.5 -38s-19.5 -50.333 -19.5 -75v-39z" />
    <glyph glyph-name="quotesingle" unicode="'" horiz-adv-x="309" 
d="M45 1012l72 266h-72v227h215v-227l-113 -266h-102z" />
    <glyph glyph-name="parenleft" unicode="(" horiz-adv-x="561" 
d="M66 645c0 95.333 9.83398 192.834 29.501 292.501s43.834 186.834 72.501 261.501s57.667 142.667 87 204s53.666 107.666 72.999 138.999l30 47l162 -84l-27.5 -40.5c-11.667 -17.667 -32.5 -55.834 -62.5 -114.501s-56.333 -119.5 -79 -182.5
s-43.167 -142.333 -61.5 -238s-27.5 -190.5 -27.5 -284.5s8.83301 -188.167 26.5 -282.5s39.167 -174.5 64.5 -240.5s50.666 -125.333 75.999 -178s47 -92 65 -118l26 -39l-162 -84c-8 12 -18.5 28.667 -31.5 50s-36.167 65.833 -69.5 133.5s-63 136.667 -89 207
s-49.5 156 -70.5 257s-31.5 199.167 -31.5 294.5z" />
    <glyph glyph-name="parenright" unicode=")" horiz-adv-x="561" 
d="M41 -213c6.66699 9.33301 15.8311 23.001 27.498 41.001s32.5 56.333 62.5 115s56.333 119 79 181s43.167 140.833 61.5 236.5s27.5 190.5 27.5 284.5s-8.83301 188.167 -26.5 282.5s-39.167 174.666 -64.5 240.999s-50.666 126 -75.999 179s-46.666 92.5 -63.999 118.5
l-27 39l162 84c8 -12 18.5 -28.667 31.5 -50s36.167 -66 69.5 -134s63 -136.833 89 -206.5s49.667 -155.5 71 -257.5s32 -200.667 32 -296s-10 -192.833 -30 -292.5s-44.667 -186.667 -74 -261s-58.333 -142 -87 -203s-52.667 -107.167 -72 -138.5l-30 -47z" />
    <glyph glyph-name="asterisk" unicode="*" horiz-adv-x="677" 
d="M74 1251l43 148l164 -70l-19 176h154l-19 -176l164 70l43 -148l-172 -34l115 -138l-131 -80l-78 152l-76 -152l-131 80l115 138z" />
    <glyph glyph-name="plus" unicode="+" horiz-adv-x="1060" 
d="M74 649v172h370v346h172v-346h371v-172h-371v-346h-172v346h-370z" />
    <glyph glyph-name="comma" unicode="," horiz-adv-x="309" 
d="M45 0v227h215v-227l-113 -266h-102l72 266h-72z" />
    <glyph glyph-name="hyphen" unicode="-" horiz-adv-x="444" 
d="M74 455v194h297v-194h-297z" />
    <glyph glyph-name="period" unicode="." horiz-adv-x="321" 
d="M53 0v227h215v-227h-215z" />
    <glyph glyph-name="slash" unicode="/" horiz-adv-x="720" 
d="M8 -147l543 1652h162l-537 -1652h-168z" />
    <glyph glyph-name="zero" unicode="0" 
d="M68 309v887.003c0 8 0.666992 19.5 2 34.5s7 41.333 17 79s24.333 70.834 43 99.501s48.167 54.667 88.5 78s88.333 35 144 35s103.667 -11.333 144 -34s69.833 -49.667 88.5 -81s33 -63 43 -95s15.667 -59.667 17 -83l2 -33v-887c0 -8 -0.666992 -19.5 -2 -34.5
s-7 -41.333 -17 -79s-24.333 -70.834 -43 -99.501s-48.167 -54.5 -88.5 -77.5s-88.333 -34.5 -144 -34.5s-103.667 11.167 -144 33.5s-69.833 49.166 -88.5 80.499s-33 63.166 -43 95.499s-15.667 59.166 -17 80.499zM289 309.003c0 -8 0.333008 -18.167 1 -30.5
s7.16699 -28.666 19.5 -48.999s30 -30.5 53 -30.5s40.667 9.16699 53 27.5s18.5 37.166 18.5 56.499l2 26v887c0 8 -0.333008 18.167 -1 30.5s-7.16699 28.833 -19.5 49.5s-30 31 -53 31s-40.667 -9.33301 -53 -28s-18.5 -36.667 -18.5 -54l-2 -29v-887z" />
    <glyph glyph-name="one" unicode="1" horiz-adv-x="475" 
d="M25 1180l-0.00195312 141c54.667 10.667 101.334 31.5 140.001 62.5s64.334 58.5 77.001 82.5l18 39h133v-1505h-221v1180h-147z" />
    <glyph glyph-name="two" unicode="2" horiz-adv-x="731" 
d="M55 0v219l39 62c16.667 26 46.167 76.833 88.5 152.5s79.833 149 112.5 220s63 151.5 91 241.5s42.667 169.333 44 238c0 122.667 -24.5 184 -73.5 184s-73.5 -61.333 -73.5 -184v-105h-222v105c0 259.333 98.333 389 295 389s295 -125 295 -375
c0 -224 -115.333 -533.333 -346 -928h350v-219h-600z" />
    <glyph glyph-name="three" unicode="3" horiz-adv-x="686" 
d="M45 1071c0 46.667 0.666016 85.0049 1.99902 115.005s7.16602 68.5 17.499 115.5s25 84.5 44 112.5s47 53 84 75s82.167 33 135.5 33c52 0 97 -10.333 135 -31s66.167 -44.334 84.5 -71.001s33 -57.334 44 -92.001s17.5 -61.167 19.5 -79.5s3 -35.166 3 -50.499
c0 -194 -35.333 -326.333 -106 -397l-2 -2c84.667 -66.667 127 -204.667 127 -414c0 -16.667 -1 -36.167 -3 -58.5s-8.5 -55.333 -19.5 -99s-25.667 -82.334 -44 -116.001s-46.666 -63.334 -84.999 -89.001s-83.5 -38.5 -135.5 -38.5c-53.333 0 -98.666 10.5 -135.999 31.5
s-66 46.167 -86 75.5s-35.833 66.833 -47.5 112.5s-18.5 85 -20.5 118s-3 70.5 -3 112.5h217c1.33301 -100 7.16602 -167.667 17.499 -203s29.833 -53 58.5 -53c30 0 49.167 16.833 57.5 50.5s12.5 80.5 12.5 140.5c0 12 0.333008 34 1 66s0.666992 52.833 0 62.5
s-2 26.167 -4 49.5s-5.33301 38.666 -10 45.999l-18 33c-8 14.667 -17.833 24.334 -29.5 29.001s-26.667 9.66699 -45 15s-39.166 8.66602 -62.499 9.99902h-19v184c24.667 1.33301 45.5 3.83301 62.5 7.5s32 8.5 45 14.5s23.333 13.167 31 21.5s13.5 18.166 17.5 29.499
s7 24.5 9 39.5s3 32.167 3 51.5v62v43c0 30 -0.333008 52.833 -1 68.5s-3 35 -7 58s-11.167 40 -21.5 51s-23.5 16.5 -39.5 16.5c-27.333 0 -44.833 -16.333 -52.5 -49s-12.167 -101.667 -13.5 -207h-217z" />
    <glyph glyph-name="four" unicode="4" horiz-adv-x="684" 
d="M25 328v194l323 983h221v-983h103v-194h-103v-328h-202v328h-342zM213 522h154v471v45h-13l-12 -45z" />
    <glyph glyph-name="five" unicode="5" horiz-adv-x="704" 
d="M74 438h220.999v-59c0 -76.667 4.83301 -129.667 14.5 -159s27.167 -44 52.5 -44c24.667 0 42.167 15 52.5 45s15.5 82 15.5 156v336c0 74 -23.333 110.667 -70 110c-22 0 -41.833 -13.333 -59.5 -40s-26.5 -50 -26.5 -70h-186v792h535v-219h-344v-313l21 15
c8.66699 6 24.334 13.833 47.001 23.5s42.334 13.834 59.001 12.501c52 0 96.333 -13.333 133 -40s62.167 -59.834 76.5 -99.501s23.833 -73.167 28.5 -100.5s7 -51 7 -71v-336c0 -262 -96.333 -393 -289 -393c-52 0 -96.333 9.83301 -133 29.5s-64.834 43.5 -84.501 71.5
s-35 64.167 -46 108.5s-17.833 83.833 -20.5 118.5s-4 76.667 -4 126z" />
    <glyph glyph-name="six" unicode="6" horiz-adv-x="700" 
d="M66 309l-0.000976562 856.002c0 237.333 96.167 356.166 288.5 356.499s288.5 -118.5 288.5 -356.5v-94h-221c0 108 -3.83301 178 -11.5 210s-26.5 48 -56.5 48c-26 0 -43.667 -12.333 -53 -37s-14 -67 -14 -127v-268c39.333 24.667 76 37 110 37
c53.333 0 97.833 -12 133.5 -36s61 -55 76 -93s24.833 -71.833 29.5 -101.5s7 -58.834 7 -87.501v-307c0 -27.333 -2.66699 -55.333 -8 -84s-16.666 -63.167 -33.999 -103.5s-47 -73.333 -89 -99s-94.5 -38.5 -157.5 -38.5s-115.667 12.833 -158 38.5s-72 58.667 -89 99
s-28.167 74.833 -33.5 103.5s-8 56.667 -8 84zM286.999 244.002c0 -13.333 5.83203 -28 17.499 -44s28.167 -24 49.5 -24c20.667 0 37.167 8.16699 49.5 24.5s18.5 30.833 18.5 43.5v450c0 12 -6.16699 26.333 -18.5 43s-28.666 25 -48.999 25s-36.333 -6.83301 -48 -20.5
s-18.167 -27.5 -19.5 -41.5v-456z" />
    <glyph glyph-name="seven" unicode="7" horiz-adv-x="589" 
d="M8 1286v219h557v-221l-221 -1284h-229l225 1286h-332z" />
    <glyph glyph-name="eight" unicode="8" horiz-adv-x="696" 
d="M53 322l0.00195312 176c0 125.333 38.333 224.333 115 297c-68 68 -102 160 -102 276v127c0 15.333 0.666992 31.833 2 49.5s7.33301 44.167 18 79.5s25 66.333 43 93s46 50.334 84 71.001s83 31 135 31s97.167 -10.333 135.5 -31s66.333 -44.334 84 -71.001
s32 -57.667 43 -93s17.167 -61.833 18.5 -79.5s2 -34.167 2 -49.5v-127c0 -116 -34.333 -208 -103 -276c76.667 -72.667 115 -171.667 115 -297v-176c0 -16.667 -0.666992 -34.167 -2 -52.5s-7.5 -46 -18.5 -83s-26 -69.167 -45 -96.5s-48.333 -51.833 -88 -73.5
s-86.834 -32.5 -141.501 -32.5s-101.834 10.833 -141.501 32.5s-69 46.167 -88 73.5s-34 59.5 -45 96.5s-17.167 64.667 -18.5 83s-2 35.833 -2 52.5zM268.002 410c1.33301 -84.667 7.16602 -143.167 17.499 -175.5s31.166 -48.5 62.499 -48.5c24.667 0 42.834 10 54.501 30
s18.834 43.667 21.501 71s4 68.333 4 123c0 101.333 -4.5 171 -13.5 209s-31.167 57 -66.5 57s-57.5 -19 -66.5 -57s-13.5 -107.667 -13.5 -209zM283.002 1120c0 -84.667 4.00098 -143.667 12.001 -177s25.667 -50 53 -50s45.166 16.667 53.499 50s12.5 92.333 12.5 177
c0 75.333 -4.16699 128.666 -12.5 159.999s-26.166 47 -53.499 47c-24.667 0 -41.334 -14.667 -50.001 -44s-13.667 -83.666 -15 -162.999z" />
    <glyph glyph-name="nine" unicode="9" horiz-adv-x="700" 
d="M57 340l-0.000976562 94.001h222c0 -108 3.66699 -178 11 -210s26 -48 56 -48c26 0 43.833 12.333 53.5 37s14.5 67 14.5 127v283c-39.333 -24.667 -76.333 -37 -111 -37c-53.333 0 -97.666 11.833 -132.999 35.5s-60.5 54.667 -75.5 93s-25 72.166 -30 101.499
s-7.5 58.333 -7.5 87v293c0 27.333 2.83301 55.333 8.5 84s17 63.167 34 103.5s46.667 73.5 89 99.5s94.833 39 157.5 39s115.167 -13 157.5 -39s72 -59.167 89 -99.5s28.333 -74.833 34 -103.5s8.5 -56.667 8.5 -84v-856c0 -237.333 -96.333 -356 -289 -356
s-289 118.667 -289 356zM278.999 825.001c0 -12 5.99902 -26.167 17.999 -42.5s28.333 -24.5 49 -24.5s36.834 6.83301 48.501 20.5s18.167 27.167 19.5 40.5v443c0 13.333 -5.83301 27.833 -17.5 43.5s-28.5 23.5 -50.5 23.5c-20.667 0 -37 -8.16699 -49 -24.5
s-18 -30.5 -18 -42.5v-437z" />
    <glyph glyph-name="colon" unicode=":" horiz-adv-x="362" 
d="M74 0v227h215v-227h-215zM74 893v227h215v-227h-215z" />
    <glyph glyph-name="semicolon" unicode=";" horiz-adv-x="362" 
d="M74 0v227h215v-227l-113 -266h-102l71 266h-71zM74 893v227h215v-227h-215z" />
    <glyph glyph-name="less" unicode="&#x3c;" horiz-adv-x="1058" 
d="M74 649v160l911 475v-199l-698 -356l698 -356v-199z" />
    <glyph glyph-name="equal" unicode="=" horiz-adv-x="1058" 
d="M74 477v172h911v-172h-911zM74 864v172h911v-172h-911z" />
    <glyph glyph-name="greater" unicode="&#x3e;" horiz-adv-x="1058" 
d="M74 174v199l698 356l-698 356v199l911 -475v-160z" />
    <glyph glyph-name="question" unicode="?" horiz-adv-x="645" 
d="M25 1260c8 22 19.166 44.833 33.499 68.5s34.166 50.834 59.499 81.501s57.333 56 96 76s80 29 124 27c54.667 -1.33301 100.667 -12.5 138 -33.5s64.666 -48.167 81.999 -81.5s29.333 -63.666 36 -90.999s10 -54 10 -80c0 -54.667 -26.667 -127.667 -80 -219l-57 -96
c-12 -21.333 -26 -56.833 -42 -106.5s-24 -97.5 -24 -143.5v-256h-190v256c0 68 8.16699 133 24.5 195s32.333 108.667 48 140s37.167 70.333 64.5 117c28.667 48 46.334 85.667 53.001 113c4 18 0.333008 38.167 -11 60.5s-30 33.5 -56 33.5
c-31.333 1.33301 -58.666 -14.334 -81.999 -47.001s-39.666 -65.334 -48.999 -98.001zM198.999 0h215v227h-215v-227z" />
    <glyph glyph-name="at" unicode="@" horiz-adv-x="872" 
d="M66 303l0.000976562 888.998c0 28.667 5.66699 60 17 94s30 69.5 56 106.5s65 67.833 117 92.5s113.5 37 184.5 37s132.333 -12.333 184 -37s90.5 -55.5 116.5 -92.5s44.833 -72.5 56.5 -106.5s17.5 -65.333 17.5 -94v-793h-164l-20 56
c-2.66699 -5.33301 -6.5 -11.833 -11.5 -19.5s-17.333 -17.667 -37 -30s-41.167 -18.5 -64.5 -18.5c-96.667 0 -145 57.333 -145 172v485c0 113.333 48.333 170 145 170c23.333 0 44.5 -5.66699 63.5 -17s32.167 -22.666 39.5 -33.999l10 -16v45c0 34 -15 68.833 -45 104.5
s-78.5 53.5 -145.5 53.5s-115.5 -17.833 -145.5 -53.5s-45 -70.5 -45 -104.5v-889c0 -35.333 14.667 -69.666 44 -102.999s78 -50 146 -50c78 0 134 21 168 63l152 -86c-72.667 -95.333 -179.334 -143 -320.001 -143c-70.667 0 -132 11.833 -184 35.5s-91 53.667 -117 90
s-44.667 70.833 -56 103.5s-17 62.667 -17 90zM535.001 572.998c0 -35.333 15.667 -53 47 -53c32.667 0 49 17.667 49 53v455c0 35.333 -16.333 53 -49 53c-31.333 0 -47 -17.667 -47 -53v-455z" />
    <glyph glyph-name="A" unicode="A" horiz-adv-x="765" 
d="M20 0l228 1505h270l227 -1505h-215l-41 307h-213l-40 -307h-216zM307 541h152l-64 475l-6 39h-12l-6 -39z" />
    <glyph glyph-name="B" unicode="B" horiz-adv-x="745" 
d="M82 0l-0.000976562 1505h194c136.667 0 238.167 -30.333 304.5 -91s99.5 -163.334 99.5 -308.001c0 -70.667 -9.83301 -129 -29.5 -175s-55.5 -91.333 -107.5 -136c4 -1.33301 9.33301 -4.5 16 -9.5s19 -16.667 37 -35s33.833 -40.166 47.5 -65.499
s25.834 -60.833 36.501 -106.5s16 -96.5 16 -152.5c0 -276 -114 -418 -342 -426h-272zM302.999 219c49.333 0 85.667 10.332 109 30.999c36.667 36.667 55 103.667 55 201c0 54.667 -5.5 99.334 -16.5 134.001s-26.333 58.167 -46 70.5s-35.667 19.833 -48 22.5
s-27.5 4 -45.5 4h-8v-463zM303 884.999c15.333 0 26.666 0.333008 33.999 1s20.666 4 39.999 10s34.333 15.5 45 28.5s20.834 33.167 30.501 60.5s14.5 60.833 14.5 100.5s-4.83301 73.167 -14.5 100.5s-19.834 47.5 -30.501 60.5s-25.667 22.5 -45 28.5
s-32.666 9.33301 -39.999 10s-18.666 1 -33.999 1v-401z" />
    <glyph glyph-name="C" unicode="C" horiz-adv-x="708" 
d="M68 309l0.00390625 887.002c0 8 0.666992 19.5 2 34.5s7 41.333 17 79s24.333 70.834 43 99.501s48.167 54.667 88.5 78s88.333 35 144 35s103.667 -11.333 144 -34s69.833 -49.667 88.5 -81s33 -63 43 -95s15.667 -59.667 17 -83l2 -33v-207h-206v207
c-1.33301 0 -1.33301 3.83301 0 11.5s0.166016 16.834 -3.50098 27.501s-7.83398 21.5 -12.501 32.5s-12.834 20.333 -24.501 28s-26.167 11.5 -43.5 11.5c-23.333 0 -41.5 -9.33301 -54.5 -28s-20.167 -36.667 -21.5 -54l-2 -29v-887c0 -8 0.666992 -18.167 2 -30.5
s8.5 -28.666 21.5 -48.999s31.167 -30.5 54.5 -30.5c27.333 0 48.166 9.16699 62.499 27.5s21.5 37.166 21.5 56.499v26v207h206v-207c0 -8 -0.666992 -19.5 -2 -34.5s-7 -41.333 -17 -79s-24.333 -70.834 -43 -99.501s-48.167 -54.5 -88.5 -77.5s-88.333 -34.5 -144 -34.5
s-103.667 11.167 -144 33.5s-69.833 49.166 -88.5 80.499s-33 63.166 -43 95.499s-15.667 59.166 -17 80.499z" />
    <glyph glyph-name="D" unicode="D" horiz-adv-x="761" 
d="M82 0v1505h174c60 0 111.167 -4 153.5 -12s79.833 -19.167 112.5 -33.5s59.334 -36.833 80.001 -67.5s37.5 -62.5 50.5 -95.5s22.5 -79.5 28.5 -139.5s10 -119 12 -177s3 -134.167 3 -228.5s-1 -170.5 -3 -228.5s-6 -116.667 -12 -176s-15.5 -105.333 -28.5 -138
s-29.833 -64.334 -50.5 -95.001s-47.334 -53.167 -80.001 -67.5s-70.167 -25.666 -112.5 -33.999s-93.5 -12.5 -153.5 -12.5h-174zM303 221c62.667 0 103.667 13.666 123 40.999c26 36.667 39.667 143.334 41 320.001v172v52c0 220 -8.33301 354 -25 402
c-15.333 44 -46 68.667 -92 74c-12 1.33301 -27.667 2 -47 2v-1063z" />
    <glyph glyph-name="E" unicode="E" horiz-adv-x="628" 
d="M82 0v1505h506v-227h-285v-395h205v-242h-205v-414h285v-227h-506z" />
    <glyph glyph-name="F" unicode="F" horiz-adv-x="616" 
d="M82 0v1505h526v-227h-305v-395h205v-228h-205v-655h-221z" />
    <glyph glyph-name="G" unicode="G" horiz-adv-x="737" 
d="M68 274l0.000976562 35v887c0 8 0.666992 19.5 2 34.5s7 41.333 17 79s24.333 70.834 43 99.501s48.167 54.667 88.5 78s88.333 35 144 35s103.667 -11.333 144 -34s69.833 -49.667 88.5 -81s33 -63 43 -95s15.667 -59.667 17 -83l2 -33v-231h-221v231
c0 8 -0.333008 18.167 -1 30.5s-7.16699 28.833 -19.5 49.5s-30 31 -53 31s-40.667 -9.33301 -53 -28s-18.5 -36.667 -18.5 -54l-2 -29v-905c0 -8 0.333008 -18.167 1 -30.5s7.16699 -28.833 19.5 -49.5s30 -31 53 -31s40.667 9.33301 53 28s18.5 36.667 18.5 54l2 29v272
h-88v187h309v-750h-131l-26 72c-46.667 -58.667 -104 -88 -172 -88c-52 0 -96.833 11.167 -134.5 33.5s-64.334 49.166 -80.001 80.499s-27.167 63 -34.5 95s-11 59 -11 81z" />
    <glyph glyph-name="H" unicode="H" horiz-adv-x="778" 
d="M82 0v1505h221v-622h172v622h221v-1505h-221v655h-172v-655h-221z" />
    <glyph glyph-name="I" unicode="I" horiz-adv-x="385" 
d="M82 0v1505h221v-1505h-221z" />
    <glyph glyph-name="J" unicode="J" horiz-adv-x="423" 
d="M12 -14l-0.00195312 216.999c2.66699 0 6.83398 -0.333008 12.501 -1s15.334 0 29.001 2s25.5 6 35.5 12s19.5 17.5 28.5 34.5s13.5 37.833 13.5 62.5v1192h221v-1226c0 -91.333 -26.333 -165 -79 -221c-46.667 -49.333 -120.667 -73.666 -222 -72.999
c-12.667 0 -25.667 0.333008 -39 1z" />
    <glyph glyph-name="K" unicode="K" horiz-adv-x="768" 
d="M82 0v1505h221v-501v-25h8l11 25l184 501h215l-203 -495l230 -1010h-216l-153 655l-6 31h-6l-13 -31l-51 -123v-532h-221z" />
    <glyph glyph-name="L" unicode="L" horiz-adv-x="604" 
d="M82 0v1505h221v-1300h293v-205h-514z" />
    <glyph glyph-name="M" unicode="M" horiz-adv-x="991" 
d="M82 0v1505h270l131 -688l11 -80h4l10 80l131 688h270v-1505h-204v946v64h-13l-8 -64l-141 -946h-94l-142 946l-8 64h-12v-64v-946h-205z" />
    <glyph glyph-name="N" unicode="N" horiz-adv-x="808" 
d="M82 0v1505h197l215 -784l18 -70h12v70v784h203v-1505h-197l-215 784l-18 70h-12v-70v-784h-203z" />
    <glyph glyph-name="O" unicode="O" 
d="M68 309v887.003c0 8 0.666992 19.5 2 34.5s7 41.333 17 79s24.333 70.834 43 99.501s48.167 54.667 88.5 78s88.333 35 144 35s103.667 -11.333 144 -34s69.833 -49.667 88.5 -81s33 -63 43 -95s15.667 -59.667 17 -83l2 -33v-887c0 -8 -0.666992 -19.5 -2 -34.5
s-7 -41.333 -17 -79s-24.333 -70.834 -43 -99.501s-48.167 -54.5 -88.5 -77.5s-88.333 -34.5 -144 -34.5s-103.667 11.167 -144 33.5s-69.833 49.166 -88.5 80.499s-33 63.166 -43 95.499s-15.667 59.166 -17 80.499zM289 309.003c0 -8 0.333008 -18.167 1 -30.5
s7.16699 -28.666 19.5 -48.999s30 -30.5 53 -30.5s40.667 9.16699 53 27.5s18.5 37.166 18.5 56.499l2 26v887c0 8 -0.333008 18.167 -1 30.5s-7.16699 28.833 -19.5 49.5s-30 31 -53 31s-40.667 -9.33301 -53 -28s-18.5 -36.667 -18.5 -54l-2 -29v-887z" />
    <glyph glyph-name="P" unicode="P" horiz-adv-x="720" 
d="M82 0v1505h221c110.667 0 203.167 -35.167 277.5 -105.5s111.5 -185.333 111.5 -345s-37.167 -275 -111.5 -346s-166.833 -106.5 -277.5 -106.5v-602h-221zM303 827c68 0 112.667 15.167 134 45.5s32 88.5 32 174.5c0 87.333 -11 148 -33 182s-66.333 51 -133 51v-453z
" />
    <glyph glyph-name="Q" unicode="Q" horiz-adv-x="729" 
d="M68 309l0.000976562 887.004c0 8 0.666992 19.5 2 34.5s7 41.333 17 79s24.333 70.834 43 99.501s48.167 54.667 88.5 78s88.333 35 144 35s103.667 -11.333 144 -34s69.833 -49.667 88.5 -81s33 -63 43 -95s15.667 -59.667 17 -83l2 -33v-887
c0 -62.667 -15 -123.334 -45 -182.001c22 -28.667 51.333 -46.334 88 -53.001v-189c-106.667 0 -182.334 39 -227.001 117c-36.667 -12 -73.667 -18 -111 -18c-56 0 -104 11.167 -144 33.5s-69.333 49.166 -88 80.499s-33 63.166 -43 95.499s-15.667 59.166 -17 80.499z
M289.001 309.004c0 -8 0.333008 -18.167 1 -30.5s7.16699 -28.666 19.5 -48.999s30 -30.5 53 -30.5s40.667 9.16699 53 27.5s18.5 37.166 18.5 56.499l2 26v887c0 8 -0.333008 18.167 -1 30.5s-7.16699 28.833 -19.5 49.5s-30 31 -53 31s-40.667 -9.33301 -53 -28
s-18.5 -36.667 -18.5 -54l-2 -29v-887z" />
    <glyph glyph-name="R" unicode="R" horiz-adv-x="739" 
d="M82 0v1505h221c251.333 0 377 -144.667 377 -434c0 -172 -41 -286 -123 -342l141 -729h-221l-115 635h-59v-635h-221zM303 840c20.667 0 38.167 1.66504 52.5 4.99805s31.333 11.5 51 24.5s34.667 35.833 45 68.5s15.5 74.334 15.5 125.001
s-5.16699 92.334 -15.5 125.001s-25.333 55.5 -45 68.5s-36.667 21.167 -51 24.5s-31.833 5 -52.5 5v-446z" />
    <glyph glyph-name="S" unicode="S" horiz-adv-x="702" 
d="M37 422l217.003 19.998c0 -170.667 34.667 -256 104 -256c60 0 90.333 55.333 91 166c0 19.333 -2.83301 39.166 -8.5 59.499s-16.334 44.833 -32.001 73.5s-27.834 50 -36.501 64l-54 79c-26.667 38.667 -42.667 62.667 -48 72c-44 64 -78.167 116.667 -102.5 158
s-47 91 -68 149s-31.5 112 -31.5 162c0 92.667 23.833 174.334 71.5 245.001s119.834 106.667 216.501 108h10c58.667 0 108.667 -11.667 150 -35c44 -24.667 75.833 -58.5 95.5 -101.5s33.667 -85.333 42 -127s12.5 -87.167 12.5 -136.5l-217 -20
c0 144.667 -29.667 217 -89 217c-50.667 -1.33301 -75.667 -51.333 -75 -150c0 -12 1.33301 -25.167 4 -39.5s6 -27.333 10 -39s10.167 -26 18.5 -43s15.166 -30.333 20.499 -40s14.666 -24.167 27.999 -43.5l28 -43l33 -48l32 -46l104 -159
c20.667 -32.667 43 -79.167 67 -139.5s36 -115.833 36 -166.5c0 -252.667 -102.667 -378.667 -308 -378c-54.667 0 -102 8.5 -142 25.5s-71.333 38.167 -94 63.5s-40.5 58.333 -53.5 99s-21.5 79.834 -25.5 117.501s-6 81.834 -6 132.501z" />
    <glyph glyph-name="T" unicode="T" horiz-adv-x="647" 
d="M4 1278v227h639v-227h-209v-1278h-221v1278h-209z" />
    <glyph glyph-name="U" unicode="U" horiz-adv-x="749" 
d="M80 309l-0.00488281 1196h221v-1196c0 -8 0.333008 -18.167 1 -30.5s7.16699 -28.666 19.5 -48.999s30.166 -30.5 53.499 -30.5s41 9.16699 53 27.5s18 37.166 18 56.499l3 26v1196h221v-1196c0 -8 -0.666992 -19.5 -2 -34.5s-7.16602 -41.333 -17.499 -79
s-24.666 -70.834 -42.999 -99.501s-47.666 -54.5 -87.999 -77.5s-88.5 -34.5 -144.5 -34.5s-104.167 11.167 -144.5 33.5s-69.666 49.166 -87.999 80.499s-32.666 63.166 -42.999 95.499s-16.166 59.166 -17.499 80.499z" />
    <glyph glyph-name="V" unicode="V" horiz-adv-x="716" 
d="M18 1505h215l111 -827l8 -64h13l8 64l110 827h215l-229 -1505h-221z" />
    <glyph glyph-name="W" unicode="W" horiz-adv-x="1036" 
d="M25 1505h204l88 -782l5 -49h16l6 49l94 782h160l94 -782l6 -49h17l4 49l88 782h205l-203 -1505h-172l-102 713l-13 88h-8l-12 -88l-103 -713h-172z" />
    <glyph glyph-name="X" unicode="X" horiz-adv-x="737" 
d="M16 0l244 791l-240 714h218l120 -381l7 -18h8l6 18l121 381h217l-240 -714l244 -791h-217l-127 449l-4 18h-8l-5 -18l-127 -449h-217z" />
    <glyph glyph-name="Y" unicode="Y" horiz-adv-x="700" 
d="M14 1505h217l111 -481l6 -14h4l6 14l111 481h217l-225 -864v-641h-221v641z" />
    <glyph glyph-name="Z" unicode="Z" horiz-adv-x="626" 
d="M20 0v238l347 1048h-297v219h536v-219l-352 -1067h352v-219h-586z" />
    <glyph glyph-name="bracketleft" unicode="[" horiz-adv-x="538" 
d="M82 -16v1521h399v-196h-202v-1325h202v-197h-399v197z" />
    <glyph glyph-name="backslash" unicode="\" horiz-adv-x="792" 
d="M8 1692h162l614 -1872h-168z" />
    <glyph glyph-name="bracketright" unicode="]" horiz-adv-x="538" 
d="M57 -16h203v1325h-203v196h400v-1521v-197h-400v197z" />
    <glyph glyph-name="asciicircum" unicode="^" horiz-adv-x="1101" 
d="M53 809l381 696h234l381 -696h-199l-299 543l-299 -543h-199z" />
    <glyph glyph-name="underscore" unicode="_" horiz-adv-x="1210" 
d="M74 -154h1063v-172h-1063v172z" />
    <glyph glyph-name="grave" unicode="`" horiz-adv-x="1024" 
d="M293 1489h215l106 -184h-159z" />
    <glyph glyph-name="a" unicode="a" horiz-adv-x="681" 
d="M49 260c0 70.667 11.3271 132.999 33.9941 186.999s50.334 95.333 83.001 124s65.334 53 98.001 73s62 36.833 88 50.5s40.333 25.834 43 36.501v37v86c0 68 -19 102 -57 102c-13.333 0 -24.166 -3 -32.499 -9s-14.166 -16.833 -17.499 -32.5s-5.66602 -28 -6.99902 -37
s-2 -24.833 -2 -47.5v-39h-207v47c0 82 26.833 152.333 80.5 211s119.5 88 197.5 88c68 0 127 -24.667 177 -74s75 -109.333 75 -180v-351v-337c0 -72.667 4.66699 -137.667 14 -195h-202c-12 13.333 -18.333 43.333 -19 90h-14
c-13.333 -24.667 -35.166 -48.5 -65.499 -71.5s-63.833 -34.5 -100.5 -34.5c-39.333 0 -76.833 20 -112.5 60s-53.5 112 -53.5 216zM251.994 290.999c0 -69.333 19 -104.334 57 -105.001c23.333 0 43.5 6.5 60.5 19.5s25.5 29.167 25.5 48.5v287
c-95.333 -41.333 -143 -124.666 -143 -249.999z" />
    <glyph glyph-name="b" unicode="b" horiz-adv-x="686" 
d="M82 0l-0.00195312 1505h207v-458c58.667 60 113.334 90 164.001 90c52 0 91.5 -23 118.5 -69s40.5 -96 40.5 -150v-715c0 -54.667 -13.667 -104.834 -41 -150.501s-66.666 -68.5 -117.999 -68.5c-22 0 -46.667 7.5 -74 22.5s-49.333 29.833 -66 44.5l-24 23v-74h-207z
M288.998 246.001c0 -19.333 6.5 -35.5 19.5 -48.5s27 -19.5 42 -19.5s28 6.5 39 19.5s16.5 29.167 16.5 48.5v628c0 19.333 -5.5 35.5 -16.5 48.5s-24 19.5 -39 19.5s-29 -7.16699 -42 -21.5s-19.5 -29.833 -19.5 -46.5v-628z" />
    <glyph glyph-name="c" unicode="c" horiz-adv-x="645" 
d="M66 315v490.001c0 221.333 88 332 264 332c91.333 0 158.5 -23.667 201.5 -71s64.5 -131 64.5 -251v-88h-207v135c0 34 -4 57.5 -12 70.5s-23.667 19.5 -47 19.5c-38 0 -57.333 -30 -58 -90v-604c0 -60 19.333 -90 58 -90c23.333 0 39 6.5 47 19.5s12 36.5 12 70.5v156
h207v-109c0 -120 -21.5 -203.5 -64.5 -250.5s-110.167 -70.5 -201.5 -70.5c-176 -0.666992 -264 109.666 -264 330.999z" />
    <glyph glyph-name="d" unicode="d" horiz-adv-x="686" 
d="M74 203l0.00195312 714.998c0 54.667 13.667 104.834 41 150.501s66.666 68.5 117.999 68.5c22 0 46.667 -7.5 74 -22.5s49.333 -30.167 66 -45.5l24 -22v458h207v-1505h-207v74c-58.667 -60 -113.334 -90 -164.001 -90c-52 0 -91.5 22.833 -118.5 68.5
s-40.5 95.834 -40.5 150.501zM281.002 245.998c0 -19.333 5.33301 -35.5 16 -48.5s23.5 -19.5 38.5 -19.5s29 6.5 42 19.5s19.5 29.167 19.5 48.5v628c0 16.667 -6.5 32.167 -19.5 46.5s-27 21.5 -42 21.5s-27.833 -6.5 -38.5 -19.5s-16 -29.167 -16 -48.5v-628z" />
    <glyph glyph-name="e" unicode="e" horiz-adv-x="659" 
d="M66 279l0.00195312 562.999c0 8 0.666992 18.5 2 31.5s6.66602 36.5 15.999 70.5s22.666 64 39.999 90s44.333 49.667 81 71s79.667 32 129 32c50.667 0 94 -10 130 -30s62.5 -44.333 79.5 -73s30.333 -57 40 -85s14.5 -52 14.5 -72l2 -29v-326h-342v-243v-13
c0 -5.33301 1.33301 -14.5 4 -27.5s6.5 -24.333 11.5 -34s12.833 -18.5 23.5 -26.5s23 -12 37 -12c23.333 0 41.166 9.16699 53.499 27.5s18.5 37.166 18.5 56.499l2 29v122h192v-129c0 -8 -0.666992 -18.5 -2 -31.5s-6.83301 -35.833 -16.5 -68.5s-22.667 -62 -39 -88
s-42.833 -49.167 -79.5 -69.5s-80.334 -30.5 -131.001 -30.5c-49.333 0 -92.5 10.167 -129.5 30.5s-63.667 44.833 -80 73.5s-29.166 57.334 -38.499 86.001s-14.666 53.334 -15.999 74.001zM258.002 683.999h149.999v158c0 8 -0.333008 18.5 -1 31.5s-7.16699 30 -19.5 51
s-30.166 31.5 -53.499 31.5c-22 0 -39.5 -9.5 -52.5 -28.5s-20.167 -38.167 -21.5 -57.5l-2 -28v-158z" />
    <glyph glyph-name="f" unicode="f" horiz-adv-x="475" 
d="M20 934l0.00292969 186.001h105v17v14c0 34 0.666992 62 2 84s6.16602 52.667 14.499 92s20 70.666 35 93.999s38.5 44.5 70.5 63.5s70.333 28.5 115 28.5c19.333 0 37.166 -1 53.499 -3s28.166 -4.33301 35.499 -7l8 -4v-178c-18 5.33301 -38.667 8 -62 8
c-44 0 -65.667 -60 -65 -180v-16v-13h104v-186h-104v-934h-207v934h-105z" />
    <glyph glyph-name="g" unicode="g" horiz-adv-x="700" 
d="M12 -184c0 62.667 53.9971 119.333 161.997 170c-83.333 23.333 -125 73 -125 149c0 30 13.333 61 40 93s56.334 57 89.001 75c-34 23.333 -60.833 55.166 -80.5 95.499s-31.167 75.5 -34.5 105.5l-4 43v305c0 8 0.666992 18.167 2 30.5s6.83301 34.833 16.5 67.5
s22.667 61.667 39 87s42.666 48.333 78.999 69s78.5 31 126.5 31c90 0 158.667 -34.333 206 -103c68 68 124.667 102.333 170 103v-185c-48 0 -88 -8 -120 -24l10 -70v-317c0 -6.66699 -0.666992 -16.5 -2 -29.5s-7.16602 -35.333 -17.499 -67s-23.666 -59.667 -39.999 -84
s-42.666 -46.5 -78.999 -66.5s-78.833 -30 -127.5 -30c-18 0 -31 0.666992 -39 2c-19.333 -16.667 -29 -33.667 -29 -51c0 -10.667 3.66699 -20.167 11 -28.5s21.333 -15.166 42 -20.499s35.834 -8.66602 45.501 -9.99902s29.5 -5 59.5 -11
c38 -5.33301 71.667 -12.333 101 -21s59 -22.334 89 -41.001s53.5 -44.667 70.5 -78s25.5 -73.333 25.5 -120c0 -101.333 -34.333 -174.333 -103 -219s-152.334 -67 -251.001 -67c-109.333 2.66699 -192 20 -248 52s-84 87 -84 165zM212.997 -150.001
c0 -52 45.001 -77.667 135.001 -77c39.333 0 75.5 6.5 108.5 19.5s49.5 31.5 49.5 55.5c0 22 -6.83301 38.833 -20.5 50.5s-43.834 21.5 -90.501 29.5l-106 21c-50.667 -29.333 -76 -62.333 -76 -99zM261.998 508.999c0 -11.333 5.16602 -26.333 15.499 -45
s25.166 -28 44.499 -28c20.667 0 36.334 8.5 47.001 25.5s16 33.833 16 50.5v25v307c-0.666992 0.666992 -1 1.83398 -1 3.50098s0.333008 4.16699 1 7.5s1 5.33301 1 6c0 5.33301 -1 11.666 -3 18.999c-2.66699 10 -5.66699 20.167 -9 30.5s-9.5 18.833 -18.5 25.5
s-20.167 10 -33.5 10c-19.333 0 -34.166 -8.5 -44.499 -25.5s-15.5 -34.5 -15.5 -52.5v-24v-307v-28z" />
    <glyph glyph-name="h" unicode="h" horiz-adv-x="690" 
d="M82 0v1505h207v-479l32 32c20 20 42.167 38.167 66.5 54.5s47.5 24.5 69.5 24.5c50.667 0 89.167 -23 115.5 -69s39.5 -96 39.5 -150v-918h-206v887c0 32.667 -16.667 49 -50 49c-12 0 -23.5 -4.5 -34.5 -13.5s-19.167 -17.5 -24.5 -25.5l-8 -14v-883h-207z" />
    <glyph glyph-name="i" unicode="i" horiz-adv-x="370" 
d="M82 0v1120h207v-1120h-207zM82 1298v207h207v-207h-207z" />
    <glyph glyph-name="j" unicode="j" horiz-adv-x="364" 
d="M-45 -182c19.333 -5.33301 38.332 -8.00195 56.999 -8.00195c42.667 0 64 47.333 64 142v10.5v10.5v1147h207v-1149c0 -34 -0.666992 -61.833 -2 -83.5s-6.16602 -51.667 -14.499 -90s-20 -69.166 -35 -92.499s-38.5 -44.166 -70.5 -62.499s-70.667 -27.5 -116 -27.5
c-19.333 0 -36.5 1 -51.5 3s-25.167 3.66699 -30.5 5l-8 4v191zM75.999 1298v207h207v-207h-207z" />
    <glyph glyph-name="k" unicode="k" horiz-adv-x="641" 
d="M82 0v1505h207v-678v-36h10l12 36l101 293h186l-149 -364l188 -756h-199l-102 453l-4 16h-10l-7 -16l-26 -66v-387h-207z" />
    <glyph glyph-name="l" unicode="l" horiz-adv-x="370" 
d="M82 0v1505h207v-1505h-207z" />
    <glyph glyph-name="m" unicode="m" horiz-adv-x="1021" 
d="M82 0l0.000976562 1120h207v-94c1.33301 0 12.166 10.167 32.499 30.5s43.166 38.833 68.499 55.5s49 25 71 25c66.667 0 113 -41.667 139 -125l43 41c26 24.667 51.333 44.834 76 60.501s47.667 23.5 69 23.5c50.667 0 89.334 -23 116.001 -69s40 -96 40 -150v-918h-194
v887c0 32.667 -18.667 49 -56 49c-12 0 -24.5 -4.5 -37.5 -13.5s-22.833 -17.5 -29.5 -25.5l-11 -14v-883h-194v887c0 32.667 -18.333 49 -55 49c-12 0 -24.667 -4.5 -38 -13.5s-23.333 -17.5 -30 -25.5l-10 -14v-883h-207z" />
    <glyph glyph-name="n" unicode="n" horiz-adv-x="690" 
d="M82 0v1120h207v-94l32 32c20 20 42.167 38.167 66.5 54.5s47.5 24.5 69.5 24.5c50.667 0 89.167 -23 115.5 -69s39.5 -96 39.5 -150v-918h-206v887c0 32.667 -16.667 49 -50 49c-12 0 -23.5 -4.5 -34.5 -13.5s-19.167 -17.5 -24.5 -25.5l-8 -14v-883h-207z" />
    <glyph glyph-name="o" unicode="o" horiz-adv-x="657" 
d="M63 279l0.000976562 562.998c0 8 0.5 18.5 1.5 31.5s6.16699 36.5 15.5 70.5s22.166 64 38.499 90s43 49.667 80 71s80.167 32 129.5 32c50.667 0 94 -10 130 -30s62.5 -44.333 79.5 -73s30.333 -57 40 -85s15.167 -52 16.5 -72v-29v-576c0 -8 -0.333008 -18.5 -1 -31.5
s-5.83398 -35.833 -15.501 -68.5s-23 -62 -40 -88s-43.667 -49.167 -80 -69.5s-79.5 -30.5 -129.5 -30.5c-49.333 0 -92.5 10.167 -129.5 30.5s-63.667 44.833 -80 73.5s-29.166 57.334 -38.499 86.001s-14 53.334 -14 74.001zM257.001 258.998
c0 -6 1.00098 -12.6689 3.00098 -20.002c2.66699 -11.333 6 -22.666 10 -33.999s11.167 -20.666 21.5 -27.999s22.5 -11 36.5 -11c23.333 0 40.666 9.16699 51.999 27.5s17 37.166 17 56.499l2 29v563c-1.33301 0 -1.33301 3.66699 0 11
c0.666992 2.66699 1 5.33398 1 8.00098c0 6 -1 13 -3 21c-2.66699 11.333 -6 22.5 -10 33.5s-11.167 20.5 -21.5 28.5s-22.833 12 -37.5 12c-22 0 -38.833 -9.5 -50.5 -28.5s-18.167 -38.167 -19.5 -57.5v-28v-563c0.666992 -0.666992 1 -2 1 -4s-0.333008 -5 -1 -9
s-1 -6.33301 -1 -7z" />
    <glyph glyph-name="p" unicode="p" horiz-adv-x="686" 
d="M82 -385l-0.00195312 1505h207v-73c58.667 60 113.334 90 164.001 90c52 0 91.5 -23 118.5 -69s40.5 -96 40.5 -150v-715c0 -54.667 -13.667 -104.834 -41 -150.501s-66.666 -68.5 -117.999 -68.5c-22 0 -46.667 7.5 -74 22.5s-49.333 29.833 -66 44.5l-24 23v-459h-207z
M288.998 246.001c0 -16.667 6.5 -32.167 19.5 -46.5s27 -21.5 42 -21.5s28 6.5 39 19.5s16.5 29.167 16.5 48.5v628c0 19.333 -5.5 35.5 -16.5 48.5s-24 19.5 -39 19.5s-29 -6.5 -42 -19.5s-19.5 -29.167 -19.5 -48.5v-628z" />
    <glyph glyph-name="q" unicode="q" horiz-adv-x="686" 
d="M74 203l0.00195312 714.998c0 54.667 13.667 104.834 41 150.501s66.666 68.5 117.999 68.5c22 0 46.667 -7.5 74 -22.5s49.333 -30.167 66 -45.5l24 -22v73h207v-1505h-207v459c-58.667 -60 -113.334 -90 -164.001 -90c-52 0 -91.5 22.833 -118.5 68.5
s-40.5 95.834 -40.5 150.501zM281.002 245.998c0 -19.333 5.33301 -35.5 16 -48.5s23.5 -19.5 38.5 -19.5s29 7.16699 42 21.5s19.5 29.833 19.5 46.5v628c0 19.333 -6.5 35.5 -19.5 48.5s-27 19.5 -42 19.5s-27.833 -6.5 -38.5 -19.5s-16 -29.167 -16 -48.5v-628z" />
    <glyph glyph-name="r" unicode="r" horiz-adv-x="503" 
d="M82 0l0.000976562 1120h207v-125c5.33301 27.333 24.666 57.833 57.999 91.5s83 50.5 149 50.5v-230c-22.667 7.33301 -44 11 -64 11c-37.333 0 -70 -12.333 -98 -37c-30 -27.333 -45 -61.666 -45 -102.999v-778h-207z" />
    <glyph glyph-name="s" unicode="s" horiz-adv-x="630" 
d="M37 326l191.995 -0.00585938c0 -113.333 32.333 -170 97 -170c48 0 71.667 45 71 135c0 49.333 -43 115.333 -129 198c-45.333 44 -78.166 77 -98.499 99s-41.666 55.833 -63.999 101.5s-33.5 93.834 -33.5 144.501c0 36.667 4 71.334 12 104.001s21 64.334 39 95.001
s44 55.334 78 74.001s75 28.667 123 30h11c52 0 95.667 -8.66699 131 -26c37.333 -18.667 64.166 -45 80.499 -79s27.333 -65.667 33 -95s8.5 -63.666 8.5 -102.999h-193c0 87.333 -22.333 131 -67 131c-42 -1.33301 -63.333 -45 -64 -131c0 -22 7.83301 -46.333 23.5 -73
s30.667 -47.5 45 -62.5s36.5 -36.833 66.5 -65.5c126.667 -121.333 190.334 -235.333 191.001 -342c0 -82 -21.5 -153.667 -64.5 -215s-109.5 -92 -199.5 -92c-48 0 -90.167 8.16699 -126.5 24.5s-64.666 36.333 -84.999 60s-36.666 52 -48.999 85
s-20.166 62.833 -23.499 89.5s-5 54.334 -5 83.001z" />
    <glyph glyph-name="t" unicode="t" horiz-adv-x="501" 
d="M20 934l-0.000976562 186h105v277h207v-277h141v-186h-141v-557c0 -122.667 21.667 -184 65 -184l76 8v-203c-30 -9.33301 -67 -14 -111 -14c-45.333 0 -83.833 9.5 -115.5 28.5s-55 40.5 -70 64.5s-26.667 56 -35 96s-13.166 71.667 -14.499 95s-2 54 -2 92v574h-105z
" />
    <glyph glyph-name="u" unicode="u" horiz-adv-x="690" 
d="M78 203v916.999h207v-887c0 -32.667 16.333 -49 49 -49c12 0 23.5 4.5 34.5 13.5s19.167 18.167 24.5 27.5l8 13v882h207v-1120h-207v94l-31 -32c-20 -20 -42.333 -38 -67 -54s-48 -24 -70 -24c-50.667 0 -89.167 22.833 -115.5 68.5s-39.5 95.834 -39.5 150.501z" />
    <glyph glyph-name="v" unicode="v" horiz-adv-x="602" 
d="M16 1120h201l68 -649l8 -72h16l8 72l68 649h201l-183 -1120h-204z" />
    <glyph glyph-name="w" unicode="w" horiz-adv-x="905" 
d="M20 1120h189l65 -585l9 -64h12l10 64l86 585h123l86 -585l10 -64h13l8 64l65 585h189l-166 -1120h-172l-80 535l-10 63h-8l-11 -63l-80 -535h-172z" />
    <glyph glyph-name="x" unicode="x" horiz-adv-x="618" 
d="M16 0l193 578l-176 542h194l74 -262l6 -31h4l6 31l74 262h195l-176 -542l192 -578h-201l-84 283l-6 30h-4l-6 -30l-84 -283h-201z" />
    <glyph glyph-name="y" unicode="y" horiz-adv-x="634" 
d="M25 1120h202l82 -688l4 -57h9l4 57l82 688h202l-198 -1204c-10.667 -84.667 -42 -158.667 -94 -222s-116.333 -95 -193 -95l-92 4v184c10.667 -2.66699 27 -4 49 -4c40.667 4 73 24.5 97 61.5s36 77.833 36 122.5z" />
    <glyph glyph-name="z" unicode="z" horiz-adv-x="532" 
d="M12 0v168l285 764h-240v188h459v-168l-285 -764h285v-188h-504z" />
    <glyph glyph-name="braceleft" unicode="{" horiz-adv-x="688" 
d="M61 453v163.003c48 0 82 16.5 102 49.5s30 63.167 30 90.5v397c0 148.667 32 248 96 298s178 73.667 342 71v-172c-90 1.33301 -152.833 -11.334 -188.5 -38.001s-53.5 -79.667 -53.5 -159v-397c0 -95.333 -42.333 -169 -127 -221c84.667 -54.667 127 -128.667 127 -222
v-397c0 -79.333 17.833 -132.333 53.5 -159s98.5 -39.334 188.5 -38.001v-172c-164 -2.66699 -278 21 -342 71s-96 149.333 -96 298v397c0 13.333 -2.83301 29 -8.5 47s-19.5 37.667 -41.5 59s-49.333 32.666 -82 33.999z" />
    <glyph glyph-name="bar" unicode="|" horiz-adv-x="356" 
d="M82 -512v2204h192v-2204h-192z" />
    <glyph glyph-name="braceright" unicode="}" horiz-adv-x="688" 
d="M57 -281c90 -1.33301 152.833 11.3311 188.5 37.998s53.5 79.667 53.5 159v397c0 92.667 42.333 166.667 127 222c-84.667 52 -127 125.667 -127 221v397c0 79.333 -17.667 132.333 -53 159s-98.333 39.334 -189 38.001v172c164 2.66699 278.167 -21 342.5 -71
s96.5 -149.333 96.5 -298v-397c0 -15.333 2.66699 -32.166 8 -50.499s19 -37.833 41 -58.5s49.333 -31 82 -31v-163c-48 -2.66699 -81.833 -20.167 -101.5 -52.5s-29.5 -61.5 -29.5 -87.5v-397c0 -148.667 -32.167 -248 -96.5 -298s-178.5 -73.667 -342.5 -71v172z" />
    <glyph glyph-name="asciitilde" unicode="~" horiz-adv-x="1280" 
d="M113 1352c2.66699 8 6.66895 18.8359 12.002 32.5029s18 38.167 38 73.5s41.5 66.666 64.5 93.999s54.667 52 95 74s82.5 33 126.5 33c36.667 0 73.667 -6.16699 111 -18.5s64.666 -23.333 81.999 -33s45 -26.834 83 -51.501c70.667 -48 128.667 -71.667 174 -71
c38 0 73.167 15.333 105.5 46s54.5 61 66.5 91l19 45l135 -57c-2.66699 -8 -6.83398 -19.333 -12.501 -34s-18.334 -39.667 -38.001 -75s-41.167 -66.333 -64.5 -93s-53.666 -51.334 -90.999 -74.001s-77.333 -34 -120 -34c-80.667 0 -171.334 33.667 -272.001 101
c-76.667 49.333 -136.167 74 -178.5 74s-80.166 -15.167 -113.499 -45.5s-56.333 -60.5 -69 -90.5l-18 -45z" />
    <glyph glyph-name="uni00A0" unicode="&#xa0;" horiz-adv-x="315" 
 />
    <glyph glyph-name="exclamdown" unicode="&#xa1;" horiz-adv-x="387" 
d="M74 -385l55 1100h129l55 -1100h-239zM86 893v227h215v-227h-215z" />
    <glyph glyph-name="cent" unicode="&#xa2;" horiz-adv-x="636" 
d="M66 508l0.000976562 488.999c0 198 69.333 307.333 208 328v242h123v-244c65.333 -10.667 113.5 -40 144.5 -88s46.5 -123.667 46.5 -227v-88h-189v135c0 60 -24.333 90 -73 90c-48 0 -72 -30 -72 -90v-604c0 -60 24 -90.333 72 -91c49.333 0 73.666 30.333 72.999 91
v155h189v-108c0 -104 -15.333 -180.167 -46 -228.5s-79 -78.166 -145 -89.499v-303h-123v301c-138.667 20.667 -208 130.667 -208 330z" />
    <glyph glyph-name="sterling" unicode="&#xa3;" horiz-adv-x="817" 
d="M4 63c5.33301 13.333 13.167 31.165 23.5 53.498s33.666 52.833 69.999 91.5s75.5 61.334 117.5 68.001c24.667 74 37 140.333 37 199c0 45.333 -10.333 103.333 -31 174h-188v137h147l-6 21c-52 169.333 -78 283.333 -78 342c0 46.667 5.16699 90.334 15.5 131.001
s26.5 79.5 48.5 116.5s52.667 66.833 92 89.5s85.666 34.667 138.999 36c64 1.33301 118.667 -9.33398 164 -32.001s79.833 -53.834 103.5 -93.501s40.334 -82 50.001 -127s14.5 -94.833 14.5 -149.5h-213c0 57.333 -8.5 104.833 -25.5 142.5s-46.833 55.834 -89.5 54.501
c-31.333 -1.33301 -54.166 -18.333 -68.499 -51s-21.5 -71.667 -21.5 -117c0 -75.333 23.333 -188 70 -338l6 -25h211v-137h-174c16.667 -66.667 24.667 -124.667 24 -174c0 -69.333 -19 -142.333 -57 -219c10.667 -5.33301 25.334 -13.5 44.001 -24.5
s34.834 -19.5 48.501 -25.5s27.167 -9 40.5 -9c49.333 2.66699 76.666 66 81.999 190l188 -22c-8 -121.333 -35.167 -215.166 -81.5 -281.499s-102.833 -99.5 -169.5 -99.5c-34 0 -81.833 17 -143.5 51s-104.834 51 -129.501 51c-22 0 -42.5 -8.5 -61.5 -25.5
s-32.5 -34.5 -40.5 -52.5l-12 -24z" />
    <glyph glyph-name="yen" unicode="&#xa5;" horiz-adv-x="720" 
d="M25 1505h217l110 -481l6 -14h4l7 14l110 481h217l-196 -753h147v-138h-176v-137h176v-137h-176v-340h-221v340h-176v137h176v137h-176v138h147z" />
    <glyph glyph-name="dieresis" unicode="&#xa8;" horiz-adv-x="1024" 
d="M272 1305v200h191v-200h-191zM561 1305v200h191v-200h-191z" />
    <glyph glyph-name="copyright" unicode="&#xa9;" horiz-adv-x="1644" 
d="M53 751.5c0 211.667 75.167 393 225.5 544s331.333 226.5 543 226.5s392.834 -75.5 543.501 -226.5s226 -332.333 226 -544s-75.333 -392.5 -226 -542.5s-331.834 -225 -543.501 -225s-392.667 75 -543 225s-225.5 330.833 -225.5 542.5zM172 751.5
c0 -177.667 63.833 -330.334 191.5 -458.001s280.167 -191.5 457.5 -191.5s330.333 63.833 459 191.5s193 280.5 193 458.5c0 178.667 -63.833 331.834 -191.5 459.501s-281.167 191.5 -460.5 191.5c-177.333 0 -329.833 -64.167 -457.5 -192.5s-191.5 -281.333 -191.5 -459
zM627 487l-0.00390625 530.999c0 5.33301 0.333008 12.5 1 21.5s4.33398 24.667 11.001 47s15.834 42 27.501 59s30.834 32.667 57.501 47s58.334 21.5 95.001 21.5c35.333 0 66 -6.66699 92 -20s44.833 -29.666 56.5 -48.999s21 -38.5 28 -57.5s11.167 -35.5 12.5 -49.5
v-20v-125h-138v125v17c0 7.33301 -4 16.833 -12 28.5s-20.333 17.5 -37 17.5c-15.333 0 -27 -5.33301 -35 -16s-12 -21.667 -12 -33l-2 -14v-531c0 -42 16.333 -63 49 -63c16.667 0 29 5.16699 37 15.5s12 20.833 12 31.5v16v125h138v-125
c0 -5.33301 -0.333008 -12.333 -1 -21s-4.5 -24.334 -11.5 -47.001s-16.333 -42.5 -28 -59.5s-30.5 -32.667 -56.5 -47s-56.667 -21.5 -92 -21.5c-57.333 0 -102 16.333 -134 49s-50 65.334 -54 98.001z" />
    <glyph glyph-name="ordfeminine" unicode="&#xaa;" horiz-adv-x="681" 
d="M49 260c0 70.667 11.3271 132.999 33.9941 186.999s50.334 95.333 83.001 124s65.334 53 98.001 73s62 36.833 88 50.5s40.333 25.834 43 36.501v37v86c0 68 -19 102 -57 102c-13.333 0 -24.166 -3 -32.499 -9s-14.166 -16.833 -17.499 -32.5s-5.66602 -28 -6.99902 -37
s-2 -24.833 -2 -47.5v-39h-207v47c0 82 26.833 152.333 80.5 211s119.5 88 197.5 88c68 0 127 -24.667 177 -74s75 -109.333 75 -180v-351v-337c0 -72.667 4.66699 -137.667 14 -195h-202c-12 13.333 -18.333 43.333 -19 90h-14
c-13.333 -24.667 -35.166 -48.5 -65.499 -71.5s-63.833 -34.5 -100.5 -34.5c-39.333 0 -76.833 20 -112.5 60s-53.5 112 -53.5 216zM251.994 290.999c0 -69.333 19 -104.334 57 -105.001c23.333 0 43.5 6.5 60.5 19.5s25.5 29.167 25.5 48.5v287
c-95.333 -41.333 -143 -124.666 -143 -249.999z" />
    <glyph glyph-name="uni00AD" unicode="&#xad;" horiz-adv-x="444" 
d="M74 455v194h297v-194h-297z" />
    <glyph glyph-name="registered" unicode="&#xae;" horiz-adv-x="1644" 
d="M53 751.5c0 211.667 75.167 393 225.5 544s331.333 226.5 543 226.5s392.834 -75.5 543.501 -226.5s226 -332.333 226 -544s-75.333 -392.5 -226 -542.5s-331.834 -225 -543.501 -225s-392.667 75 -543 225s-225.5 330.833 -225.5 542.5zM172 751.5
c0 -177.667 63.833 -330.334 191.5 -458.001s280.167 -191.5 457.5 -191.5s330.333 63.833 459 191.5s193 280.5 193 458.5c0 178.667 -63.833 331.834 -191.5 459.501s-281.167 191.5 -460.5 191.5c-177.333 0 -329.833 -64.167 -457.5 -192.5s-191.5 -281.333 -191.5 -459
zM625 313v879.001h196c154 0 231.333 -86 232 -258c0 -50.667 -5.5 -92.334 -16.5 -125.001s-34.833 -64.667 -71.5 -96l106 -400h-151l-95 365h-55v-365h-145zM770 805.001h45c28.667 0 50.5 7.16699 65.5 21.5s24.167 29.333 27.5 45s5 35.834 5 60.501
c0 26 -1.66699 47.167 -5 63.5s-12.5 31.666 -27.5 45.999s-36.833 21.5 -65.5 21.5h-45v-258z" />
    <glyph glyph-name="macron" unicode="&#xaf;" horiz-adv-x="1024" 
d="M313 1315v162h398v-162h-398z" />
    <glyph glyph-name="uni00B2" unicode="&#xb2;" horiz-adv-x="731" 
d="M55 0v219l39 62c16.667 26 46.167 76.833 88.5 152.5s79.833 149 112.5 220s63 151.5 91 241.5s42.667 169.333 44 238c0 122.667 -24.5 184 -73.5 184s-73.5 -61.333 -73.5 -184v-105h-222v105c0 259.333 98.333 389 295 389s295 -125 295 -375
c0 -224 -115.333 -533.333 -346 -928h350v-219h-600z" />
    <glyph glyph-name="uni00B3" unicode="&#xb3;" horiz-adv-x="686" 
d="M45 1071c0 46.667 0.666016 85.0049 1.99902 115.005s7.16602 68.5 17.499 115.5s25 84.5 44 112.5s47 53 84 75s82.167 33 135.5 33c52 0 97 -10.333 135 -31s66.167 -44.334 84.5 -71.001s33 -57.334 44 -92.001s17.5 -61.167 19.5 -79.5s3 -35.166 3 -50.499
c0 -194 -35.333 -326.333 -106 -397l-2 -2c84.667 -66.667 127 -204.667 127 -414c0 -16.667 -1 -36.167 -3 -58.5s-8.5 -55.333 -19.5 -99s-25.667 -82.334 -44 -116.001s-46.666 -63.334 -84.999 -89.001s-83.5 -38.5 -135.5 -38.5c-53.333 0 -98.666 10.5 -135.999 31.5
s-66 46.167 -86 75.5s-35.833 66.833 -47.5 112.5s-18.5 85 -20.5 118s-3 70.5 -3 112.5h217c1.33301 -100 7.16602 -167.667 17.499 -203s29.833 -53 58.5 -53c30 0 49.167 16.833 57.5 50.5s12.5 80.5 12.5 140.5c0 12 0.333008 34 1 66s0.666992 52.833 0 62.5
s-2 26.167 -4 49.5s-5.33301 38.666 -10 45.999l-18 33c-8 14.667 -17.833 24.334 -29.5 29.001s-26.667 9.66699 -45 15s-39.166 8.66602 -62.499 9.99902h-19v184c24.667 1.33301 45.5 3.83301 62.5 7.5s32 8.5 45 14.5s23.333 13.167 31 21.5s13.5 18.166 17.5 29.499
s7 24.5 9 39.5s3 32.167 3 51.5v62v43c0 30 -0.333008 52.833 -1 68.5s-3 35 -7 58s-11.167 40 -21.5 51s-23.5 16.5 -39.5 16.5c-27.333 0 -44.833 -16.333 -52.5 -49s-12.167 -101.667 -13.5 -207h-217z" />
    <glyph glyph-name="acute" unicode="&#xb4;" horiz-adv-x="1024" 
d="M410 1305l106 184h215l-162 -184h-159z" />
    <glyph glyph-name="periodcentered" unicode="&#xb7;" horiz-adv-x="215" 
d="M0 649v228h215v-228h-215z" />
    <glyph glyph-name="cedilla" unicode="&#xb8;" horiz-adv-x="1024" 
d="M426 -111h172v-141l-45 -133h-104l40 133h-63v141z" />
    <glyph glyph-name="uni00B9" unicode="&#xb9;" horiz-adv-x="475" 
d="M25 1180l-0.00195312 141c54.667 10.667 101.334 31.5 140.001 62.5s64.334 58.5 77.001 82.5l18 39h133v-1505h-221v1180h-147z" />
    <glyph glyph-name="ordmasculine" unicode="&#xba;" horiz-adv-x="657" 
d="M63 279l0.000976562 562.998c0 8 0.5 18.5 1.5 31.5s6.16699 36.5 15.5 70.5s22.166 64 38.499 90s43 49.667 80 71s80.167 32 129.5 32c50.667 0 94 -10 130 -30s62.5 -44.333 79.5 -73s30.333 -57 40 -85s15.167 -52 16.5 -72v-29v-576c0 -8 -0.333008 -18.5 -1 -31.5
s-5.83398 -35.833 -15.501 -68.5s-23 -62 -40 -88s-43.667 -49.167 -80 -69.5s-79.5 -30.5 -129.5 -30.5c-49.333 0 -92.5 10.167 -129.5 30.5s-63.667 44.833 -80 73.5s-29.166 57.334 -38.499 86.001s-14 53.334 -14 74.001zM257.001 258.998
c0 -6 1.00098 -12.6689 3.00098 -20.002c2.66699 -11.333 6 -22.666 10 -33.999s11.167 -20.666 21.5 -27.999s22.5 -11 36.5 -11c23.333 0 40.666 9.16699 51.999 27.5s17 37.166 17 56.499l2 29v563c-1.33301 0 -1.33301 3.66699 0 11
c0.666992 2.66699 1 5.33398 1 8.00098c0 6 -1 13 -3 21c-2.66699 11.333 -6 22.5 -10 33.5s-11.167 20.5 -21.5 28.5s-22.833 12 -37.5 12c-22 0 -38.833 -9.5 -50.5 -28.5s-18.167 -38.167 -19.5 -57.5v-28v-563c0.666992 -0.666992 1 -2 1 -4s-0.333008 -5 -1 -9
s-1 -6.33301 -1 -7z" />
    <glyph glyph-name="questiondown" unicode="&#xbf;" horiz-adv-x="645" 
d="M41 -106c0 54.667 26.6689 127.667 80.002 219l57 95c12 21.333 26 56.833 42 106.5s24 97.834 24 144.501v256h190v-256c0 -68 -8.16699 -133.167 -24.5 -195.5s-32.333 -109.166 -48 -140.499s-37.167 -70.333 -64.5 -117c-28.667 -48 -46.334 -85.333 -53.001 -112
c-4 -18 -0.333008 -38.333 11 -61s30 -34 56 -34c31.333 -1.33301 58.666 14.5 81.999 47.5s39.666 65.833 48.999 98.5l179 -84c-8 -22 -19.333 -45 -34 -69s-34.667 -51.333 -60 -82s-57.333 -55.834 -96 -75.501s-80 -28.834 -124 -27.501
c-54.667 1.33301 -100.667 12.5 -138 33.5s-64.666 48.333 -81.999 82s-29.333 64.167 -36 91.5s-10 54 -10 80zM231.002 893v227h215v-227h-215z" />
    <glyph glyph-name="Agrave" unicode="&#xc0;" horiz-adv-x="765" 
d="M20 0l228 1505h270l227 -1505h-215l-41 307h-213l-40 -307h-216zM141 1823h215l107 -185h-160zM307 541h152l-64 475l-6 39h-12l-6 -39z" />
    <glyph glyph-name="Aacute" unicode="&#xc1;" horiz-adv-x="765" 
d="M20 0l228 1505h270l227 -1505h-215l-41 307h-213l-40 -307h-216zM293 1638l106 185h215l-161 -185h-160zM307 541h152l-64 475l-6 39h-12l-6 -39z" />
    <glyph glyph-name="Acircumflex" unicode="&#xc2;" horiz-adv-x="765" 
d="M20 0l228 1505h270l227 -1505h-215l-41 307h-213l-40 -307h-216zM133 1638l141 185h220l141 -185h-189l-63 72l-61 -72h-189zM307 541h152l-64 475l-6 39h-12l-6 -39z" />
    <glyph glyph-name="Atilde" unicode="&#xc3;" horiz-adv-x="765" 
d="M20 0l228 1505h270l227 -1505h-215l-41 307h-213l-40 -307h-216zM184 1632v152c32.667 26 69 39 109 39c22 0 52.333 -6.16699 91 -18.5s68.334 -19.166 89.001 -20.499c16.667 0 34.167 2.66699 52.5 8s32.166 10.666 41.499 15.999l15 9v-152
c-34 -26 -70.333 -39 -109 -39c-20.667 0 -50.334 6.5 -89.001 19.5s-69 19.5 -91 19.5c-16.667 0 -34.167 -2.66699 -52.5 -8s-32.166 -11 -41.499 -17zM307 541h152l-64 475l-6 39h-12l-6 -39z" />
    <glyph glyph-name="Adieresis" unicode="&#xc4;" horiz-adv-x="765" 
d="M20 0l228 1505h270l227 -1505h-215l-41 307h-213l-40 -307h-216zM143 1638v201h191v-201h-191zM307 541h152l-64 475l-6 39h-12l-6 -39zM432 1638v201h191v-201h-191z" />
    <glyph glyph-name="Aring" unicode="&#xc5;" horiz-adv-x="765" 
d="M20 0l228 1505h270l227 -1505h-215l-41 307h-213l-40 -307h-216zM231 1761.5c0 41 15.167 75.167 45.5 102.5s66.666 41 108.999 41s78.166 -13.667 107.499 -41s44 -61.5 44 -102.5s-14.667 -75.167 -44 -102.5s-65.166 -41 -107.499 -41s-78.666 13.667 -108.999 41
s-45.5 61.5 -45.5 102.5zM307 541h152l-64 475l-6 39h-12l-6 -39zM309 1761.5c0 -19 7.83301 -35.667 23.5 -50s33.167 -21.5 52.5 -21.5s36.833 7.16699 52.5 21.5s23.5 31 23.5 50s-7.83301 35.667 -23.5 50s-33.167 21.5 -52.5 21.5s-36.833 -7.16699 -52.5 -21.5
s-23.5 -31 -23.5 -50z" />
    <glyph glyph-name="AE" unicode="&#xc6;" horiz-adv-x="1099" 
d="M16 0l420 1505h623v-227h-285v-395h205v-242h-205v-414h285v-227h-506v307h-227l-90 -307h-220zM393 541h160v514h-10z" />
    <glyph glyph-name="Ccedilla" unicode="&#xc7;" horiz-adv-x="708" 
d="M68 309l0.00390625 887.002c0 8 0.666992 19.5 2 34.5s7 41.333 17 79s24.333 70.834 43 99.501s48.167 54.667 88.5 78s88.333 35 144 35s103.667 -11.333 144 -34s69.833 -49.667 88.5 -81s33 -63 43 -95s15.667 -59.667 17 -83l2 -33v-207h-206v207
c-1.33301 0 -1.33301 3.83301 0 11.5s0.166016 16.834 -3.50098 27.501s-7.83398 21.5 -12.501 32.5s-12.834 20.333 -24.501 28s-26.167 11.5 -43.5 11.5c-23.333 0 -41.5 -9.33301 -54.5 -28s-20.167 -36.667 -21.5 -54l-2 -29v-887c0 -8 0.666992 -18.167 2 -30.5
s8.5 -28.666 21.5 -48.999s31.167 -30.5 54.5 -30.5c27.333 0 48.166 9.16699 62.499 27.5s21.5 37.166 21.5 56.499v26v207h206v-207c0 -8 -0.666992 -19.5 -2 -34.5s-7 -41.333 -17 -79s-24.333 -70.834 -43 -99.501s-48.167 -54.5 -88.5 -77.5s-88.333 -34.5 -144 -34.5
s-103.667 11.167 -144 33.5s-69.833 49.166 -88.5 80.499s-33 63.166 -43 95.499s-15.667 59.166 -17 80.499zM268.004 -16.998v-141h64l-41 -133h104l45 133v141h-172z" />
    <glyph glyph-name="Egrave" unicode="&#xc8;" horiz-adv-x="628" 
d="M82 0v1505h506v-227h-285v-395h205v-242h-205v-414h285v-227h-506zM111 1823h215l106 -185h-160z" />
    <glyph glyph-name="Eacute" unicode="&#xc9;" horiz-adv-x="628" 
d="M82 0v1505h506v-227h-285v-395h205v-242h-205v-414h285v-227h-506zM236 1638l106 185h215l-162 -185h-159z" />
    <glyph glyph-name="Ecircumflex" unicode="&#xca;" horiz-adv-x="628" 
d="M82 0v1505h506v-227h-285v-395h205v-242h-205v-414h285v-227h-506zM84 1638l141 185h219l142 -185h-189l-63 72l-62 -72h-188z" />
    <glyph glyph-name="Edieresis" unicode="&#xcb;" horiz-adv-x="628" 
d="M82 0v1505h506v-227h-285v-395h205v-242h-205v-414h285v-227h-506zM94 1638v201h191v-201h-191zM383 1638v201h190v-201h-190z" />
    <glyph glyph-name="Igrave" unicode="&#xcc;" horiz-adv-x="401" 
d="M-6 1823h215l106 -185h-159zM98 0v1505h221v-1505h-221z" />
    <glyph glyph-name="Iacute" unicode="&#xcd;" horiz-adv-x="401" 
d="M82 0v1505h221v-1505h-221zM86 1638l107 185h215l-162 -185h-160z" />
    <glyph glyph-name="Icircumflex" unicode="&#xce;" horiz-adv-x="370" 
d="M-66 1638l142 185h219l141 -185h-188l-64 72l-61 -72h-189zM74 0v1505h221v-1505h-221z" />
    <glyph glyph-name="Idieresis" unicode="&#xcf;" horiz-adv-x="372" 
d="M-53 1638v201h190v-201h-190zM76 0v1505h221v-1505h-221zM236 1638v201h190v-201h-190z" />
    <glyph glyph-name="Eth" unicode="&#xd0;" horiz-adv-x="761" 
d="M20 655v228h62v622h174c60 0 111.167 -4 153.5 -12s79.833 -19.167 112.5 -33.5s59.334 -36.833 80.001 -67.5s37.5 -62.5 50.5 -95.5s22.5 -79.5 28.5 -139.5s10 -119 12 -177s3 -134.167 3 -228.5s-1 -170.5 -3 -228.5s-6 -116.667 -12 -176s-15.5 -105.333 -28.5 -138
s-29.833 -64.334 -50.5 -95.001s-47.334 -53.167 -80.001 -67.5s-70.167 -25.666 -112.5 -33.999s-93.5 -12.5 -153.5 -12.5h-174v655h-62zM303 221c62.667 0 103.667 13.667 123 41c26 36.667 39.667 143.334 41 320.001v172c1.33301 251.333 -7 402.666 -25 453.999
c-15.333 44 -46 68.667 -92 74c-12 1.33301 -27.667 2 -47 2v-401h84v-228h-84v-434z" />
    <glyph glyph-name="Ntilde" unicode="&#xd1;" horiz-adv-x="808" 
d="M82 0v1505h197l215 -784l18 -70h12v70v784h203v-1505h-197l-215 784l-18 70h-12v-70v-784h-203zM207 1632v152c32.667 26 68.667 39 108 39c22 0 52.5 -6.16699 91.5 -18.5s68.833 -19.166 89.5 -20.499c16.667 0 34 2.66699 52 8s32 10.666 42 15.999l14 9v-152
c-34 -26 -70 -39 -108 -39c-20.667 0 -50.5 6.5 -89.5 19.5s-69.5 19.5 -91.5 19.5c-16.667 0 -34 -2.66699 -52 -8s-32 -11 -42 -17z" />
    <glyph glyph-name="Ograve" unicode="&#xd2;" 
d="M68 309v887.003c0 8 0.666992 19.5 2 34.5s7 41.333 17 79s24.333 70.834 43 99.501s48.167 54.667 88.5 78s88.333 35 144 35s103.667 -11.333 144 -34s69.833 -49.667 88.5 -81s33 -63 43 -95s15.667 -59.667 17 -83l2 -33v-887c0 -8 -0.666992 -19.5 -2 -34.5
s-7 -41.333 -17 -79s-24.333 -70.834 -43 -99.501s-48.167 -54.5 -88.5 -77.5s-88.333 -34.5 -144 -34.5s-103.667 11.167 -144 33.5s-69.833 49.166 -88.5 80.499s-33 63.166 -43 95.499s-15.667 59.166 -17 80.499zM121 1823h215l106 -185h-159zM289 309.003
c0 -8 0.333008 -18.167 1 -30.5s7.16699 -28.666 19.5 -48.999s30 -30.5 53 -30.5s40.667 9.16699 53 27.5s18.5 37.166 18.5 56.499l2 26v887c0 8 -0.333008 18.167 -1 30.5s-7.16699 28.833 -19.5 49.5s-30 31 -53 31s-40.667 -9.33301 -53 -28s-18.5 -36.667 -18.5 -54
l-2 -29v-887z" />
    <glyph glyph-name="Oacute" unicode="&#xd3;" 
d="M68 309v887.003c0 8 0.666992 19.5 2 34.5s7 41.333 17 79s24.333 70.834 43 99.501s48.167 54.667 88.5 78s88.333 35 144 35s103.667 -11.333 144 -34s69.833 -49.667 88.5 -81s33 -63 43 -95s15.667 -59.667 17 -83l2 -33v-887c0 -8 -0.666992 -19.5 -2 -34.5
s-7 -41.333 -17 -79s-24.333 -70.834 -43 -99.501s-48.167 -54.5 -88.5 -77.5s-88.333 -34.5 -144 -34.5s-103.667 11.167 -144 33.5s-69.833 49.166 -88.5 80.499s-33 63.166 -43 95.499s-15.667 59.166 -17 80.499zM285 1638l106 185h215l-162 -185h-159zM289 309.003
c0 -8 0.333008 -18.167 1 -30.5s7.16699 -28.666 19.5 -48.999s30 -30.5 53 -30.5s40.667 9.16699 53 27.5s18.5 37.166 18.5 56.499l2 26v887c0 8 -0.333008 18.167 -1 30.5s-7.16699 28.833 -19.5 49.5s-30 31 -53 31s-40.667 -9.33301 -53 -28s-18.5 -36.667 -18.5 -54
l-2 -29v-887z" />
    <glyph glyph-name="Ocircumflex" unicode="&#xd4;" 
d="M68 309v887.003c0 8 0.666992 19.5 2 34.5s7 41.333 17 79s24.333 70.834 43 99.501s48.167 54.667 88.5 78s88.333 35 144 35s103.667 -11.333 144 -34s69.833 -49.667 88.5 -81s33 -63 43 -95s15.667 -59.667 17 -83l2 -33v-887c0 -8 -0.666992 -19.5 -2 -34.5
s-7 -41.333 -17 -79s-24.333 -70.834 -43 -99.501s-48.167 -54.5 -88.5 -77.5s-88.333 -34.5 -144 -34.5s-103.667 11.167 -144 33.5s-69.833 49.166 -88.5 80.499s-33 63.166 -43 95.499s-15.667 59.166 -17 80.499zM113 1638l141 185h219l141 -185h-188l-64 72l-61 -72
h-188zM289 309.003c0 -8 0.333008 -18.167 1 -30.5s7.16699 -28.666 19.5 -48.999s30 -30.5 53 -30.5s40.667 9.16699 53 27.5s18.5 37.166 18.5 56.499l2 26v887c0 8 -0.333008 18.167 -1 30.5s-7.16699 28.833 -19.5 49.5s-30 31 -53 31s-40.667 -9.33301 -53 -28
s-18.5 -36.667 -18.5 -54l-2 -29v-887z" />
    <glyph glyph-name="Otilde" unicode="&#xd5;" 
d="M68 309v887.003c0 8 0.666992 19.5 2 34.5s7 41.333 17 79s24.333 70.834 43 99.501s48.167 54.667 88.5 78s88.333 35 144 35s103.667 -11.333 144 -34s69.833 -49.667 88.5 -81s33 -63 43 -95s15.667 -59.667 17 -83l2 -33v-887c0 -8 -0.666992 -19.5 -2 -34.5
s-7 -41.333 -17 -79s-24.333 -70.834 -43 -99.501s-48.167 -54.5 -88.5 -77.5s-88.333 -34.5 -144 -34.5s-103.667 11.167 -144 33.5s-69.833 49.166 -88.5 80.499s-33 63.166 -43 95.499s-15.667 59.166 -17 80.499zM164 1632v152c32.667 26 68.667 39 108 39
c22 0 52.5 -6.16699 91.5 -18.5s68.833 -19.166 89.5 -20.499c16.667 0 34 2.66699 52 8s32 10.666 42 15.999l14 9v-152c-34 -26 -70 -39 -108 -39c-20.667 0 -50.5 6.5 -89.5 19.5s-69.5 19.5 -91.5 19.5c-16.667 0 -34 -2.66699 -52 -8s-32 -11 -42 -17zM289 309.003
c0 -8 0.333008 -18.167 1 -30.5s7.16699 -28.666 19.5 -48.999s30 -30.5 53 -30.5s40.667 9.16699 53 27.5s18.5 37.166 18.5 56.499l2 26v887c0 8 -0.333008 18.167 -1 30.5s-7.16699 28.833 -19.5 49.5s-30 31 -53 31s-40.667 -9.33301 -53 -28s-18.5 -36.667 -18.5 -54
l-2 -29v-887z" />
    <glyph glyph-name="Odieresis" unicode="&#xd6;" 
d="M68 309v887.003c0 8 0.666992 19.5 2 34.5s7 41.333 17 79s24.333 70.834 43 99.501s48.167 54.667 88.5 78s88.333 35 144 35s103.667 -11.333 144 -34s69.833 -49.667 88.5 -81s33 -63 43 -95s15.667 -59.667 17 -83l2 -33v-887c0 -8 -0.666992 -19.5 -2 -34.5
s-7 -41.333 -17 -79s-24.333 -70.834 -43 -99.501s-48.167 -54.5 -88.5 -77.5s-88.333 -34.5 -144 -34.5s-103.667 11.167 -144 33.5s-69.833 49.166 -88.5 80.499s-33 63.166 -43 95.499s-15.667 59.166 -17 80.499zM123 1638v201h190v-201h-190zM289 309.003
c0 -8 0.333008 -18.167 1 -30.5s7.16699 -28.666 19.5 -48.999s30 -30.5 53 -30.5s40.667 9.16699 53 27.5s18.5 37.166 18.5 56.499l2 26v887c0 8 -0.333008 18.167 -1 30.5s-7.16699 28.833 -19.5 49.5s-30 31 -53 31s-40.667 -9.33301 -53 -28s-18.5 -36.667 -18.5 -54
l-2 -29v-887zM412 1638v201h190v-201h-190z" />
    <glyph glyph-name="Oslash" unicode="&#xd8;" 
d="M59 -20l47.001 156.998c-12 24.667 -21 51.334 -27 80.001s-9 51.334 -9 68.001l-2 24v887c0 8 0.666992 19.5 2 34.5s7 41.333 17 79s24.333 70.834 43 99.501s48.167 54.667 88.5 78s88.166 35 143.499 35c61.333 0 114 -14.333 158 -43l15 47h122l-45 -150
c13.333 -26 23.833 -54 31.5 -84s11.5 -53.667 11.5 -71l2 -25v-887c0 -8 -0.666992 -19.5 -2 -34.5s-7 -41.333 -17 -79s-24.333 -70.834 -43 -99.501s-48.167 -54.5 -88.5 -77.5s-88.5 -34.5 -144.5 -34.5c-64 0 -117 14.333 -159 43l-15 -47h-129zM289.001 308.998
c0 -8 0.333008 -18.167 1 -30.5s7.16699 -28.666 19.5 -48.999s30 -30.5 53 -30.5s40.667 9.16699 53 27.5s18.5 37.166 18.5 56.499l2 26v488zM289.001 726.998l147 478.999c-5.33301 66.667 -30 100.334 -74 101.001c-23.333 0 -41 -9.33301 -53 -28s-18 -36.667 -18 -54
l-2 -29v-469z" />
    <glyph glyph-name="Ugrave" unicode="&#xd9;" horiz-adv-x="749" 
d="M80 309c0 -8 0.671875 -19.4961 2.00488 -34.4961s7.16602 -41.333 17.499 -79s24.666 -70.834 42.999 -99.501s47.666 -54.5 87.999 -77.5s88.5 -34.5 144.5 -34.5s104.167 11.167 144.5 33.5s69.666 49.166 87.999 80.499s32.666 63.166 42.999 95.499
s16.166 59.166 17.499 80.499l2 35v1196h-221v-1196c0 -8 -0.5 -18.167 -1.5 -30.5s-7.5 -28.666 -19.5 -48.999s-29.667 -30.5 -53 -30.5s-41.166 9.16699 -53.499 27.5s-18.5 37.166 -18.5 56.499l-2 26v1196h-221v-1196zM145.005 1823h215l107 -185h-160z" />
    <glyph glyph-name="Uacute" unicode="&#xda;" horiz-adv-x="749" 
d="M80 309c0 -8 0.671875 -19.4961 2.00488 -34.4961s7.16602 -41.333 17.499 -79s24.666 -70.834 42.999 -99.501s47.666 -54.5 87.999 -77.5s88.5 -34.5 144.5 -34.5s104.167 11.167 144.5 33.5s69.666 49.166 87.999 80.499s32.666 63.166 42.999 95.499
s16.166 59.166 17.499 80.499l2 35v1196h-221v-1196c0 -8 -0.5 -18.167 -1.5 -30.5s-7.5 -28.666 -19.5 -48.999s-29.667 -30.5 -53 -30.5s-41.166 9.16699 -53.499 27.5s-18.5 37.166 -18.5 56.499l-2 26v1196h-221v-1196zM307.005 1638l107 185h215l-162 -185h-160z" />
    <glyph glyph-name="Ucircumflex" unicode="&#xdb;" horiz-adv-x="749" 
d="M80 309c0 -8 0.671875 -19.4961 2.00488 -34.4961s7.16602 -41.333 17.499 -79s24.666 -70.834 42.999 -99.501s47.666 -54.5 87.999 -77.5s88.5 -34.5 144.5 -34.5s104.167 11.167 144.5 33.5s69.666 49.166 87.999 80.499s32.666 63.166 42.999 95.499
s16.166 59.166 17.499 80.499l2 35v1196h-221v-1196c0 -8 -0.5 -18.167 -1.5 -30.5s-7.5 -28.666 -19.5 -48.999s-29.667 -30.5 -53 -30.5s-41.166 9.16699 -53.499 27.5s-18.5 37.166 -18.5 56.499l-2 26v1196h-221v-1196zM125.005 1638l141 185h219l142 -185h-189l-63 72
l-62 -72h-188z" />
    <glyph glyph-name="Udieresis" unicode="&#xdc;" horiz-adv-x="749" 
d="M80 309l-0.00488281 1196h221v-1196c0 -8 0.333008 -18.167 1 -30.5s7.16699 -28.666 19.5 -48.999s30.166 -30.5 53.499 -30.5s41 9.16699 53 27.5s18 37.166 18 56.499l3 26v1196h221v-1196c0 -8 -0.666992 -19.5 -2 -34.5s-7.16602 -41.333 -17.499 -79
s-24.666 -70.834 -42.999 -99.501s-47.666 -54.5 -87.999 -77.5s-88.5 -34.5 -144.5 -34.5s-104.167 11.167 -144.5 33.5s-69.666 49.166 -87.999 80.499s-32.666 63.166 -42.999 95.499s-16.166 59.166 -17.499 80.499zM134.995 1638v201h191v-201h-191zM423.995 1638v201
h190v-201h-190z" />
    <glyph glyph-name="Yacute" unicode="&#xdd;" horiz-adv-x="704" 
d="M16 1505l226 -864v-641h221v641l225 864h-217l-111 -481l-6 -14h-4l-6 14l-111 481h-217zM254 1638l106 185h215l-161 -185h-160z" />
    <glyph glyph-name="Thorn" unicode="&#xde;" 
d="M82 0v1505h219v-241h2c110.667 0 203.167 -35.167 277.5 -105.5s111.5 -185.5 111.5 -345.5s-37.167 -275.5 -111.5 -346.5s-166.833 -106.5 -277.5 -106.5v-360h-221zM303 586c68 0 112.667 15 134 45s32 88 32 174c0 87.333 -11 148 -33 182s-66.333 51 -133 51v-452z
" />
    <glyph glyph-name="germandbls" unicode="&#xdf;" horiz-adv-x="733" 
d="M66 0l0.00195312 1235c0 82 23.5 150.333 70.5 205s116.833 82 209.5 82c88.667 0 155.834 -27 201.501 -81s68.5 -122 68.5 -204c0 -72.667 -29.333 -130.667 -88 -174c101.333 -58.667 152 -221.334 152 -488.001c0 -121.333 -6.83301 -220.833 -20.5 -298.5
s-35.834 -136.334 -66.501 -176.001s-64.834 -66.334 -102.501 -80.001s-85.834 -20.5 -144.501 -20.5v193c30 0 53.5 8.5 70.5 25.5s30.667 54.167 41 111.5s15.5 139 15.5 245c0 113.333 -5.16699 199.833 -15.5 259.5s-24 98.667 -41 117s-40.5 27.5 -70.5 27.5v141
c23.333 0 43.5 11 60.5 33s25.5 50 25.5 84c0 30 -7.16699 54.167 -21.5 72.5s-35.833 27.5 -64.5 27.5c-49.333 0 -74 -34 -74 -102v-1235h-206z" />
    <glyph glyph-name="agrave" unicode="&#xe0;" horiz-adv-x="681" 
d="M49 260c0 70.667 11.3271 132.999 33.9941 186.999s50.334 95.333 83.001 124s65.334 53 98.001 73s62 36.833 88 50.5s40.333 25.834 43 36.501v37v86c0 68 -19 102 -57 102c-13.333 0 -24.166 -3 -32.499 -9s-14.166 -16.833 -17.499 -32.5s-5.66602 -28 -6.99902 -37
s-2 -24.833 -2 -47.5v-39h-207v47c0 82 26.833 152.333 80.5 211s119.5 88 197.5 88c68 0 127 -24.667 177 -74s75 -109.333 75 -180v-351v-337c0 -72.667 4.66699 -137.667 14 -195h-202c-12 13.333 -18.333 43.333 -19 90h-14
c-13.333 -24.667 -35.166 -48.5 -65.499 -71.5s-63.833 -34.5 -100.5 -34.5c-39.333 0 -76.833 20 -112.5 60s-53.5 112 -53.5 216zM101.994 1489h215l107 -184h-160zM251.994 290.999c0 -69.333 19 -104.334 57 -105.001c23.333 0 43.5 6.5 60.5 19.5
s25.5 29.167 25.5 48.5v287c-95.333 -41.333 -143 -124.666 -143 -249.999z" />
    <glyph glyph-name="aacute" unicode="&#xe1;" horiz-adv-x="681" 
d="M49 260c0 70.667 11.3271 132.999 33.9941 186.999s50.334 95.333 83.001 124s65.334 53 98.001 73s62 36.833 88 50.5s40.333 25.834 43 36.501v37v86c0 68 -19 102 -57 102c-13.333 0 -24.166 -3 -32.499 -9s-14.166 -16.833 -17.499 -32.5s-5.66602 -28 -6.99902 -37
s-2 -24.833 -2 -47.5v-39h-207v47c0 82 26.833 152.333 80.5 211s119.5 88 197.5 88c68 0 127 -24.667 177 -74s75 -109.333 75 -180v-351v-337c0 -72.667 4.66699 -137.667 14 -195h-202c-12 13.333 -18.333 43.333 -19 90h-14
c-13.333 -24.667 -35.166 -48.5 -65.499 -71.5s-63.833 -34.5 -100.5 -34.5c-39.333 0 -76.833 20 -112.5 60s-53.5 112 -53.5 216zM251.994 290.999c0 -69.333 19 -104.334 57 -105.001c23.333 0 43.5 6.5 60.5 19.5s25.5 29.167 25.5 48.5v287
c-95.333 -41.333 -143 -124.666 -143 -249.999zM263.994 1305l107 184h215l-162 -184h-160z" />
    <glyph glyph-name="acircumflex" unicode="&#xe2;" horiz-adv-x="681" 
d="M49 260c0 70.667 11.3271 132.999 33.9941 186.999s50.334 95.333 83.001 124s65.334 53 98.001 73s62 36.833 88 50.5s40.333 25.834 43 36.501v37v86c0 68 -19 102 -57 102c-13.333 0 -24.166 -3 -32.499 -9s-14.166 -16.833 -17.499 -32.5s-5.66602 -28 -6.99902 -37
s-2 -24.833 -2 -47.5v-39h-207v47c0 82 26.833 152.333 80.5 211s119.5 88 197.5 88c68 0 127 -24.667 177 -74s75 -109.333 75 -180v-351v-337c0 -72.667 4.66699 -137.667 14 -195h-202c-12 13.333 -18.333 43.333 -19 90h-14
c-13.333 -24.667 -35.166 -48.5 -65.499 -71.5s-63.833 -34.5 -100.5 -34.5c-39.333 0 -76.833 20 -112.5 60s-53.5 112 -53.5 216zM89.9941 1305l141 184h220l141 -184h-189l-63 71l-61 -71h-189zM251.994 290.999c0 -69.333 19 -104.334 57 -105.001
c23.333 0 43.5 6.5 60.5 19.5s25.5 29.167 25.5 48.5v287c-95.333 -41.333 -143 -124.666 -143 -249.999z" />
    <glyph glyph-name="atilde" unicode="&#xe3;" horiz-adv-x="681" 
d="M49 260c0 70.667 11.3271 132.999 33.9941 186.999s50.334 95.333 83.001 124s65.334 53 98.001 73s62 36.833 88 50.5s40.333 25.834 43 36.501v37v86c0 68 -19 102 -57 102c-13.333 0 -24.166 -3 -32.499 -9s-14.166 -16.833 -17.499 -32.5s-5.66602 -28 -6.99902 -37
s-2 -24.833 -2 -47.5v-39h-207v47c0 82 26.833 152.333 80.5 211s119.5 88 197.5 88c68 0 127 -24.667 177 -74s75 -109.333 75 -180v-351v-337c0 -72.667 4.66699 -137.667 14 -195h-202c-12 13.333 -18.333 43.333 -19 90h-14
c-13.333 -24.667 -35.166 -48.5 -65.499 -71.5s-63.833 -34.5 -100.5 -34.5c-39.333 0 -76.833 20 -112.5 60s-53.5 112 -53.5 216zM142.994 1305v150.998c32.667 26 69 39 109 39c22 0 52.333 -6.16699 91 -18.5s68.334 -19.166 89.001 -20.499
c16.667 0 34.167 2.83301 52.5 8.5s32.166 11.167 41.499 16.5l15 8v-152c-34 -26 -70.333 -39 -109 -39c-20.667 0 -50.334 6.5 -89.001 19.5s-69 19.5 -91 19.5c-16.667 0 -34.167 -2.66699 -52.5 -8s-32.166 -10.666 -41.499 -15.999zM251.994 290.997
c0 -69.333 19 -104.334 57 -105.001c23.333 0 43.5 6.5 60.5 19.5s25.5 29.167 25.5 48.5v287c-95.333 -41.333 -143 -124.666 -143 -249.999z" />
    <glyph glyph-name="adieresis" unicode="&#xe4;" horiz-adv-x="681" 
d="M49 260c0 70.667 11.3271 132.999 33.9941 186.999s50.334 95.333 83.001 124s65.334 53 98.001 73s62 36.833 88 50.5s40.333 25.834 43 36.501v37v86c0 68 -19 102 -57 102c-13.333 0 -24.166 -3 -32.499 -9s-14.166 -16.833 -17.499 -32.5s-5.66602 -28 -6.99902 -37
s-2 -24.833 -2 -47.5v-39h-207v47c0 82 26.833 152.333 80.5 211s119.5 88 197.5 88c68 0 127 -24.667 177 -74s75 -109.333 75 -180v-351v-337c0 -72.667 4.66699 -137.667 14 -195h-202c-12 13.333 -18.333 43.333 -19 90h-14
c-13.333 -24.667 -35.166 -48.5 -65.499 -71.5s-63.833 -34.5 -100.5 -34.5c-39.333 0 -76.833 20 -112.5 60s-53.5 112 -53.5 216zM101.994 1305v200h191v-200h-191zM251.994 290.999c0 -69.333 19 -104.334 57 -105.001c23.333 0 43.5 6.5 60.5 19.5
s25.5 29.167 25.5 48.5v287c-95.333 -41.333 -143 -124.666 -143 -249.999zM390.994 1305v200h191v-200h-191z" />
    <glyph glyph-name="aring" unicode="&#xe5;" horiz-adv-x="681" 
d="M49 260c0 70.667 11.3271 132.999 33.9941 186.999s50.334 95.333 83.001 124s65.334 53 98.001 73s62 36.833 88 50.5s40.333 25.834 43 36.501v37v86c0 68 -19 102 -57 102c-13.333 0 -24.166 -3 -32.499 -9s-14.166 -16.833 -17.499 -32.5s-5.66602 -28 -6.99902 -37
s-2 -24.833 -2 -47.5v-39h-207v47c0 82 26.833 152.333 80.5 211s119.5 88 197.5 88c68 0 127 -24.667 177 -74s75 -109.333 75 -180v-351v-337c0 -72.667 4.66699 -137.667 14 -195h-202c-12 13.333 -18.333 43.333 -19 90h-14
c-13.333 -24.667 -35.166 -48.5 -65.499 -71.5s-63.833 -34.5 -100.5 -34.5c-39.333 0 -76.833 20 -112.5 60s-53.5 112 -53.5 216zM187.994 1421.5c0 41 15.167 75.167 45.5 102.5s66.666 41 108.999 41s78.166 -13.667 107.499 -41s44 -61.5 44 -102.5
s-14.667 -75.167 -44 -102.5s-65.166 -41 -107.499 -41s-78.666 13.667 -108.999 41s-45.5 61.5 -45.5 102.5zM251.994 290.999c0 -69.333 19 -104.334 57 -105.001c23.333 0 43.5 6.5 60.5 19.5s25.5 29.167 25.5 48.5v287c-95.333 -41.333 -143 -124.666 -143 -249.999z
M265.994 1421.5c0 -19 7.83301 -35.667 23.5 -50s33.167 -21.5 52.5 -21.5s36.833 7.16699 52.5 21.5s23.5 31 23.5 50s-7.83301 35.667 -23.5 50s-33.167 21.5 -52.5 21.5s-36.833 -7.16699 -52.5 -21.5s-23.5 -31 -23.5 -50z" />
    <glyph glyph-name="ae" unicode="&#xe6;" horiz-adv-x="989" 
d="M49 260c0 70.667 11.3262 133 33.9932 187s50.334 95.333 83.001 124s65.334 53 98.001 73s62 36.833 88 50.5s40.333 25.834 43 36.501v123c0 68 -19 102 -57 102c-13.333 0 -24.166 -3 -32.499 -9s-14.166 -16.833 -17.499 -32.5s-5.66602 -28 -6.99902 -37
s-2 -24.833 -2 -47.5v-39h-207v47c0 82 26.833 152.333 80.5 211s119.5 88 197.5 88c56 0 106.667 -17.333 152 -52c44 34 98 51.333 162 52c50.667 0 94 -10 130 -30s62.5 -44.333 79.5 -73s30.333 -57 40 -85s15.167 -52 16.5 -72v-29v-326h-342v-243v-13
c0 -5.33301 1.33301 -14.5 4 -27.5s6.33398 -24.333 11.001 -34s12.5 -18.5 23.5 -26.5s23.5 -12 37.5 -12c23.333 0 41 9.16699 53 27.5s18.667 37.166 20 56.499v29v122h193v-129c0 -8 -0.666992 -18.5 -2 -31.5s-6.83301 -35.833 -16.5 -68.5s-22.667 -62 -39 -88
s-43 -49.167 -80 -69.5s-80.5 -30.5 -130.5 -30.5c-105.333 0 -180.666 43.667 -225.999 131c-68 -87.333 -141.667 -131 -221 -131c-39.333 0 -76.833 20 -112.5 60s-53.5 112 -53.5 216zM251.993 291c0 -69.333 19 -104.334 57 -105.001c23.333 0 43.5 6.5 60.5 19.5
s25.5 29.167 25.5 48.5v287c-95.333 -41.333 -143 -124.666 -143 -249.999zM587.993 683.999h149v158c0 8 -0.333008 18.5 -1 31.5s-7.16699 30 -19.5 51s-29.833 31.5 -52.5 31.5c-22 0 -39.5 -9.5 -52.5 -28.5s-20.167 -38.167 -21.5 -57.5l-2 -28v-158z" />
    <glyph glyph-name="ccedilla" unicode="&#xe7;" horiz-adv-x="645" 
d="M66 315v490.001c0 221.333 88 332 264 332c91.333 0 158.5 -23.667 201.5 -71s64.5 -131 64.5 -251v-88h-207v135c0 34 -4 57.5 -12 70.5s-23.667 19.5 -47 19.5c-38 0 -57.333 -30 -58 -90v-604c0 -60 19.333 -90 58 -90c23.333 0 39 6.5 47 19.5s12 36.5 12 70.5v156
h207v-109c0 -120 -21.5 -203.5 -64.5 -250.5s-110.167 -70.5 -201.5 -70.5c-176 -0.666992 -264 109.666 -264 330.999zM238 -16.999v-141h63l-41 -133h105l45 133v141h-172z" />
    <glyph glyph-name="egrave" unicode="&#xe8;" horiz-adv-x="659" 
d="M66 279l0.00195312 562.999c0 8 0.666992 18.5 2 31.5s6.66602 36.5 15.999 70.5s22.666 64 39.999 90s44.333 49.667 81 71s79.667 32 129 32c50.667 0 94 -10 130 -30s62.5 -44.333 79.5 -73s30.333 -57 40 -85s14.5 -52 14.5 -72l2 -29v-326h-342v-243v-13
c0 -5.33301 1.33301 -14.5 4 -27.5s6.5 -24.333 11.5 -34s12.833 -18.5 23.5 -26.5s23 -12 37 -12c23.333 0 41.166 9.16699 53.499 27.5s18.5 37.166 18.5 56.499l2 29v122h192v-129c0 -8 -0.666992 -18.5 -2 -31.5s-6.83301 -35.833 -16.5 -68.5s-22.667 -62 -39 -88
s-42.833 -49.167 -79.5 -69.5s-80.334 -30.5 -131.001 -30.5c-49.333 0 -92.5 10.167 -129.5 30.5s-63.667 44.833 -80 73.5s-29.166 57.334 -38.499 86.001s-14.666 53.334 -15.999 74.001zM102.002 1489h215l107 -184h-160zM258.002 683.999h149.999v158
c0 8 -0.333008 18.5 -1 31.5s-7.16699 30 -19.5 51s-30.166 31.5 -53.499 31.5c-22 0 -39.5 -9.5 -52.5 -28.5s-20.167 -38.167 -21.5 -57.5l-2 -28v-158z" />
    <glyph glyph-name="eacute" unicode="&#xe9;" horiz-adv-x="659" 
d="M66 279l0.00195312 562.999c0 8 0.666992 18.5 2 31.5s6.66602 36.5 15.999 70.5s22.666 64 39.999 90s44.333 49.667 81 71s79.667 32 129 32c50.667 0 94 -10 130 -30s62.5 -44.333 79.5 -73s30.333 -57 40 -85s14.5 -52 14.5 -72l2 -29v-326h-342v-243v-13
c0 -5.33301 1.33301 -14.5 4 -27.5s6.5 -24.333 11.5 -34s12.833 -18.5 23.5 -26.5s23 -12 37 -12c23.333 0 41.166 9.16699 53.499 27.5s18.5 37.166 18.5 56.499l2 29v122h192v-129c0 -8 -0.666992 -18.5 -2 -31.5s-6.83301 -35.833 -16.5 -68.5s-22.667 -62 -39 -88
s-42.833 -49.167 -79.5 -69.5s-80.334 -30.5 -131.001 -30.5c-49.333 0 -92.5 10.167 -129.5 30.5s-63.667 44.833 -80 73.5s-29.166 57.334 -38.499 86.001s-14.666 53.334 -15.999 74.001zM258.002 683.999h149.999v158c0 8 -0.333008 18.5 -1 31.5s-7.16699 30 -19.5 51
s-30.166 31.5 -53.499 31.5c-22 0 -39.5 -9.5 -52.5 -28.5s-20.167 -38.167 -21.5 -57.5l-2 -28v-158zM264.001 1305l107 184h215l-162 -184h-160z" />
    <glyph glyph-name="ecircumflex" unicode="&#xea;" horiz-adv-x="659" 
d="M66 279l0.00195312 562.999c0 8 0.666992 18.5 2 31.5s6.66602 36.5 15.999 70.5s22.666 64 39.999 90s44.333 49.667 81 71s79.667 32 129 32c50.667 0 94 -10 130 -30s62.5 -44.333 79.5 -73s30.333 -57 40 -85s14.5 -52 14.5 -72l2 -29v-326h-342v-243v-13
c0 -5.33301 1.33301 -14.5 4 -27.5s6.5 -24.333 11.5 -34s12.833 -18.5 23.5 -26.5s23 -12 37 -12c23.333 0 41.166 9.16699 53.499 27.5s18.5 37.166 18.5 56.499l2 29v122h192v-129c0 -8 -0.666992 -18.5 -2 -31.5s-6.83301 -35.833 -16.5 -68.5s-22.667 -62 -39 -88
s-42.833 -49.167 -79.5 -69.5s-80.334 -30.5 -131.001 -30.5c-49.333 0 -92.5 10.167 -129.5 30.5s-63.667 44.833 -80 73.5s-29.166 57.334 -38.499 86.001s-14.666 53.334 -15.999 74.001zM80.002 1305l141 184h219l142 -184h-189l-63 71l-62 -71h-188zM258.002 683.999
h149.999v158c0 8 -0.333008 18.5 -1 31.5s-7.16699 30 -19.5 51s-30.166 31.5 -53.499 31.5c-22 0 -39.5 -9.5 -52.5 -28.5s-20.167 -38.167 -21.5 -57.5l-2 -28v-158z" />
    <glyph glyph-name="edieresis" unicode="&#xeb;" horiz-adv-x="659" 
d="M66 279l0.00195312 562.999c0 8 0.666992 18.5 2 31.5s6.66602 36.5 15.999 70.5s22.666 64 39.999 90s44.333 49.667 81 71s79.667 32 129 32c50.667 0 94 -10 130 -30s62.5 -44.333 79.5 -73s30.333 -57 40 -85s14.5 -52 14.5 -72l2 -29v-326h-342v-243v-13
c0 -5.33301 1.33301 -14.5 4 -27.5s6.5 -24.333 11.5 -34s12.833 -18.5 23.5 -26.5s23 -12 37 -12c23.333 0 41.166 9.16699 53.499 27.5s18.5 37.166 18.5 56.499l2 29v122h192v-129c0 -8 -0.666992 -18.5 -2 -31.5s-6.83301 -35.833 -16.5 -68.5s-22.667 -62 -39 -88
s-42.833 -49.167 -79.5 -69.5s-80.334 -30.5 -131.001 -30.5c-49.333 0 -92.5 10.167 -129.5 30.5s-63.667 44.833 -80 73.5s-29.166 57.334 -38.499 86.001s-14.666 53.334 -15.999 74.001zM90.002 1305v200h191v-200h-191zM258.002 683.999h149.999v158
c0 8 -0.333008 18.5 -1 31.5s-7.16699 30 -19.5 51s-30.166 31.5 -53.499 31.5c-22 0 -39.5 -9.5 -52.5 -28.5s-20.167 -38.167 -21.5 -57.5l-2 -28v-158zM379.001 1305v200h190v-200h-190z" />
    <glyph glyph-name="igrave" unicode="&#xec;" horiz-adv-x="370" 
d="M-33 1489h215l107 -184h-160zM82 0h207v1120h-207v-1120z" />
    <glyph glyph-name="iacute" unicode="&#xed;" horiz-adv-x="370" 
d="M82 0h207v1120h-207v-1120zM82 1305l106 184h215l-161 -184h-160z" />
    <glyph glyph-name="icircumflex" unicode="&#xee;" horiz-adv-x="370" 
d="M-66 1305l142 184h219l141 -184h-188l-64 71l-61 -71h-189zM82 0h207v1120h-207v-1120z" />
    <glyph glyph-name="idieresis" unicode="&#xef;" horiz-adv-x="372" 
d="M-53 1305v200h190v-200h-190zM82 0v1120h207v-1120h-207zM236 1305v200h190v-200h-190z" />
    <glyph glyph-name="eth" unicode="&#xf0;" horiz-adv-x="673" 
d="M76 279l0.000976562 578.997c0 186 57.333 279 172 279c42 0 93.667 -26 155 -78c-8 72.667 -25 140.334 -51 203.001l-82 -72l-55 63l100 88l-45 66l109 100c16.667 -18 34.334 -38.333 53.001 -61l94 82l56 -66l-101 -88c83.333 -134 125 -282.667 125 -446v-656
c0 -8 -0.333008 -18.5 -1 -31.5s-5.83398 -35.833 -15.501 -68.5s-23 -62 -40 -88s-43.5 -49.167 -79.5 -69.5s-79.333 -30.5 -130 -30.5c-49.333 0 -92.333 10.167 -129 30.5s-63.334 44.833 -80.001 73.5s-29.667 57.334 -39 86.001s-14 53.334 -14 74.001z
M270.001 267.497c-1.33301 -7.66699 -0.666992 -17.332 2 -28.999s6.16699 -23 10.5 -34s11.5 -20.167 21.5 -27.5s22 -11 36 -11c23.333 0 40.833 9.16699 52.5 27.5s17.5 37.166 17.5 56.499l2 29v563c-1.33301 0 -1.33301 3.66699 0 11s0.666016 16.833 -2.00098 28.5
s-6.16699 23 -10.5 34s-11.666 20.5 -21.999 28.5s-22.833 12 -37.5 12c-22 0 -38.833 -9.5 -50.5 -28.5s-18.167 -38.167 -19.5 -57.5v-28v-563c1.33301 0 1.33301 -3.83301 0 -11.5z" />
    <glyph glyph-name="ntilde" unicode="&#xf1;" horiz-adv-x="690" 
d="M82 0v1120h207v-94l32 32c20 20 42.167 38.167 66.5 54.5s47.5 24.5 69.5 24.5c50.667 0 89.167 -23 115.5 -69s39.5 -96 39.5 -150v-918h-206v887c0 32.667 -16.667 49 -50 49c-12 0 -23.5 -4.5 -34.5 -13.5s-19.167 -17.5 -24.5 -25.5l-8 -14v-883h-207zM147 1305
l0.000976562 150.998c32.667 26 69 39 109 39c22 0 52.5 -6.16699 91.5 -18.5s68.5 -19.166 88.5 -20.499c16.667 0 34.167 2.83301 52.5 8.5s32.166 11.167 41.499 16.5l15 8v-152c-34 -26 -70.333 -39 -109 -39c-20.667 0 -50.334 6.5 -89.001 19.5s-69 19.5 -91 19.5
c-16.667 0 -34.167 -2.66699 -52.5 -8s-32.166 -10.666 -41.499 -15.999z" />
    <glyph glyph-name="ograve" unicode="&#xf2;" horiz-adv-x="657" 
d="M63 279l0.000976562 562.998c0 8 0.5 18.5 1.5 31.5s6.16699 36.5 15.5 70.5s22.166 64 38.499 90s43 49.667 80 71s80.167 32 129.5 32c50.667 0 94 -10 130 -30s62.5 -44.333 79.5 -73s30.333 -57 40 -85s15.167 -52 16.5 -72v-29v-576c0 -8 -0.333008 -18.5 -1 -31.5
s-5.83398 -35.833 -15.501 -68.5s-23 -62 -40 -88s-43.667 -49.167 -80 -69.5s-79.5 -30.5 -129.5 -30.5c-49.333 0 -92.5 10.167 -129.5 30.5s-63.667 44.833 -80 73.5s-29.166 57.334 -38.499 86.001s-14 53.334 -14 74.001zM98.001 1489h215l107 -184h-160z
M258.001 267.498c-1.33301 -7.66699 -0.665039 -17.332 2.00195 -28.999s6 -23 10 -34s11.167 -20.167 21.5 -27.5s22.5 -11 36.5 -11c23.333 0 40.666 9.16699 51.999 27.5s17 37.166 17 56.499l2 29v563c-1.33301 0 -1.33301 3.66699 0 11s0.666016 16.833 -2.00098 28.5
s-6 23 -10 34s-11.167 20.5 -21.5 28.5s-22.833 12 -37.5 12c-22 0 -38.833 -9.5 -50.5 -28.5s-18.167 -38.167 -19.5 -57.5v-28v-563c1.33301 0 1.33301 -3.83301 0 -11.5z" />
    <glyph glyph-name="oacute" unicode="&#xf3;" horiz-adv-x="657" 
d="M63 279l0.000976562 562.998c0 8 0.5 18.5 1.5 31.5s6.16699 36.5 15.5 70.5s22.166 64 38.499 90s43 49.667 80 71s80.167 32 129.5 32c50.667 0 94 -10 130 -30s62.5 -44.333 79.5 -73s30.333 -57 40 -85s15.167 -52 16.5 -72v-29v-576c0 -8 -0.333008 -18.5 -1 -31.5
s-5.83398 -35.833 -15.501 -68.5s-23 -62 -40 -88s-43.667 -49.167 -80 -69.5s-79.5 -30.5 -129.5 -30.5c-49.333 0 -92.5 10.167 -129.5 30.5s-63.667 44.833 -80 73.5s-29.166 57.334 -38.499 86.001s-14 53.334 -14 74.001zM258.001 267.498
c-1.33301 -7.66699 -0.665039 -17.332 2.00195 -28.999s6 -23 10 -34s11.167 -20.167 21.5 -27.5s22.5 -11 36.5 -11c23.333 0 40.666 9.16699 51.999 27.5s17 37.166 17 56.499l2 29v563c-1.33301 0 -1.33301 3.66699 0 11s0.666016 16.833 -2.00098 28.5s-6 23 -10 34
s-11.167 20.5 -21.5 28.5s-22.833 12 -37.5 12c-22 0 -38.833 -9.5 -50.5 -28.5s-18.167 -38.167 -19.5 -57.5v-28v-563c1.33301 0 1.33301 -3.83301 0 -11.5zM260.002 1305l107 184h215l-162 -184h-160z" />
    <glyph glyph-name="ocircumflex" unicode="&#xf4;" horiz-adv-x="657" 
d="M63 279l0.000976562 562.998c0 8 0.5 18.5 1.5 31.5s6.16699 36.5 15.5 70.5s22.166 64 38.499 90s43 49.667 80 71s80.167 32 129.5 32c50.667 0 94 -10 130 -30s62.5 -44.333 79.5 -73s30.333 -57 40 -85s15.167 -52 16.5 -72v-29v-576c0 -8 -0.333008 -18.5 -1 -31.5
s-5.83398 -35.833 -15.501 -68.5s-23 -62 -40 -88s-43.667 -49.167 -80 -69.5s-79.5 -30.5 -129.5 -30.5c-49.333 0 -92.5 10.167 -129.5 30.5s-63.667 44.833 -80 73.5s-29.166 57.334 -38.499 86.001s-14 53.334 -14 74.001zM78.001 1305l141 184h219l142 -184h-189
l-63 71l-62 -71h-188zM258.001 267.498c-1.33301 -7.66699 -0.665039 -17.332 2.00195 -28.999s6 -23 10 -34s11.167 -20.167 21.5 -27.5s22.5 -11 36.5 -11c23.333 0 40.666 9.16699 51.999 27.5s17 37.166 17 56.499l2 29v563c-1.33301 0 -1.33301 3.66699 0 11
s0.666016 16.833 -2.00098 28.5s-6 23 -10 34s-11.167 20.5 -21.5 28.5s-22.833 12 -37.5 12c-22 0 -38.833 -9.5 -50.5 -28.5s-18.167 -38.167 -19.5 -57.5v-28v-563c1.33301 0 1.33301 -3.83301 0 -11.5z" />
    <glyph glyph-name="otilde" unicode="&#xf5;" horiz-adv-x="657" 
d="M63 279l0.000976562 562.998c0 8 0.5 18.5 1.5 31.5s6.16699 36.5 15.5 70.5s22.166 64 38.499 90s43 49.667 80 71s80.167 32 129.5 32c50.667 0 94 -10 130 -30s62.5 -44.333 79.5 -73s30.333 -57 40 -85s15.167 -52 16.5 -72v-29v-576c0 -8 -0.333008 -18.5 -1 -31.5
s-5.83398 -35.833 -15.501 -68.5s-23 -62 -40 -88s-43.667 -49.167 -80 -69.5s-79.5 -30.5 -129.5 -30.5c-49.333 0 -92.5 10.167 -129.5 30.5s-63.667 44.833 -80 73.5s-29.166 57.334 -38.499 86.001s-14 53.334 -14 74.001zM131.001 1305v150.998c32.667 26 69 39 109 39
c22 0 52.333 -6.16699 91 -18.5s68.334 -19.166 89.001 -20.499c16.667 0 34.167 2.83301 52.5 8.5s32.166 11.167 41.499 16.5l14 8v-152c-34 -26 -70 -39 -108 -39c-20.667 0 -50.5 6.5 -89.5 19.5s-69.167 19.5 -90.5 19.5c-16.667 0 -34.167 -2.66699 -52.5 -8
s-32.5 -10.666 -42.5 -15.999zM258.001 267.496c-1.33301 -7.66699 -0.665039 -17.332 2.00195 -28.999s6 -23 10 -34s11.167 -20.167 21.5 -27.5s22.5 -11 36.5 -11c23.333 0 40.666 9.16699 51.999 27.5s17 37.166 17 56.499l2 29v563c-1.33301 0 -1.33301 3.66699 0 11
s0.666016 16.833 -2.00098 28.5s-6 23 -10 34s-11.167 20.5 -21.5 28.5s-22.833 12 -37.5 12c-22 0 -38.833 -9.5 -50.5 -28.5s-18.167 -38.167 -19.5 -57.5v-28v-563c1.33301 0 1.33301 -3.83301 0 -11.5z" />
    <glyph glyph-name="odieresis" unicode="&#xf6;" horiz-adv-x="657" 
d="M63 279l0.000976562 562.998c0 8 0.5 18.5 1.5 31.5s6.16699 36.5 15.5 70.5s22.166 64 38.499 90s43 49.667 80 71s80.167 32 129.5 32c50.667 0 94 -10 130 -30s62.5 -44.333 79.5 -73s30.333 -57 40 -85s15.167 -52 16.5 -72v-29v-576c0 -8 -0.333008 -18.5 -1 -31.5
s-5.83398 -35.833 -15.501 -68.5s-23 -62 -40 -88s-43.667 -49.167 -80 -69.5s-79.5 -30.5 -129.5 -30.5c-49.333 0 -92.5 10.167 -129.5 30.5s-63.667 44.833 -80 73.5s-29.166 57.334 -38.499 86.001s-14 53.334 -14 74.001zM90.001 1305v200h191v-200h-191z
M258.001 267.498c-1.33301 -7.66699 -0.665039 -17.332 2.00195 -28.999s6 -23 10 -34s11.167 -20.167 21.5 -27.5s22.5 -11 36.5 -11c23.333 0 40.666 9.16699 51.999 27.5s17 37.166 17 56.499l2 29v563c-1.33301 0 -1.33301 3.66699 0 11s0.666016 16.833 -2.00098 28.5
s-6 23 -10 34s-11.167 20.5 -21.5 28.5s-22.833 12 -37.5 12c-22 0 -38.833 -9.5 -50.5 -28.5s-18.167 -38.167 -19.5 -57.5v-28v-563c1.33301 0 1.33301 -3.83301 0 -11.5zM379.002 1305v200h190v-200h-190z" />
    <glyph glyph-name="oslash" unicode="&#xf8;" horiz-adv-x="657" 
d="M63 279l0.00195312 563c0 8 0.5 18.5 1.5 31.5s6.16699 36.5 15.5 70.5s22.166 64 38.499 90s43 49.667 80 71s80.167 32 129.5 32c34 0 69.333 -6.33301 106 -19l21 80h75l-30 -121c27.333 -24.667 48.833 -56 64.5 -94s24.167 -70 25.5 -96l4 -39v-576
c0 -8 -0.333008 -18.5 -1 -31.5s-5.83398 -35.833 -15.501 -68.5s-23 -62 -40 -88s-43.667 -49.167 -80 -69.5s-79.5 -30.5 -129.5 -30.5c-38 0 -72.333 5.33301 -103 16l-20 -78h-80l31 121c-27.333 26 -48.833 58.5 -64.5 97.5s-24.167 71.5 -25.5 97.5zM258.002 436
l125 486.001c-12 23.333 -30.333 34.666 -55 33.999c-22 0 -38.833 -9.5 -50.5 -28.5s-18.167 -38.167 -19.5 -57.5v-28v-406zM274.002 197.001c10.667 -20.667 28.668 -30.999 54.001 -30.999c23.333 0 40.666 9.16699 51.999 27.5s17 37.166 17 56.499l2 29v403z" />
    <glyph glyph-name="ugrave" unicode="&#xf9;" horiz-adv-x="690" 
d="M78 203v916.999h207v-887c0 -32.667 16.333 -49 49 -49c12 0 23.5 4.5 34.5 13.5s19.167 18.167 24.5 27.5l8 13v882h207v-1120h-207v94l-31 -32c-20 -20 -42.333 -38 -67 -54s-48 -24 -70 -24c-50.667 0 -89.167 22.833 -115.5 68.5s-39.5 95.834 -39.5 150.501z
M113 1489h215l106 -184h-160z" />
    <glyph glyph-name="uacute" unicode="&#xfa;" horiz-adv-x="690" 
d="M78 203v916.999h207v-887c0 -32.667 16.333 -49 49 -49c12 0 23.5 4.5 34.5 13.5s19.167 18.167 24.5 27.5l8 13v882h207v-1120h-207v94l-31 -32c-20 -20 -42.333 -38 -67 -54s-48 -24 -70 -24c-50.667 0 -89.167 22.833 -115.5 68.5s-39.5 95.834 -39.5 150.501z
M274 1305l107 184h215l-162 -184h-160z" />
    <glyph glyph-name="ucircumflex" unicode="&#xfb;" horiz-adv-x="690" 
d="M78 203v916.999h207v-887c0 -32.667 16.333 -49 49 -49c12 0 23.5 4.5 34.5 13.5s19.167 18.167 24.5 27.5l8 13v882h207v-1120h-207v94l-31 -32c-20 -20 -42.333 -38 -67 -54s-48 -24 -70 -24c-50.667 0 -89.167 22.833 -115.5 68.5s-39.5 95.834 -39.5 150.501z
M94 1305l142 184h219l141 -184h-188l-64 71l-61 -71h-189z" />
    <glyph glyph-name="udieresis" unicode="&#xfc;" horiz-adv-x="690" 
d="M78 203v916.999h207v-887c0 -32.667 16.333 -49 49 -49c12 0 23.5 4.5 34.5 13.5s19.167 18.167 24.5 27.5l8 13v882h207v-1120h-207v94l-31 -32c-20 -20 -42.333 -38 -67 -54s-48 -24 -70 -24c-50.667 0 -89.167 22.833 -115.5 68.5s-39.5 95.834 -39.5 150.501z
M106 1305v200h191v-200h-191zM395 1305v200h191v-200h-191z" />
    <glyph glyph-name="yacute" unicode="&#xfd;" horiz-adv-x="634" 
d="M25 1120l189.998 -1153c0 -45.333 -12 -86.333 -36 -123s-56.333 -57 -97 -61l-49 4v-184c46.667 -2.66699 77.334 -4 92.001 -4c76.667 0 140.834 31.667 192.501 95s83.167 137.333 94.5 222l198 1204h-202l-82 -688l-4 -57h-9l-4 57l-82 688h-202zM230.998 1305
l107 184h215l-162 -184h-160z" />
    <glyph glyph-name="thorn" unicode="&#xfe;" horiz-adv-x="686" 
d="M82 -385l-0.00195312 1890h207v-458c58.667 60 113.334 90 164.001 90c52 0 91.5 -23 118.5 -69s40.5 -96 40.5 -150v-715c0 -54.667 -13.667 -104.834 -41 -150.501s-66.666 -68.5 -117.999 -68.5c-22 0 -46.667 7.5 -74 22.5s-49.333 29.833 -66 44.5l-24 23v-459h-207
zM288.998 246.001c0 -16.667 6.5 -32.167 19.5 -46.5s27 -21.5 42 -21.5s28 6.5 39 19.5s16.5 29.167 16.5 48.5v628c0 19.333 -5.5 35.5 -16.5 48.5s-24 19.5 -39 19.5s-29 -6.5 -42 -19.5s-19.5 -29.167 -19.5 -48.5v-628z" />
    <glyph glyph-name="ydieresis" unicode="&#xff;" horiz-adv-x="634" 
d="M25 1120h202l82 -688l4 -57h9l4 57l82 688h202l-198 -1204c-10.667 -84.667 -42 -158.667 -94 -222s-116.333 -95 -193 -95l-92 4v184c10.667 -2.66699 27 -4 49 -4c40.667 4 73 24.5 97 61.5s36 77.833 36 122.5zM78 1305v200h190v-200h-190zM367 1305v200h190v-200
h-190z" />
    <glyph glyph-name="Gbreve" unicode="&#x11e;" horiz-adv-x="737" 
d="M588 1762l26 -23l-13 -34l-54 -33l-68 -34l-87 -15h-76l-89 15l-74 34l-51 30l-21 37l34 25l50 -2l50 -29l76 -35l63 -11l59 11l79 35l34 29h62zM68 274l0.000976562 35v887c0 8 0.666992 19.5 2 34.5s7 41.333 17 79s24.333 70.834 43 99.501s48.167 54.667 88.5 78
s88.333 35 144 35s103.667 -11.333 144 -34s69.833 -49.667 88.5 -81s33 -63 43 -95s15.667 -59.667 17 -83l2 -33v-231h-221v231c0 8 -0.333008 18.167 -1 30.5s-7.16699 28.833 -19.5 49.5s-30 31 -53 31s-40.667 -9.33301 -53 -28s-18.5 -36.667 -18.5 -54l-2 -29v-905
c0 -8 0.333008 -18.167 1 -30.5s7.16699 -28.833 19.5 -49.5s30 -31 53 -31s40.667 9.33301 53 28s18.5 36.667 18.5 54l2 29v272h-88v187h309v-750h-131l-26 72c-46.667 -58.667 -104 -88 -172 -88c-52 0 -96.833 11.167 -134.5 33.5s-64.334 49.166 -80.001 80.499
s-27.167 63 -34.5 95s-11 59 -11 81z" />
    <glyph glyph-name="gbreve" unicode="&#x11f;" horiz-adv-x="700" 
d="M563 1436l23 -34l-12 -49l-52 -45l-71 -56l-64 -19h-68l-79 22l-67 49l-45 45l-19 53l30 37l45 -3l45 -42l68 -52l56 -15l53 15l71 52l30 42h56zM12 -184c0 62.667 53.9971 119.333 161.997 170c-83.333 23.333 -125 73 -125 149c0 30 13.333 61 40 93
s56.334 57 89.001 75c-34 23.333 -60.833 55.166 -80.5 95.499s-31.167 75.5 -34.5 105.5l-4 43v305c0 8 0.666992 18.167 2 30.5s6.83301 34.833 16.5 67.5s22.667 61.667 39 87s42.666 48.333 78.999 69s78.5 31 126.5 31c90 0 158.667 -34.333 206 -103
c68 68 124.667 102.333 170 103v-185c-48 0 -88 -8 -120 -24l10 -70v-317c0 -6.66699 -0.666992 -16.5 -2 -29.5s-7.16602 -35.333 -17.499 -67s-23.666 -59.667 -39.999 -84s-42.666 -46.5 -78.999 -66.5s-78.833 -30 -127.5 -30c-18 0 -31 0.666992 -39 2
c-19.333 -16.667 -29 -33.667 -29 -51c0 -10.667 3.66699 -20.167 11 -28.5s21.333 -15.166 42 -20.499s35.834 -8.66602 45.501 -9.99902s29.5 -5 59.5 -11c38 -5.33301 71.667 -12.333 101 -21s59 -22.334 89 -41.001s53.5 -44.667 70.5 -78s25.5 -73.333 25.5 -120
c0 -101.333 -34.333 -174.333 -103 -219s-152.334 -67 -251.001 -67c-109.333 2.66699 -192 20 -248 52s-84 87 -84 165zM212.997 -150.001c0 -52 45.001 -77.667 135.001 -77c39.333 0 75.5 6.5 108.5 19.5s49.5 31.5 49.5 55.5c0 22 -6.83301 38.833 -20.5 50.5
s-43.834 21.5 -90.501 29.5l-106 21c-50.667 -29.333 -76 -62.333 -76 -99zM261.998 508.999c0 -11.333 5.16602 -26.333 15.499 -45s25.166 -28 44.499 -28c20.667 0 36.334 8.5 47.001 25.5s16 33.833 16 50.5v25v307c-0.666992 0.666992 -1 1.83398 -1 3.50098
s0.333008 4.16699 1 7.5s1 5.33301 1 6c0 5.33301 -1 11.666 -3 18.999c-2.66699 10 -5.66699 20.167 -9 30.5s-9.5 18.833 -18.5 25.5s-20.167 10 -33.5 10c-19.333 0 -34.166 -8.5 -44.499 -25.5s-15.5 -34.5 -15.5 -52.5v-24v-307v-28z" />
    <glyph glyph-name="Idotaccent" unicode="&#x130;" horiz-adv-x="385" 
d="M82 1695v207h207v-207h-207zM82 0v1505h221v-1505h-221z" />
    <glyph glyph-name="dotlessi" unicode="&#x131;" horiz-adv-x="370" 
d="M82 0v1120h207v-1120h-207z" />
    <glyph glyph-name="OE" unicode="&#x152;" horiz-adv-x="983" 
d="M68 309l0.000976562 886.999c0 8 0.666992 19.167 2 33.5s7 39.333 17 75s24.333 66.834 43 93.501s48.167 51.167 88.5 73.5s88.166 33.5 143.499 33.5h580v-227h-285v-395h205v-242h-205v-414h285v-227h-580c-56 0 -104 10.5 -144 31.5s-69.333 46.667 -88 77
s-33 60.833 -43 91.5s-15.667 57 -17 79zM289.001 308.999c0 -8 0.333008 -18.167 1 -30.5s7.16699 -28.666 19.5 -48.999s30 -30.5 53 -30.5s40.667 9.16699 53 27.5s18.5 37.166 18.5 56.499l2 26v901c-4 64 -28.667 96.333 -74 97c-23.333 0 -41 -9.33301 -53 -28
s-18 -36.667 -18 -54l-2 -29v-887z" />
    <glyph glyph-name="oe" unicode="&#x153;" horiz-adv-x="995" 
d="M63 279l0.000976562 563c0 8 0.5 18.5 1.5 31.5s6.16699 36.5 15.5 70.5s22.166 64 38.499 90s43 49.667 80 71s80.167 32 129.5 32c70.667 0 128 -20 172 -60c44 39.333 100.667 59.333 170 60c50.667 0 94 -10 130 -30s62.5 -44.333 79.5 -73s30.333 -57 40 -85
s14.5 -52 14.5 -72l2 -29v-326h-342v-250c0 -10.667 1.33301 -22.834 4 -36.501s10.167 -28.667 22.5 -45s28.833 -24.5 49.5 -24.5c23.333 0 41 9.16699 53 27.5s18 37.166 18 56.499l2 29v122h193v-129c0 -8 -0.666992 -18.5 -2 -31.5s-6.83301 -35.833 -16.5 -68.5
s-22.667 -62 -39 -88s-43 -49.167 -80 -69.5s-80.5 -30.5 -130.5 -30.5c-70.667 0 -127.334 19 -170.001 57c-45.333 -38 -102 -57 -170 -57c-49.333 0 -92.5 10.167 -129.5 30.5s-63.667 44.833 -80 73.5s-29.166 57.334 -38.499 86.001s-14 53.334 -14 74.001z
M258.001 267.5c-1.33301 -7.66699 -0.665039 -17.332 2.00195 -28.999s6 -23 10 -34s11.167 -20.167 21.5 -27.5s22.5 -11 36.5 -11c23.333 0 40.666 9.16699 51.999 27.5s17 37.166 17 56.499l2 29v563c-1.33301 0 -1.33301 3.66699 0 11s0.666016 16.833 -2.00098 28.5
s-6 23 -10 34s-11.167 20.5 -21.5 28.5s-22.833 12 -37.5 12c-22 0 -38.833 -9.5 -50.5 -28.5s-18.167 -38.167 -19.5 -57.5v-28v-563c1.33301 0 1.33301 -3.83301 0 -11.5zM594.002 684.002h149v158c0 8 -0.333008 18.5 -1 31.5s-7 30 -19 51s-29.667 31.5 -53 31.5
c-28.667 0 -48.5 -12.5 -59.5 -37.5s-16.5 -48.5 -16.5 -70.5v-164z" />
    <glyph glyph-name="Scedilla" unicode="&#x15e;" horiz-adv-x="702" 
d="M37 422l217.003 19.998c0 -170.667 34.667 -256 104 -256c60 0 90.333 55.333 91 166c0 19.333 -2.83301 39.166 -8.5 59.499s-16.334 44.833 -32.001 73.5s-27.834 50 -36.501 64l-54 79c-26.667 38.667 -42.667 62.667 -48 72c-44 64 -78.167 116.667 -102.5 158
s-47 91 -68 149s-31.5 112 -31.5 162c0 92.667 23.833 174.334 71.5 245.001s119.834 106.667 216.501 108h10c58.667 0 108.667 -11.667 150 -35c44 -24.667 75.833 -58.5 95.5 -101.5s33.667 -85.333 42 -127s12.5 -87.167 12.5 -136.5l-217 -20
c0 144.667 -29.667 217 -89 217c-50.667 -1.33301 -75.667 -51.333 -75 -150c0 -12 1.33301 -25.167 4 -39.5s6 -27.333 10 -39s10.167 -26 18.5 -43s15.166 -30.333 20.499 -40s14.666 -24.167 27.999 -43.5l28 -43l33 -48l32 -46l104 -159
c20.667 -32.667 43 -79.167 67 -139.5s36 -115.833 36 -166.5c0 -252.667 -102.667 -378.667 -308 -378c-54.667 0 -102 8.5 -142 25.5s-71.333 38.167 -94 63.5s-40.5 58.333 -53.5 99s-21.5 79.834 -25.5 117.501s-6 81.834 -6 132.501zM267.003 -17.002h172v-141
l-45 -133h-104l40 133h-63v141z" />
    <glyph glyph-name="scedilla" unicode="&#x15f;" horiz-adv-x="630" 
d="M37 326l191.995 -0.00585938c0 -113.333 32.333 -170 97 -170c48 0 71.667 45 71 135c0 49.333 -43 115.333 -129 198c-45.333 44 -78.166 77 -98.499 99s-41.666 55.833 -63.999 101.5s-33.5 93.834 -33.5 144.501c0 36.667 4 71.334 12 104.001s21 64.334 39 95.001
s44 55.334 78 74.001s75 28.667 123 30h11c52 0 95.667 -8.66699 131 -26c37.333 -18.667 64.166 -45 80.499 -79s27.333 -65.667 33 -95s8.5 -63.666 8.5 -102.999h-193c0 87.333 -22.333 131 -67 131c-42 -1.33301 -63.333 -45 -64 -131c0 -22 7.83301 -46.333 23.5 -73
s30.667 -47.5 45 -62.5s36.5 -36.833 66.5 -65.5c126.667 -121.333 190.334 -235.333 191.001 -342c0 -82 -21.5 -153.667 -64.5 -215s-109.5 -92 -199.5 -92c-48 0 -90.167 8.16699 -126.5 24.5s-64.666 36.333 -84.999 60s-36.666 52 -48.999 85
s-20.166 62.833 -23.499 89.5s-5 54.334 -5 83.001zM229.995 -18.0059h172v-141l-45 -133h-104l40 133h-63v141z" />
    <glyph glyph-name="Ydieresis" unicode="&#x178;" horiz-adv-x="704" 
d="M16 1505h217l111 -481l6 -14h4l6 14l111 481h217l-225 -864v-641h-221v641zM113 1638v201h190v-201h-190zM401 1638v201h191v-201h-191z" />
    <glyph glyph-name="circumflex" unicode="&#x2c6;" horiz-adv-x="1021" 
d="M260 1305l141 184h220l141 -184h-189l-63 71l-61 -71h-189z" />
    <glyph glyph-name="tilde" unicode="&#x2dc;" horiz-adv-x="1024" 
d="M313 1305v150.998c32.667 26 69 39 109 39c22 0 52.333 -6.16699 91 -18.5s68.334 -19.166 89.001 -20.499c16.667 0 34.167 2.83301 52.5 8.5s32.166 11.167 41.499 16.5l15 8v-152c-34 -26 -70.333 -39 -109 -39c-20.667 0 -50.334 6.5 -89.001 19.5s-69 19.5 -91 19.5
c-16.667 0 -34.167 -2.66699 -52.5 -8s-32.166 -10.666 -41.499 -15.999z" />
    <glyph glyph-name="uni2000" unicode="&#x2000;" horiz-adv-x="952" 
 />
    <glyph glyph-name="uni2001" unicode="&#x2001;" horiz-adv-x="1904" 
 />
    <glyph glyph-name="uni2002" unicode="&#x2002;" horiz-adv-x="952" 
 />
    <glyph glyph-name="uni2003" unicode="&#x2003;" horiz-adv-x="1904" 
 />
    <glyph glyph-name="uni2004" unicode="&#x2004;" horiz-adv-x="634" 
 />
    <glyph glyph-name="uni2005" unicode="&#x2005;" horiz-adv-x="475" 
 />
    <glyph glyph-name="uni2006" unicode="&#x2006;" horiz-adv-x="317" 
 />
    <glyph glyph-name="uni2007" unicode="&#x2007;" horiz-adv-x="317" 
 />
    <glyph glyph-name="uni2008" unicode="&#x2008;" horiz-adv-x="237" 
 />
    <glyph glyph-name="uni2009" unicode="&#x2009;" horiz-adv-x="380" 
 />
    <glyph glyph-name="uni200A" unicode="&#x200a;" horiz-adv-x="104" 
 />
    <glyph glyph-name="uni2010" unicode="&#x2010;" horiz-adv-x="444" 
d="M74 455v194h297v-194h-297z" />
    <glyph glyph-name="uni2011" unicode="&#x2011;" horiz-adv-x="444" 
d="M74 455v194h297v-194h-297z" />
    <glyph glyph-name="figuredash" unicode="&#x2012;" horiz-adv-x="444" 
d="M74 455v194h297v-194h-297z" />
    <glyph glyph-name="endash" unicode="&#x2013;" horiz-adv-x="806" 
d="M74 649v195h659v-195h-659z" />
    <glyph glyph-name="emdash" unicode="&#x2014;" horiz-adv-x="972" 
d="M74 649v195h825v-195h-825z" />
    <glyph glyph-name="quoteleft" unicode="&#x2018;" horiz-adv-x="309" 
d="M49 1012v227l113 266h102l-71 -266h71v-227h-215z" />
    <glyph glyph-name="quoteright" unicode="&#x2019;" horiz-adv-x="309" 
d="M45 1012l72 266h-72v227h215v-227l-113 -266h-102z" />
    <glyph glyph-name="quotesinglbase" unicode="&#x201a;" horiz-adv-x="309" 
d="M45 0v227h215v-227l-113 -266h-102l72 266h-72z" />
    <glyph glyph-name="quotedblleft" unicode="&#x201c;" horiz-adv-x="624" 
d="M53 1012v227l113 266h102l-71 -266h71v-227h-215zM356 1012v227l113 266h102l-71 -266h71v-227h-215z" />
    <glyph glyph-name="quotedblright" unicode="&#x201d;" horiz-adv-x="624" 
d="M53 1012l72 266h-72v227h215v-227l-112 -266h-103zM356 1012l72 266h-72v227h215v-227l-112 -266h-103z" />
    <glyph glyph-name="quotedblbase" unicode="&#x201e;" horiz-adv-x="624" 
d="M53 0v227h215v-227l-112 -266h-103l72 266h-72zM356 0v227h215v-227l-112 -266h-103l72 266h-72z" />
    <glyph glyph-name="bullet" unicode="&#x2022;" horiz-adv-x="663" 
d="M82 817c0 68 24.1689 126.333 72.502 175s108.166 73 179.499 73c68 0 126.333 -24.167 175 -72.5s73 -106.833 73 -175.5c0 -70.667 -24.333 -130.334 -73 -179.001s-107 -73 -175 -73c-70.667 0 -130.334 24.333 -179.001 73s-73 108.334 -73 179.001z" />
    <glyph glyph-name="ellipsis" unicode="&#x2026;" horiz-adv-x="964" 
d="M53 0v227h215v-227h-215zM375 0v227h215v-227h-215zM696 0v227h215v-227h-215z" />
    <glyph glyph-name="uni202F" unicode="&#x202f;" horiz-adv-x="380" 
 />
    <glyph glyph-name="guilsinglleft" unicode="&#x2039;" horiz-adv-x="1058" 
d="M74 649v160l911 475v-199l-698 -356l698 -356v-199z" />
    <glyph glyph-name="guilsinglright" unicode="&#x203a;" horiz-adv-x="1058" 
d="M74 174v199l698 356l-698 356v199l911 -475v-160z" />
    <glyph glyph-name="uni205F" unicode="&#x205f;" horiz-adv-x="475" 
 />
    <glyph glyph-name="Euro" unicode="&#x20ac;" horiz-adv-x="813" 
d="M53 547v137.002h107v137h-107v137h107v238c0 8 0.666992 19.5 2 34.5s7.16602 41.333 17.499 79s24.666 70.834 42.999 99.501s47.666 54.667 87.999 78s88.5 35 144.5 35s104 -11.333 144 -34s69.333 -49.667 88 -81s33 -63 43 -95s16 -59.667 18 -83l2 -33v-84h-207v84
c-1.33301 0 -1.33301 3.83301 0 11.5s0.333008 16.834 -3 27.501s-7.5 21.5 -12.5 32.5s-13.333 20.333 -25 28s-26.167 11.5 -43.5 11.5c-23.333 0 -41.5 -9.33301 -54.5 -28s-20.167 -36.667 -21.5 -54l-2 -29v-238h233v-137h-233v-137h233v-137h-233v-238
c0 -8 0.666992 -18.167 2 -30.5s8.5 -28.666 21.5 -48.999s31.167 -30.5 54.5 -30.5c27.333 0 47.833 9.16699 61.5 27.5s20.5 37.166 20.5 56.499l2 26v84h207v-84c0 -8 -0.833008 -19.5 -2.5 -34.5s-7.5 -41.333 -17.5 -79s-24.333 -70.834 -43 -99.501
s-48 -54.5 -88 -77.5s-88 -34.5 -144 -34.5s-104.167 11.167 -144.5 33.5s-69.666 49.166 -87.999 80.499s-32.666 63.166 -42.999 95.499s-16.166 59.166 -17.499 80.499l-2 35v238h-107z" />
    <glyph glyph-name="trademark" unicode="&#x2122;" horiz-adv-x="937" 
d="M74 1401v104h321v-104h-104v-580h-113v580h-104zM440 821v684h138l67 -319h6l68 319h137v-684h-104v449l-78 -449h-51l-80 449v-449h-103z" />
    <glyph glyph-name="uniE000" unicode="&#xe000;" horiz-adv-x="1120" 
d="M0 1120h1120v-1120h-1120v1120z" />
    <glyph glyph-name="uniFB01" unicode="&#xfb01;" horiz-adv-x="772" 
d="M20 934l-0.000976562 185.999h105v31c0 30 0.333008 53.167 1 69.5s3 42 7 77s11.5 63 22.5 84s25.333 43.5 43 67.5s41.834 41.833 72.501 53.5s66.667 17.5 108 17.5c22 0 45.167 -1.5 69.5 -4.5s43.5 -5.83301 57.5 -8.5l20 -2v-184c-27.333 8 -64 12 -110 12
c-20.667 0 -37.5 -6.16699 -50.5 -18.5s-21.5 -31.666 -25.5 -57.999s-6.33301 -44.333 -7 -54s-1 -27.5 -1 -53.5v-29h358v-1120h-207v934h-151v-934h-207v934h-105z" />
    <glyph glyph-name="uniFB02" unicode="&#xfb02;" horiz-adv-x="772" 
d="M20 934l-0.000976562 185.999h105v31c0 30 0.333008 53.167 1 69.5s3 42 7 77s11.5 63 22.5 84s25.333 43.5 43 67.5s41.834 41.833 72.501 53.5s66.667 17.5 108 17.5c22 0 45.167 -1.5 69.5 -4.5s43.5 -5.83301 57.5 -8.5l20 -2h164v-1505h-207v1329
c-24.667 2.66699 -47.167 4 -67.5 4s-37 -6.16699 -50 -18.5s-21.5 -31.666 -25.5 -57.999s-6.33301 -44.333 -7 -54s-1 -27.5 -1 -53.5v-29h104v-186h-104v-934h-207v934h-105z" />
    <glyph glyph-name="uniFB03" unicode="&#xfb03;" horiz-adv-x="1320" 
d="M1032 0v1120h207v-1120h-207zM1032 1298v207h207v-207h-207zM495 934l0.00292969 186.001h105v17v14c0 34 0.666992 62 2 84s6.16602 52.667 14.499 92s20 70.666 35 93.999s38.5 44.5 70.5 63.5s70.333 28.5 115 28.5c19.333 0 37.166 -1 53.499 -3
s28.166 -4.33301 35.499 -7l8 -4v-178c-18 5.33301 -38.667 8 -62 8c-44 0 -65.667 -60 -65 -180v-16v-13h104v-186h-104v-934h-207v934h-105zM20.0029 934.001l0.00292969 186.001h105v17v14c0 34 0.666992 62 2 84s6.16602 52.667 14.499 92s20 70.666 35 93.999
s38.5 44.5 70.5 63.5s70.333 28.5 115 28.5c19.333 0 37.166 -1 53.499 -3s28.166 -4.33301 35.499 -7l8 -4v-178c-18 5.33301 -38.667 8 -62 8c-44 0 -65.667 -60 -65 -180v-16v-13h104v-186h-104v-934h-207v934h-105z" />
    <glyph glyph-name="uniFB04" unicode="&#xfb04;" horiz-adv-x="1320" 
d="M1032 0v1505h207v-1505h-207zM495 934l0.00292969 186.001h105v17v14c0 34 0.666992 62 2 84s6.16602 52.667 14.499 92s20 70.666 35 93.999s38.5 44.5 70.5 63.5s70.333 28.5 115 28.5c19.333 0 37.166 -1 53.499 -3s28.166 -4.33301 35.499 -7l8 -4v-178
c-18 5.33301 -38.667 8 -62 8c-44 0 -65.667 -60 -65 -180v-16v-13h104v-186h-104v-934h-207v934h-105zM20.0029 934.001l0.00292969 186.001h105v17v14c0 34 0.666992 62 2 84s6.16602 52.667 14.499 92s20 70.666 35 93.999s38.5 44.5 70.5 63.5s70.333 28.5 115 28.5
c19.333 0 37.166 -1 53.499 -3s28.166 -4.33301 35.499 -7l8 -4v-178c-18 5.33301 -38.667 8 -62 8c-44 0 -65.667 -60 -65 -180v-16v-13h104v-186h-104v-934h-207v934h-105z" />
    <glyph glyph-name="NULL" horiz-adv-x="0" 
 />
    <glyph glyph-name="nonmarkingreturn" horiz-adv-x="682" 
 />
  </font>
</defs>
</svg>
